<svg xmlns="http://www.w3.org/2000/svg" width="108.882" height="100.396" viewBox="0 0 108.882 100.396">
  <g id="Grupo_60491" data-name="Grupo 60491" transform="translate(-1130.457 -5597.768)" opacity="0.39">
    <g id="Grupo_60486" data-name="Grupo 60486">
      <path id="Trazado_109818" data-name="Trazado 109818" d="M1236.427,5603.279H1133.368a2.76,2.76,0,1,1,0-5.511h103.059a2.76,2.76,0,1,1,0,5.511Z" fill="#afa054"/>
    </g>
    <g id="Grupo_60487" data-name="Grupo 60487">
      <path id="Trazado_109819" data-name="Trazado 109819" d="M1236.427,5627H1133.368a2.76,2.76,0,1,1,0-5.511h103.059a2.76,2.76,0,1,1,0,5.511Z" fill="#afa054"/>
    </g>
    <g id="Grupo_60488" data-name="Grupo 60488">
      <path id="Trazado_109820" data-name="Trazado 109820" d="M1236.427,5650.728H1133.368a2.76,2.76,0,1,1,0-5.511h103.059a2.76,2.76,0,1,1,0,5.511Z" fill="#afa054"/>
    </g>
    <g id="Grupo_60489" data-name="Grupo 60489">
      <path id="Trazado_109821" data-name="Trazado 109821" d="M1236.427,5674.453H1133.368a2.76,2.76,0,1,1,0-5.511h103.059a2.76,2.76,0,1,1,0,5.511Z" fill="#afa054"/>
    </g>
    <g id="Grupo_60490" data-name="Grupo 60490">
      <path id="Trazado_109822" data-name="Trazado 109822" d="M1236.427,5698.164H1133.368a2.76,2.76,0,1,1,0-5.511h103.059a2.76,2.76,0,1,1,0,5.511Z" fill="#afa054"/>
    </g>
  </g>
</svg>
