<svg xmlns="http://www.w3.org/2000/svg" width="153.94" height="153.94" viewBox="0 0 153.94 153.94">
  <g id="Grupo_56697" data-name="Grupo 56697" transform="translate(-96.989 -1246.807)">
    <circle id="Elipse_4066" data-name="Elipse 4066" cx="54.426" cy="54.426" r="54.426" transform="translate(96.989 1323.777) rotate(-45)" fill="#fff"/>
    <g id="Grupo_56693" data-name="Grupo 56693">
      <g id="Grupo_56692" data-name="Grupo 56692">
        <path id="Trazado_104949" data-name="Trazado 104949" d="M227.84,1366.06H120.154a3.215,3.215,0,0,1-3.214-3.215v-5.051a3.214,3.214,0,0,1,3.214-3.215H227.84a3.214,3.214,0,0,1,3.215,3.215v5.051A3.215,3.215,0,0,1,227.84,1366.06Z" fill="#bb83ff"/>
        <path id="Trazado_104950" data-name="Trazado 104950" d="M227.84,1354.579h-6.888a3.215,3.215,0,0,1,3.215,3.215v5.051a3.216,3.216,0,0,1-3.215,3.215h6.888a3.215,3.215,0,0,0,3.215-3.215v-5.051A3.214,3.214,0,0,0,227.84,1354.579Z" fill="#a271dc"/>
        <path id="Trazado_104951" data-name="Trazado 104951" d="M218.771,1354.576l-89.545,0a4.591,4.591,0,0,1-4.592-4.592l0-59.7a4.591,4.591,0,0,1,4.592-4.592l89.545,0a4.592,4.592,0,0,1,4.592,4.592l0,59.7A4.592,4.592,0,0,1,218.771,1354.576Z" fill="#a271dc"/>
        <path id="Trazado_104952" data-name="Trazado 104952" d="M223.363,1349.985a4.592,4.592,0,0,1-4.592,4.592h-6.888a4.592,4.592,0,0,0,4.592-4.592l0-59.7a4.591,4.591,0,0,0-4.58-4.592h6.876a4.591,4.591,0,0,1,4.593,4.592Z" fill="#855db5"/>
        <path id="Trazado_104953" data-name="Trazado 104953" d="M216.475,1347.689h-6.889l-78.064,0,0-55.1,78.064,0h6.888Z" fill="#bbf7ff"/>
        <path id="Trazado_104954" data-name="Trazado 104954" d="M209.585,1292.585h6.889v55.1h-6.889Z" fill="#8bf0ff"/>
        <path id="Trazado_104955" data-name="Trazado 104955" d="M174,1323.123H141.531a1.286,1.286,0,0,1-1.286-1.286v-39.966a1.286,1.286,0,0,1,1.286-1.286H174Z" fill="#feeb8a"/>
        <path id="Trazado_104956" data-name="Trazado 104956" d="M206.463,1323.123H174v-42.538h32.466a1.287,1.287,0,0,1,1.287,1.286v39.966A1.287,1.287,0,0,1,206.463,1323.123Z" fill="#f9e478"/>
        <path id="Trazado_104957" data-name="Trazado 104957" d="M174,1323.123l-27.028-9.347a1.286,1.286,0,0,1-.866-1.215v-42.338a1.287,1.287,0,0,1,1.707-1.216L174,1278.063Z" fill="#f3f3f3"/>
        <path id="Trazado_104958" data-name="Trazado 104958" d="M174,1323.123l27.029-9.347a1.286,1.286,0,0,0,.866-1.215v-42.338a1.287,1.287,0,0,0-1.707-1.216L174,1278.063Z" fill="#e4e4e4"/>
        <path id="Trazado_104959" data-name="Trazado 104959" d="M181.292,1360.09H166.7a2.579,2.579,0,0,1-2.579-2.579v-2.932H183.87v2.932A2.579,2.579,0,0,1,181.292,1360.09Z" fill="#88c3e0"/>
        <g id="Grupo_56691" data-name="Grupo 56691">
          <path id="Trazado_104960" data-name="Trazado 104960" d="M227.84,1352.857h-3.449a6.278,6.278,0,0,0,.694-2.872l0-59.7a6.321,6.321,0,0,0-6.315-6.314h-9.3v-2.1a3.012,3.012,0,0,0-3.008-3.008h-2.85v-8.642a3.009,3.009,0,0,0-3.992-2.843l-5.425,1.876a1.722,1.722,0,0,0,1.126,3.255l4.846-1.676v41.416l-24.45,8.456v-41.417l12.66-4.378a1.722,1.722,0,1,0-1.125-3.254L174,1276.24l-25.624-8.862a3.009,3.009,0,0,0-3.992,2.843v8.641h-2.85a3.012,3.012,0,0,0-3.008,3.008v2.106h-9.3a6.321,6.321,0,0,0-6.314,6.314v6.124a1.722,1.722,0,1,0,3.444,0v-6.124a2.873,2.873,0,0,1,2.87-2.87h9.3v3.444h-7a1.722,1.722,0,0,0-1.722,1.722l0,55.1a1.722,1.722,0,0,0,1.722,1.722l84.953,0a1.723,1.723,0,0,0,1.722-1.723l0-55.1a1.722,1.722,0,0,0-1.722-1.722h-7v-3.444h9.3a2.873,2.873,0,0,1,2.871,2.87l0,59.7a2.874,2.874,0,0,1-2.87,2.87l-89.545,0a2.873,2.873,0,0,1-2.87-2.87l0-46.2a1.722,1.722,0,0,0-3.444,0l0,46.2a6.272,6.272,0,0,0,.693,2.87h-3.451a4.942,4.942,0,0,0-4.936,4.937v5.051a4.942,4.942,0,0,0,4.936,4.937h68.465a1.722,1.722,0,1,0,0-3.444H120.154a1.494,1.494,0,0,1-1.492-1.493v-5.051a1.494,1.494,0,0,1,1.492-1.493H162.4v1.21a4.306,4.306,0,0,0,4.3,4.3h14.589a4.305,4.305,0,0,0,4.3-4.3v-1.21H227.84a1.5,1.5,0,0,1,1.493,1.493v5.051a1.5,1.5,0,0,1-1.493,1.493h-31.7a1.722,1.722,0,1,0,0,3.444h31.7a4.943,4.943,0,0,0,4.937-4.937v-5.051a4.943,4.943,0,0,0-4.937-4.937ZM201.589,1315.4a3.011,3.011,0,0,0,2.025-2.843v-30.253h2.414V1321.4H184.246Zm-53.764-44.57,24.45,8.455V1320.7l-24.45-8.456Zm-5.858,11.474h2.414v30.253a3.011,3.011,0,0,0,2.025,2.843l17.343,6H141.967Zm72.783,12,0,51.66-81.509,0,0-51.661h5.281v27.529a3.011,3.011,0,0,0,3.008,3.007h64.933a3.011,3.011,0,0,0,3.008-3.007v-27.531Zm-32.6,63.2a.858.858,0,0,1-.856.857H166.7a.859.859,0,0,1-.857-.857v-1.21h16.3Z" fill="#3c3575"/>
          <path id="Trazado_104961" data-name="Trazado 104961" d="M196.616,1329.756H151.378a1.722,1.722,0,1,0,0,3.444h45.238a1.722,1.722,0,1,0,0-3.444Z" fill="#3c3575"/>
          <path id="Trazado_104962" data-name="Trazado 104962" d="M180.716,1337.061H151.378a1.722,1.722,0,1,0,0,3.444h29.338a1.722,1.722,0,1,0,0-3.444Z" fill="#3c3575"/>
        </g>
      </g>
    </g>
    <g id="Grupo_56694" data-name="Grupo 56694">
      <path id="Trazado_104963" data-name="Trazado 104963" d="M245.992,1342a.694.694,0,0,1-.168-.021.709.709,0,0,1-.522-.855,73.784,73.784,0,0,0,1.489-8.095.709.709,0,0,1,1.407.178,75.408,75.408,0,0,1-1.518,8.251A.71.71,0,0,1,245.992,1342Zm2.089-16.463a.71.71,0,0,1-.709-.719q.008-.549.008-1.1c0-2.374-.117-4.772-.348-7.128a.709.709,0,0,1,1.411-.138c.235,2.4.355,4.846.355,7.266q0,.557-.009,1.116A.709.709,0,0,1,248.081,1325.535Zm-1.62-16.508a.709.709,0,0,1-.692-.561,73.2,73.2,0,0,0-2.172-7.935.709.709,0,1,1,1.344-.45,74.53,74.53,0,0,1,2.214,8.089.709.709,0,0,1-.545.841A.762.762,0,0,1,246.461,1309.027Zm-5.273-15.728a.707.707,0,0,1-.642-.409,74.08,74.08,0,0,0-3.888-7.254.709.709,0,0,1,1.211-.738,75.485,75.485,0,0,1,3.961,7.393.708.708,0,0,1-.642,1.008Zm-8.639-14.165a.709.709,0,0,1-.561-.275,74.286,74.286,0,0,0-5.393-6.218.709.709,0,0,1,1.018-.987,75.585,75.585,0,0,1,5.5,6.337.71.71,0,0,1-.56,1.143Zm-11.554-11.911a.7.7,0,0,1-.45-.162,73.807,73.807,0,0,0-6.636-4.871.709.709,0,0,1,.774-1.188,75.241,75.241,0,0,1,6.763,4.965.709.709,0,0,1-.451,1.256Z" fill="#3c3575"/>
    </g>
    <g id="Grupo_56695" data-name="Grupo 56695">
      <path id="Trazado_104964" data-name="Trazado 104964" d="M105.2,1352.158a.708.708,0,0,1-.657-.443,74.705,74.705,0,0,1-2.7-7.942.708.708,0,1,1,1.365-.38,73.358,73.358,0,0,0,2.652,7.791.708.708,0,0,1-.392.922A.691.691,0,0,1,105.2,1352.158Zm-4.452-15.984a.709.709,0,0,1-.7-.6,74.539,74.539,0,0,1-.854-8.345.709.709,0,1,1,1.416-.065,73.085,73.085,0,0,0,.837,8.186.708.708,0,0,1-.587.812A.729.729,0,0,1,100.751,1336.174Zm-.757-16.575-.048,0a.709.709,0,0,1-.66-.754c.061-.917.14-1.849.236-2.77.192-1.856.456-3.726.785-5.558a.709.709,0,0,1,1.4.25c-.323,1.8-.582,3.632-.77,5.454-.094.9-.172,1.818-.231,2.718A.71.71,0,0,1,99.994,1319.6Zm2.935-16.335a.708.708,0,0,1-.68-.911,75.063,75.063,0,0,1,2.845-7.893.709.709,0,0,1,1.3.555,73.4,73.4,0,0,0-2.79,7.743A.709.709,0,0,1,102.929,1303.264Zm6.494-15.269a.7.7,0,0,1-.349-.092.71.71,0,0,1-.268-.966,75,75,0,0,1,4.534-7.057.709.709,0,0,1,1.148.832,73.352,73.352,0,0,0-4.448,6.923A.706.706,0,0,1,109.423,1287.995Zm9.737-13.432a.71.71,0,0,1-.523-1.187c1.686-1.848,3.487-3.634,5.355-5.309q.317-.283.636-.563a.709.709,0,1,1,.934,1.066q-.313.275-.624.553c-1.832,1.643-3.6,3.4-5.254,5.208A.7.7,0,0,1,119.16,1274.563Z" fill="#3c3575"/>
    </g>
    <g id="Grupo_56696" data-name="Grupo 56696">
      <path id="Trazado_104965" data-name="Trazado 104965" d="M172.162,1398.593c-1.98-.05-3.961-.178-5.907-.379-.822-.085-1.654-.185-2.473-.3a.709.709,0,0,1,.192-1.405c.8.11,1.62.208,2.427.292,1.91.2,3.854.323,5.778.371a.709.709,0,0,1-.017,1.418Zm8.3-.257a.709.709,0,0,1-.061-1.415,73.3,73.3,0,0,0,8.145-1.176.709.709,0,0,1,.281,1.39,74.679,74.679,0,0,1-8.3,1.2C180.508,1398.335,180.487,1398.336,180.466,1398.336Zm-24.746-2a.7.7,0,0,1-.175-.022,74.574,74.574,0,0,1-8-2.515.709.709,0,0,1,.5-1.326,73.278,73.278,0,0,0,7.852,2.467.709.709,0,0,1-.173,1.4Zm41.009-1.3a.709.709,0,0,1-.218-1.383,73.275,73.275,0,0,0,7.677-2.966.709.709,0,0,1,.584,1.292,75.091,75.091,0,0,1-7.825,3.023A.725.725,0,0,1,196.729,1395.044Zm-56.536-4.566a.708.708,0,0,1-.323-.078,74.943,74.943,0,0,1-7.237-4.245.709.709,0,0,1,.785-1.181,73.61,73.61,0,0,0,7.1,4.165.709.709,0,0,1-.324,1.339Zm71.654-2.274a.709.709,0,0,1-.363-1.318,73.625,73.625,0,0,0,6.825-4.6.709.709,0,0,1,.857,1.129,75.078,75.078,0,0,1-6.957,4.69A.7.7,0,0,1,211.847,1388.2Z" fill="#3c3575"/>
    </g>
  </g>
</svg>
