<svg xmlns="http://www.w3.org/2000/svg" width="144.865" height="160.098" viewBox="0 0 144.865 160.098">
  <g id="Grupo_61515" data-name="Grupo 61515" transform="translate(-1137.145 -3438.576)">
    <g id="Grupo_61514" data-name="Grupo 61514">
      <g id="Grupo_61513" data-name="Grupo 61513">
        <g id="Grupo_60452" data-name="Grupo 60452">
          <g id="Grupo_60447" data-name="Grupo 60447">
            <path id="Trazado_109765" data-name="Trazado 109765" d="M1279.1,3521.855h-103.06c-1.607,0-2.911-1-2.911-2.231s1.3-2.231,2.911-2.231H1279.1c1.608,0,2.911,1,2.911,2.231S1280.707,3521.855,1279.1,3521.855Z" fill="#dcbfff"/>
          </g>
          <g id="Grupo_60448" data-name="Grupo 60448">
            <path id="Trazado_109766" data-name="Trazado 109766" d="M1279.1,3541.062h-103.06c-1.607,0-2.911-1-2.911-2.231s1.3-2.23,2.911-2.23H1279.1c1.608,0,2.911,1,2.911,2.23S1280.707,3541.062,1279.1,3541.062Z" fill="#dcbfff"/>
          </g>
          <g id="Grupo_60449" data-name="Grupo 60449">
            <path id="Trazado_109767" data-name="Trazado 109767" d="M1279.1,3560.27h-103.06c-1.607,0-2.911-1-2.911-2.231s1.3-2.231,2.911-2.231H1279.1c1.608,0,2.911,1,2.911,2.231S1280.707,3560.27,1279.1,3560.27Z" fill="#dcbfff"/>
          </g>
          <g id="Grupo_60450" data-name="Grupo 60450">
            <path id="Trazado_109768" data-name="Trazado 109768" d="M1279.1,3579.477h-103.06c-1.607,0-2.911-1-2.911-2.231s1.3-2.23,2.911-2.23H1279.1c1.608,0,2.911,1,2.911,2.23S1280.707,3579.477,1279.1,3579.477Z" fill="#dcbfff"/>
          </g>
          <g id="Grupo_60451" data-name="Grupo 60451">
            <path id="Trazado_109769" data-name="Trazado 109769" d="M1279.1,3598.674h-103.06c-1.607,0-2.911-1-2.911-2.231s1.3-2.231,2.911-2.231H1279.1c1.608,0,2.911,1,2.911,2.231S1280.707,3598.674,1279.1,3598.674Z" fill="#dcbfff"/>
          </g>
        </g>
        <g id="Grupo_60453" data-name="Grupo 60453">
          <path id="Trazado_109770" data-name="Trazado 109770" d="M1159.788,3483.863a22.644,22.644,0,1,1,22.644-22.644A22.669,22.669,0,0,1,1159.788,3483.863Zm0-39.287a16.644,16.644,0,1,0,16.644,16.643A16.662,16.662,0,0,0,1159.788,3444.576Z" fill="#dcbfff"/>
        </g>
      </g>
    </g>
  </g>
</svg>
