<svg xmlns="http://www.w3.org/2000/svg" width="108.882" height="100.397" viewBox="0 0 108.882 100.397">
  <g id="Grupo_60485" data-name="Grupo 60485" transform="translate(-58.548 -4754.56)" opacity="0.39">
    <g id="Grupo_60480" data-name="Grupo 60480">
      <path id="Trazado_109813" data-name="Trazado 109813" d="M164.519,4760.071H61.459a2.76,2.76,0,1,1,0-5.511h103.06a2.76,2.76,0,1,1,0,5.511Z" fill="#2ab9c4"/>
    </g>
    <g id="Grupo_60481" data-name="Grupo 60481">
      <path id="Trazado_109814" data-name="Trazado 109814" d="M164.519,4783.795H61.459a2.76,2.76,0,1,1,0-5.511h103.06a2.76,2.76,0,1,1,0,5.511Z" fill="#2ab9c4"/>
    </g>
    <g id="Grupo_60482" data-name="Grupo 60482">
      <path id="Trazado_109815" data-name="Trazado 109815" d="M164.519,4807.52H61.459a2.76,2.76,0,1,1,0-5.511h103.06a2.76,2.76,0,1,1,0,5.511Z" fill="#2ab9c4"/>
    </g>
    <g id="Grupo_60483" data-name="Grupo 60483">
      <path id="Trazado_109816" data-name="Trazado 109816" d="M164.519,4831.245H61.459a2.76,2.76,0,1,1,0-5.511h103.06a2.76,2.76,0,1,1,0,5.511Z" fill="#2ab9c4"/>
    </g>
    <g id="Grupo_60484" data-name="Grupo 60484">
      <path id="Trazado_109817" data-name="Trazado 109817" d="M164.519,4854.957H61.459a2.76,2.76,0,1,1,0-5.511h103.06a2.76,2.76,0,1,1,0,5.511Z" fill="#2ab9c4"/>
    </g>
  </g>
</svg>
