<svg xmlns="http://www.w3.org/2000/svg" width="178.297" height="178.296" viewBox="0 0 178.297 178.296">
  <g id="Grupo_61518" data-name="Grupo 61518" transform="translate(-359.957 -4179.273)">
    <circle id="Elipse_4202" data-name="Elipse 4202" cx="86.148" cy="86.148" r="86.148" transform="translate(362.957 4182.273)" fill="#fff" stroke="#2ab9c4" stroke-miterlimit="10" stroke-width="6"/>
    <g id="Grupo_60473" data-name="Grupo 60473">
      <rect id="Rectángulo_6567" data-name="Rectángulo 6567" width="30.009" height="51.445" transform="translate(399.804 4259.207)" fill="#0277bd"/>
      <path id="Trazado_109798" data-name="Trazado 109798" d="M429.813,4312.795H399.8a2.143,2.143,0,0,1-2.144-2.143v-51.445a2.144,2.144,0,0,1,2.144-2.144h30.009a2.144,2.144,0,0,1,2.144,2.144v51.445A2.143,2.143,0,0,1,429.813,4312.795Zm-27.866-4.287H427.67V4261.35H401.947Z" fill="#01579b"/>
      <path id="Trazado_109799" data-name="Trazado 109799" d="M429.813,4302.078a22.222,22.222,0,0,0,12.862,4.287H482.33a41,41,0,0,1,11.756-21.16,7.449,7.449,0,0,1,4.3-12.854,7.45,7.45,0,0,0-4.048-5.86,8.574,8.574,0,0,0-4.5-15.858H459.823a68.434,68.434,0,0,0,4.287-19.292c0-8.038-6.967-15-10.718-15a11.211,11.211,0,0,0-6.43,2.144v15L434.1,4261.35l-4.287,2.144Z" fill="#eceff1"/>
      <path id="Trazado_109800" data-name="Trazado 109800" d="M482.33,4308.508H442.675A24.056,24.056,0,0,1,428.3,4303.6a2.141,2.141,0,0,1-.626-1.517v-38.584a2.143,2.143,0,0,1,1.183-1.916l3.614-1.809,12.351-26.752V4218.48a2.142,2.142,0,0,1,.8-1.676,13.446,13.446,0,0,1,7.772-2.611c4.96,0,12.861,7.849,12.861,17.148a61.744,61.744,0,0,1-3.43,17.148h27.009a10.719,10.719,0,0,1,10.718,10.718,10.584,10.584,0,0,1-2.787,7.185,25.687,25.687,0,0,0-1.5,19.613,9.609,9.609,0,0,1-5.294,8.575,9.493,9.493,0,0,1,1.007,4.287A9.657,9.657,0,0,1,482.33,4308.508Zm-50.373-7.412a22.071,22.071,0,0,0,10.718,3.125H482.33a5.363,5.363,0,0,0,5.359-5.359,5.29,5.29,0,0,0-1.694-3.879,2.144,2.144,0,0,1,1.226-3.692,5.312,5.312,0,0,0,3.061-9.17,2.143,2.143,0,0,1,1.226-3.691,5.312,5.312,0,0,0,1.814-10.036,2.144,2.144,0,0,1-.142-3.73,6.431,6.431,0,0,0-3.348-11.888H459.823a2.141,2.141,0,0,1-2-2.906,66.64,66.64,0,0,0,4.145-18.529c0-7.022-6.224-12.861-8.574-12.861a9.015,9.015,0,0,0-4.287,1.162v13.842a2.155,2.155,0,0,1-.2.9l-12.861,27.866a2.148,2.148,0,0,1-.986,1.016l-3.1,1.552V4301.1Z" fill="#01579b"/>
    </g>
  </g>
</svg>
