<svg xmlns="http://www.w3.org/2000/svg" width="178.297" height="178.296" viewBox="0 0 178.297 178.296">
  <g id="Grupo_61522" data-name="Grupo 61522" transform="translate(-564.318 -4634.602)">
    <circle id="Elipse_4208" data-name="Elipse 4208" cx="86.148" cy="86.148" r="86.148" transform="translate(567.318 4637.602)" fill="#fff" stroke="#2ab9c4" stroke-miterlimit="10" stroke-width="6"/>
    <g id="_039---Positive-Interactions" data-name="039---Positive-Interactions">
      <path id="Shape" d="M682.372,4723.765a29.915,29.915,0,0,1-.6,5.916,29.32,29.32,0,0,1-3.874,9.52,27.983,27.983,0,0,1-4.336,5.3v.019a28.877,28.877,0,0,1-14.184,7.555,29.9,29.9,0,0,1-5.916.6,28.916,28.916,0,0,1-28.908-28.907,29.921,29.921,0,0,1,.6-5.917,29.085,29.085,0,0,1,22.394-22.393,29.849,29.849,0,0,1,5.917-.6,28.917,28.917,0,0,1,28.907,28.908Z" fill="#95f7ff"/>
      <path id="Shape-2" data-name="Shape" d="M653.465,4694.857c-.964,0-1.927.054-2.868.147a28.923,28.923,0,0,1,25.994,28.761,29.839,29.839,0,0,1-.6,5.916,29.316,29.316,0,0,1-3.873,9.52,28.058,28.058,0,0,1-4.336,5.3v.019a28.886,28.886,0,0,1-14.184,7.555c-1,.193-2.016.349-3.049.451.963.094,1.927.146,2.914.146a29.9,29.9,0,0,0,5.916-.6,28.877,28.877,0,0,0,14.184-7.555v-.019a27.983,27.983,0,0,0,4.336-5.3,29.32,29.32,0,0,0,3.874-9.52,29.915,29.915,0,0,0,.6-5.916A28.917,28.917,0,0,0,653.465,4694.857Z" fill="#31d9e7"/>
      <circle id="Oval" cx="11.563" cy="11.563" r="11.563" transform="translate(611.067 4675.585)" fill="#ffe0b2"/>
      <path id="Shape-3" data-name="Shape" d="M622.63,4675.585a11.517,11.517,0,0,0-2.891.386,11.548,11.548,0,0,1,0,22.367,11.563,11.563,0,1,0,2.891-22.753Z" fill="#dfc49c"/>
      <path id="Shape-4" data-name="Shape" d="M647.683,4692.93a21.731,21.731,0,0,1-.135,2.525,28.731,28.731,0,0,0-13.047,6.513,11.4,11.4,0,0,0-8.017-3.257H622.63a11.563,11.563,0,1,0-11.563-11.563,11.563,11.563,0,0,0,11.563,11.563h-3.854a11.563,11.563,0,0,0-11.563,11.563v2.39a25.053,25.053,0,1,1,40.47-19.734Z" fill="#f17781"/>
      <path id="Shape-5" data-name="Shape" d="M622.63,4667.877a25.092,25.092,0,0,0-2.891.179A25.053,25.053,0,0,1,641.9,4692.93a22.2,22.2,0,0,1-.135,2.525,28.794,28.794,0,0,0-10.307,4.4,11.3,11.3,0,0,1,3.041,2.12,28.743,28.743,0,0,1,13.047-6.514,21.725,21.725,0,0,0,.135-2.526,25.053,25.053,0,0,0-25.053-25.053Z" fill="#ce666e"/>
      <path id="Shape-6" data-name="Shape" d="M634.5,4701.968a28.779,28.779,0,0,0-9.347,15.88,21.8,21.8,0,0,1-2.524.135,24.858,24.858,0,0,1-15.417-5.319v-2.39a11.563,11.563,0,0,1,11.563-11.563h7.708A11.4,11.4,0,0,1,634.5,4701.968Z" fill="#f1b0b5"/>
      <path id="Shape-7" data-name="Shape" d="M626.484,4698.711H620.7a11.405,11.405,0,0,1,8.017,3.257,28.755,28.755,0,0,0-9.322,15.786,25.108,25.108,0,0,0,3.232.229,21.8,21.8,0,0,0,2.524-.135,28.779,28.779,0,0,1,9.347-15.88A11.4,11.4,0,0,0,626.484,4698.711Z" fill="#f17781"/>
      <path id="Shape-8" data-name="Shape" d="M684.3,4760.381h-3.854a11.563,11.563,0,0,0-11.563,11.563v2.39a24.985,24.985,0,0,1-9.636-19.735,22.178,22.178,0,0,1,.135-2.524,28.877,28.877,0,0,0,14.184-7.555,11.387,11.387,0,0,0-.829,4.3,11.563,11.563,0,0,0,11.563,11.563Z" fill="#f9edb0"/>
      <path id="Shape-9" data-name="Shape" d="M695.862,4748.818a11.563,11.563,0,0,1-23.126,0,11.387,11.387,0,0,1,.829-4.3v-.019a27.983,27.983,0,0,0,4.336-5.3,11.392,11.392,0,0,1,6.4-1.946,11.563,11.563,0,0,1,11.563,11.563Z" fill="#ffe0b2"/>
      <path id="Shape-10" data-name="Shape" d="M684.3,4737.255a11.389,11.389,0,0,0-2.861.385,11.548,11.548,0,0,1-.029,22.356,11.563,11.563,0,1,0,2.89-22.741Z" fill="#dfc49c"/>
      <path id="Shape-11" data-name="Shape" d="M709.353,4754.6a24.985,24.985,0,0,1-9.636,19.735v-2.39a11.563,11.563,0,0,0-11.563-11.563H684.3a11.563,11.563,0,0,0,0-23.126,11.392,11.392,0,0,0-6.4,1.946,29.32,29.32,0,0,0,3.874-9.52,22.127,22.127,0,0,1,2.524-.135,25.054,25.054,0,0,1,25.054,25.053Z" fill="#f9edb0"/>
      <path id="Shape-12" data-name="Shape" d="M684.3,4729.546a22.127,22.127,0,0,0-2.524.135.41.41,0,0,1-.025.1,24.994,24.994,0,0,1,17.481,38.868,11.52,11.52,0,0,1,.486,3.3v2.39a25.054,25.054,0,0,0-15.418-44.788Z" fill="#feeb8a"/>
      <path id="Shape-13" data-name="Shape" d="M699.717,4771.944v2.39a25,25,0,0,1-30.835,0v-2.39a11.563,11.563,0,0,1,11.563-11.563h7.709a11.564,11.564,0,0,1,11.563,11.563Z" fill="#dcbfff"/>
      <path id="Shape-14" data-name="Shape" d="M688.154,4760.381h-5.782a11.563,11.563,0,0,1,11.563,11.563v2.39a24.831,24.831,0,0,1-12.526,5.126,24.478,24.478,0,0,0,18.308-5.126v-2.39A11.563,11.563,0,0,0,688.154,4760.381Z" fill="#c595ff"/>
      <g id="Icons">
        <path id="Shape-15" data-name="Shape" d="M661.738,4714.693l-14.055,14.055-2.492-2.491a1.927,1.927,0,0,0-2.725,2.725l3.855,3.854a1.928,1.928,0,0,0,2.725,0l15.417-15.417a1.928,1.928,0,0,0-2.725-2.726Z" fill="#21949d"/>
        <path id="Shape-16" data-name="Shape" d="M684.3,4727.619h-.267A30.642,30.642,0,0,0,649.61,4693.2v-.268a26.98,26.98,0,1,0-43.77,21.083c.031.033.076.05.108.081a26.949,26.949,0,0,0,8.181,4.433c.039.017.079.029.12.044a26.836,26.836,0,0,0,8.381,1.339h.268a30.643,30.643,0,0,0,34.421,34.422v.267a26.933,26.933,0,0,0,10.191,21.084c.031.033.075.05.108.081a26.945,26.945,0,0,0,8.181,4.432c.038.018.079.029.119.045a26.722,26.722,0,0,0,16.767,0c.04-.016.081-.027.119-.045a26.891,26.891,0,0,0,8.179-4.432c.035-.031.079-.048.11-.081a26.955,26.955,0,0,0-16.794-48.064Zm0,30.835a9.588,9.588,0,0,1-9.057-12.889,30.958,30.958,0,0,0,3.981-4.911,9.495,9.495,0,0,1,5.076-1.472,9.636,9.636,0,1,1,0,19.272ZM599.5,4692.93a23.126,23.126,0,0,1,46.252,0c0,.36-.012.694-.025,1.021a30.692,30.692,0,0,0-11.2,5.531,13.16,13.16,0,0,0-3.413-1.859,17.922,17.922,0,0,0-25.683,10.724A23.008,23.008,0,0,1,599.5,4692.93Zm13.49-5.782a9.636,9.636,0,1,1,9.636,9.636A9.635,9.635,0,0,1,612.994,4687.148Zm9.636,28.908a23,23,0,0,1-5.782-.761v-5.021a1.927,1.927,0,0,0-3.854,0v3.662a23.1,23.1,0,0,1-3.854-2.251v-1.411a9.646,9.646,0,0,1,9.636-9.635h7.708a9.488,9.488,0,0,1,5.071,1.462,30.808,30.808,0,0,0-7.9,13.93c-.331.013-.665.025-1.023.025Zm3.854,7.709a26.98,26.98,0,1,1,26.981,26.98A26.981,26.981,0,0,1,626.484,4723.765Zm34.689,30.834c0-.36.012-.693.025-1.021a30.632,30.632,0,0,0,9.636-4.355,11.614,11.614,0,0,1-3.725,20.794A23.011,23.011,0,0,1,661.173,4754.6Zm17.345,22.356v-5.011a1.927,1.927,0,0,0-3.854,0v3.662a23.133,23.133,0,0,1-3.855-2.251v-1.411a9.648,9.648,0,0,1,9.636-9.636h7.709a9.648,9.648,0,0,1,9.636,9.636v1.4a23.184,23.184,0,0,1-3.855,2.261v-3.662a1.927,1.927,0,0,0-3.854,0v5.011a22.332,22.332,0,0,1-11.563,0Zm22.972-6.938a15.964,15.964,0,0,1-4.5-25.7,13.49,13.49,0,0,0-12.694-8.99,13.264,13.264,0,0,0-2.353.229,30.594,30.594,0,0,0,1.332-4.059c.33-.013.663-.025,1.021-.025a23.088,23.088,0,0,1,17.191,38.544Z" fill="#21949d"/>
        <path id="Shape-17" data-name="Shape" d="M664.463,4668.441a1.928,1.928,0,0,0-2.725,0l-5.781,5.782a1.926,1.926,0,0,0,0,2.725l5.781,5.781a1.927,1.927,0,0,0,2.725-2.725l-2.4-2.4a46.306,46.306,0,0,1,43.432,46.158,1.928,1.928,0,0,0,3.855,0,50.17,50.17,0,0,0-47.453-50.036l2.563-2.563A1.928,1.928,0,0,0,664.463,4668.441Z" fill="#21949d"/>
        <path id="Shape-18" data-name="Shape" d="M601.431,4723.765a1.927,1.927,0,1,0-3.854,0,50.166,50.166,0,0,0,47.452,50.035l-2.563,2.563a1.927,1.927,0,1,0,2.725,2.725l5.782-5.781a1.928,1.928,0,0,0,0-2.725l-5.782-5.782a1.927,1.927,0,0,0-2.725,2.725l2.4,2.4a46.305,46.305,0,0,1-43.433-46.157Z" fill="#21949d"/>
      </g>
    </g>
  </g>
</svg>
