<svg xmlns="http://www.w3.org/2000/svg" width="178.297" height="178.297" viewBox="0 0 178.297 178.297">
  <g id="Grupo_60469" data-name="Grupo 60469" transform="translate(-502.53 -3754.838)">
    <circle id="Elipse_4198" data-name="Elipse 4198" cx="86.148" cy="86.148" r="86.148" transform="translate(505.53 3757.838)" fill="#fff" stroke="#c595ff" stroke-miterlimit="10" stroke-width="6"/>
    <g id="Grupo_60468" data-name="Grupo 60468">
      <g id="Grupo_60467" data-name="Grupo 60467">
        <g id="Grupo_60454" data-name="Grupo 60454">
          <path id="Trazado_109771" data-name="Trazado 109771" d="M579.6,3895.61v8.746a2.57,2.57,0,0,1-4.543,1.64L566.4,3895.61H545.668a3.782,3.782,0,0,1-3.77-3.77v-37.7a3.782,3.782,0,0,1,3.77-3.77H565.14l2.376,2.847a2.569,2.569,0,0,0,4.542-1.64v-1.207h15.081v3.77a3.781,3.781,0,0,0,3.77,3.77h15.08v33.931a3.782,3.782,0,0,1-3.77,3.77Z" fill="#e3f4ff"/>
        </g>
        <g id="Grupo_60455" data-name="Grupo 60455">
          <path id="Trazado_109772" data-name="Trazado 109772" d="M590.909,3842.829a3.781,3.781,0,0,0,3.77-3.77V3808.9h52.78a3.782,3.782,0,0,1,3.77,3.77v41.47a3.781,3.781,0,0,1-3.77,3.77H626.724l-8.652,10.387a2.569,2.569,0,0,1-4.543-1.64v-8.747h-22.62a3.781,3.781,0,0,1-3.77-3.77v-11.31Z" fill="#d7f6f7"/>
        </g>
        <g id="Grupo_60456" data-name="Grupo 60456">
          <path id="Trazado_109773" data-name="Trazado 109773" d="M594.679,3808.9v30.16a3.781,3.781,0,0,1-3.77,3.77H572.058v8.747a2.569,2.569,0,0,1-4.542,1.64l-2.376-2.847-6.277-7.54H541.9a3.781,3.781,0,0,1-3.77-3.77v-41.47a3.782,3.782,0,0,1,3.77-3.77h49.011a3.782,3.782,0,0,1,3.77,3.77Z" fill="#dcbfff"/>
        </g>
        <g id="Grupo_60457" data-name="Grupo 60457">
          <path id="Trazado_109774" data-name="Trazado 109774" d="M564.575,3878.7a10.42,10.42,0,0,0-1.093,3.657l-.849,7.6h-13.2v-3.77a9.429,9.429,0,0,1,9.425-9.425,9.29,9.29,0,0,1,5.712,1.941Z" fill="#afa054"/>
        </g>
        <g id="Grupo_60458" data-name="Grupo 60458">
          <path id="Trazado_109775" data-name="Trazado 109775" d="M598.449,3886.185v3.77H585.254l-.849-7.6a10.442,10.442,0,0,0-1.093-3.657,9.29,9.29,0,0,1,5.712-1.941,9.4,9.4,0,0,1,9.425,9.425Z" fill="#2ab9c4"/>
        </g>
        <g id="Grupo_60459" data-name="Grupo 60459">
          <path id="Trazado_109776" data-name="Trazado 109776" d="M584.405,3882.358l.849,7.6H562.633l.849-7.6a10.42,10.42,0,0,1,1.093-3.657,10.554,10.554,0,0,1,16.4-3.035,11.167,11.167,0,0,1,2.337,3.035A10.442,10.442,0,0,1,584.405,3882.358Z" fill="#fcd770"/>
        </g>
        <g id="Grupo_60460" data-name="Grupo 60460">
          <circle id="Elipse_4199" data-name="Elipse 4199" cx="5.655" cy="5.655" r="5.655" transform="translate(583.369 3865.449)" fill="#f0d0b4"/>
        </g>
        <g id="Grupo_60461" data-name="Grupo 60461">
          <circle id="Elipse_4200" data-name="Elipse 4200" cx="5.655" cy="5.655" r="5.655" transform="translate(568.288 3861.679)" fill="#f0d0b4"/>
        </g>
        <g id="Grupo_60462" data-name="Grupo 60462">
          <circle id="Elipse_4201" data-name="Elipse 4201" cx="5.655" cy="5.655" r="5.655" transform="translate(553.208 3865.449)" fill="#f0d0b4"/>
        </g>
        <g id="Grupo_60463" data-name="Grupo 60463">
          <path id="Trazado_109777" data-name="Trazado 109777" d="M583.369,3815.007v.3a10.974,10.974,0,0,1-3.657,8.162L566.4,3835.289l-13.308-11.819a10.975,10.975,0,0,1-3.657-8.162v-.3a10.218,10.218,0,0,1,3-7.22,9.1,9.1,0,0,1,12.855,0l1.112,1.112,1.113-1.112a9.1,9.1,0,0,1,12.855,0A10.218,10.218,0,0,1,583.369,3815.007Z" fill="#ff826e"/>
        </g>
        <g id="Grupo_60464" data-name="Grupo 60464">
          <path id="Trazado_109778" data-name="Trazado 109778" d="M613.529,3846.6v1.885a1.891,1.891,0,0,1-1.885,1.885H604.1a1.89,1.89,0,0,1-1.885-1.885v-18.85a1.891,1.891,0,0,1,1.885-1.885h7.54a1.891,1.891,0,0,1,1.885,1.885Z" fill="#2ab9c4"/>
        </g>
        <g id="Grupo_60465" data-name="Grupo 60465">
          <path id="Trazado_109779" data-name="Trazado 109779" d="M639.919,3833.4v11.31a5.647,5.647,0,0,1-5.655,5.655h-8.275a22.507,22.507,0,0,1-12.46-3.77v-16.965l2.243-2.243a17.5,17.5,0,0,0,4.58-8.105,3.755,3.755,0,0,1,3.657-2.847,5.484,5.484,0,0,1,5.41,6.39l-.81,4.92h5.655a5.647,5.647,0,0,1,5.655,5.655Z" fill="#f0d0b4"/>
        </g>
        <g id="Grupo_60466" data-name="Grupo 60466">
          <path id="Trazado_109780" data-name="Trazado 109780" d="M585.254,3815.306v-.3a12.011,12.011,0,0,0-3.542-8.548,10.986,10.986,0,0,0-15.309-.222,10.985,10.985,0,0,0-15.308.222,12.011,12.011,0,0,0-3.542,8.548v.3a12.812,12.812,0,0,0,4.3,9.567l14.554,12.939,14.553-12.937a12.809,12.809,0,0,0,4.3-9.569ZM566.4,3832.767l-12.049-10.71a9.038,9.038,0,0,1-3.031-6.751v-.3a8.266,8.266,0,0,1,2.438-5.883,7.217,7.217,0,0,1,10.205,0l2.437,2.438,2.438-2.438a7.4,7.4,0,0,1,10.205,0,8.266,8.266,0,0,1,2.438,5.883v.3a9.039,9.039,0,0,1-3.032,6.751Z" fill="#855db5"/>
          <path id="Trazado_109781" data-name="Trazado 109781" d="M647.459,3807.014H596.564v-9.425a5.662,5.662,0,0,0-5.655-5.655H541.9a5.662,5.662,0,0,0-5.655,5.655v41.47a5.662,5.662,0,0,0,5.655,5.655h16.083l3.143,3.77H545.668a5.663,5.663,0,0,0-5.655,5.655v37.7a5.663,5.663,0,0,0,5.655,5.655h19.853l8.091,9.707a4.451,4.451,0,0,0,7.872-2.85V3897.5h20.735a5.663,5.663,0,0,0,5.655-5.655v-32.046h3.77v6.858a4.451,4.451,0,0,0,7.871,2.85l8.091-9.708h19.853a5.662,5.662,0,0,0,5.655-5.655v-41.47a5.662,5.662,0,0,0-5.655-5.655Zm-87.713,33.93H541.9a1.887,1.887,0,0,1-1.885-1.885v-41.47a1.888,1.888,0,0,1,1.885-1.885h49.011a1.888,1.888,0,0,1,1.885,1.885v41.47a1.887,1.887,0,0,1-1.885,1.885H570.173v10.628a.706.706,0,0,1-1.206.436Zm25.508,3.77v3.77H573.943v-3.77Zm18.85,47.126a1.888,1.888,0,0,1-1.885,1.885H577.714v10.627a.706.706,0,0,1-1.207.436l-9.221-11.063H545.668a1.888,1.888,0,0,1-1.885-1.885v-37.7a1.888,1.888,0,0,1,1.885-1.885h18.6l1.808,2.168a4.439,4.439,0,0,0,7.8-2.168h11.38v1.885a5.662,5.662,0,0,0,5.655,5.655h13.2Zm45.24-37.7a1.887,1.887,0,0,1-1.885,1.885H625.842l-9.222,11.064a.707.707,0,0,1-1.206-.436v-10.628H590.909a1.886,1.886,0,0,1-1.885-1.885v-9.425h1.885a5.662,5.662,0,0,0,5.655-5.655v-28.275h50.895a1.888,1.888,0,0,1,1.885,1.885Z" fill="#855db5"/>
          <path id="Trazado_109782" data-name="Trazado 109782" d="M581.484,3871.1a7.473,7.473,0,0,0,.7,3.123,12.413,12.413,0,0,0-2.7-1.823,7.541,7.541,0,1,0-11.083,0,12.412,12.412,0,0,0-2.7,1.823,7.505,7.505,0,0,0-6.843-10.664,7.52,7.52,0,0,0-5.453,12.719,11.315,11.315,0,0,0-5.857,9.9v3.77h3.77v-3.77a7.525,7.525,0,0,1,10.9-6.739,12.54,12.54,0,0,0-.622,2.7l-.844,7.6,3.745.417.845-7.6a8.647,8.647,0,0,1,17.187,0l.845,7.6,3.745-.417-.844-7.6a12.426,12.426,0,0,0-.622-2.7,7.525,7.525,0,0,1,10.9,6.739v3.77h3.77v-3.77a11.315,11.315,0,0,0-5.857-9.9,7.532,7.532,0,1,0-12.993-5.178Zm-22.621,3.77a3.77,3.77,0,1,1,3.77-3.77A3.774,3.774,0,0,1,558.863,3874.875Zm15.08-3.77a3.771,3.771,0,1,1,3.771-3.77A3.774,3.774,0,0,1,573.943,3871.1Zm18.851,0a3.77,3.77,0,1,1-3.77-3.77A3.774,3.774,0,0,1,592.794,3871.1Z" fill="#855db5"/>
          <path id="Trazado_109783" data-name="Trazado 109783" d="M634.264,3825.864h-3.431l.454-2.722a7.376,7.376,0,0,0-7.274-8.588,5.651,5.651,0,0,0-5.487,4.283,15.55,15.55,0,0,1-4.089,7.223l-.556.556a3.746,3.746,0,0,0-2.237-.752H604.1a3.773,3.773,0,0,0-3.77,3.77v18.85a3.773,3.773,0,0,0,3.77,3.77h7.54a3.762,3.762,0,0,0,3.545-2.537,24.23,24.23,0,0,0,10.79,2.537h8.285a7.547,7.547,0,0,0,7.54-7.54V3833.4a7.548,7.548,0,0,0-7.54-7.54Zm-30.16,22.62v-18.85h7.54l0,18.85Zm33.93-3.77a3.773,3.773,0,0,1-3.77,3.77h-8.285a20.479,20.479,0,0,1-10.565-2.936v-15.133l1.689-1.689a19.331,19.331,0,0,0,5.082-8.975,1.881,1.881,0,0,1,1.828-1.427,3.607,3.607,0,0,1,3.555,4.2l-1.184,7.11h7.88a3.774,3.774,0,0,1,3.77,3.77Z" fill="#855db5"/>
        </g>
      </g>
    </g>
  </g>
</svg>
