<svg xmlns="http://www.w3.org/2000/svg" width="196.316" height="196.316" viewBox="0 0 196.316 196.316">
  <g id="Grupo_61519" data-name="Grupo 61519" transform="translate(-254.5 -4221.5)">
    <circle id="Elipse_4197" data-name="Elipse 4197" cx="97.658" cy="97.658" r="97.658" transform="translate(255 4222)" fill="#fff" stroke="#fff" stroke-width="1"/>
    <g id="Grupo_60529" data-name="Grupo 60529" transform="translate(136.595 5.969)">
      <g id="Grupo_60503" data-name="Grupo 60503">
        <path id="Trazado_109861" data-name="Trazado 109861" d="M255.889,4344.426l-8.586-12.879A31.372,31.372,0,1,0,193.53,4353.5v22.858H224.9v-4.481h13.443a8.963,8.963,0,0,0,8.962-8.962v-13.444h6.722a2.24,2.24,0,0,0,2.24-2.24v-1.562a2.233,2.233,0,0,0-.376-1.243Z" fill="#2ab9c4" stroke="#fff" stroke-width="1"/>
      </g>
      <g id="Grupo_60504" data-name="Grupo 60504">
        <path id="Trazado_109862" data-name="Trazado 109862" d="M235.28,4306.9a31.181,31.181,0,0,0-38.7,0h9.465l8.3,8.306a2.241,2.241,0,0,0,3.168,0l8.306-8.306Z" fill="#21949d" stroke="#fff" stroke-width="1"/>
      </g>
      <g id="Grupo_60506" data-name="Grupo 60506">
        <g id="Grupo_60505" data-name="Grupo 60505">
          <path id="Trazado_109863" data-name="Trazado 109863" d="M229.379,4328.186a7.834,7.834,0,0,0-13.444-5.476,7.823,7.823,0,1,0-10.7,11.387h-.051l9.282,8.1h.043a2.13,2.13,0,0,0,2.859,0h.042l9.283-8.1h-.051A7.792,7.792,0,0,0,229.379,4328.186Z" fill="#0082aa" stroke="#fff" stroke-width="1"/>
        </g>
      </g>
      <g id="Grupo_60507" data-name="Grupo 60507">
        <path id="Trazado_109864" data-name="Trazado 109864" d="M224.9,4371.877a13.442,13.442,0,0,1-13.444-13.443v2.24a13.443,13.443,0,0,0,13.444,13.444Z" fill="#21949d" stroke="#fff" stroke-width="1"/>
      </g>
      <g id="Grupo_60509" data-name="Grupo 60509">
        <g id="Grupo_60508" data-name="Grupo 60508">
          <path id="Trazado_109865" data-name="Trazado 109865" d="M229.379,4325.946a7.834,7.834,0,0,0-13.444-5.476,7.822,7.822,0,1,0-10.7,11.386h-.051l9.282,8.1h.043a2.13,2.13,0,0,0,2.859,0h.042l9.283-8.1h-.051A7.79,7.79,0,0,0,229.379,4325.946Z" fill="#c80a50" stroke="#fff" stroke-width="1"/>
        </g>
      </g>
      <g id="Grupo_60510" data-name="Grupo 60510">
        <path id="Trazado_109866" data-name="Trazado 109866" d="M269.709,4250.887H162.162a8.963,8.963,0,0,0-8.962,8.962V4295.7a8.963,8.963,0,0,0,8.962,8.962h43.884l8.3,8.306a2.237,2.237,0,0,0,3.168,0l8.306-8.306h43.884a8.963,8.963,0,0,0,8.962-8.962v-35.849A8.963,8.963,0,0,0,269.709,4250.887Z" fill="#2ab9c4" stroke="#fff" stroke-width="1"/>
      </g>
      <g id="Grupo_60511" data-name="Grupo 60511">
        <circle id="Elipse_4219" data-name="Elipse 4219" cx="17.924" cy="17.924" r="17.924" transform="translate(238.341 4262.09)" fill="#21949d" stroke="#fff" stroke-width="1"/>
      </g>
      <g id="Grupo_60512" data-name="Grupo 60512">
        <circle id="Elipse_4220" data-name="Elipse 4220" cx="17.924" cy="17.924" r="17.924" transform="translate(157.681 4262.09)" fill="#21949d" stroke="#fff" stroke-width="1"/>
      </g>
      <g id="Grupo_60513" data-name="Grupo 60513">
        <circle id="Elipse_4221" data-name="Elipse 4221" cx="17.924" cy="17.924" r="17.924" transform="translate(198.011 4262.09)" fill="#21949d" stroke="#fff" stroke-width="1"/>
      </g>
      <g id="Grupo_60518" data-name="Grupo 60518">
        <g id="Grupo_60514" data-name="Grupo 60514">
          <circle id="Elipse_4222" data-name="Elipse 4222" cx="17.924" cy="17.924" r="17.924" transform="translate(238.341 4259.849)" fill="#31d9e7" stroke="#fff" stroke-width="1"/>
        </g>
        <g id="Grupo_60515" data-name="Grupo 60515">
          <circle id="Elipse_4223" data-name="Elipse 4223" cx="2.241" cy="2.241" r="2.241" transform="translate(247.303 4268.812)" fill="#21949d" stroke="#fff" stroke-width="1"/>
        </g>
        <g id="Grupo_60516" data-name="Grupo 60516">
          <circle id="Elipse_4224" data-name="Elipse 4224" cx="2.241" cy="2.241" r="2.241" transform="translate(260.747 4268.812)" fill="#21949d" stroke="#fff" stroke-width="1"/>
        </g>
        <g id="Grupo_60517" data-name="Grupo 60517">
          <path id="Trazado_109867" data-name="Trazado 109867" d="M265.228,4288.976a2.231,2.231,0,0,1-1.584-.656c-5.1-5.1-9.655-5.1-14.757,0a2.24,2.24,0,0,1-3.168-3.168c6.9-6.9,14.192-6.9,21.093,0a2.24,2.24,0,0,1-1.584,3.824Z" fill="#21949d" stroke="#fff" stroke-width="1"/>
        </g>
      </g>
      <g id="Grupo_60523" data-name="Grupo 60523">
        <g id="Grupo_60519" data-name="Grupo 60519">
          <circle id="Elipse_4225" data-name="Elipse 4225" cx="17.924" cy="17.924" r="17.924" transform="translate(157.681 4259.849)" fill="#fab400" stroke="#fff" stroke-width="1"/>
        </g>
        <g id="Grupo_60520" data-name="Grupo 60520">
          <circle id="Elipse_4226" data-name="Elipse 4226" cx="2.241" cy="2.241" r="2.241" transform="translate(166.643 4268.812)" fill="#21949d" stroke="#fff" stroke-width="1"/>
        </g>
        <g id="Grupo_60521" data-name="Grupo 60521">
          <circle id="Elipse_4227" data-name="Elipse 4227" cx="2.241" cy="2.241" r="2.241" transform="translate(180.086 4268.812)" fill="#21949d" stroke="#fff" stroke-width="1"/>
        </g>
        <g id="Grupo_60522" data-name="Grupo 60522">
          <path id="Trazado_109868" data-name="Trazado 109868" d="M175.6,4289.014c-3.549,0-7.1-1.725-10.546-5.175a2.24,2.24,0,0,1,3.168-3.168c5.1,5.1,9.655,5.1,14.756,0a2.24,2.24,0,0,1,3.169,3.168C182.7,4287.289,179.154,4289.014,175.6,4289.014Z" fill="#21949d" stroke="#fff" stroke-width="1"/>
        </g>
      </g>
      <g id="Grupo_60528" data-name="Grupo 60528">
        <g id="Grupo_60524" data-name="Grupo 60524">
          <circle id="Elipse_4228" data-name="Elipse 4228" cx="17.924" cy="17.924" r="17.924" transform="translate(198.011 4259.849)" fill="#f0f0f0" stroke="#fff" stroke-width="1"/>
        </g>
        <g id="Grupo_60525" data-name="Grupo 60525">
          <circle id="Elipse_4229" data-name="Elipse 4229" cx="2.241" cy="2.241" r="2.241" transform="translate(206.973 4268.812)" fill="#21949d" stroke="#fff" stroke-width="1"/>
        </g>
        <g id="Grupo_60526" data-name="Grupo 60526">
          <circle id="Elipse_4230" data-name="Elipse 4230" cx="2.241" cy="2.241" r="2.241" transform="translate(220.416 4268.812)" fill="#21949d" stroke="#fff" stroke-width="1"/>
        </g>
        <g id="Grupo_60527" data-name="Grupo 60527">
          <path id="Trazado_109869" data-name="Trazado 109869" d="M224.9,4284.5H206.973a2.24,2.24,0,0,1,0-4.481H224.9a2.24,2.24,0,0,1,0,4.481Z" fill="#21949d" stroke="#fff" stroke-width="1"/>
        </g>
      </g>
    </g>
    <g id="Grupo_61514" data-name="Grupo 61514" transform="translate(-450 452)">
      <g id="Trazado_110631" data-name="Trazado 110631" transform="translate(705 3770)" fill="#55c1c9">
        <path d="M 28 55.5 C 24.28730010986328 55.5 20.6859302520752 54.77296829223633 17.2959098815918 53.33911895751953 C 14.02128982543945 51.95407104492188 11.08028030395508 49.97114944458008 8.554559707641602 47.44543838500977 C 6.028850078582764 44.91971969604492 4.045929908752441 41.97871017456055 2.660880088806152 38.7040901184082 C 1.227030038833618 35.31407165527344 0.5 31.71269989013672 0.5 28 C 0.5 24.28730010986328 1.227030038833618 20.6859302520752 2.660880088806152 17.2959098815918 C 4.045929908752441 14.02128982543945 6.028850078582764 11.08028030395508 8.554559707641602 8.554559707641602 C 11.08028030395508 6.028850078582764 14.02128982543945 4.045929908752441 17.2959098815918 2.660880088806152 C 20.6859302520752 1.227030038833618 24.28730010986328 0.5 28 0.5 C 31.71269989013672 0.5 35.31407165527344 1.227030038833618 38.7040901184082 2.660880088806152 C 41.97871017456055 4.045929908752441 44.91971969604492 6.028850078582764 47.44543838500977 8.554559707641602 C 49.97114944458008 11.08028030395508 51.95407104492188 14.02128982543945 53.33911895751953 17.2959098815918 C 54.77296829223633 20.6859302520752 55.5 24.28730010986328 55.5 28 C 55.5 31.71269989013672 54.77296829223633 35.31407165527344 53.33911895751953 38.7040901184082 C 51.95407104492188 41.97871017456055 49.97114944458008 44.91971969604492 47.44543838500977 47.44543838500977 C 44.91971969604492 49.97114944458008 41.97871017456055 51.95407104492188 38.7040901184082 53.33911895751953 C 35.31407165527344 54.77296829223633 31.71269989013672 55.5 28 55.5 Z" stroke="none"/>
        <path d="M 28 1 C 24.35457992553711 1 20.81874084472656 1.713741302490234 17.49068832397461 3.121379852294922 C 14.27566909790039 4.481220245361328 11.38806915283203 6.42816162109375 8.908119201660156 8.908119201660156 C 6.42816162109375 11.38806915283203 4.481220245361328 14.27566909790039 3.121379852294922 17.49068832397461 C 1.713741302490234 20.81874084472656 1 24.35457992553711 1 28 C 1 31.64542007446289 1.713741302490234 35.18125915527344 3.121379852294922 38.50930786132812 C 4.481220245361328 41.72433090209961 6.42816162109375 44.61193084716797 8.908119201660156 47.09188079833984 C 11.38806915283203 49.57183837890625 14.27566909790039 51.51877975463867 17.49068832397461 52.87862014770508 C 20.81874084472656 54.28625869750977 24.35457992553711 55 28 55 C 31.64542007446289 55 35.18125915527344 54.28625869750977 38.50930786132812 52.87862014770508 C 41.72433090209961 51.51877975463867 44.61193084716797 49.57183837890625 47.09188079833984 47.09188079833984 C 49.57183837890625 44.61193084716797 51.51877975463867 41.72433090209961 52.87862014770508 38.50930786132812 C 54.28625869750977 35.18125915527344 55 31.64542007446289 55 28 C 55 24.35457992553711 54.28625869750977 20.81874084472656 52.87862014770508 17.49068832397461 C 51.51877975463867 14.27566909790039 49.57183837890625 11.38806915283203 47.09188079833984 8.908119201660156 C 44.61193084716797 6.42816162109375 41.72433090209961 4.481220245361328 38.50930786132812 3.121379852294922 C 35.18125915527344 1.713741302490234 31.64542007446289 1 28 1 M 28 0 C 43.46397018432617 0 56 12.53602981567383 56 28 C 56 43.46397018432617 43.46397018432617 56 28 56 C 12.53602981567383 56 0 43.46397018432617 0 28 C 0 12.53602981567383 12.53602981567383 0 28 0 Z" stroke="none" fill="#fff"/>
      </g>
      <path id="Trazado_110628" data-name="Trazado 110628" d="M-.135,26V24.652a7.875,7.875,0,0,1,.352-2.484,6.241,6.241,0,0,1,1.107-1.98,17.06,17.06,0,0,1,2.631-2.379A19.509,19.509,0,0,0,5.73,16.291a3.8,3.8,0,0,0,.656-.9,2.067,2.067,0,0,0,.217-.937q0-1.676-2.016-1.676A6.049,6.049,0,0,0,.709,14.27V10.18A11.753,11.753,0,0,1,3.316,9.2a10.988,10.988,0,0,1,2.49-.281,6.239,6.239,0,0,1,4.242,1.313,4.63,4.63,0,0,1,1.5,3.68,5.736,5.736,0,0,1-.785,3.082,9.3,9.3,0,0,1-2.918,2.637,19.306,19.306,0,0,0-2.162,1.541,1.37,1.37,0,0,0-.545.826H11.7V26Z" transform="translate(727 3782)" fill="#fff" stroke="#fff" stroke-width="1"/>
    </g>
  </g>
</svg>
