<svg xmlns="http://www.w3.org/2000/svg" width="170.071" height="170.071" viewBox="0 0 170.071 170.071">
  <g id="Grupo_56705" data-name="Grupo 56705" transform="translate(-335.914 -1244.704)">
    <rect id="Rectángulo_5540" data-name="Rectángulo 5540" width="170.071" height="170.071" transform="translate(335.914 1244.704)" fill="none"/>
    <g id="Grupo_56704" data-name="Grupo 56704">
      <circle id="Elipse_4067" data-name="Elipse 4067" cx="54.426" cy="54.426" r="54.426" transform="translate(343.941 1323.777) rotate(-45)" fill="#d3c4ff"/>
      <g id="Grupo_56699" data-name="Grupo 56699">
        <path id="Trazado_104966" data-name="Trazado 104966" d="M492.944,1342a.712.712,0,0,1-.689-.876,74.26,74.26,0,0,0,1.489-8.095.709.709,0,1,1,1.406.178,75.4,75.4,0,0,1-1.518,8.251A.709.709,0,0,1,492.944,1342Zm2.089-16.463a.711.711,0,0,1-.709-.719c.006-.366.008-.731.008-1.1,0-2.374-.117-4.772-.348-7.128a.709.709,0,0,1,1.411-.138c.236,2.4.355,4.846.355,7.266q0,.557-.008,1.116A.709.709,0,0,1,495.033,1325.535Zm-1.619-16.508a.709.709,0,0,1-.693-.561,73.206,73.206,0,0,0-2.172-7.935.709.709,0,1,1,1.344-.45,74.534,74.534,0,0,1,2.214,8.089.709.709,0,0,1-.545.841A.752.752,0,0,1,493.414,1309.027Zm-5.273-15.728a.708.708,0,0,1-.643-.409,74.281,74.281,0,0,0-3.887-7.254.709.709,0,0,1,1.21-.738,75.277,75.277,0,0,1,3.961,7.393.707.707,0,0,1-.641,1.008Zm-8.64-14.165a.709.709,0,0,1-.561-.275,74.286,74.286,0,0,0-5.393-6.218.709.709,0,0,1,1.018-.987,75.582,75.582,0,0,1,5.5,6.337.709.709,0,0,1-.56,1.143Zm-11.554-11.911a.7.7,0,0,1-.45-.162,73.8,73.8,0,0,0-6.635-4.871.709.709,0,0,1,.773-1.188,75.1,75.1,0,0,1,6.763,4.965.709.709,0,0,1-.451,1.256Z" fill="#3c3575"/>
      </g>
      <g id="Grupo_56700" data-name="Grupo 56700">
        <path id="Trazado_104967" data-name="Trazado 104967" d="M352.155,1352.158a.709.709,0,0,1-.657-.443,74.7,74.7,0,0,1-2.7-7.942.708.708,0,1,1,1.365-.38,73.357,73.357,0,0,0,2.652,7.791.707.707,0,0,1-.391.922A.7.7,0,0,1,352.155,1352.158Zm-4.452-15.984a.709.709,0,0,1-.7-.6,74.542,74.542,0,0,1-.854-8.345.709.709,0,1,1,1.416-.065,72.849,72.849,0,0,0,.838,8.186.709.709,0,0,1-.588.812A.729.729,0,0,1,347.7,1336.174Zm-.757-16.575-.047,0a.708.708,0,0,1-.66-.754c.06-.917.14-1.849.235-2.77.192-1.856.456-3.726.785-5.558a.709.709,0,0,1,1.395.25c-.322,1.8-.582,3.632-.77,5.454-.094.9-.171,1.818-.231,2.718A.71.71,0,0,1,346.946,1319.6Zm2.935-16.335a.716.716,0,0,1-.2-.029.709.709,0,0,1-.476-.882,74.83,74.83,0,0,1,2.844-7.893.709.709,0,0,1,1.3.555,73.63,73.63,0,0,0-2.79,7.743A.708.708,0,0,1,349.881,1303.264Zm6.494-15.269a.7.7,0,0,1-.348-.092.708.708,0,0,1-.268-.966,74.8,74.8,0,0,1,4.534-7.057.709.709,0,1,1,1.147.832,73.551,73.551,0,0,0-4.448,6.923A.706.706,0,0,1,356.375,1287.995Zm9.737-13.432a.71.71,0,0,1-.523-1.187c1.686-1.848,3.487-3.634,5.355-5.309q.316-.283.636-.563a.709.709,0,1,1,.934,1.066q-.314.275-.623.553c-1.833,1.643-3.6,3.4-5.255,5.208A.7.7,0,0,1,366.112,1274.563Z" fill="#3c3575"/>
      </g>
      <g id="Grupo_56701" data-name="Grupo 56701">
        <path id="Trazado_104968" data-name="Trazado 104968" d="M419.114,1398.593c-1.979-.05-3.96-.178-5.906-.379-.823-.085-1.655-.185-2.474-.3a.709.709,0,0,1,.192-1.405c.8.11,1.62.208,2.427.292,1.91.2,3.854.323,5.779.371a.709.709,0,0,1-.018,1.418Zm8.3-.257a.709.709,0,0,1-.06-1.415,73.314,73.314,0,0,0,8.144-1.176.709.709,0,0,1,.281,1.39,74.678,74.678,0,0,1-8.3,1.2C427.46,1398.335,427.439,1398.336,427.418,1398.336Zm-24.746-2a.7.7,0,0,1-.174-.022,74.59,74.59,0,0,1-8-2.515.709.709,0,0,1,.5-1.326,73.22,73.22,0,0,0,7.853,2.467.709.709,0,0,1-.174,1.4Zm41.009-1.3a.709.709,0,0,1-.218-1.383,73.276,73.276,0,0,0,7.677-2.966.709.709,0,0,1,.584,1.292,75.09,75.09,0,0,1-7.825,3.023A.72.72,0,0,1,443.681,1395.044Zm-56.536-4.566a.7.7,0,0,1-.322-.078,75.08,75.08,0,0,1-7.238-4.245.709.709,0,0,1,.785-1.181,73.61,73.61,0,0,0,7.1,4.165.709.709,0,0,1-.324,1.339ZM458.8,1388.2a.709.709,0,0,1-.364-1.318,73.624,73.624,0,0,0,6.825-4.6.709.709,0,0,1,.857,1.129,75.2,75.2,0,0,1-6.956,4.69A.7.7,0,0,1,458.8,1388.2Z" fill="#3c3575"/>
      </g>
      <g id="Grupo_56703" data-name="Grupo 56703">
        <g id="layer1">
          <path id="path15777-4" d="M471.05,1286.446h-100.2v76.015a3.448,3.448,0,0,0,3.455,3.455H467.6a3.448,3.448,0,0,0,3.455-3.455Z" fill="#95f7ff"/>
          <path id="rect2181-6" d="M374.3,1265.715a3.448,3.448,0,0,0-3.455,3.455v17.276h100.2V1269.17a3.448,3.448,0,0,0-3.455-3.455Z" fill="#a271dc"/>
          <g id="Grupo_56702" data-name="Grupo 56702">
            <path id="path2185-5" d="M384.67,1276.08a3.456,3.456,0,0,1-3.456,3.456h0a3.455,3.455,0,0,1-3.455-3.456h0a3.455,3.455,0,0,1,3.455-3.455h0a3.455,3.455,0,0,1,3.456,3.455Z" fill="#31d9e7"/>
            <path id="circle2187-5" d="M398.491,1276.08a3.456,3.456,0,0,1-3.456,3.456h0a3.455,3.455,0,0,1-3.455-3.456h0a3.455,3.455,0,0,1,3.455-3.455h0a3.455,3.455,0,0,1,3.456,3.455Z" fill="#31d9e7"/>
            <path id="circle2189-2" d="M412.311,1276.08a3.455,3.455,0,0,1-3.455,3.456h0a3.455,3.455,0,0,1-3.455-3.456h0a3.455,3.455,0,0,1,3.455-3.455h0a3.455,3.455,0,0,1,3.455,3.455Z" fill="#31d9e7"/>
          </g>
          <path id="rect2197-2" d="M429.588,1272.625H464.14v6.911H429.588Z" fill="#f9e478"/>
          <path id="rect2118" d="M381.214,1296.812h79.471v44.918H381.214Z" fill="#f17781"/>
          <path id="path2126" d="M414.039,1327.909l13.821-8.638-13.821-8.638Z" fill="#dbe9ee"/>
          <path id="path13073-4" d="M374.3,1263.987a5.2,5.2,0,0,0-5.18,5.176v93.288a5.216,5.216,0,0,0,5.18,5.193h93.3a5.213,5.213,0,0,0,5.176-5.193v-93.288a5.2,5.2,0,0,0-5.176-5.176Zm0,3.455h93.3a1.676,1.676,0,0,1,1.721,1.721v15.545H372.58v-15.545a1.676,1.676,0,0,1,1.721-1.721Zm6.91,3.456a5.178,5.178,0,1,0,5.193,5.179A5.2,5.2,0,0,0,381.211,1270.9Zm13.824,0a5.178,5.178,0,1,0,5.18,5.179A5.2,5.2,0,0,0,395.035,1270.9Zm13.825,0a5.178,5.178,0,1,0,5.179,5.179A5.212,5.212,0,0,0,408.86,1270.9Zm20.643,0a1.739,1.739,0,0,0-1.64,1.721v6.913a1.728,1.728,0,0,0,1.721,1.721h34.563a1.727,1.727,0,0,0,1.72-1.721v-6.913a1.727,1.727,0,0,0-1.72-1.721Zm-48.292,3.458a1.728,1.728,0,1,1-1.721,1.721A1.7,1.7,0,0,1,381.211,1274.356Zm13.824,0a1.728,1.728,0,0,1,0,3.456,1.728,1.728,0,1,1,0-3.456Zm13.825,0a1.728,1.728,0,0,1,0,3.456,1.728,1.728,0,1,1,0-3.456Zm22.459,0h31.09v3.456h-31.09Zm-58.739,13.811h96.743v74.284a1.69,1.69,0,0,1-1.721,1.738H374.3a1.69,1.69,0,0,1-1.721-1.738Zm8.638,6.917a1.729,1.729,0,0,0-1.735,1.721v44.932a1.728,1.728,0,0,0,1.735,1.72h79.463a1.728,1.728,0,0,0,1.735-1.72v-44.932a1.729,1.729,0,0,0-1.735-1.721Zm1.721,3.459H458.96V1340H382.939Zm31.029,10.366a1.729,1.729,0,0,0-1.66,1.72v17.283a1.728,1.728,0,0,0,2.642,1.465l13.824-8.645a1.728,1.728,0,0,0,0-2.922l-13.824-8.645a1.733,1.733,0,0,0-.982-.257Zm1.8,4.835,8.851,5.534-8.851,5.523Zm-17.3,33.145a1.729,1.729,0,0,0-1.7,1.744v1.738H381.127a1.728,1.728,0,1,0,0,3.455h15.636v1.721a1.728,1.728,0,1,0,3.455,0v-6.914A1.727,1.727,0,0,0,398.46,1346.889Zm6.938,6.937h55.283a1.728,1.728,0,1,0,0-3.455H405.315a1.728,1.728,0,0,0,.083,3.455Z" fill="#3c3575"/>
        </g>
      </g>
    </g>
  </g>
</svg>
