<svg xmlns="http://www.w3.org/2000/svg" width="178.297" height="178.296" viewBox="0 0 178.297 178.296">
  <g id="Grupo_61519" data-name="Grupo 61519" transform="translate(-805.827 -4179.273)">
    <circle id="Elipse_4203" data-name="Elipse 4203" cx="86.148" cy="86.148" r="86.148" transform="translate(808.827 4182.273)" fill="#fff" stroke="#2ab9c4" stroke-miterlimit="10" stroke-width="6"/>
    <g id="Grupo_60476" data-name="Grupo 60476">
      <g id="Grupo_60475" data-name="Grupo 60475">
        <path id="Trazado_109801" data-name="Trazado 109801" d="M946.428,4253.768l-31.67-28.44a3.736,3.736,0,0,0-6.232,2.78v12.758c-24.052,3.132-45.739,16.787-56.531,40.19a75.752,75.752,0,0,0-3.836,10.819,77.64,77.64,0,0,0-2.535,18.151,6.169,6.169,0,0,0,4.882,6.149l.05.01a6.181,6.181,0,0,0,6.654-2.967c11.056-19.151,24.055-30.723,46.777-31.075,1.476-.026,3.007,0,4.539.075v14.7a3.736,3.736,0,0,0,6.233,2.78l31.669-28.44a11.751,11.751,0,0,0,0-17.486Z" fill="#47ecfa"/>
        <path id="Trazado_109802" data-name="Trazado 109802" d="M857.4,4295.544a75.8,75.8,0,0,1,2.521-11.2,68.842,68.842,0,0,1,34.859-40.446c-18.352,5.8-34.095,18.322-42.781,37.157a75.74,75.74,0,0,0-3.836,10.818,77.648,77.648,0,0,0-2.535,18.152,6.168,6.168,0,0,0,4.882,6.148l.05.011a6.176,6.176,0,0,0,6.453-2.65A77.575,77.575,0,0,1,857.4,4295.544Z" fill="#2ab9c4"/>
        <g id="Grupo_60474" data-name="Grupo 60474">
          <path id="Trazado_109803" data-name="Trazado 109803" d="M932.79,4281.378,913.7,4298.519a2.154,2.154,0,0,1-3.6-1.6v-14.7a1.581,1.581,0,0,0-1.507-1.579c-1.635-.075-3.2-.1-4.637-.076-11.244.174-20.618,3.046-28.656,8.782-7.12,5.08-13.306,12.415-19.465,23.083a4.591,4.591,0,0,1-4.952,2.213l-.05-.011a4.588,4.588,0,0,1-3.635-4.568,76.381,76.381,0,0,1,2.477-17.762,83.121,83.121,0,0,1,3.069-9.028,1.58,1.58,0,0,0-2.914-1.222,86.419,86.419,0,0,0-3.2,9.388l-.006.022a79.692,79.692,0,0,0-2.59,18.531,7.788,7.788,0,0,0,14.534,4.017c5.925-10.263,11.824-17.282,18.563-22.091,7.5-5.35,16.289-8.031,26.873-8.194.929-.016,1.91-.01,2.932.018v13.173a5.316,5.316,0,0,0,8.869,3.955l19.087-17.141a1.58,1.58,0,0,0-2.112-2.351Z" fill="#21949d"/>
          <path id="Trazado_109804" data-name="Trazado 109804" d="M947.484,4252.594l-31.67-28.44a5.316,5.316,0,0,0-8.868,3.955v11.382c-23.612,3.472-43.279,16.68-54.111,36.4a1.58,1.58,0,1,0,2.77,1.522c10.55-19.2,29.913-31.952,53.125-34.974a1.58,1.58,0,0,0,1.376-1.567v-12.758a2.153,2.153,0,0,1,3.6-1.6l31.669,28.44a10.174,10.174,0,0,1,0,15.134l-7.873,7.07a1.58,1.58,0,1,0,2.112,2.351l7.873-7.07a13.331,13.331,0,0,0,0-19.836Z" fill="#21949d"/>
          <path id="Trazado_109805" data-name="Trazado 109805" d="M878.606,4267.649v-3.53a1.58,1.58,0,1,0-3.16,0v3.53a1.58,1.58,0,1,0,3.16,0Z" fill="#21949d"/>
          <path id="Trazado_109806" data-name="Trazado 109806" d="M913.768,4269.229a1.58,1.58,0,0,0,1.58-1.58v-3.53a1.58,1.58,0,1,0-3.16,0v3.53A1.58,1.58,0,0,0,913.768,4269.229Z" fill="#21949d"/>
          <path id="Trazado_109807" data-name="Trazado 109807" d="M901.432,4268.582a1.58,1.58,0,0,0-2.383-2.076,4.84,4.84,0,0,1-7.3,0,1.58,1.58,0,0,0-2.383,2.076A8,8,0,0,0,901.432,4268.582Z" fill="#21949d"/>
        </g>
      </g>
    </g>
  </g>
</svg>
