<svg xmlns="http://www.w3.org/2000/svg" width="195.316" height="195.316" viewBox="0 0 195.316 195.316">
  <g id="Grupo_61517" data-name="Grupo 61517" transform="translate(-118.277 -4215.964)">
    <circle id="Elipse_4197" data-name="Elipse 4197" cx="97.658" cy="97.658" r="97.658" transform="translate(118.277 4215.964)" fill="#fff"/>
    <g id="Grupo_60529" data-name="Grupo 60529">
      <g id="Grupo_60503" data-name="Grupo 60503">
        <path id="Trazado_109861" data-name="Trazado 109861" d="M255.889,4344.426l-8.586-12.879A31.372,31.372,0,1,0,193.53,4353.5v22.858H224.9v-4.481h13.443a8.963,8.963,0,0,0,8.962-8.962v-13.444h6.722a2.24,2.24,0,0,0,2.24-2.24v-1.562a2.233,2.233,0,0,0-.376-1.243Z" fill="#2ab9c4"/>
      </g>
      <g id="Grupo_60504" data-name="Grupo 60504">
        <path id="Trazado_109862" data-name="Trazado 109862" d="M235.28,4306.9a31.181,31.181,0,0,0-38.7,0h9.465l8.3,8.306a2.241,2.241,0,0,0,3.168,0l8.306-8.306Z" fill="#21949d"/>
      </g>
      <g id="Grupo_60506" data-name="Grupo 60506">
        <g id="Grupo_60505" data-name="Grupo 60505">
          <path id="Trazado_109863" data-name="Trazado 109863" d="M229.379,4328.186a7.834,7.834,0,0,0-13.444-5.476,7.823,7.823,0,1,0-10.7,11.387h-.051l9.282,8.1h.043a2.13,2.13,0,0,0,2.859,0h.042l9.283-8.1h-.051A7.792,7.792,0,0,0,229.379,4328.186Z" fill="#0082aa"/>
        </g>
      </g>
      <g id="Grupo_60507" data-name="Grupo 60507">
        <path id="Trazado_109864" data-name="Trazado 109864" d="M224.9,4371.877a13.442,13.442,0,0,1-13.444-13.443v2.24a13.443,13.443,0,0,0,13.444,13.444Z" fill="#21949d"/>
      </g>
      <g id="Grupo_60509" data-name="Grupo 60509">
        <g id="Grupo_60508" data-name="Grupo 60508">
          <path id="Trazado_109865" data-name="Trazado 109865" d="M229.379,4325.946a7.834,7.834,0,0,0-13.444-5.476,7.822,7.822,0,1,0-10.7,11.386h-.051l9.282,8.1h.043a2.13,2.13,0,0,0,2.859,0h.042l9.283-8.1h-.051A7.79,7.79,0,0,0,229.379,4325.946Z" fill="#c80a50"/>
        </g>
      </g>
      <g id="Grupo_60510" data-name="Grupo 60510">
        <path id="Trazado_109866" data-name="Trazado 109866" d="M269.709,4250.887H162.162a8.963,8.963,0,0,0-8.962,8.962V4295.7a8.963,8.963,0,0,0,8.962,8.962h43.884l8.3,8.306a2.237,2.237,0,0,0,3.168,0l8.306-8.306h43.884a8.963,8.963,0,0,0,8.962-8.962v-35.849A8.963,8.963,0,0,0,269.709,4250.887Z" fill="#2ab9c4"/>
      </g>
      <g id="Grupo_60511" data-name="Grupo 60511">
        <circle id="Elipse_4219" data-name="Elipse 4219" cx="17.924" cy="17.924" r="17.924" transform="translate(238.341 4262.09)" fill="#21949d"/>
      </g>
      <g id="Grupo_60512" data-name="Grupo 60512">
        <circle id="Elipse_4220" data-name="Elipse 4220" cx="17.924" cy="17.924" r="17.924" transform="translate(157.681 4262.09)" fill="#21949d"/>
      </g>
      <g id="Grupo_60513" data-name="Grupo 60513">
        <circle id="Elipse_4221" data-name="Elipse 4221" cx="17.924" cy="17.924" r="17.924" transform="translate(198.011 4262.09)" fill="#21949d"/>
      </g>
      <g id="Grupo_60518" data-name="Grupo 60518">
        <g id="Grupo_60514" data-name="Grupo 60514">
          <circle id="Elipse_4222" data-name="Elipse 4222" cx="17.924" cy="17.924" r="17.924" transform="translate(238.341 4259.849)" fill="#31d9e7"/>
        </g>
        <g id="Grupo_60515" data-name="Grupo 60515">
          <circle id="Elipse_4223" data-name="Elipse 4223" cx="2.241" cy="2.241" r="2.241" transform="translate(247.303 4268.812)" fill="#21949d"/>
        </g>
        <g id="Grupo_60516" data-name="Grupo 60516">
          <circle id="Elipse_4224" data-name="Elipse 4224" cx="2.241" cy="2.241" r="2.241" transform="translate(260.747 4268.812)" fill="#21949d"/>
        </g>
        <g id="Grupo_60517" data-name="Grupo 60517">
          <path id="Trazado_109867" data-name="Trazado 109867" d="M265.228,4288.976a2.231,2.231,0,0,1-1.584-.656c-5.1-5.1-9.655-5.1-14.757,0a2.24,2.24,0,0,1-3.168-3.168c6.9-6.9,14.192-6.9,21.093,0a2.24,2.24,0,0,1-1.584,3.824Z" fill="#21949d"/>
        </g>
      </g>
      <g id="Grupo_60523" data-name="Grupo 60523">
        <g id="Grupo_60519" data-name="Grupo 60519">
          <circle id="Elipse_4225" data-name="Elipse 4225" cx="17.924" cy="17.924" r="17.924" transform="translate(157.681 4259.849)" fill="#fab400"/>
        </g>
        <g id="Grupo_60520" data-name="Grupo 60520">
          <circle id="Elipse_4226" data-name="Elipse 4226" cx="2.241" cy="2.241" r="2.241" transform="translate(166.643 4268.812)" fill="#21949d"/>
        </g>
        <g id="Grupo_60521" data-name="Grupo 60521">
          <circle id="Elipse_4227" data-name="Elipse 4227" cx="2.241" cy="2.241" r="2.241" transform="translate(180.086 4268.812)" fill="#21949d"/>
        </g>
        <g id="Grupo_60522" data-name="Grupo 60522">
          <path id="Trazado_109868" data-name="Trazado 109868" d="M175.6,4289.014c-3.549,0-7.1-1.725-10.546-5.175a2.24,2.24,0,0,1,3.168-3.168c5.1,5.1,9.655,5.1,14.756,0a2.24,2.24,0,0,1,3.169,3.168C182.7,4287.289,179.154,4289.014,175.6,4289.014Z" fill="#21949d"/>
        </g>
      </g>
      <g id="Grupo_60528" data-name="Grupo 60528">
        <g id="Grupo_60524" data-name="Grupo 60524">
          <circle id="Elipse_4228" data-name="Elipse 4228" cx="17.924" cy="17.924" r="17.924" transform="translate(198.011 4259.849)" fill="#f0f0f0"/>
        </g>
        <g id="Grupo_60525" data-name="Grupo 60525">
          <circle id="Elipse_4229" data-name="Elipse 4229" cx="2.241" cy="2.241" r="2.241" transform="translate(206.973 4268.812)" fill="#21949d"/>
        </g>
        <g id="Grupo_60526" data-name="Grupo 60526">
          <circle id="Elipse_4230" data-name="Elipse 4230" cx="2.241" cy="2.241" r="2.241" transform="translate(220.416 4268.812)" fill="#21949d"/>
        </g>
        <g id="Grupo_60527" data-name="Grupo 60527">
          <path id="Trazado_109869" data-name="Trazado 109869" d="M224.9,4284.5H206.973a2.24,2.24,0,0,1,0-4.481H224.9a2.24,2.24,0,0,1,0,4.481Z" fill="#21949d"/>
        </g>
      </g>
    </g>
  </g>
</svg>
