<svg xmlns="http://www.w3.org/2000/svg" width="185.137" height="185.137" viewBox="0 0 185.137 185.137">
  <g id="Grupo_60567" data-name="Grupo 60567" transform="translate(-315.475 -5800.838)">
    <rect id="Rectángulo_6584" data-name="Rectángulo 6584" width="185.137" height="185.137" transform="translate(315.475 5800.838)" fill="none"/>
    <path id="Trazado_110027" data-name="Trazado 110027" d="M371.852,5889.326a2.411,2.411,0,1,1,3.41-3.409l2.2,2.2,6.1-6.108a2.414,2.414,0,0,1,3.409,3.419l-7.8,7.8a2.416,2.416,0,0,1-3.41,0Z" fill="#fff"/>
    <path id="Trazado_110028" data-name="Trazado 110028" d="M360.452,5836.752h95.179v122.373H360.452Z" fill="#e9f1f2"/>
    <path id="Trazado_110029" data-name="Trazado 110029" d="M455.631,5895.129v22.593l-12.441,16.5L429.57,5941l2.742-14.957Z" fill="#d0d8da"/>
    <path id="Trazado_110030" data-name="Trazado 110030" d="M389.912,5845.817v29.46a49.856,49.856,0,0,0,49.856,49.856h15.863v33.992H360.452V5836.752h61.187v9.065Z" fill="#d0d8da"/>
    <path id="Trazado_110031" data-name="Trazado 110031" d="M369.517,5836.752h77.049V5950.06H369.517Z" fill="#ecf4ff"/>
    <path id="Trazado_110032" data-name="Trazado 110032" d="M389.912,5845.817v29.46a49.856,49.856,0,0,0,49.856,49.856h6.8v24.927H369.517V5836.752h58.92v4.533a4.532,4.532,0,0,1-4.532,4.532Z" fill="#bed8fb"/>
    <path id="Trazado_110033" data-name="Trazado 110033" d="M446.566,5907.139v22.594l-3.376,4.487L429.57,5941l2.742-14.957Z" fill="#48cae4"/>
    <path id="Trazado_110034" data-name="Trazado 110034" d="M417.106,5829.954a2.265,2.265,0,0,0-2.266-2.266h-13.6a2.265,2.265,0,0,0-2.266,2.266,2.267,2.267,0,0,1-2.266,2.266h-6.8a2.266,2.266,0,0,0-2.266,2.266v6.8a2.266,2.266,0,0,0,2.266,2.266h36.259a2.266,2.266,0,0,0,2.266-2.266v-6.8a2.266,2.266,0,0,0-2.266-2.266h-6.8A2.267,2.267,0,0,1,417.106,5829.954Z" fill="#e9f1f2"/>
    <path id="Trazado_110035" data-name="Trazado 110035" d="M428.437,5839.018v2.267a2.266,2.266,0,0,1-2.266,2.266H389.912a2.266,2.266,0,0,1-2.266-2.266v-6.8a2.266,2.266,0,0,1,2.266-2.266h2.266a6.819,6.819,0,0,0,6.8,6.8Z" fill="#d0d8da"/>
    <path id="Trazado_110036" data-name="Trazado 110036" d="M383.476,5875.277a18.4,18.4,0,0,0-.181-2.515l5.076-2.924-6.8-11.784L376.5,5861a17.7,17.7,0,0,0-4.352-2.515v-5.87h-13.6v5.87A17.718,17.718,0,0,0,354.2,5861l-5.076-2.946-6.8,11.784,5.1,2.924a15.6,15.6,0,0,0,0,5.03l-5.1,2.924,6.8,11.784,5.076-2.946a17.716,17.716,0,0,0,4.351,2.515v5.87h13.6v-5.87a17.7,17.7,0,0,0,4.352-2.515l5.076,2.946,6.8-11.784-5.076-2.924a18.4,18.4,0,0,0,.181-2.515Zm-18.129,6.8a6.8,6.8,0,1,1,6.8-6.8A6.8,6.8,0,0,1,365.347,5882.076Z" fill="#f9edb0"/>
    <path id="Trazado_110037" data-name="Trazado 110037" d="M388.031,5880.512a29.4,29.4,0,0,1-18.514.136,6.875,6.875,0,0,1-4.17,1.428,6.8,6.8,0,0,1-6.8-6.8,4.975,4.975,0,0,1,.091-1,29.145,29.145,0,0,1-8.951-15.909l-.567-.317-6.8,11.784,5.1,2.924a15.6,15.6,0,0,0,0,5.03l-5.1,2.924,6.8,11.784,5.076-2.946a17.716,17.716,0,0,0,4.351,2.515v5.87h13.6v-5.87a17.7,17.7,0,0,0,4.352-2.515l5.076,2.946,6.8-11.784Z" fill="#d4c266"/>
    <path id="Trazado_110038" data-name="Trazado 110038" d="M364.984,5861.68a13.6,13.6,0,1,0,13.6,13.6A13.6,13.6,0,0,0,364.984,5861.68Zm.363,20.4a6.8,6.8,0,1,1,6.8-6.8A6.8,6.8,0,0,1,365.347,5882.076Z" fill="#d4c266"/>
    <path id="Trazado_110039" data-name="Trazado 110039" d="M369.517,5880.648a6.875,6.875,0,0,1-4.17,1.428,6.8,6.8,0,0,1-6.8-6.8,4.975,4.975,0,0,1,.091-1,27.936,27.936,0,0,1-5.144-6.255,13.4,13.4,0,0,0-2.108,7.252,13.6,13.6,0,0,0,25.4,6.731,28.718,28.718,0,0,1-7.274-1.36Z" fill="#f9e478"/>
    <path id="Trazado_110040" data-name="Trazado 110040" d="M430.7,5870.745H398.977v-13.6H430.7Z" fill="#f17781"/>
    <path id="Trazado_110041" data-name="Trazado 110041" d="M437.5,5902.471H423.9v-13.6h13.6Z" fill="#f17781"/>
    <path id="Trazado_110042" data-name="Trazado 110042" d="M414.84,5929.665h-13.6V5920.6h13.6Z" fill="#f17781"/>
    <path id="Trazado_110043" data-name="Trazado 110043" d="M392.178,5929.665h-13.6V5920.6h13.6Z" fill="#f17781"/>
    <path id="Trazado_110044" data-name="Trazado 110044" d="M405.775,5902.471h-13.6v-13.6h13.6Z" fill="#f17781"/>
    <path id="Trazado_110045" data-name="Trazado 110045" d="M405.775,5897.939v4.532h-13.6v-13.6h4.533v2.266a6.8,6.8,0,0,0,6.8,6.8Z" fill="#ce666e"/>
    <path id="Trazado_110046" data-name="Trazado 110046" d="M430.7,5866.212v4.533H398.977v-13.6h4.532v2.266a6.8,6.8,0,0,0,6.8,6.8Z" fill="#ce666e"/>
    <path id="Trazado_110047" data-name="Trazado 110047" d="M437.5,5897.939v4.532H423.9v-13.6h4.532v2.266a6.8,6.8,0,0,0,6.8,6.8Z" fill="#ce666e"/>
    <path id="Trazado_110048" data-name="Trazado 110048" d="M392.178,5925.133v4.532h-13.6V5920.6h4.533a4.546,4.546,0,0,0,4.532,4.533Z" fill="#ce666e"/>
    <path id="Trazado_110049" data-name="Trazado 110049" d="M414.84,5925.133v4.532h-13.6V5920.6h4.532a4.547,4.547,0,0,0,4.533,4.533Z" fill="#ce666e"/>
    <path id="Trazado_110050" data-name="Trazado 110050" d="M457.669,5878.72l11.775,6.8-27.194,47.1-11.775-6.8Z" fill="#feeb8a"/>
    <g id="Grupo_60569" data-name="Grupo 60569">
      <path id="Trazado_110051" data-name="Trazado 110051" d="M442.256,5932.62l-11.777-6.8L429.568,5941Z" fill="#d4c266"/>
      <path id="Trazado_110052" data-name="Trazado 110052" d="M470.361,5870.344a6.8,6.8,0,0,0-9.287,2.486l0,.006-3.4,5.892,11.784,6.8,3.4-5.892a6.8,6.8,0,0,0-2.486-9.288l-.007,0Z" fill="#d4c266"/>
      <path id="Trazado_110053" data-name="Trazado 110053" d="M469.455,5885.52l-27.194,47.091-7.32-4.238q.747-.714,1.5-1.5a64.821,64.821,0,0,0,8.883-11.966l18.764-32.5Z" fill="#d4c266"/>
    </g>
    <path id="Trazado_110054" data-name="Trazado 110054" d="M442.261,5932.611,429.57,5941l.5-8.249a52.043,52.043,0,0,0,4.872-4.374Z" fill="#f9e478"/>
    <path id="Trazado_110055" data-name="Trazado 110055" d="M472.854,5879.628l-3.4,5.892-5.371-3.1,4.238-7.319a6.72,6.72,0,0,0,.589-5.371,6.164,6.164,0,0,1,1.45.612,6.815,6.815,0,0,1,2.493,9.291Z" fill="#f9edb0"/>
    <g id="Outline_copy" data-name="Outline copy">
      <path id="Trazado_110056" data-name="Trazado 110056" d="M356.282,5875.277a9.065,9.065,0,1,0,9.065-9.065A9.065,9.065,0,0,0,356.282,5875.277Zm13.6,0a4.532,4.532,0,1,1-4.532-4.532A4.532,4.532,0,0,1,369.879,5875.277Z" fill="#3c3575"/>
      <path id="Trazado_110057" data-name="Trazado 110057" d="M398.977,5854.882a2.265,2.265,0,0,0-2.266,2.266v13.6a2.266,2.266,0,0,0,2.266,2.266h13.6v4.532h-13.6a2.266,2.266,0,0,0-2.266,2.266v6.8h-4.533a2.266,2.266,0,0,0-2.266,2.266v13.6a2.266,2.266,0,0,0,2.266,2.266h13.6a2.266,2.266,0,0,0,2.267-2.266v-13.6a2.266,2.266,0,0,0-2.267-2.266h-4.532v-4.532h27.194v4.532H423.9a2.265,2.265,0,0,0-2.266,2.266v13.6a2.265,2.265,0,0,0,2.266,2.266h4.532v4.533H385.38a2.265,2.265,0,0,0-2.266,2.266v6.8h-4.533a2.267,2.267,0,0,0-2.266,2.266v9.065a2.266,2.266,0,0,0,2.266,2.266h13.6a2.266,2.266,0,0,0,2.267-2.266V5920.6a2.267,2.267,0,0,0-2.267-2.266h-4.532V5913.8h18.129v4.532h-4.532a2.266,2.266,0,0,0-2.266,2.266v9.065a2.265,2.265,0,0,0,2.266,2.266h13.6a2.266,2.266,0,0,0,0-4.532H403.509v-4.532H414.84a2.267,2.267,0,0,0,0-4.533h-4.532V5913.8H430.7a2.266,2.266,0,0,0,2.266-2.266v-6.8H437.5a2.266,2.266,0,0,0,2.266-2.266v-13.6a2.266,2.266,0,0,0-2.266-2.266h-4.533v-6.8a2.266,2.266,0,0,0-2.266-2.266h-13.6v-4.532h13.6a2.266,2.266,0,0,0,2.266-2.266v-13.6a2.265,2.265,0,0,0-2.266-2.266Zm4.532,45.323h-9.064v-9.065h9.064Zm-13.6,27.194h-9.064v-4.532h9.064Zm45.324-27.194h-9.065v-9.065h9.065Zm-6.8-31.726H401.243v-9.065h27.194Z" fill="#3c3575"/>
      <path id="Trazado_110058" data-name="Trazado 110058" d="M475.716,5873.886a9.064,9.064,0,0,0-16.606-2.187l-1.213,2.1v-37.047a2.266,2.266,0,0,0-2.266-2.266H437.5a2.266,2.266,0,0,0,0,4.532h6.8v58.331l-15.784,27.33a2.276,2.276,0,0,0-.3,1l-.906,15.183a2.267,2.267,0,0,0,3.51,2.026l12.691-8.385a2.266,2.266,0,0,0,.716-.757l.072-.134v14.184H371.783v-47.589h.362a2.267,2.267,0,0,0,2.267-2.266v-4.4a19.829,19.829,0,0,0,2.211-1.283l3.819,2.2a2.265,2.265,0,0,0,3.1-.83l6.8-11.784a2.266,2.266,0,0,0-.829-3.1l-5.09-2.946a2.267,2.267,0,1,0-2.266,3.927l3.127,1.813-4.532,7.85-3.125-1.813a2.269,2.269,0,0,0-2.53.177,15.8,15.8,0,0,1-3.8,2.2,2.266,2.266,0,0,0-1.417,2.1v3.613h-9.064v-3.6a2.266,2.266,0,0,0-1.414-2.1,15.737,15.737,0,0,1-3.8-2.2,2.266,2.266,0,0,0-2.529-.177l-3.122,1.813-4.533-7.85,3.128-1.813a2.266,2.266,0,0,0,1.11-2.266,14.039,14.039,0,0,1,0-4.388,2.266,2.266,0,0,0-1.11-2.266l-3.128-1.813,4.533-7.85,3.122,1.813a2.264,2.264,0,0,0,2.529-.176,15.707,15.707,0,0,1,3.8-2.2,2.267,2.267,0,0,0,1.414-2.1v-3.614h9.064v3.6a2.269,2.269,0,0,0,1.417,2.1,15.762,15.762,0,0,1,3.8,2.2,2.268,2.268,0,0,0,2.53.177l3.125-1.813,5.665,9.813a2.266,2.266,0,0,0,3.925-2.266l-6.8-11.785a2.266,2.266,0,0,0-3.1-.829l-3.819,2.2a19.9,19.9,0,0,0-2.211-1.283v-4.383a2.267,2.267,0,0,0-2.267-2.266h-.362v-11.331h13.6v2.267a4.532,4.532,0,0,0,4.532,4.532h36.259a4.532,4.532,0,0,0,4.532-4.532v-6.8a4.532,4.532,0,0,0-4.532-4.532h-6.8a4.533,4.533,0,0,0-4.532-4.533h-13.6a4.533,4.533,0,0,0-4.532,4.533h-6.8a4.532,4.532,0,0,0-4.532,4.532H360.452a2.266,2.266,0,0,0-2.266,2.266v13.67a2.239,2.239,0,0,0-1.9,2.193v4.4a20.056,20.056,0,0,0-2.211,1.283l-3.817-2.2a2.265,2.265,0,0,0-3.1.83l-6.8,11.784a2.266,2.266,0,0,0,.83,3.086L345,5874c-.034.453-.05.865-.05,1.28s.016.836.05,1.28l-3.811,2.2a2.267,2.267,0,0,0-.83,3.091l6.8,11.784a2.265,2.265,0,0,0,3.1.829l3.817-2.2a19.975,19.975,0,0,0,2.211,1.282v4.4a2.267,2.267,0,0,0,2.266,2.266h8.7v49.855a2.266,2.266,0,0,0,2.266,2.267h77.049a2.267,2.267,0,0,0,2.267-2.267v-24.3l4.532-7.85v38.949H362.718V5907a2.266,2.266,0,1,0-4.532,0v52.122a2.265,2.265,0,0,0,2.266,2.266h95.179a2.265,2.265,0,0,0,2.266-2.266V5910.06l4.116-7.136a2.266,2.266,0,0,0-3.925-2.266l-16.661,28.866-7.85-4.532,24.928-43.177,7.85,4.532-3.735,6.468a2.266,2.266,0,1,0,3.909,2.293l.016-.027,8.267-14.318a9,9,0,0,0,.9-6.877Zm-85.8-39.4h6.8a4.532,4.532,0,0,0,4.532-4.532h13.6a4.532,4.532,0,0,0,4.532,4.532h6.8v6.8H389.912Zm-22.661,4.532v11.331h-4.533v-11.331Zm81.582,0h4.532v42.631l-4.532,7.85Zm-16.317,90.6,5.439,3.132-5.845,3.853Zm38.369-51.12-2.267,3.925-7.85-4.532,2.267-3.925a4.532,4.532,0,1,1,7.946,4.361c-.031.058-.064.115-.1.171Z" fill="#3c3575"/>
    </g>
  </g>
</svg>
