<svg xmlns="http://www.w3.org/2000/svg" width="185.137" height="185.137" viewBox="0 0 185.137 185.137">
  <g id="Grupo_60565" data-name="Grupo 60565" transform="translate(-95.237 -5800.838)">
    <rect id="Rectángulo_6582" data-name="Rectángulo 6582" width="185.137" height="185.137" transform="translate(95.237 5800.838)" fill="none"/>
    <g id="Grupo_60566" data-name="Grupo 60566">
      <g id="Grupo_60565-2" data-name="Grupo 60565">
        <path id="Trazado_109979" data-name="Trazado 109979" d="M116.674,5865H254.223a5.845,5.845,0,0,1,4.722,4.722v74.726a5.852,5.852,0,0,1-4.722,4.722H130.347a13.675,13.675,0,0,1-13.673-13.681V5865Z" fill="#ecf4ff" fill-rule="evenodd"/>
        <path id="Trazado_109980" data-name="Trazado 109980" d="M130.347,5837.649a13.668,13.668,0,0,0-13.673,13.672v84.171a13.669,13.669,0,0,1,13.673-13.673,12.778,12.778,0,0,1,6.784,1.793.95.95,0,0,0,1.46-.892v-80.568a3.327,3.327,0,0,0-1.663-2.824,13.538,13.538,0,0,0-6.581-1.679Z" fill="#cbe2ff" fill-rule="evenodd"/>
        <path id="Trazado_109981" data-name="Trazado 109981" d="M152.1,5875.956h20.432a2.1,2.1,0,0,1,2.085,2.086v20.424a2.089,2.089,0,0,1-2.085,2.085H152.1a2.082,2.082,0,0,1-2.077-2.085v-20.424a2.089,2.089,0,0,1,2.077-2.086Z" fill="#2ab9c4" fill-rule="evenodd"/>
        <path id="Trazado_109982" data-name="Trazado 109982" d="M247.48,5853.334l-9.584-2.913-8.763,2.913v68.387l9.226,2.4,9.121-2.4Z" fill="#fe8f99" fill-rule="evenodd"/>
        <path id="Trazado_109983" data-name="Trazado 109983" d="M239.462,5937.5l3.433-6.751,4.585-9.032H229.133l4.585,9.032,3.432,6.751a1.259,1.259,0,0,0,2.312,0Z" fill="#ffcbbe" fill-rule="evenodd"/>
        <path id="Trazado_109984" data-name="Trazado 109984" d="M247.48,5853.334v-10.078a5.624,5.624,0,0,0-5.608-5.607h-7.124a5.625,5.625,0,0,0-5.615,5.607v10.078Z" fill="#a75259" fill-rule="evenodd"/>
        <path id="Trazado_109985" data-name="Trazado 109985" d="M151.161,5939.784H165.15l2.3-7.6-2.3-5.907H151.161a4.35,4.35,0,0,0-3.514,3.522v6.467a4.351,4.351,0,0,0,3.514,3.513Z" fill="#f9e478" fill-rule="evenodd"/>
        <path id="Trazado_109986" data-name="Trazado 109986" d="M165.15,5939.784h17.511l2.394-8.634-2.394-13.283v-2.442a4.351,4.351,0,0,0-3.522-3.522H168.672a4.354,4.354,0,0,0-3.522,3.522v24.359Z" fill="#c595ff" fill-rule="evenodd"/>
        <path id="Trazado_109987" data-name="Trazado 109987" d="M182.661,5939.784h17.5l1.769-5.818-1.769-7.684v-4.9a4.353,4.353,0,0,0-3.522-3.514H182.661Z" fill="#95f7ff" fill-rule="evenodd"/>
        <path id="Trazado_109988" data-name="Trazado 109988" d="M200.164,5939.784h13.99a4.352,4.352,0,0,0,3.513-3.513V5929.8a4.348,4.348,0,0,0-3.513-3.522h-13.99Z" fill="#2ab9c4" fill-rule="evenodd"/>
        <path id="Trazado_109989" data-name="Trazado 109989" d="M247.277,5942.227H123.4a13.606,13.606,0,0,1-5.55-1.177,13.666,13.666,0,0,0,12.5,8.122H254.222a5.854,5.854,0,0,0,4.723-4.722v-74.726a5.846,5.846,0,0,0-4.723-4.722H252v72.5a5.856,5.856,0,0,1-4.722,4.723Z" fill="#cbe2ff" fill-rule="evenodd"/>
        <path id="Trazado_109990" data-name="Trazado 109990" d="M131.645,5865v56.865a12.389,12.389,0,0,1,5.486,1.745.95.95,0,0,0,1.46-.893v-80.567a3.327,3.327,0,0,0-1.663-2.824,13.538,13.538,0,0,0-6.581-1.679,13.943,13.943,0,0,0-3.465.438,13.885,13.885,0,0,1,3.1,1.241,3.327,3.327,0,0,1,1.663,2.824V5865Z" fill="#bed8fb" fill-rule="evenodd"/>
        <path id="Trazado_109991" data-name="Trazado 109991" d="M240.534,5853.334v68.387h6.946v-68.387Z" fill="#eb616f" fill-rule="evenodd"/>
        <path id="Trazado_109992" data-name="Trazado 109992" d="M240.534,5843.256v10.078h6.946v-10.078a5.624,5.624,0,0,0-5.608-5.607h-6.954A5.626,5.626,0,0,1,240.534,5843.256Z" fill="#f77b87" fill-rule="evenodd"/>
        <path id="Trazado_109993" data-name="Trazado 109993" d="M245.337,5851.191v-7.935a3.49,3.49,0,0,0-3.465-3.465h-7.124a3.476,3.476,0,0,0-3.465,3.465v7.935ZM236.16,5865a2.146,2.146,0,1,1,4.292,0v45.059a2.146,2.146,0,1,1-4.292,0Zm-33.846,72.64h13.211v-9.21H202.314Zm15.353,4.292h-70.02a2.153,2.153,0,0,1-2.15-2.15v-13.5a2.147,2.147,0,0,1,2.15-2.143h15.361V5911.9a2.139,2.139,0,0,1,2.142-2.142h17.511a2.14,2.14,0,0,1,2.142,2.142v3.814h15.361a2.154,2.154,0,0,1,2.15,2.15v6.272h15.353a2.148,2.148,0,0,1,2.15,2.143v13.5a2.153,2.153,0,0,1-2.15,2.15Zm-32.864-4.292h13.211v-17.625H184.8Zm-17.5,0h13.211v-23.588H167.3Zm-17.511,0h13.219v-9.21H149.789Zm-9.056-74.79h86.249v-19.6a7.786,7.786,0,0,1,7.766-7.758h7.124a7.784,7.784,0,0,1,7.758,7.758v19.6h9.315a2.146,2.146,0,0,1,2.142,2.15v84.17a2.139,2.139,0,0,1-2.142,2.142H199.507a2.146,2.146,0,0,1,0-4.292H256.8v-79.878H249.63v15.523a2.147,2.147,0,1,1-4.293,0v-27.183H231.283v64.1h14.054V5892.4a2.147,2.147,0,1,1,4.293,0v29.325a2.273,2.273,0,0,1-.366,1.218l-9.039,17.8a2.184,2.184,0,0,1-.958.957,2.137,2.137,0,0,1-2.872-.949l-9.072-17.852a2.283,2.283,0,0,1-.341-1.176v-54.578H140.733v16.245a2.146,2.146,0,1,1-4.292,0v-41.862a11.387,11.387,0,0,0-6.094-1.736,11.526,11.526,0,0,0-11.531,11.53v73.338c.114-.122.227-.244.341-.357a15.781,15.781,0,0,1,11.19-4.633,16.041,16.041,0,0,1,5.031.819c.357.122.714.26,1.062.406v-27.775a2.147,2.147,0,1,1,4.293,0v31.459a2.147,2.147,0,0,1-3.44,1.7,11.223,11.223,0,0,0-3.279-1.728,11.534,11.534,0,1,0-3.667,22.468h59.438a2.146,2.146,0,0,1,0,4.293H130.347a15.818,15.818,0,0,1-15.823-15.823v-84.171a15.824,15.824,0,0,1,25.252-12.707,2.162,2.162,0,0,1,.957,1.793v22.445Zm103.257,61.02H232.622l5.688,11.19ZM215.3,5875.859a2.146,2.146,0,0,1,0,4.293H186.239a2.146,2.146,0,0,1,0-4.293Zm-12.082,20.5a2.146,2.146,0,1,1,0,4.292H186.24a2.146,2.146,0,0,1,0-4.292Zm12.082-10.249a2.146,2.146,0,0,1,0,4.293H186.239a2.146,2.146,0,0,1,0-4.293Zm-65.272-12.3h24.594a2.148,2.148,0,0,1,2.143,2.15v24.595a2.147,2.147,0,0,1-2.143,2.15H150.025a2.149,2.149,0,0,1-2.151-2.15v-24.595A2.149,2.149,0,0,1,150.025,5873.806Zm22.444,4.3h-20.3v20.3h20.3Z" fill="#3c3575"/>
      </g>
    </g>
    <path id="Trazado_109994" data-name="Trazado 109994" d="M155.591,5889.775a2.146,2.146,0,1,1,3.035-3.035l1.956,1.956,5.428-5.437a2.149,2.149,0,1,1,3.035,3.043l-6.946,6.946a2.15,2.15,0,0,1-3.035,0Z" fill="#fff"/>
  </g>
</svg>
