<svg xmlns="http://www.w3.org/2000/svg" width="178.297" height="178.296" viewBox="0 0 178.297 178.296">
  <g id="Grupo_61527" data-name="Grupo 61527" transform="translate(-520.552 -5278.188)">
    <circle id="Elipse_4216" data-name="Elipse 4216" cx="86.148" cy="86.148" r="86.148" transform="translate(523.552 5281.188)" fill="#fff" stroke="#afa054" stroke-miterlimit="10" stroke-width="6"/>
    <g id="Grupo_60553" data-name="Grupo 60553" transform="translate(160.595 0.969)">
      <path id="Trazado_109937" data-name="Trazado 109937" d="M469.2,5387.109l-6.293-.008-11.257-.014c.011-.181,0-.36,0-.544v-17.736H432.211v17.711c0,.184-.01.363,0,.544l-11.281-.015-6.293-.008a12.309,12.309,0,0,0-12.325,12.294l-.033,25.322h79.18l.033-25.221A12.311,12.311,0,0,0,469.2,5387.109Z" fill="#f17781"/>
      <path id="Trazado_109938" data-name="Trazado 109938" d="M469.2,5387.109l-4.318,0a12.308,12.308,0,0,1,12.293,12.325l-.032,25.226h4.318l.032-25.221A12.31,12.31,0,0,0,469.2,5387.109Z" fill="#ce666e"/>
      <path id="Trazado_109939" data-name="Trazado 109939" d="M414.637,5387.039l4.318.006a12.31,12.31,0,0,0-12.326,12.293l-.031,25.317h-4.319l.033-25.322a12.309,12.309,0,0,1,12.325-12.294Z" fill="#ce666e"/>
      <path id="Trazado_109940" data-name="Trazado 109940" d="M481.459,5425.6h-79.18a.941.941,0,0,1-.94-.942l.032-25.322a13.265,13.265,0,0,1,13.25-13.232h.017l16.633.021v-17.314a.94.94,0,0,1,.94-.94h19.437a.941.941,0,0,1,.941.94v17.341l16.611.022a13.264,13.264,0,0,1,13.232,13.266l-.032,25.22a.942.942,0,0,1-.941.94Zm-78.238-1.881h77.3l.031-24.281a11.383,11.383,0,0,0-11.355-11.384l-17.549-.022a.94.94,0,0,1-.938-.995c.006-.093,0-.186,0-.28l0-.211v-16.794H433.151l0,16.963c0,.1,0,.2,0,.3a.942.942,0,0,1-.939.993h0l-17.573-.023h-.015a11.382,11.382,0,0,0-11.369,11.355Z" fill="#8e8043"/>
      <path id="Trazado_109941" data-name="Trazado 109941" d="M461.566,5387.1l-19.637,33.711-19.636-33.761Z" fill="#f4efed"/>
      <path id="Trazado_109942" data-name="Trazado 109942" d="M441.929,5421.751a.943.943,0,0,1-.813-.468l-19.636-33.762a.939.939,0,0,1,.812-1.412h0l39.273.05a.94.94,0,0,1,.811,1.413l-19.637,33.711a.937.937,0,0,1-.812.468Zm-18-33.76,18,30.95,18-30.9Z" fill="#afa054"/>
      <path id="Trazado_109943" data-name="Trazado 109943" d="M432.211,5368.807h19.437v18.686a9.719,9.719,0,1,1-19.437,0Z" fill="#ff9f70"/>
      <path id="Trazado_109944" data-name="Trazado 109944" d="M406.233,5405.688a.94.94,0,0,1-.94-.94v-5.64a.94.94,0,1,1,1.88,0v5.64A.939.939,0,0,1,406.233,5405.688Z" fill="#afa054"/>
      <path id="Trazado_109945" data-name="Trazado 109945" d="M441.929,5420.81l4.534-7.783-2.73-8.252,2.034-3.726-3.838-3.837-3.837,3.837,2.034,3.726-2.73,8.252Z" fill="#ff4397"/>
      <path id="Trazado_109946" data-name="Trazado 109946" d="M441.929,5398.152a10.671,10.671,0,0,1-10.659-10.659v-18.686a.94.94,0,0,1,.94-.94h19.438a.94.94,0,0,1,.94.94v18.686A10.671,10.671,0,0,1,441.929,5398.152Zm-8.778-28.4v17.746a8.779,8.779,0,0,0,17.557,0v-17.746Z" fill="#afa054"/>
      <path id="Trazado_109947" data-name="Trazado 109947" d="M460.289,5324.059v-.761a7.7,7.7,0,0,0-4.7-7.1,47.978,47.978,0,0,1-9.009-4.836l-4.659-3.28v-.007l-.006,0-.006,0v.008l-4.659,3.279a48.039,48.039,0,0,1-9.009,4.837,7.7,7.7,0,0,0-4.7,7.1v.761a7.7,7.7,0,0,0-7.677,8.3l1.311,16.706h49.488l1.311-16.706a7.7,7.7,0,0,0-7.677-8.3Z" fill="#fcc24c"/>
      <path id="Trazado_109948" data-name="Trazado 109948" d="M460.289,5324.059v-.761a7.7,7.7,0,0,0-4.7-7.1,47.978,47.978,0,0,1-9.009-4.836l-4.653-3.275c1.815,3.722,6.263,6.78,9.41,8.111a7.7,7.7,0,0,1,4.7,7.1.8.8,0,0,0,.73.795,7.7,7.7,0,0,1,6.948,8.27l-1.312,16.706h4.252l1.312-16.706A7.7,7.7,0,0,0,460.289,5324.059Z" fill="#dea42e"/>
      <path id="Trazado_109949" data-name="Trazado 109949" d="M423.533,5324.059v-.761a7.7,7.7,0,0,1,4.7-7.1,48.018,48.018,0,0,0,9.01-4.836l4.652-3.275c-1.815,3.722-6.262,6.78-9.409,8.111a7.7,7.7,0,0,0-4.7,7.1.8.8,0,0,1-.73.795,7.7,7.7,0,0,0-6.948,8.27l1.312,16.706h-4.253l-1.312-16.706A7.7,7.7,0,0,1,423.533,5324.059Z" fill="#fce06a"/>
      <path id="Trazado_109950" data-name="Trazado 109950" d="M466.655,5350.01H417.167a.941.941,0,0,1-.937-.867l-1.312-16.706a8.644,8.644,0,0,1,7.676-9.266,8.629,8.629,0,0,1,5.277-7.834,46.5,46.5,0,0,0,8.834-4.74l4.6-3.237a.9.9,0,0,1,.168-.112.937.937,0,0,1,.525-.1.921.921,0,0,1,.363.109.98.98,0,0,1,.159.108l4.6,3.235a46.533,46.533,0,0,0,8.834,4.74,8.628,8.628,0,0,1,5.277,7.834,8.642,8.642,0,0,1,7.676,9.266l-1.312,16.706A.94.94,0,0,1,466.655,5350.01Zm-48.619-1.88h47.749l1.244-15.84a6.759,6.759,0,0,0-6.74-7.29.941.941,0,0,1-.94-.941v-.761a6.753,6.753,0,0,0-4.13-6.23,48.3,48.3,0,0,1-9.184-4.933l-4.123-2.9-4.124,2.9a48.359,48.359,0,0,1-9.184,4.933,6.75,6.75,0,0,0-4.13,6.23v.761a.942.942,0,0,1-.941.941,6.759,6.759,0,0,0-6.74,7.29Z" fill="#8e8043"/>
      <path id="Trazado_109951" data-name="Trazado 109951" d="M420.918,5345.693h-1.5a7.014,7.014,0,0,0,0,14.027h1.5Z" fill="#ffbd8e"/>
      <path id="Trazado_109952" data-name="Trazado 109952" d="M464.391,5345.693h-1.5v14.027h1.5a7.014,7.014,0,0,0,0-14.027Z" fill="#e18152"/>
      <path id="Trazado_109953" data-name="Trazado 109953" d="M441.9,5381.347a21.125,21.125,0,0,1-20.987-21.26v-14.719a20.989,20.989,0,1,1,41.974,0v14.719A21.125,21.125,0,0,1,441.9,5381.347Z" fill="#ff9f70"/>
      <path id="Trazado_109954" data-name="Trazado 109954" d="M441.9,5324.108a20.9,20.9,0,0,0-2.385.141,21.163,21.163,0,0,1,18.6,21.119v14.719a21.164,21.164,0,0,1-18.6,21.12,20.955,20.955,0,0,0,23.372-21.12v-14.719A21.125,21.125,0,0,0,441.9,5324.108Z" fill="#e18152"/>
      <path id="Trazado_109955" data-name="Trazado 109955" d="M441.9,5324.108a20.9,20.9,0,0,1,2.385.141,21.163,21.163,0,0,0-18.6,21.119v14.719a21.164,21.164,0,0,0,18.6,21.12,20.955,20.955,0,0,1-23.372-21.12v-14.719a21.125,21.125,0,0,1,20.987-21.26Z" fill="#ffbd8e"/>
      <g id="Grupo_60552" data-name="Grupo 60552">
        <path id="Trazado_109956" data-name="Trazado 109956" d="M441.9,5382.287a22.09,22.09,0,0,1-21.927-22.2v-14.719a21.929,21.929,0,1,1,43.855,0v14.719A22.09,22.09,0,0,1,441.9,5382.287Zm0-57.239a20.208,20.208,0,0,0-20.047,20.32v14.719a20.049,20.049,0,1,0,40.094,0v-14.719A20.208,20.208,0,0,0,441.9,5325.048Z" fill="#8e8043"/>
        <path id="Trazado_109957" data-name="Trazado 109957" d="M420.918,5360.66h-1.5a7.954,7.954,0,1,1,0-15.907h1.5a.94.94,0,0,1,.94.94v14.027a.94.94,0,0,1-.94.94Zm-1.5-14.027a6.073,6.073,0,0,0,0,12.147h.559v-12.147Z" fill="#8e8043"/>
        <path id="Trazado_109958" data-name="Trazado 109958" d="M464.391,5360.66h-1.5a.94.94,0,0,1-.94-.94v-14.027a.94.94,0,0,1,.94-.94h1.5a7.954,7.954,0,1,1,0,15.907Zm-.558-1.88h.558a6.073,6.073,0,1,0,0-12.147h-.558Z" fill="#8e8043"/>
      </g>
      <circle id="Elipse_4233" data-name="Elipse 4233" cx="14.744" cy="14.744" r="14.744" transform="translate(466.483 5372.34)" fill="#fcc24c"/>
      <path id="Trazado_109959" data-name="Trazado 109959" d="M481.19,5372.363a15.077,15.077,0,0,0-1.871.122,14.737,14.737,0,0,1,0,29.237,15.064,15.064,0,0,0,1.871.122,14.741,14.741,0,0,0,0-29.481Z" fill="#dea42e"/>
      <path id="Trazado_109960" data-name="Trazado 109960" d="M481.19,5372.363a15.064,15.064,0,0,1,1.871.122,14.737,14.737,0,0,0,0,29.237,15.064,15.064,0,0,1-1.871.122,14.741,14.741,0,0,1,0-29.481Z" fill="#fce06a"/>
      <path id="Trazado_109961" data-name="Trazado 109961" d="M481.19,5402.784a15.68,15.68,0,1,1,15.681-15.68A15.7,15.7,0,0,1,481.19,5402.784Zm0-29.481a13.8,13.8,0,1,0,13.8,13.8A13.816,13.816,0,0,0,481.19,5373.3Z" fill="#8e8043"/>
      <path id="Trazado_109962" data-name="Trazado 109962" d="M481.379,5379.227a.806.806,0,0,1,.812.812v.415a6.881,6.881,0,0,1,2.929,1.04,1.008,1.008,0,0,1,.567.907,1.041,1.041,0,0,1-1.058,1.039,1.09,1.09,0,0,1-.567-.17,6.862,6.862,0,0,0-1.946-.831v3.628c2.872.718,4.1,1.87,4.1,3.892,0,2.079-1.625,3.458-4.025,3.685v1.134a.807.807,0,0,1-.812.813.823.823,0,0,1-.831-.813v-1.172a8.178,8.178,0,0,1-3.874-1.473,1.038,1.038,0,0,1-.51-.907,1.04,1.04,0,0,1,1.663-.832,6.686,6.686,0,0,0,2.8,1.266v-3.722c-2.758-.718-4.043-1.758-4.043-3.893,0-2.021,1.606-3.42,3.968-3.609v-.4a.822.822,0,0,1,.831-.812Zm-.756,6.443v-3.344c-1.209.113-1.814.756-1.814,1.587C478.809,5384.706,479.168,5385.2,480.623,5385.67Zm1.493,2.627v3.439c1.21-.133,1.871-.738,1.871-1.644C483.987,5389.26,483.571,5388.75,482.116,5388.3Z" fill="#afa054"/>
      <path id="Trazado_109963" data-name="Trazado 109963" d="M441.929,5421.751a.941.941,0,0,1-.813-.467l-4.534-7.784a.936.936,0,0,1-.079-.768l2.6-7.865-1.838-3.367a.938.938,0,0,1,.161-1.115l3.837-3.838a.967.967,0,0,1,1.329,0l3.838,3.838a.941.941,0,0,1,.161,1.115l-1.838,3.367,2.6,7.865a.94.94,0,0,1-.08.768l-4.534,7.784A.942.942,0,0,1,441.929,5421.751Zm-3.508-8.831,3.508,6.022,3.509-6.022-2.6-7.85a.942.942,0,0,1,.067-.746l1.7-3.108-2.676-2.675-2.674,2.675,1.7,3.108a.936.936,0,0,1,.067.745Z" fill="#afa054"/>
      <path id="Trazado_109964" data-name="Trazado 109964" d="M432.211,5387.062l9.718,10.15-10.7,5.207-8.939-15.37Z" fill="#f4efed"/>
      <path id="Trazado_109965" data-name="Trazado 109965" d="M451.648,5387.087l-9.719,10.125,10.713,5.207,8.924-15.32Z" fill="#f4efed"/>
      <path id="Trazado_109966" data-name="Trazado 109966" d="M431.233,5403.359a.938.938,0,0,1-.813-.468l-8.939-15.37a.939.939,0,0,1,.812-1.412h0l9.918.013a.939.939,0,0,1,.678.29l9.718,10.149a.939.939,0,0,1-.268,1.5l-10.7,5.207a.927.927,0,0,1-.41.1Zm-7.3-15.368,7.677,13.2,8.753-4.26-8.55-8.93Z" fill="#afa054"/>
      <path id="Trazado_109967" data-name="Trazado 109967" d="M452.641,5403.359a.939.939,0,0,1-.41-.095l-10.713-5.207a.946.946,0,0,1-.515-.68.936.936,0,0,1,.248-.816l9.719-10.125a1.015,1.015,0,0,1,.679-.29l9.918.013a.94.94,0,0,1,.811,1.413l-8.924,15.32a.94.94,0,0,1-.813.467Zm-9.139-6.428,8.766,4.261,7.663-13.154-7.883-.01Z" fill="#afa054"/>
    </g>
  </g>
</svg>
