<svg xmlns="http://www.w3.org/2000/svg" width="178.297" height="178.296" viewBox="0 0 178.297 178.296">
  <g id="Grupo_61525" data-name="Grupo 61525" transform="translate(-941.275 -5040.722)">
    <circle id="Elipse_4215" data-name="Elipse 4215" cx="86.148" cy="86.148" r="86.148" transform="translate(944.275 5043.722)" fill="#fff" stroke="#afa054" stroke-miterlimit="10" stroke-width="6"/>
    <g id="Grupo_60534" data-name="Grupo 60534" transform="translate(160.595 0.969)">
      <path id="Trazado_109903" data-name="Trazado 109903" d="M833.894,5135.764h22.188l21.513,8.9a7.333,7.333,0,0,1,3.948,9.634l-.073.172a7.546,7.546,0,0,1-9.667,4.129c-6.1-2.355-14.112-5.432-14.112-5.432l20.615,7.925a23.43,23.43,0,0,0,13.636.969l21.12-4.836a7.088,7.088,0,0,1,3.327,13.779l-25.2,6.405a23.437,23.437,0,0,1-14.327-.9l-32.522-12.756H833.894Z" fill="#ffd4be"/>
      <path id="Trazado_109904" data-name="Trazado 109904" d="M833.894,5135.764h22.188l21.513,8.9a7.333,7.333,0,0,1,3.948,9.634l-.073.172a7.546,7.546,0,0,1-9.667,4.129c-6.1-2.355-14.112-5.432-14.112-5.432l20.615,7.925a23.43,23.43,0,0,0,13.636.969l21.12-4.836a7.088,7.088,0,0,1,3.327,13.779l-25.2,6.405a23.437,23.437,0,0,1-14.327-.9l-32.522-12.756H833.894Z" fill="#fce4d9"/>
      <path id="Trazado_109905" data-name="Trazado 109905" d="M817.923,5130.788h15.971v37.089H817.923Z" fill="#dcbfff"/>
      <path id="Trazado_109906" data-name="Trazado 109906" d="M861.617,5112.76v25.294l-5.534-2.291H842.816v-23Z" fill="#95f7ff"/>
      <path id="Trazado_109907" data-name="Trazado 109907" d="M880.421,5098.992v47.752a7.329,7.329,0,0,0-2.826-2.075l-15.976-6.613v-39.128Z" fill="#fe8f99"/>
      <path id="Trazado_109908" data-name="Trazado 109908" d="M899.222,5123.634V5160.4l-7.279,1.666a23.424,23.424,0,0,1-11.523-.27v-5.549a7.634,7.634,0,0,0,1.05-1.771l.072-.173a7.33,7.33,0,0,0-1.122-7.559v-23.11Z" fill="#f9e478"/>
      <path id="Trazado_109909" data-name="Trazado 109909" d="M909.438,5103.892a3.188,3.188,0,1,1-3.187-3.187A3.187,3.187,0,0,1,909.438,5103.892Z" fill="#98a1b3"/>
      <path id="Trazado_109910" data-name="Trazado 109910" d="M897.721,5088.6a3.188,3.188,0,1,1-3.187-3.187A3.187,3.187,0,0,1,897.721,5088.6Z" fill="#98a1b3"/>
      <path id="Trazado_109911" data-name="Trazado 109911" d="M923.649,5162.268a9.2,9.2,0,0,0-11.058-7.094l-11.26,2.578v-4.6a44.487,44.487,0,0,0,6.282-7.444,43.634,43.634,0,0,0,6.169-14.527,44.53,44.53,0,0,0,.085-18.894,2.11,2.11,0,0,0-4.127.884,40.24,40.24,0,0,1-.077,17.089,39.424,39.424,0,0,1-5.574,13.126,37.457,37.457,0,0,1-2.758,3.639v-23.388a2.111,2.111,0,0,0-2.11-2.11H882.53v-22.532a2.111,2.111,0,0,0-2.1-2.11l-18.8-.064h-.007a2.112,2.112,0,0,0-2.11,2.11v11.722H842.816a2.11,2.11,0,0,0-2.11,2.11v20.894H836v-2.866a2.109,2.109,0,0,0-2.11-2.109H831.73a39.946,39.946,0,0,1,1.723-20.694c.394-1.085.84-2.166,1.327-3.213a2.11,2.11,0,1,0-3.825-1.781c-.54,1.159-1.034,2.356-1.469,3.556a44.11,44.11,0,0,0-2.037,22.132h-9.526a2.11,2.11,0,0,0-2.11,2.11v37.088a2.109,2.109,0,0,0,2.11,2.11h15.971a2.109,2.109,0,0,0,2.11-2.11v-2.006h7.938l32.151,12.611a25.4,25.4,0,0,0,15.616.976l25.2-6.4A9.18,9.18,0,0,0,923.649,5162.268Zm-26.537-36.524v32.974l-5.641,1.291c-.607.139-1.22.249-1.836.334a21.411,21.411,0,0,1-7.076-.2l-.029-.007v-3.2a9.773,9.773,0,0,0,1.3-8.221,9.494,9.494,0,0,0-.993-2.212c-.1-.157-.2-.31-.3-.46l0-.007v-20.289h14.582Zm-33.383-24.7,14.582.048v41.587l-8.149-3.373-6.433-2.663Zm-18.8,13.824h14.581V5134.9l-2.617-1.083a2.114,2.114,0,0,0-.807-.161H844.926Zm-13.142,50.9H820.033V5132.9h11.751Zm84.086,3.2-25.2,6.405a21.216,21.216,0,0,1-13.036-.815L845.111,5161.8a2.12,2.12,0,0,0-.77-.145H836v-23.778h19.659l13.652,5.651,7.471,3.093a5.276,5.276,0,0,1,2.824,6.836,6.038,6.038,0,0,1-.844,1.483,5.439,5.439,0,0,1-5.531,1.908l-.049-.012c-.122-.031-.244-.066-.364-.106l-14.2-5.458-.176-.067a2.11,2.11,0,1,0-1.514,3.939s8,3.077,14.108,5.431c.123.048.245.093.368.134l4.687,1.8a38.469,38.469,0,0,0,4.3,1.464,25.6,25.6,0,0,0,12.014.151l7.278-1.666.023-.006,13.819-3.164a4.978,4.978,0,0,1,2.336,9.677Z" fill="#afa054"/>
      <path id="Trazado_109912" data-name="Trazado 109912" d="M842.795,5092.557a2.1,2.1,0,0,0,1.414-.544,39.643,39.643,0,0,1,29.3-10.158,39.548,39.548,0,0,1,11.5,2.5,2.11,2.11,0,0,0,1.5-3.943,43.757,43.757,0,0,0-12.729-2.773,43.877,43.877,0,0,0-32.4,11.237,2.11,2.11,0,0,0,1.414,3.676Z" fill="#afa054"/>
      <path id="Trazado_109913" data-name="Trazado 109913" d="M890.694,5107.616a2.114,2.114,0,0,0,2.977-.209l17.359-19.983a2.11,2.11,0,0,0-3.184-2.768l-17.361,19.983A2.11,2.11,0,0,0,890.694,5107.616Z" fill="#afa054"/>
      <path id="Trazado_109914" data-name="Trazado 109914" d="M906.251,5098.6a5.3,5.3,0,1,0,5.3,5.3A5.3,5.3,0,0,0,906.251,5098.6Zm0,6.374a1.077,1.077,0,1,1,1.077-1.077A1.079,1.079,0,0,1,906.251,5104.969Z" fill="#afa054"/>
      <path id="Trazado_109915" data-name="Trazado 109915" d="M894.534,5093.9a5.3,5.3,0,1,0-5.3-5.3A5.3,5.3,0,0,0,894.534,5093.9Zm0-6.375a1.077,1.077,0,1,1-1.078,1.078A1.079,1.079,0,0,1,894.534,5087.522Z" fill="#afa054"/>
      <path id="Trazado_109916" data-name="Trazado 109916" d="M835.294,5097.516a2.109,2.109,0,1,0,.776-2.562A2.127,2.127,0,0,0,835.294,5097.516Z" fill="#afa054"/>
    </g>
  </g>
</svg>
