<svg xmlns="http://www.w3.org/2000/svg" width="178.297" height="178.296" viewBox="0 0 178.297 178.296">
  <g id="Grupo_61524" data-name="Grupo 61524" transform="translate(-520.552 -5040.722)">
    <circle id="Elipse_4214" data-name="Elipse 4214" cx="86.148" cy="86.148" r="86.148" transform="translate(523.552 5043.722)" fill="#fff" stroke="#afa054" stroke-miterlimit="10" stroke-width="6"/>
    <g id="Grupo_60533" data-name="Grupo 60533" transform="translate(160.595 0.969)">
      <path id="Trazado_109897" data-name="Trazado 109897" d="M398.342,5151.233a2.973,2.973,0,0,0,2.04,2.7l17.81,5.877,5.877,17.809a2.974,2.974,0,0,0,5.56.236l19.035-44.613a2.978,2.978,0,0,0-3.9-3.905l-44.614,19.036a2.974,2.974,0,0,0-1.8,2.861Z" fill="#4d5788"/>
      <path id="Trazado_109898" data-name="Trazado 109898" d="M418.192,5159.809l5.877,17.809a2.974,2.974,0,0,0,5.56.236l19.035-44.613a2.978,2.978,0,0,0-.632-3.272Z" fill="#313a6b"/>
      <path id="Trazado_109899" data-name="Trazado 109899" d="M417.573,5128.9a2.975,2.975,0,1,0,5.949,0,25.578,25.578,0,1,1,25.578,25.579,2.975,2.975,0,0,0,0,5.949,31.528,31.528,0,1,0-31.527-31.528Z" fill="#f3d652"/>
      <path id="Trazado_109900" data-name="Trazado 109900" d="M446.126,5157.453a2.976,2.976,0,0,0,2.974,2.975,31.514,31.514,0,0,0,22.283-53.811l-4.2,4.206a25.565,25.565,0,0,1-18.078,43.656,2.975,2.975,0,0,0-2.974,2.974Z" fill="#d4c266"/>
      <path id="Trazado_109901" data-name="Trazado 109901" d="M398.34,5128.9a2.974,2.974,0,1,0,5.948,0,44.812,44.812,0,1,1,44.812,44.813,2.974,2.974,0,0,0,0,5.948,50.76,50.76,0,1,0-50.76-50.761Z" fill="#f9e478"/>
      <path id="Trazado_109902" data-name="Trazado 109902" d="M446.126,5176.687a2.975,2.975,0,0,0,2.974,2.974,50.761,50.761,0,0,0,35.852-86.612l-4.18,4.18a44.791,44.791,0,0,1-31.672,76.484,2.975,2.975,0,0,0-2.974,2.974Z" fill="#afa054"/>
    </g>
  </g>
</svg>
