<svg xmlns="http://www.w3.org/2000/svg" width="185.137" height="185.137" viewBox="0 0 185.137 185.137">
  <g id="Grupo_60570" data-name="Grupo 60570" transform="translate(-507.763 -5800.838)">
    <path id="Trazado_110059" data-name="Trazado 110059" d="M624.339,5883.3l-12.363,5.1a3.764,3.764,0,0,0-2.269,2.779,9.065,9.065,0,1,1-7.032-10.719,8.579,8.579,0,0,1,3.233,1.361,3.7,3.7,0,0,0,3.516.284l12.363-5.1a24.382,24.382,0,1,0,2.552,6.295Z" fill="#e9e9ea"/>
    <path id="Trazado_110060" data-name="Trazado 110060" d="M638.29,5873.941a3.377,3.377,0,0,0-4.367-1.985c-.056,0-.056,0-.113.057l-24.443,10.095a3.692,3.692,0,0,1-3.516-.284,9.076,9.076,0,1,0,2.495,12.59,8.188,8.188,0,0,0,1.361-3.232,3.788,3.788,0,0,1,2.269-2.779l24.273-10.038A3.54,3.54,0,0,0,638.29,5873.941Z" fill="#6d6c6b"/>
    <circle id="Elipse_4234" data-name="Elipse 4234" cx="3.403" cy="3.403" r="3.403" transform="translate(597.406 5885.963)" fill="#898989"/>
    <circle id="Elipse_4235" data-name="Elipse 4235" cx="16.9" cy="16.9" r="16.9" transform="translate(625.133 5926.173)" fill="#feeb8a"/>
    <circle id="Elipse_4236" data-name="Elipse 4236" cx="16.9" cy="16.9" r="16.9" transform="translate(583.903 5926.173)" fill="#31d9e7"/>
    <circle id="Elipse_4237" data-name="Elipse 4237" cx="16.843" cy="16.843" r="16.843" transform="translate(542.674 5926.23)" fill="#fe8f99"/>
    <path id="Trazado_110061" data-name="Trazado 110061" d="M545.963,5889.367a54.672,54.672,0,0,1,16.106-38.791l-4.82-4.821a61.559,61.559,0,0,0-10.605,73.1,3.387,3.387,0,0,0,5.954-3.232h0A55.038,55.038,0,0,1,545.963,5889.367Z" fill="#fe8f99"/>
    <path id="Trazado_110062" data-name="Trazado 110062" d="M600.8,5827.721a61.737,61.737,0,0,0-43.611,18.091l4.82,4.821a54.8,54.8,0,0,1,77.469-.114l.114.114,4.82-4.821A61.261,61.261,0,0,0,600.8,5827.721Z" fill="#31d9e7"/>
    <path id="Trazado_110063" data-name="Trazado 110063" d="M644.415,5845.755l-4.82,4.821a54.848,54.848,0,0,1,9.414,64.992,3.415,3.415,0,0,0,5.954,3.346.056.056,0,0,1,.057-.057A61.729,61.729,0,0,0,644.415,5845.755Z" fill="#f9e478"/>
    <path id="Trazado_110064" data-name="Trazado 110064" d="M642.033,5924.755a18.318,18.318,0,1,0,18.318,18.318A18.347,18.347,0,0,0,642.033,5924.755Zm0,33.8a15.483,15.483,0,1,1,15.483-15.483A15.466,15.466,0,0,1,642.033,5958.556Z" fill="#3c3575"/>
    <path id="Trazado_110065" data-name="Trazado 110065" d="M653.092,5945.512a1.461,1.461,0,0,0-1.985.454,10.8,10.8,0,0,1-14.858,3.346,10.462,10.462,0,0,1-3.346-3.346,1.44,1.44,0,0,0-2.439,1.531h0a13.6,13.6,0,0,0,22.968,0,1.342,1.342,0,0,0-.34-1.985Z" fill="#3c3575"/>
    <path id="Trazado_110066" data-name="Trazado 110066" d="M650.653,5932.922a7.99,7.99,0,0,0-4.31-.511l-.794.114a1.374,1.374,0,0,0-1.134,1.645,1.445,1.445,0,0,0,1.645,1.134l.794-.114a4.761,4.761,0,0,1,2.665.284,1.438,1.438,0,0,0,1.872-.737,1.329,1.329,0,0,0-.738-1.815Z" fill="#3c3575"/>
    <path id="Trazado_110067" data-name="Trazado 110067" d="M638.517,5932.582l-.794-.114a7.043,7.043,0,0,0-4.31.511,1.372,1.372,0,0,0-.737,1.871,1.389,1.389,0,0,0,1.871.737h0a4.763,4.763,0,0,1,2.666-.283l.794.113a1.426,1.426,0,0,0,1.644-1.134,1.5,1.5,0,0,0-1.134-1.7Z" fill="#3c3575"/>
    <path id="Trazado_110068" data-name="Trazado 110068" d="M644.812,5943.357a2.889,2.889,0,0,0-5.558,0,1.382,1.382,0,0,0,.681,1.871,1.365,1.365,0,0,0,1.871-.68c0-.057.057-.057.057-.114.057-.113.113-.17.17-.283.057.113.114.17.17.283a1.431,1.431,0,0,0,1.872.681,1.358,1.358,0,0,0,.737-1.758Z" fill="#3c3575"/>
    <path id="Trazado_110069" data-name="Trazado 110069" d="M650.483,5937.913a3.1,3.1,0,0,0-4.31-1.135,3.606,3.606,0,0,0-1.134,1.135,1.4,1.4,0,0,0,2.382,1.474v-.057a.313.313,0,0,1,.453-.17c.114.057.171.114.171.17a1.4,1.4,0,0,0,1.928.511,1.292,1.292,0,0,0,.51-1.928c.057.056.057,0,0,0Z" fill="#3c3575"/>
    <path id="Trazado_110070" data-name="Trazado 110070" d="M639.084,5937.913a3.114,3.114,0,0,0-4.31-1.135,3.605,3.605,0,0,0-1.134,1.135,1.4,1.4,0,0,0,.51,1.928,1.433,1.433,0,0,0,1.928-.454.314.314,0,0,1,.454-.17c.113.057.17.113.17.17a1.394,1.394,0,0,0,1.928.454,1.433,1.433,0,0,0,.454-1.928Z" fill="#3c3575"/>
    <path id="Trazado_110071" data-name="Trazado 110071" d="M567.8,5951.24a9.826,9.826,0,0,0-13.611-3.006,9.519,9.519,0,0,0-3.006,3.006,1.44,1.44,0,1,0,2.439,1.531,7,7,0,0,1,9.7-2.155,7.78,7.78,0,0,1,2.155,2.155,1.449,1.449,0,0,0,1.985.454,1.54,1.54,0,0,0,.34-1.985Z" fill="#3c3575"/>
    <path id="Trazado_110072" data-name="Trazado 110072" d="M562.239,5942.506a2.889,2.889,0,0,0-5.557,0,1.408,1.408,0,0,0,.85,1.815,1.357,1.357,0,0,0,1.758-.737c.057-.114.114-.17.17-.284.057.114.114.17.171.284a1.43,1.43,0,0,0,1.871.68,1.356,1.356,0,0,0,.737-1.758Z" fill="#3c3575"/>
    <path id="Trazado_110073" data-name="Trazado 110073" d="M567.684,5937.119a4.082,4.082,0,0,0-4.878,0,1.378,1.378,0,0,0-.17,1.984,1.428,1.428,0,0,0,1.985.171h0a1.448,1.448,0,0,1,1.191,0,1.378,1.378,0,0,0,1.985-.171,1.422,1.422,0,0,0-.113-1.984Z" fill="#3c3575"/>
    <path id="Trazado_110074" data-name="Trazado 110074" d="M556.228,5937.119a4.081,4.081,0,0,0-4.877,0,1.427,1.427,0,0,0-.171,1.984,1.4,1.4,0,0,0,1.078.511,1.289,1.289,0,0,0,.907-.34,1.448,1.448,0,0,1,1.191,0,1.378,1.378,0,0,0,1.985-.171,1.422,1.422,0,0,0-.113-1.984Z" fill="#3c3575"/>
    <path id="Trazado_110075" data-name="Trazado 110075" d="M569.215,5933.319a7.174,7.174,0,0,0-4.083-1.475l-.794-.056a1.419,1.419,0,1,0-.114,2.835l.794.057a5.14,5.14,0,0,1,2.552.907,1.432,1.432,0,0,0,1.985-.283,1.5,1.5,0,0,0-.34-1.985Z" fill="#3c3575"/>
    <path id="Trazado_110076" data-name="Trazado 110076" d="M554.64,5931.788l-.794.056a7.6,7.6,0,0,0-4.083,1.475,1.418,1.418,0,1,0,1.7,2.268,4.648,4.648,0,0,1,2.552-.907l.794-.057a1.42,1.42,0,1,0-.17-2.835Z" fill="#3c3575"/>
    <path id="Trazado_110077" data-name="Trazado 110077" d="M559.517,5924.812a18.261,18.261,0,1,0,18.261,18.261A18.249,18.249,0,0,0,559.517,5924.812Zm0,33.687a15.426,15.426,0,1,1,15.426-15.426A15.442,15.442,0,0,1,559.517,5958.5Z" fill="#3c3575"/>
    <path id="Trazado_110078" data-name="Trazado 110078" d="M600.8,5924.755a18.318,18.318,0,1,0,18.318,18.318A18.346,18.346,0,0,0,600.8,5924.755Zm0,33.8a15.483,15.483,0,1,1,15.483-15.483A15.466,15.466,0,0,1,600.8,5958.556Z" fill="#3c3575"/>
    <path id="Trazado_110079" data-name="Trazado 110079" d="M609.367,5932.922a7.991,7.991,0,0,0-4.31-.511l-.794.114a1.374,1.374,0,0,0-1.134,1.645,1.444,1.444,0,0,0,1.644,1.134l.794-.114a4.763,4.763,0,0,1,2.666.284,1.437,1.437,0,0,0,1.871-.737,1.329,1.329,0,0,0-.737-1.815Z" fill="#3c3575"/>
    <path id="Trazado_110080" data-name="Trazado 110080" d="M597.287,5932.582l-.794-.114a7.043,7.043,0,0,0-4.31.511,1.373,1.373,0,0,0-.737,1.871,1.39,1.39,0,0,0,1.872.737h0a4.759,4.759,0,0,1,2.665-.283l.794.113a1.428,1.428,0,0,0,1.645-1.134,1.519,1.519,0,0,0-1.135-1.7Z" fill="#3c3575"/>
    <path id="Trazado_110081" data-name="Trazado 110081" d="M603.582,5943.357a2.889,2.889,0,0,0-5.557,0,1.422,1.422,0,0,0,2.608,1.134v-.057c.057-.113.114-.17.17-.283.057.113.114.17.171.283a1.43,1.43,0,0,0,1.871.681,1.409,1.409,0,0,0,.737-1.758Z" fill="#3c3575"/>
    <path id="Trazado_110082" data-name="Trazado 110082" d="M608.743,5937.686a1.434,1.434,0,0,0-1.928.453h0a.314.314,0,0,1-.454.171c-.113-.057-.17-.114-.17-.171a1.41,1.41,0,1,0-2.438,1.418v.057a3.114,3.114,0,0,0,4.31,1.134,3.613,3.613,0,0,0,1.134-1.134A1.347,1.347,0,0,0,608.743,5937.686Z" fill="#3c3575"/>
    <path id="Trazado_110083" data-name="Trazado 110083" d="M597.344,5937.686a1.434,1.434,0,0,0-1.928.453.314.314,0,0,1-.454.171c-.113-.057-.17-.114-.17-.171a1.411,1.411,0,0,0-2.439,1.418v.057a3.115,3.115,0,0,0,4.311,1.134,3.613,3.613,0,0,0,1.134-1.134A1.446,1.446,0,0,0,597.344,5937.686Z" fill="#3c3575"/>
    <path id="Trazado_110084" data-name="Trazado 110084" d="M606.248,5948.234H595.359a1.418,1.418,0,1,0,0,2.836h10.889a1.4,1.4,0,0,0,1.418-1.418,1.441,1.441,0,0,0-1.418-1.418Z" fill="#3c3575"/>
    <path id="Trazado_110085" data-name="Trazado 110085" d="M600.8,5833.109a1.4,1.4,0,0,0-1.417,1.418v3.459a1.418,1.418,0,1,0,2.835,0v-3.459A1.4,1.4,0,0,0,600.8,5833.109Z" fill="#3c3575"/>
    <path id="Trazado_110086" data-name="Trazado 110086" d="M655.644,5887.949h-3.459a1.418,1.418,0,0,0,0,2.836h3.459a1.4,1.4,0,0,0,1.418-1.418A1.441,1.441,0,0,0,655.644,5887.949Z" fill="#3c3575"/>
    <path id="Trazado_110087" data-name="Trazado 110087" d="M549.479,5887.949H546.02a1.418,1.418,0,1,0,0,2.836h3.459a1.418,1.418,0,0,0,0-2.836Z" fill="#3c3575"/>
    <path id="Trazado_110088" data-name="Trazado 110088" d="M563.033,5849.612l-4.82-4.821a1.371,1.371,0,0,0-1.985,0,63,63,0,0,0-10.832,74.747,4.809,4.809,0,0,0,8.45-4.594h0a53.38,53.38,0,0,1,9.187-63.347A1.371,1.371,0,0,0,563.033,5849.612Zm-18.488,39.755a55.958,55.958,0,0,0,6.862,26.938,1.966,1.966,0,1,1-3.459,1.872h0a60.092,60.092,0,0,1,9.3-70.38l2.779,2.779A55.787,55.787,0,0,0,544.545,5889.367Z" fill="#3c3575"/>
    <path id="Trazado_110089" data-name="Trazado 110089" d="M645.379,5844.791a62.981,62.981,0,0,0-89.094-.113l-.114.113a1.37,1.37,0,0,0,0,1.985l4.821,4.821a1.371,1.371,0,0,0,1.985,0,53.379,53.379,0,0,1,75.483-.114l.114.114a1.371,1.371,0,0,0,1.985,0l4.82-4.821A1.37,1.37,0,0,0,645.379,5844.791Zm-5.784,3.8a56.155,56.155,0,0,0-77.526,0l-2.779-2.779a60.158,60.158,0,0,1,83.14,0Z" fill="#3c3575"/>
    <path id="Trazado_110090" data-name="Trazado 110090" d="M645.379,5844.791a1.478,1.478,0,0,0-1.985,0l-4.82,4.821a1.371,1.371,0,0,0,0,1.985,53.463,53.463,0,0,1,9.187,63.347,4.809,4.809,0,0,0,8.45,4.594A63,63,0,0,0,645.379,5844.791Zm8.337,73.386a2,2,0,0,1-3.743-.964,1.863,1.863,0,0,1,.227-.964,56.237,56.237,0,0,0-8.677-65.673l2.779-2.779a60.1,60.1,0,0,1,9.414,70.38Z" fill="#3c3575"/>
    <path id="Trazado_110091" data-name="Trazado 110091" d="M625.7,5882.959a1.427,1.427,0,0,0-1.7-1.021c-.057,0-.114.056-.17.056l-12.364,5.1a5.3,5.3,0,0,0-3.119,3.8,7.674,7.674,0,1,1-5.955-9.074,8.149,8.149,0,0,1,2.723,1.135,5.147,5.147,0,0,0,4.877.453l12.363-5.1a1.442,1.442,0,0,0,.794-1.871c0-.057-.057-.114-.113-.17a25.975,25.975,0,1,0,2.665,6.692Zm-24.9,29.263a22.855,22.855,0,1,1,18.829-35.842l-10.775,4.48a2.354,2.354,0,0,1-2.212-.17,10.507,10.507,0,1,0,2.892,14.575,10.977,10.977,0,0,0,1.588-3.743,2.329,2.329,0,0,1,1.475-1.758l10.775-4.48a22.9,22.9,0,0,1-18.432,26.6A25.972,25.972,0,0,1,600.8,5912.222Z" fill="#3c3575"/>
    <path id="Trazado_110092" data-name="Trazado 110092" d="M639.595,5873.431a4.82,4.82,0,0,0-6.239-2.779.2.2,0,0,0-.113.057L608.8,5880.8a2.359,2.359,0,0,1-2.212-.171,10.508,10.508,0,1,0,2.892,14.575,10.949,10.949,0,0,0,1.588-3.743,2.332,2.332,0,0,1,1.475-1.758l24.273-10.038A4.938,4.938,0,0,0,639.595,5873.431Zm-3.857,3.63L611.465,5887.1a5.3,5.3,0,0,0-3.119,3.8,7.644,7.644,0,1,1-3.232-7.939,5.147,5.147,0,0,0,4.877.453l24.443-10.094a2.024,2.024,0,0,1,2.608,1.077v.057a2.232,2.232,0,0,1-1.3,2.609Z" fill="#3c3575"/>
    <path id="Trazado_110093" data-name="Trazado 110093" d="M605.227,5887.5a4.818,4.818,0,1,0-2.609,6.295,4.9,4.9,0,0,0,2.609-2.609A4.631,4.631,0,0,0,605.227,5887.5Zm-3.686,3.686a2,2,0,1,1,1.077-2.609h0a1.958,1.958,0,0,1-1.077,2.609Z" fill="#3c3575"/>
    <path id="Trazado_110094" data-name="Trazado 110094" d="M629.1,5816.209a1.4,1.4,0,0,0-1.418,1.417,1.629,1.629,0,0,0,.4,1.021,1.439,1.439,0,0,0,2.042-.057,1.61,1.61,0,0,0,.4-.964A1.4,1.4,0,0,0,629.1,5816.209Z" fill="#fe8f99"/>
    <path id="Trazado_110095" data-name="Trazado 110095" d="M644.925,5827.1a5.317,5.317,0,0,1-4.253-4.253c0-.057-.057-.114-.113-.057a.056.056,0,0,0-.057.057,5.317,5.317,0,0,1-4.253,4.253c-.057,0-.114.057-.057.114a.056.056,0,0,0,.057.056,5.318,5.318,0,0,1,4.253,4.254c0,.056.057.113.113.056a.055.055,0,0,0,.057-.056,5.318,5.318,0,0,1,4.253-4.254c.057,0,.114-.056.057-.113Z" fill="#31d9e7"/>
    <path id="Trazado_110096" data-name="Trazado 110096" d="M540.519,5924.245a4.238,4.238,0,0,1-3.346-3.346c0-.057-.057-.057-.114-.057a.056.056,0,0,0-.057.057,4.238,4.238,0,0,1-3.346,3.346c-.056,0-.056.057-.056.113a.055.055,0,0,0,.056.057,4.237,4.237,0,0,1,3.346,3.346c0,.057.057.057.114.057a.056.056,0,0,0,.057-.057,4.237,4.237,0,0,1,3.346-3.346c.056,0,.056-.057.056-.113Z" fill="#fe8f99"/>
    <path id="Trazado_110097" data-name="Trazado 110097" d="M551.918,5836.285H550.9v-1.021a1.418,1.418,0,0,0-2.836,0v1.021H547.04a1.417,1.417,0,0,0,0,2.835h1.021v1.021a1.418,1.418,0,0,0,2.836,0v-1.021h1.021a1.417,1.417,0,1,0,0-2.835Z" fill="#f9e478"/>
    <path id="Trazado_110098" data-name="Trazado 110098" d="M529.63,5909.443a1.4,1.4,0,0,0-1.418,1.418,1.631,1.631,0,0,0,.4,1.021,1.4,1.4,0,0,0,1.985-1.985A1.21,1.21,0,0,0,529.63,5909.443Z" fill="#31d9e7"/>
    <rect id="Rectángulo_6585" data-name="Rectángulo 6585" width="185.137" height="185.137" transform="translate(507.763 5800.838)" fill="none"/>
  </g>
</svg>
