<svg xmlns="http://www.w3.org/2000/svg" width="195.316" height="195.316" viewBox="0 0 195.316 195.316">
  <g id="Grupo_61523" data-name="Grupo 61523" transform="translate(-278.873 -5054.438)">
    <circle id="Elipse_4205" data-name="Elipse 4205" cx="97.658" cy="97.658" r="97.658" transform="translate(278.873 5054.438)" fill="#fff"/>
    <g id="Grupo_60532" data-name="Grupo 60532" transform="translate(160.595 0.969)">
      <path id="Trazado_109870" data-name="Trazado 109870" d="M276.833,5114.759v70.225a11.26,11.26,0,0,1-11.244,11.273H166.281a11.259,11.259,0,0,1-11.243-11.273v-70.225a11.258,11.258,0,0,1,11.243-11.272h99.308A11.259,11.259,0,0,1,276.833,5114.759Z" fill="#d4c266"/>
      <path id="Trazado_109871" data-name="Trazado 109871" d="M276.833,5114.759v70.225a11.26,11.26,0,0,1-11.244,11.273h-4.9a11.259,11.259,0,0,0,11.243-11.273v-70.225a11.258,11.258,0,0,0-11.243-11.272h4.9A11.259,11.259,0,0,1,276.833,5114.759Z" fill="#f9e478"/>
      <path id="Trazado_109872" data-name="Trazado 109872" d="M269.5,5114.455v63.236a3.979,3.979,0,0,1-3.975,3.984h-99.18a3.979,3.979,0,0,1-3.975-3.984v-63.236a3.979,3.979,0,0,1,3.975-3.984h99.18A3.979,3.979,0,0,1,269.5,5114.455Z" fill="#d9f0f4"/>
      <path id="Trazado_109873" data-name="Trazado 109873" d="M269.5,5114.455v63.236a3.979,3.979,0,0,1-3.975,3.984h-4.9a3.979,3.979,0,0,0,3.975-3.984v-63.236a3.979,3.979,0,0,0-3.975-3.984h4.9A3.979,3.979,0,0,1,269.5,5114.455Z" fill="#bae1e5"/>
      <path id="Trazado_109874" data-name="Trazado 109874" d="M215.3,5093.907v22.266a3.678,3.678,0,0,1-3.678,3.679H199.707l-3.855,5.555L192,5119.852H180.083a3.679,3.679,0,0,1-3.679-3.679v-22.266a3.679,3.679,0,0,1,3.679-3.678h31.539a3.678,3.678,0,0,1,3.678,3.678Z" fill="#f17781"/>
      <path id="Trazado_109875" data-name="Trazado 109875" d="M215.3,5093.907v22.266a3.678,3.678,0,0,1-3.678,3.679h-4.9a3.679,3.679,0,0,0,3.678-3.679v-22.266a3.678,3.678,0,0,0-3.678-3.678h4.9a3.678,3.678,0,0,1,3.678,3.678Z" fill="#ce666e"/>
      <path id="Trazado_109876" data-name="Trazado 109876" d="M201.914,5099.943a3.675,3.675,0,0,0-5.2,0l-.866.867-.867-.867a3.67,3.67,0,1,0-5.19,5.191l6.057,6.057,6.057-6.057A3.674,3.674,0,0,0,201.914,5099.943Z" fill="#f9edb0"/>
      <path id="Trazado_109877" data-name="Trazado 109877" d="M221.78,5152.637l-15.727-2.118a2.858,2.858,0,0,1-2.476-2.835v-5.875a2.859,2.859,0,0,1,2.476-2.835l15.727-2.117Z" fill="#31d9e7"/>
      <path id="Trazado_109878" data-name="Trazado 109878" d="M229.121,5136.17v17.154a3.671,3.671,0,1,1-7.341,0V5136.17a3.671,3.671,0,1,1,7.341,0Z" fill="#47ecfa"/>
      <path id="Trazado_109879" data-name="Trazado 109879" d="M230.616,5212.024H201.254l4.826-15.768h19.71Z" fill="#f9e478"/>
      <g id="Grupo_60530" data-name="Grupo 60530">
        <path id="Trazado_109880" data-name="Trazado 109880" d="M254.253,5181.675a6.08,6.08,0,0,1-6.078,6.085h-34.11a6.086,6.086,0,0,1,0-12.172h1.63l4.686-6.47,4.685,6.47h23.109A6.082,6.082,0,0,1,254.253,5181.675Z" fill="#fbdf63"/>
        <path id="Trazado_109881" data-name="Trazado 109881" d="M254.253,5181.675a6.08,6.08,0,0,1-6.078,6.085h-4.9a6.086,6.086,0,0,0,0-12.172h4.9A6.082,6.082,0,0,1,254.253,5181.675Z" fill="#ffa402"/>
      </g>
      <g id="Grupo_60531" data-name="Grupo 60531">
        <path id="Trazado_109882" data-name="Trazado 109882" d="M155.038,5130.944a1.838,1.838,0,0,0,1.838-1.838V5114.76a9.431,9.431,0,0,1,9.406-9.435h2.786a1.838,1.838,0,0,0,0-3.676h-2.786A13.111,13.111,0,0,0,153.2,5114.76v14.346A1.838,1.838,0,0,0,155.038,5130.944Z" fill="#afa054"/>
        <path id="Trazado_109883" data-name="Trazado 109883" d="M265.588,5101.65H222.332a1.838,1.838,0,1,0,0,3.675h43.257a9.432,9.432,0,0,1,9.406,9.435v70.224a9.432,9.432,0,0,1-9.406,9.435H166.282a9.431,9.431,0,0,1-9.406-9.435v-47.326a1.838,1.838,0,0,0-3.676,0v47.326a13.111,13.111,0,0,0,13.082,13.11H203.6l-3.7,12.092h-8.151a1.838,1.838,0,1,0,0,3.676h48.383a1.838,1.838,0,1,0,0-3.676h-8.151l-3.7-12.092h37.314a13.111,13.111,0,0,0,13.082-13.11V5114.76a13.112,13.112,0,0,0-13.083-13.11Zm-61.849,108.536,3.7-12.092h16.99l3.7,12.092Z" fill="#afa054"/>
        <path id="Trazado_109884" data-name="Trazado 109884" d="M166.344,5112.31h2.969a1.838,1.838,0,0,0,0-3.676h-2.969a5.823,5.823,0,0,0-5.811,5.821v63.236a5.823,5.823,0,0,0,5.811,5.822h34.262a1.838,1.838,0,0,0,0-3.676H166.344a2.143,2.143,0,0,1-2.135-2.146v-63.236A2.142,2.142,0,0,1,166.344,5112.31Z" fill="#afa054"/>
        <path id="Trazado_109885" data-name="Trazado 109885" d="M269.5,5145.074a1.838,1.838,0,0,0-1.838,1.838v30.779a2.143,2.143,0,0,1-2.135,2.146h-3.975a1.838,1.838,0,0,0,0,3.676h3.975a5.824,5.824,0,0,0,5.811-5.822v-30.779A1.838,1.838,0,0,0,269.5,5145.074Z" fill="#afa054"/>
        <path id="Trazado_109886" data-name="Trazado 109886" d="M271.337,5114.455a5.823,5.823,0,0,0-5.811-5.821H222.639a1.838,1.838,0,0,0,0,3.676h42.887a2.142,2.142,0,0,1,2.135,2.145v23.8a1.838,1.838,0,0,0,3.676,0Z" fill="#afa054"/>
        <path id="Trazado_109887" data-name="Trazado 109887" d="M205.807,5137.153a4.712,4.712,0,0,0-4.068,4.656v1.1h-3.4a1.838,1.838,0,1,0,0,3.676h3.4v1.1a4.712,4.712,0,0,0,4.068,4.657l.477.064v7.248a1.838,1.838,0,1,0,3.676,0V5152.9l10.061,1.354a5.508,5.508,0,0,0,10.938-.93v-17.155a5.508,5.508,0,0,0-10.938-.93Zm14.135,13.382L206.3,5148.7a1.025,1.025,0,0,1-.883-1.014v-5.875a1.024,1.024,0,0,1,.883-1.013l13.644-1.837Zm3.676-14.365a1.833,1.833,0,1,1,3.665,0v17.154a1.833,1.833,0,1,1-3.665,0Z" fill="#afa054"/>
        <path id="Trazado_109888" data-name="Trazado 109888" d="M180.083,5121.69h10.953l3.307,4.765a1.838,1.838,0,0,0,3.02,0l3.307-4.765h10.953a5.523,5.523,0,0,0,5.516-5.516v-22.267a5.523,5.523,0,0,0-5.516-5.516H192.832a1.838,1.838,0,1,0,0,3.676h18.791a1.842,1.842,0,0,1,1.839,1.84v22.267a1.842,1.842,0,0,1-1.839,1.84H199.708a1.836,1.836,0,0,0-1.51.79l-2.345,3.379-2.345-3.379a1.837,1.837,0,0,0-1.51-.79H180.083a1.842,1.842,0,0,1-1.84-1.84v-22.267a1.843,1.843,0,0,1,1.84-1.84h4.2a1.838,1.838,0,1,0,0-3.676h-4.2a5.522,5.522,0,0,0-5.515,5.516v22.267a5.522,5.522,0,0,0,5.515,5.516Z" fill="#afa054"/>
        <path id="Trazado_109889" data-name="Trazado 109889" d="M168.9,5187.135a1.838,1.838,0,0,0,0,3.676H176.4a1.838,1.838,0,0,0,0-3.676Z" fill="#afa054"/>
        <path id="Trazado_109890" data-name="Trazado 109890" d="M183.6,5187.135a1.838,1.838,0,0,0,0,3.676h7.508a1.838,1.838,0,0,0,0-3.676Z" fill="#afa054"/>
        <path id="Trazado_109891" data-name="Trazado 109891" d="M194.553,5112.5a1.838,1.838,0,0,0,2.6,0l6.058-6.057a5.508,5.508,0,0,0-3.89-9.407h0a5.477,5.477,0,0,0-3.463,1.226,5.481,5.481,0,0,0-3.464-1.226h0a5.508,5.508,0,0,0-3.889,9.407Zm-3.461-11.252a1.813,1.813,0,0,1,1.294-.536h0a1.826,1.826,0,0,1,1.3.54l.867.866a1.836,1.836,0,0,0,2.6,0l.867-.867a1.829,1.829,0,0,1,1.3-.539h0a1.814,1.814,0,0,1,1.294.536,1.836,1.836,0,0,1,0,2.595l-4.757,4.758-4.758-4.758a1.837,1.837,0,0,1,0-2.595Z" fill="#afa054"/>
        <path id="Trazado_109892" data-name="Trazado 109892" d="M176.4,5161.762h7.877a1.838,1.838,0,0,0,0-3.676H176.4a1.838,1.838,0,0,0,0,3.676Z" fill="#afa054"/>
        <path id="Trazado_109893" data-name="Trazado 109893" d="M176.4,5170.339h12.771a1.837,1.837,0,1,0,0-3.675H176.4a1.837,1.837,0,0,0,0,3.675Z" fill="#afa054"/>
        <path id="Trazado_109894" data-name="Trazado 109894" d="M258.09,5132.506a1.838,1.838,0,0,0-1.838-1.838h-7.877a1.838,1.838,0,0,0,0,3.676h7.877A1.838,1.838,0,0,0,258.09,5132.506Z" fill="#afa054"/>
        <path id="Trazado_109895" data-name="Trazado 109895" d="M256.252,5122.091H243.481a1.838,1.838,0,0,0,0,3.676h12.771a1.838,1.838,0,0,0,0-3.676Z" fill="#afa054"/>
        <path id="Trazado_109896" data-name="Trazado 109896" d="M214.067,5177.427h1.627a1.837,1.837,0,0,0,1.488-.76l3.2-4.415,3.2,4.415a1.838,1.838,0,0,0,1.488.76H235.2a1.838,1.838,0,1,0,0-3.676h-9.2l-4.136-5.711a1.837,1.837,0,0,0-2.977,0l-4.136,5.711h-.689a7.924,7.924,0,0,0,0,15.848h34.109a7.924,7.924,0,0,0,0-15.848h-4.468a1.838,1.838,0,1,0,0,3.676h4.468a4.248,4.248,0,0,1,0,8.5H214.067a4.248,4.248,0,0,1,0-8.5Z" fill="#afa054"/>
      </g>
    </g>
  </g>
</svg>
