<svg xmlns="http://www.w3.org/2000/svg" width="195.316" height="195.316" viewBox="0 0 195.316 195.316">
  <g id="Grupo_61520" data-name="Grupo 61520" transform="translate(-255 -5059)">
    <circle id="Elipse_4205" data-name="Elipse 4205" cx="97.658" cy="97.658" r="97.658" transform="translate(255 5059)" fill="#fff"/>
    <g id="Grupo_60532" data-name="Grupo 60532" transform="translate(136.595 5.969)">
      <path id="Trazado_109870" data-name="Trazado 109870" d="M276.833,5114.759v70.225a11.26,11.26,0,0,1-11.244,11.273H166.281a11.259,11.259,0,0,1-11.243-11.273v-70.225a11.258,11.258,0,0,1,11.243-11.272h99.308A11.259,11.259,0,0,1,276.833,5114.759Z" fill="#d4c266"/>
      <path id="Trazado_109871" data-name="Trazado 109871" d="M276.833,5114.759v70.225a11.26,11.26,0,0,1-11.244,11.273h-4.9a11.259,11.259,0,0,0,11.243-11.273v-70.225a11.258,11.258,0,0,0-11.243-11.272h4.9A11.259,11.259,0,0,1,276.833,5114.759Z" fill="#f9e478"/>
      <path id="Trazado_109872" data-name="Trazado 109872" d="M269.5,5114.455v63.236a3.979,3.979,0,0,1-3.975,3.984h-99.18a3.979,3.979,0,0,1-3.975-3.984v-63.236a3.979,3.979,0,0,1,3.975-3.984h99.18A3.979,3.979,0,0,1,269.5,5114.455Z" fill="#d9f0f4"/>
      <path id="Trazado_109873" data-name="Trazado 109873" d="M269.5,5114.455v63.236a3.979,3.979,0,0,1-3.975,3.984h-4.9a3.979,3.979,0,0,0,3.975-3.984v-63.236a3.979,3.979,0,0,0-3.975-3.984h4.9A3.979,3.979,0,0,1,269.5,5114.455Z" fill="#bae1e5"/>
      <path id="Trazado_109874" data-name="Trazado 109874" d="M215.3,5093.907v22.266a3.678,3.678,0,0,1-3.678,3.679H199.707l-3.855,5.555L192,5119.852H180.083a3.679,3.679,0,0,1-3.679-3.679v-22.266a3.679,3.679,0,0,1,3.679-3.678h31.539a3.678,3.678,0,0,1,3.678,3.678Z" fill="#f17781"/>
      <path id="Trazado_109875" data-name="Trazado 109875" d="M215.3,5093.907v22.266a3.678,3.678,0,0,1-3.678,3.679h-4.9a3.679,3.679,0,0,0,3.678-3.679v-22.266a3.678,3.678,0,0,0-3.678-3.678h4.9a3.678,3.678,0,0,1,3.678,3.678Z" fill="#ce666e"/>
      <path id="Trazado_109876" data-name="Trazado 109876" d="M201.914,5099.943a3.675,3.675,0,0,0-5.2,0l-.866.867-.867-.867a3.67,3.67,0,1,0-5.19,5.191l6.057,6.057,6.057-6.057A3.674,3.674,0,0,0,201.914,5099.943Z" fill="#f9edb0"/>
      <path id="Trazado_109877" data-name="Trazado 109877" d="M221.78,5152.637l-15.727-2.118a2.858,2.858,0,0,1-2.476-2.835v-5.875a2.859,2.859,0,0,1,2.476-2.835l15.727-2.117Z" fill="#31d9e7"/>
      <path id="Trazado_109878" data-name="Trazado 109878" d="M229.121,5136.17v17.154a3.671,3.671,0,1,1-7.341,0V5136.17a3.671,3.671,0,1,1,7.341,0Z" fill="#47ecfa"/>
      <path id="Trazado_109879" data-name="Trazado 109879" d="M230.616,5212.024H201.254l4.826-15.768h19.71Z" fill="#f9e478"/>
      <g id="Grupo_60530" data-name="Grupo 60530">
        <path id="Trazado_109880" data-name="Trazado 109880" d="M254.253,5181.675a6.08,6.08,0,0,1-6.078,6.085h-34.11a6.086,6.086,0,0,1,0-12.172h1.63l4.686-6.47,4.685,6.47h23.109A6.082,6.082,0,0,1,254.253,5181.675Z" fill="#fbdf63"/>
        <path id="Trazado_109881" data-name="Trazado 109881" d="M254.253,5181.675a6.08,6.08,0,0,1-6.078,6.085h-4.9a6.086,6.086,0,0,0,0-12.172h4.9A6.082,6.082,0,0,1,254.253,5181.675Z" fill="#ffa402"/>
      </g>
      <g id="Grupo_60531" data-name="Grupo 60531">
        <path id="Trazado_109882" data-name="Trazado 109882" d="M155.038,5130.944a1.838,1.838,0,0,0,1.838-1.838V5114.76a9.431,9.431,0,0,1,9.406-9.435h2.786a1.838,1.838,0,0,0,0-3.676h-2.786A13.111,13.111,0,0,0,153.2,5114.76v14.346A1.838,1.838,0,0,0,155.038,5130.944Z" fill="#afa054"/>
        <path id="Trazado_109883" data-name="Trazado 109883" d="M265.588,5101.65H222.332a1.838,1.838,0,1,0,0,3.675h43.257a9.432,9.432,0,0,1,9.406,9.435v70.224a9.432,9.432,0,0,1-9.406,9.435H166.282a9.431,9.431,0,0,1-9.406-9.435v-47.326a1.838,1.838,0,0,0-3.676,0v47.326a13.111,13.111,0,0,0,13.082,13.11H203.6l-3.7,12.092h-8.151a1.838,1.838,0,1,0,0,3.676h48.383a1.838,1.838,0,1,0,0-3.676h-8.151l-3.7-12.092h37.314a13.111,13.111,0,0,0,13.082-13.11V5114.76a13.112,13.112,0,0,0-13.083-13.11Zm-61.849,108.536,3.7-12.092h16.99l3.7,12.092Z" fill="#afa054"/>
        <path id="Trazado_109884" data-name="Trazado 109884" d="M166.344,5112.31h2.969a1.838,1.838,0,0,0,0-3.676h-2.969a5.823,5.823,0,0,0-5.811,5.821v63.236a5.823,5.823,0,0,0,5.811,5.822h34.262a1.838,1.838,0,0,0,0-3.676H166.344a2.143,2.143,0,0,1-2.135-2.146v-63.236A2.142,2.142,0,0,1,166.344,5112.31Z" fill="#afa054"/>
        <path id="Trazado_109885" data-name="Trazado 109885" d="M269.5,5145.074a1.838,1.838,0,0,0-1.838,1.838v30.779a2.143,2.143,0,0,1-2.135,2.146h-3.975a1.838,1.838,0,0,0,0,3.676h3.975a5.824,5.824,0,0,0,5.811-5.822v-30.779A1.838,1.838,0,0,0,269.5,5145.074Z" fill="#afa054"/>
        <path id="Trazado_109886" data-name="Trazado 109886" d="M271.337,5114.455a5.823,5.823,0,0,0-5.811-5.821H222.639a1.838,1.838,0,0,0,0,3.676h42.887a2.142,2.142,0,0,1,2.135,2.145v23.8a1.838,1.838,0,0,0,3.676,0Z" fill="#afa054"/>
        <path id="Trazado_109887" data-name="Trazado 109887" d="M205.807,5137.153a4.712,4.712,0,0,0-4.068,4.656v1.1h-3.4a1.838,1.838,0,1,0,0,3.676h3.4v1.1a4.712,4.712,0,0,0,4.068,4.657l.477.064v7.248a1.838,1.838,0,1,0,3.676,0V5152.9l10.061,1.354a5.508,5.508,0,0,0,10.938-.93v-17.155a5.508,5.508,0,0,0-10.938-.93Zm14.135,13.382L206.3,5148.7a1.025,1.025,0,0,1-.883-1.014v-5.875a1.024,1.024,0,0,1,.883-1.013l13.644-1.837Zm3.676-14.365a1.833,1.833,0,1,1,3.665,0v17.154a1.833,1.833,0,1,1-3.665,0Z" fill="#afa054"/>
        <path id="Trazado_109888" data-name="Trazado 109888" d="M180.083,5121.69h10.953l3.307,4.765a1.838,1.838,0,0,0,3.02,0l3.307-4.765h10.953a5.523,5.523,0,0,0,5.516-5.516v-22.267a5.523,5.523,0,0,0-5.516-5.516H192.832a1.838,1.838,0,1,0,0,3.676h18.791a1.842,1.842,0,0,1,1.839,1.84v22.267a1.842,1.842,0,0,1-1.839,1.84H199.708a1.836,1.836,0,0,0-1.51.79l-2.345,3.379-2.345-3.379a1.837,1.837,0,0,0-1.51-.79H180.083a1.842,1.842,0,0,1-1.84-1.84v-22.267a1.843,1.843,0,0,1,1.84-1.84h4.2a1.838,1.838,0,1,0,0-3.676h-4.2a5.522,5.522,0,0,0-5.515,5.516v22.267a5.522,5.522,0,0,0,5.515,5.516Z" fill="#afa054"/>
        <path id="Trazado_109889" data-name="Trazado 109889" d="M168.9,5187.135a1.838,1.838,0,0,0,0,3.676H176.4a1.838,1.838,0,0,0,0-3.676Z" fill="#afa054"/>
        <path id="Trazado_109890" data-name="Trazado 109890" d="M183.6,5187.135a1.838,1.838,0,0,0,0,3.676h7.508a1.838,1.838,0,0,0,0-3.676Z" fill="#afa054"/>
        <path id="Trazado_109891" data-name="Trazado 109891" d="M194.553,5112.5a1.838,1.838,0,0,0,2.6,0l6.058-6.057a5.508,5.508,0,0,0-3.89-9.407h0a5.477,5.477,0,0,0-3.463,1.226,5.481,5.481,0,0,0-3.464-1.226h0a5.508,5.508,0,0,0-3.889,9.407Zm-3.461-11.252a1.813,1.813,0,0,1,1.294-.536h0a1.826,1.826,0,0,1,1.3.54l.867.866a1.836,1.836,0,0,0,2.6,0l.867-.867a1.829,1.829,0,0,1,1.3-.539h0a1.814,1.814,0,0,1,1.294.536,1.836,1.836,0,0,1,0,2.595l-4.757,4.758-4.758-4.758a1.837,1.837,0,0,1,0-2.595Z" fill="#afa054"/>
        <path id="Trazado_109892" data-name="Trazado 109892" d="M176.4,5161.762h7.877a1.838,1.838,0,0,0,0-3.676H176.4a1.838,1.838,0,0,0,0,3.676Z" fill="#afa054"/>
        <path id="Trazado_109893" data-name="Trazado 109893" d="M176.4,5170.339h12.771a1.837,1.837,0,1,0,0-3.675H176.4a1.837,1.837,0,0,0,0,3.675Z" fill="#afa054"/>
        <path id="Trazado_109894" data-name="Trazado 109894" d="M258.09,5132.506a1.838,1.838,0,0,0-1.838-1.838h-7.877a1.838,1.838,0,0,0,0,3.676h7.877A1.838,1.838,0,0,0,258.09,5132.506Z" fill="#afa054"/>
        <path id="Trazado_109895" data-name="Trazado 109895" d="M256.252,5122.091H243.481a1.838,1.838,0,0,0,0,3.676h12.771a1.838,1.838,0,0,0,0-3.676Z" fill="#afa054"/>
        <path id="Trazado_109896" data-name="Trazado 109896" d="M214.067,5177.427h1.627a1.837,1.837,0,0,0,1.488-.76l3.2-4.415,3.2,4.415a1.838,1.838,0,0,0,1.488.76H235.2a1.838,1.838,0,1,0,0-3.676h-9.2l-4.136-5.711a1.837,1.837,0,0,0-2.977,0l-4.136,5.711h-.689a7.924,7.924,0,0,0,0,15.848h34.109a7.924,7.924,0,0,0,0-15.848h-4.468a1.838,1.838,0,1,0,0,3.676h4.468a4.248,4.248,0,0,1,0,8.5H214.067a4.248,4.248,0,0,1,0-8.5Z" fill="#afa054"/>
      </g>
    </g>
    <g id="Grupo_61513" data-name="Grupo 61513" transform="translate(-450 1289)">
      <g id="Trazado_110630" data-name="Trazado 110630" transform="translate(705 3770)" fill="#b9ae75">
        <path d="M 28 55.5 C 24.28730010986328 55.5 20.6859302520752 54.77296829223633 17.2959098815918 53.33911895751953 C 14.02128982543945 51.95407104492188 11.08028030395508 49.97114944458008 8.554559707641602 47.44543838500977 C 6.028850078582764 44.91971969604492 4.045929908752441 41.97871017456055 2.660880088806152 38.7040901184082 C 1.227030038833618 35.31407165527344 0.5 31.71269989013672 0.5 28 C 0.5 24.28730010986328 1.227030038833618 20.6859302520752 2.660880088806152 17.2959098815918 C 4.045929908752441 14.02128982543945 6.028850078582764 11.08028030395508 8.554559707641602 8.554559707641602 C 11.08028030395508 6.028850078582764 14.02128982543945 4.045929908752441 17.2959098815918 2.660880088806152 C 20.6859302520752 1.227030038833618 24.28730010986328 0.5 28 0.5 C 31.71269989013672 0.5 35.31407165527344 1.227030038833618 38.7040901184082 2.660880088806152 C 41.97871017456055 4.045929908752441 44.91971969604492 6.028850078582764 47.44543838500977 8.554559707641602 C 49.97114944458008 11.08028030395508 51.95407104492188 14.02128982543945 53.33911895751953 17.2959098815918 C 54.77296829223633 20.6859302520752 55.5 24.28730010986328 55.5 28 C 55.5 31.71269989013672 54.77296829223633 35.31407165527344 53.33911895751953 38.7040901184082 C 51.95407104492188 41.97871017456055 49.97114944458008 44.91971969604492 47.44543838500977 47.44543838500977 C 44.91971969604492 49.97114944458008 41.97871017456055 51.95407104492188 38.7040901184082 53.33911895751953 C 35.31407165527344 54.77296829223633 31.71269989013672 55.5 28 55.5 Z" stroke="none"/>
        <path d="M 28 1 C 24.35457992553711 1 20.81874084472656 1.713741302490234 17.49068832397461 3.121379852294922 C 14.27566909790039 4.481220245361328 11.38806915283203 6.42816162109375 8.908119201660156 8.908119201660156 C 6.42816162109375 11.38806915283203 4.481220245361328 14.27566909790039 3.121379852294922 17.49068832397461 C 1.713741302490234 20.81874084472656 1 24.35457992553711 1 28 C 1 31.64542007446289 1.713741302490234 35.18125915527344 3.121379852294922 38.50930786132812 C 4.481220245361328 41.72433090209961 6.42816162109375 44.61193084716797 8.908119201660156 47.09188079833984 C 11.38806915283203 49.57183837890625 14.27566909790039 51.51877975463867 17.49068832397461 52.87862014770508 C 20.81874084472656 54.28625869750977 24.35457992553711 55 28 55 C 31.64542007446289 55 35.18125915527344 54.28625869750977 38.50930786132812 52.87862014770508 C 41.72433090209961 51.51877975463867 44.61193084716797 49.57183837890625 47.09188079833984 47.09188079833984 C 49.57183837890625 44.61193084716797 51.51877975463867 41.72433090209961 52.87862014770508 38.50930786132812 C 54.28625869750977 35.18125915527344 55 31.64542007446289 55 28 C 55 24.35457992553711 54.28625869750977 20.81874084472656 52.87862014770508 17.49068832397461 C 51.51877975463867 14.27566909790039 49.57183837890625 11.38806915283203 47.09188079833984 8.908119201660156 C 44.61193084716797 6.42816162109375 41.72433090209961 4.481220245361328 38.50930786132812 3.121379852294922 C 35.18125915527344 1.713741302490234 31.64542007446289 1 28 1 M 28 0 C 43.46397018432617 0 56 12.53602981567383 56 28 C 56 43.46397018432617 43.46397018432617 56 28 56 C 12.53602981567383 56 0 43.46397018432617 0 28 C 0 12.53602981567383 12.53602981567383 0 28 0 Z" stroke="none" fill="#fff"/>
      </g>
      <path id="Trazado_110629" data-name="Trazado 110629" d="M11.467,21.2a4.451,4.451,0,0,1-1.758,3.762,8.178,8.178,0,0,1-5.027,1.336,14.25,14.25,0,0,1-2.414-.205,10.328,10.328,0,0,1-2.051-.545V21.629a7.015,7.015,0,0,0,1.793.738,7.86,7.86,0,0,0,2.039.27,3.29,3.29,0,0,0,1.834-.428,1.386,1.386,0,0,0,.639-1.225,1.406,1.406,0,0,0-.785-1.266,4.38,4.38,0,0,0-2.191-.457H1.928v-3.68h1.43a3.907,3.907,0,0,0,2.092-.439A1.319,1.319,0,0,0,6.123,14a1.253,1.253,0,0,0-.51-1.055,2.584,2.584,0,0,0-1.564-.387A6.482,6.482,0,0,0,.791,13.5V9.758A11.108,11.108,0,0,1,5.08,8.914a7.374,7.374,0,0,1,4.371,1.137A3.666,3.666,0,0,1,11.033,13.2a4.1,4.1,0,0,1-.85,2.637A4,4,0,0,1,7.8,17.234v.059a4.332,4.332,0,0,1,2.684,1.295A3.69,3.69,0,0,1,11.467,21.2Z" transform="translate(727 3782)" fill="#fff" stroke="#fff" stroke-width="1"/>
    </g>
  </g>
</svg>
