<svg xmlns="http://www.w3.org/2000/svg" width="150" height="150" viewBox="0 0 150 150">
  <g id="Grupo_61515" data-name="Grupo 61515" transform="translate(-325 -4122)">
    <circle id="Elipse_4256" data-name="Elipse 4256" cx="75" cy="75" r="75" transform="translate(325 4122)" fill="#fff"/>
    <g id="Grupo_61479" data-name="Grupo 61479" transform="translate(109.72 -3084.514)">
      <g id="Grupo_61480" data-name="Grupo 61480">
        <path id="Trazado_108255" data-name="Trazado 108255" d="M304.087,7325.967v-73.635a3.223,3.223,0,0,0-3.223-3.223H255.84a3.225,3.225,0,0,0-3.225,3.223v73.635a3.225,3.225,0,0,0,3.225,3.224h45.017a3.224,3.224,0,0,0,3.223-3.224Z" fill="#c595ff"/>
        <path id="Trazado_108256" data-name="Trazado 108256" d="M311.433,7249.109H300.644a3.223,3.223,0,0,1,3.223,3.223h0v73.635a3.223,3.223,0,0,1-3.223,3.224h10.789a3.224,3.224,0,0,0,3.223-3.224v-73.635a3.223,3.223,0,0,0-3.223-3.223Z" fill="#bb83ff"/>
        <path id="Trazado_108257" data-name="Trazado 108257" d="M257.89,7322.773v-67.24a1.154,1.154,0,0,1,1.153-1.152h49.192a1.15,1.15,0,0,1,1.152,1.15v67.242a1.153,1.153,0,0,1-1.152,1.153H259.043A1.154,1.154,0,0,1,257.89,7322.773Z" fill="#f5f5f5"/>
        <path id="Trazado_108258" data-name="Trazado 108258" d="M308.235,7254.377H297.447a1.152,1.152,0,0,1,1.152,1.152h0v67.244a1.153,1.153,0,0,1-1.152,1.153h10.788a1.152,1.152,0,0,0,1.152-1.153h0v-67.24a1.152,1.152,0,0,0-1.147-1.156Z" fill="#eaeaea"/>
        <path id="Trazado_108259" data-name="Trazado 108259" d="M290.487,7245.941v-1.7a2.314,2.314,0,0,0-2.314-2.314h-9.067a2.316,2.316,0,0,0-2.316,2.314v1.7a.946.946,0,0,1-.946.946h-3.773a2.273,2.273,0,0,0-2.273,2.273v5.217H297.48v-5.217a2.273,2.273,0,0,0-2.273-2.273h-3.774a.947.947,0,0,1-.946-.946Z" fill="#a271dc"/>
        <g id="Grupo_59764" data-name="Grupo 59764">
          <path id="Trazado_108260" data-name="Trazado 108260" d="M264.593,7273.083v-10.148a2.035,2.035,0,0,1,2.035-2.035h10.147a2.035,2.035,0,0,1,2.036,2.035h0v10.148a2.035,2.035,0,0,1-2.035,2.035H266.628a2.035,2.035,0,0,1-2.035-2.035Z" fill="#a271dc"/>
          <path id="Trazado_108261" data-name="Trazado 108261" d="M264.593,7294.224v-10.148a2.035,2.035,0,0,1,2.035-2.035h10.147a2.035,2.035,0,0,1,2.036,2.035h0v10.148a2.035,2.035,0,0,1-2.035,2.035H266.628a2.035,2.035,0,0,1-2.035-2.035Z" fill="#a271dc"/>
          <path id="Trazado_108262" data-name="Trazado 108262" d="M264.593,7315.364V7305.22a2.035,2.035,0,0,1,2.035-2.035h10.147a2.035,2.035,0,0,1,2.036,2.035h0v10.147a2.035,2.035,0,0,1-2.035,2.036H266.628a2.035,2.035,0,0,1-2.035-2.036Z" fill="#a271dc"/>
        </g>
        <g id="Grupo_59765" data-name="Grupo 59765">
          <path id="Trazado_108263" data-name="Trazado 108263" d="M270.842,7271.643h0a1.835,1.835,0,0,1-1.475-.747l-1.538-2.116a1.317,1.317,0,0,1,2.129-1.551l.892,1.225,2.607-3.542a1.317,1.317,0,0,1,2.116,1.561l-3.258,4.425A1.833,1.833,0,0,1,270.842,7271.643Z" fill="#f6f9f9"/>
        </g>
        <g id="Grupo_59766" data-name="Grupo 59766">
          <path id="Trazado_108264" data-name="Trazado 108264" d="M270.842,7293.244h0a1.843,1.843,0,0,1-1.475-.747l-1.538-2.117a1.317,1.317,0,0,1,2.111-1.576l.018.025.892,1.225,2.607-3.542a1.317,1.317,0,0,1,2.116,1.561l-3.258,4.426a1.837,1.837,0,0,1-1.474.747Z" fill="#f6f9f9"/>
        </g>
        <g id="Grupo_59767" data-name="Grupo 59767">
          <path id="Trazado_108265" data-name="Trazado 108265" d="M270.842,7313.924h0a1.842,1.842,0,0,1-1.475-.747l-1.538-2.116a1.317,1.317,0,0,1,2.111-1.576l.018.025.892,1.225,2.607-3.542a1.317,1.317,0,0,1,2.207,1.438,1.361,1.361,0,0,1-.091.123l-3.258,4.426a1.839,1.839,0,0,1-1.474.747Z" fill="#f6f9f9"/>
        </g>
        <g id="Grupo_59770" data-name="Grupo 59770">
          <g id="Grupo_59768" data-name="Grupo 59768">
            <path id="Trazado_108266" data-name="Trazado 108266" d="M301.653,7266.574H285.368a1.317,1.317,0,1,1,0-2.633h16.285a1.317,1.317,0,0,1,0,2.633Z" fill="#c595ff"/>
          </g>
          <g id="Grupo_59769" data-name="Grupo 59769">
            <path id="Trazado_108267" data-name="Trazado 108267" d="M293.507,7272.078h-8.139a1.317,1.317,0,0,1,0-2.634h8.139a1.317,1.317,0,1,1,.015,2.634Z" fill="#c595ff"/>
          </g>
        </g>
        <g id="Grupo_59773" data-name="Grupo 59773">
          <g id="Grupo_59771" data-name="Grupo 59771">
            <path id="Trazado_108268" data-name="Trazado 108268" d="M296.291,7287.715H285.368a1.317,1.317,0,0,1,0-2.634h10.923a1.317,1.317,0,0,1,.015,2.634Z" fill="#c595ff"/>
          </g>
          <g id="Grupo_59772" data-name="Grupo 59772">
            <path id="Trazado_108269" data-name="Trazado 108269" d="M293.507,7293.218h-8.139a1.316,1.316,0,1,1,0-2.633h8.139a1.316,1.316,0,1,1,0,2.633Z" fill="#c595ff"/>
          </g>
        </g>
        <path id="Trazado_108270" data-name="Trazado 108270" d="M322.816,7276.308l-1.292-1.7-4.838-3.064-1.86-.292-24.773,39.144a10.182,10.182,0,0,0-1.3,3.065,7.983,7.983,0,0,1,7.073,4.481,10.209,10.209,0,0,0,2.215-2.483Z" fill="#855db5"/>
        <path id="Trazado_108271" data-name="Trazado 108271" d="M326.315,7264.255l-2.091-1.325a3.485,3.485,0,0,0-4.811,1.073l-.006.01-1.918,3.029.612,1.234,5.817,3.683,1.561.144,1.919-3.031a3.486,3.486,0,0,0-1.075-4.812Z" fill="#c595ff"/>
        <path id="Trazado_108272" data-name="Trazado 108272" d="M314.83,7271.234l2.663-4.207,7.992,5.061-2.662,4.205Z" fill="#a271dc"/>
        <path id="Trazado_108273" data-name="Trazado 108273" d="M295.83,7317.937l-7.053,5.683a1.339,1.339,0,0,1-2.142-1.356l2.123-8.807a7.981,7.981,0,0,1,7.072,4.482Z" fill="#c595ff"/>
        <path id="Trazado_108274" data-name="Trazado 108274" d="M293.98,7315.5l25.967-41.006-2.225-1.409-25.968,41.006A7.959,7.959,0,0,1,293.98,7315.5Z" fill="#c595ff"/>
      </g>
      <rect id="Rectángulo_5525" data-name="Rectángulo 5525" width="102" height="102" transform="translate(239.28 7234.513)" fill="none"/>
    </g>
  </g>
</svg>
