<svg xmlns="http://www.w3.org/2000/svg" width="150" height="150" viewBox="0 0 150 150">
  <g id="Grupo_61514" data-name="Grupo 61514" transform="translate(-325 -2745)">
    <circle id="Elipse_4255" data-name="Elipse 4255" cx="75" cy="75" r="75" transform="translate(325 2745)" fill="#fff"/>
    <g id="Grupo_61478" data-name="Grupo 61478" transform="translate(276.807 2698.306)">
      <rect id="Rectángulo_6365" data-name="Rectángulo 6365" width="102" height="101" transform="translate(72.193 75.694)" fill="none"/>
      <g id="Grupo_59808" data-name="Grupo 59808" transform="translate(87.467 89.039)">
        <g id="Grupo_59751" data-name="Grupo 59751" transform="translate(0 16.222)">
          <path id="Trazado_108193" data-name="Trazado 108193" d="M938.793,2453.749h-65.4a2.566,2.566,0,0,0-2.566,2.566v32.033l2.494,1.558h65.549l2.494-1.558v-32.033A2.567,2.567,0,0,0,938.793,2453.749Z" transform="translate(-870.822 -2453.749)" fill="#855db5"/>
          <path id="Trazado_108194" data-name="Trazado 108194" d="M1044.667,2453.749h-2.6a2.566,2.566,0,0,1,2.566,2.566v33.591h.111l2.493-1.558v-32.033a2.566,2.566,0,0,0-2.566-2.566Z" transform="translate(-976.696 -2453.749)" fill="#855db5"/>
        </g>
        <path id="Trazado_108195" data-name="Trazado 108195" d="M941.359,2544.39v8.943a2.567,2.567,0,0,1-2.566,2.567h-65.4a2.567,2.567,0,0,1-2.566-2.567v-8.943Z" transform="translate(-870.822 -2493.568)" fill="#dae7ef"/>
        <path id="Trazado_108196" data-name="Trazado 108196" d="M1044.628,2544.39v8.943a2.567,2.567,0,0,1-2.566,2.567h2.6a2.567,2.567,0,0,0,2.566-2.567v-8.943Z" transform="translate(-976.696 -2493.568)" fill="#c1d5e4"/>
        <path id="Trazado_108197" data-name="Trazado 108197" d="M881.232,2494.785V2464.6a.446.446,0,0,1,.446-.446h61.7a.445.445,0,0,1,.445.446v30.182Z" transform="translate(-877.258 -2443.963)" fill="#dcbfff"/>
        <path id="Trazado_108198" data-name="Trazado 108198" d="M1037.913,2464.158v30.627h2.78V2464.6a.445.445,0,0,0-.445-.446Z" transform="translate(-974.131 -2443.963)" fill="#bb83ff"/>
        <g id="Grupo_59752" data-name="Grupo 59752" transform="translate(32.801 55.436)">
          <path id="Trazado_108199" data-name="Trazado 108199" d="M960.545,2558.761h-2.653a1.141,1.141,0,1,1,0-2.282h2.653a1.141,1.141,0,0,1,0,2.282Z" transform="translate(-956.751 -2556.479)" fill="#242e7a"/>
        </g>
        <path id="Trazado_108200" data-name="Trazado 108200" d="M953.759,2603.193H925.716a.473.473,0,0,1-.444-.635l.641-1.755a2.348,2.348,0,0,1,2.26-1.374H951.3a2.348,2.348,0,0,1,2.261,1.374l.641,1.755A.473.473,0,0,1,953.759,2603.193Z" transform="translate(-904.469 -2527.598)" fill="#dae7ef"/>
        <path id="Trazado_108201" data-name="Trazado 108201" d="M954.023,2574.544H941.2a8.028,8.028,0,0,1-3.221,9.5h19.268a8.028,8.028,0,0,1-3.221-9.5Z" transform="translate(-912.342 -2512.212)" fill="#c1d5e4"/>
        <path id="Trazado_108202" data-name="Trazado 108202" d="M946.415,2574.544a9.482,9.482,0,0,1,.462,2.726h11.9a9.475,9.475,0,0,1,.462-2.726Z" transform="translate(-917.56 -2512.212)" fill="#98b9d3"/>
        <path id="Trazado_108203" data-name="Trazado 108203" d="M937.153,2416.531H914.06l7.543-5.279h10.3a3.946,3.946,0,0,1,3.455,2.038Z" transform="translate(-897.555 -2411.252)" fill="#dd5ca2"/>
        <path id="Trazado_108204" data-name="Trazado 108204" d="M925.922,2416.531h-19.6l6.168-5.279h8.184a3.947,3.947,0,0,1,3.455,2.038Z" transform="translate(-892.772 -2411.252)" fill="#eab14d"/>
        <path id="Trazado_108205" data-name="Trazado 108205" d="M946.2,2465.418H900.312a1.724,1.724,0,0,1-1.724-1.724v-38.612H946.2a1.724,1.724,0,0,1,1.724,1.724v36.888a1.724,1.724,0,0,1-1.723,1.724Z" transform="translate(-887.989 -2419.803)" fill="#f9f6f6"/>
        <path id="Trazado_108206" data-name="Trazado 108206" d="M1018.774,2425.082h-2.811a1.724,1.724,0,0,1,1.724,1.724v36.888a1.723,1.723,0,0,1-1.724,1.724h2.811a1.724,1.724,0,0,0,1.724-1.724v-36.888A1.724,1.724,0,0,0,1018.774,2425.082Z" transform="translate(-960.56 -2419.803)" fill="#dae7ef"/>
        <path id="Trazado_108207" data-name="Trazado 108207" d="M914.691,2416.531h-16.1v-3.311a1.969,1.969,0,0,1,1.969-1.968h8.888a3.946,3.946,0,0,1,3.454,2.038Z" transform="translate(-887.989 -2411.252)" fill="#80b4fb"/>
        <path id="Trazado_108208" data-name="Trazado 108208" d="M921.133,2498.117H916.6a.682.682,0,0,1-.682-.682v-10.869a.682.682,0,0,1,.682-.682h4.536a.682.682,0,0,1,.682.682v10.869A.682.682,0,0,1,921.133,2498.117Z" transform="translate(-898.702 -2457.396)" fill="#86f1a7"/>
        <path id="Trazado_108209" data-name="Trazado 108209" d="M924.807,2485.885h-2.95a.682.682,0,0,1,.682.682v10.869a.682.682,0,0,1-.682.682h2.95a.682.682,0,0,0,.682-.682v-10.869a.682.682,0,0,0-.682-.682Z" transform="translate(-902.376 -2457.396)" fill="#80e29d"/>
        <path id="Trazado_108210" data-name="Trazado 108210" d="M947.514,2488.263h-4.536a.682.682,0,0,1-.682-.682v-16.954a.681.681,0,0,1,.682-.681h4.536a.682.682,0,0,1,.682.681v16.954A.682.682,0,0,1,947.514,2488.263Z" transform="translate(-915.013 -2447.542)" fill="#80b4fb"/>
        <path id="Trazado_108211" data-name="Trazado 108211" d="M951.188,2469.946h-2.95a.682.682,0,0,1,.682.681v16.954a.682.682,0,0,1-.682.682h2.95a.682.682,0,0,0,.682-.682v-16.954a.682.682,0,0,0-.682-.681Z" transform="translate(-918.687 -2447.542)" fill="#61a2f9"/>
        <path id="Trazado_108212" data-name="Trazado 108212" d="M973.895,2500.581h-4.536a.682.682,0,0,1-.682-.682v-9.348a.682.682,0,0,1,.682-.681h4.536a.682.682,0,0,1,.682.681v9.348A.682.682,0,0,1,973.895,2500.581Z" transform="translate(-931.323 -2459.859)" fill="#ffe07d"/>
        <path id="Trazado_108213" data-name="Trazado 108213" d="M977.569,2489.869h-2.95a.682.682,0,0,1,.682.682v9.348a.682.682,0,0,1-.682.682h2.95a.682.682,0,0,0,.682-.682v-9.348A.681.681,0,0,0,977.569,2489.869Z" transform="translate(-934.998 -2459.859)" fill="#ffd064"/>
        <path id="Trazado_108214" data-name="Trazado 108214" d="M1000.276,2482.1h-4.536a.682.682,0,0,1-.682-.682v-20.755a.682.682,0,0,1,.682-.682h4.536a.682.682,0,0,1,.682.682v20.756a.682.682,0,0,1-.682.682Z" transform="translate(-947.634 -2441.382)" fill="#dd5ca2"/>
        <path id="Trazado_108215" data-name="Trazado 108215" d="M1003.95,2459.984H1001a.682.682,0,0,1,.682.682v20.756a.682.682,0,0,1-.682.682h2.95a.682.682,0,0,0,.682-.682v-20.756a.682.682,0,0,0-.682-.682Z" transform="translate(-951.308 -2441.382)" fill="#da4093"/>
        <path id="Trazado_108216" data-name="Trazado 108216" d="M949.439,2429.385a2.723,2.723,0,0,0-2.607,3.516l-6.153,5.472a2.717,2.717,0,0,0-3.633.971l-5.076-1.2a2.723,2.723,0,0,0-5.375.863l-6.069,3.726a2.728,2.728,0,1,0,1.37,1.837l5.893-3.618a2.716,2.716,0,0,0,3.653-.588l5.346,1.264a2.724,2.724,0,0,0,5.252-1.41l6.31-5.612a2.724,2.724,0,1,0,1.089-5.221Zm-30.21,16.187a.443.443,0,1,1,.443-.443A.444.444,0,0,1,919.229,2445.572Zm10.07-6.443a.443.443,0,1,1,.444-.444A.444.444,0,0,1,929.3,2439.129Zm10.07,2.076a.444.444,0,1,1,.443-.443A.444.444,0,0,1,939.369,2441.2Zm10.07-8.652a.443.443,0,1,1,.443-.443A.444.444,0,0,1,949.439,2432.553Z" transform="translate(-899.066 -2422.463)" fill="#855db5"/>
      </g>
    </g>
  </g>
</svg>
