<svg xmlns="http://www.w3.org/2000/svg" width="170.071" height="170.071" viewBox="0 0 170.071 170.071">
  <g id="Grupo_56717" data-name="Grupo 56717" transform="translate(-820.245 -1244.704)">
    <rect id="Rectángulo_5544" data-name="Rectángulo 5544" width="170.071" height="170.071" transform="translate(820.245 1244.704)" fill="none"/>
    <g id="Grupo_56716" data-name="Grupo 56716">
      <circle id="Elipse_4072" data-name="Elipse 4072" cx="54.426" cy="54.426" r="54.426" transform="translate(828.272 1323.777) rotate(-45)" fill="#d3c4ff"/>
      <g id="Grupo_56712" data-name="Grupo 56712">
        <path id="Trazado_105004" data-name="Trazado 105004" d="M977.275,1342a.712.712,0,0,1-.689-.876,74.267,74.267,0,0,0,1.489-8.095.709.709,0,1,1,1.406.178,75.412,75.412,0,0,1-1.518,8.251A.709.709,0,0,1,977.275,1342Zm2.089-16.463a.712.712,0,0,1-.709-.719q.009-.549.009-1.1c0-2.374-.117-4.772-.348-7.128a.708.708,0,0,1,1.41-.138c.236,2.4.355,4.846.355,7.266q0,.557-.008,1.116A.709.709,0,0,1,979.364,1325.535Zm-1.619-16.508a.71.71,0,0,1-.693-.561,73.2,73.2,0,0,0-2.172-7.935.709.709,0,1,1,1.344-.45,74.52,74.52,0,0,1,2.214,8.089.709.709,0,0,1-.545.841A.744.744,0,0,1,977.745,1309.027Zm-5.273-15.728a.708.708,0,0,1-.643-.409,74.274,74.274,0,0,0-3.887-7.254.709.709,0,1,1,1.21-.738,75.488,75.488,0,0,1,3.962,7.393.708.708,0,0,1-.642,1.008Zm-8.64-14.165a.708.708,0,0,1-.56-.275,74.653,74.653,0,0,0-5.393-6.218.709.709,0,1,1,1.017-.987,75.6,75.6,0,0,1,5.5,6.337.709.709,0,0,1-.56,1.143Zm-11.554-11.911a.705.705,0,0,1-.45-.162,73.8,73.8,0,0,0-6.635-4.871.709.709,0,0,1,.773-1.188,75.258,75.258,0,0,1,6.764,4.965.709.709,0,0,1-.452,1.256Z" fill="#3c3575"/>
      </g>
      <g id="Grupo_56713" data-name="Grupo 56713">
        <path id="Trazado_105005" data-name="Trazado 105005" d="M836.486,1352.158a.709.709,0,0,1-.657-.443,74.943,74.943,0,0,1-2.7-7.942.709.709,0,0,1,1.366-.38,73.132,73.132,0,0,0,2.651,7.791.707.707,0,0,1-.391.922A.692.692,0,0,1,836.486,1352.158Zm-4.452-15.984a.709.709,0,0,1-.7-.6,74.528,74.528,0,0,1-.854-8.345.709.709,0,1,1,1.416-.065,73.085,73.085,0,0,0,.838,8.186.709.709,0,0,1-.588.812A.728.728,0,0,1,832.034,1336.174Zm-.756-16.575-.048,0a.708.708,0,0,1-.66-.754c.061-.917.14-1.849.235-2.77.192-1.856.457-3.726.785-5.558a.709.709,0,0,1,1.4.25c-.323,1.8-.582,3.632-.771,5.454-.093.9-.171,1.818-.231,2.718A.709.709,0,0,1,831.278,1319.6Zm2.934-16.335a.707.707,0,0,1-.679-.911,74.824,74.824,0,0,1,2.844-7.893.709.709,0,0,1,1.3.555,73.629,73.629,0,0,0-2.791,7.743A.707.707,0,0,1,834.212,1303.264Zm6.494-15.269a.7.7,0,0,1-.348-.092.708.708,0,0,1-.268-.966,74.78,74.78,0,0,1,4.534-7.057.708.708,0,1,1,1.147.832,73.557,73.557,0,0,0-4.448,6.923A.706.706,0,0,1,840.706,1287.995Zm9.738-13.432a.71.71,0,0,1-.524-1.187c1.686-1.848,3.487-3.634,5.355-5.309q.316-.283.636-.563a.709.709,0,1,1,.934,1.066c-.209.183-.416.367-.623.553a73.954,73.954,0,0,0-5.254,5.208A.707.707,0,0,1,850.444,1274.563Z" fill="#3c3575"/>
      </g>
      <g id="Grupo_56714" data-name="Grupo 56714">
        <path id="Trazado_105006" data-name="Trazado 105006" d="M903.445,1398.593c-1.979-.05-3.96-.178-5.906-.379-.823-.085-1.655-.185-2.474-.3a.709.709,0,0,1,.192-1.405c.8.11,1.621.208,2.428.292,1.909.2,3.853.323,5.778.371a.709.709,0,0,1-.018,1.418Zm8.3-.257a.709.709,0,0,1-.06-1.415,73.28,73.28,0,0,0,8.144-1.176.709.709,0,1,1,.281,1.39,74.681,74.681,0,0,1-8.3,1.2C911.791,1398.335,911.77,1398.336,911.749,1398.336Zm-24.746-2a.7.7,0,0,1-.174-.022,74.669,74.669,0,0,1-8.005-2.515.709.709,0,0,1,.5-1.326,73.225,73.225,0,0,0,7.853,2.467.709.709,0,0,1-.174,1.4Zm41.009-1.3a.709.709,0,0,1-.217-1.383,73.344,73.344,0,0,0,7.676-2.966.709.709,0,0,1,.585,1.292,75.107,75.107,0,0,1-7.826,3.023A.719.719,0,0,1,928.012,1395.044Zm-56.536-4.566a.7.7,0,0,1-.322-.078,74.95,74.95,0,0,1-7.237-4.245.709.709,0,0,1,.784-1.181,73.5,73.5,0,0,0,7.1,4.165.709.709,0,0,1-.325,1.339Zm71.655-2.274a.709.709,0,0,1-.364-1.318,73.489,73.489,0,0,0,6.825-4.6.709.709,0,0,1,.857,1.129,75.059,75.059,0,0,1-6.956,4.69A.7.7,0,0,1,943.131,1388.2Z" fill="#3c3575"/>
      </g>
      <g id="Grupo_56715" data-name="Grupo 56715">
        <path id="Trazado_105007" data-name="Trazado 105007" d="M871.2,1273.519h68.025a4.86,4.86,0,0,1,4.859,4.859v89.89a4.86,4.86,0,0,1-4.859,4.859H871.2a4.86,4.86,0,0,1-4.859-4.859v-89.89A4.86,4.86,0,0,1,871.2,1273.519Z" fill="#bb83ff"/>
        <path id="Trazado_105008" data-name="Trazado 105008" d="M921.075,1281.617h14.914v83.412H874.443v-83.412h14.915" fill="#fff"/>
        <path id="Trazado_105009" data-name="Trazado 105009" d="M894.3,1288.1h21.831a4.3,4.3,0,0,0,4.3-4.3v-10.275H890v10.275A4.3,4.3,0,0,0,894.3,1288.1Z" fill="#ff6977"/>
        <path id="Trazado_105010" data-name="Trazado 105010" d="M894.3,1288.1h21.831a4.3,4.3,0,0,0,4.3-4.3v-10.275H890v10.275A4.3,4.3,0,0,0,894.3,1288.1Z" fill="#bdd9ff"/>
        <path id="Trazado_105011" data-name="Trazado 105011" d="M933.091,1324.246l23.721-23.721a5.354,5.354,0,1,1,7.572,7.572l-23.721,23.721-13.65,6.077Z" fill="#f9e478"/>
        <path id="Trazado_105012" data-name="Trazado 105012" d="M940.663,1331.818l-7.572-7.572-6.078,13.649Z" fill="#98a1b3"/>
        <path id="Trazado_105013" data-name="Trazado 105013" d="M961.781,1310.7l2.6-2.6a5.354,5.354,0,1,0-7.572-7.572l-2.6,2.6Z" fill="#f17781"/>
        <path id="Trazado_105014" data-name="Trazado 105014" d="M884.161,1297.814h12.957v12.957H884.161Z" fill="#95f7ff"/>
        <path id="Trazado_105015" data-name="Trazado 105015" d="M884.161,1320.084h12.957v12.957H884.161Z" fill="#95f7ff"/>
        <path id="Trazado_105016" data-name="Trazado 105016" d="M884.161,1342.354h12.957v12.957H884.161Z" fill="#c595ff"/>
        <path id="Trazado_105017" data-name="Trazado 105017" d="M905.216,1363a2.025,2.025,0,1,0,1.432.593A2.041,2.041,0,0,0,905.216,1363Z" fill="#3c3575"/>
        <path id="Trazado_105018" data-name="Trazado 105018" d="M965.816,1299.093a7.387,7.387,0,0,0-10.435,0l-9.269,9.269v-29.984a6.891,6.891,0,0,0-6.883-6.883H871.2a6.892,6.892,0,0,0-6.884,6.883v89.89a6.892,6.892,0,0,0,6.884,6.883h68.025a6.891,6.891,0,0,0,6.883-6.883v-39.035l19.7-19.705A7.387,7.387,0,0,0,965.816,1299.093Zm-23.753-20.715v34.033l-4.049,4.049v-34.843a2.024,2.024,0,0,0-2.025-2.024h-13.53v-4.049h16.77A2.837,2.837,0,0,1,942.063,1278.378ZM931.009,1333.9l2.733-6.14,3.407,3.407Zm-12.6-58.356v8.25a2.28,2.28,0,0,1-2.278,2.277H894.3a2.279,2.279,0,0,1-2.277-2.277v-8.25Zm20.819,95.558H871.2a2.837,2.837,0,0,1-2.834-2.834v-89.89a2.837,2.837,0,0,1,2.834-2.834h16.77v4.049H874.443a2.024,2.024,0,0,0-2.024,2.024v83.412a2.024,2.024,0,0,0,2.024,2.024h22.675a2.024,2.024,0,1,0,0-4.049h-20.65v-79.362h11.506v.152a6.333,6.333,0,0,0,6.326,6.326h21.832a6.334,6.334,0,0,0,6.327-6.326v-.152h11.506v36.867l-2.306,2.3a2.041,2.041,0,0,0-.418.609l-6.077,13.649a2.026,2.026,0,0,0,2.673,2.674l6.128-2.729V1363H913.314a2.024,2.024,0,0,0,0,4.049h22.675a2.025,2.025,0,0,0,2.025-2.024v-29.815l3.472-1.546a2.015,2.015,0,0,0,.577-.389v34.989A2.837,2.837,0,0,1,939.229,1371.1Zm16.178-56.891-14.744,14.744-4.709-4.709,18.255-18.255,4.709,4.709Zm7.546-7.545-1.172,1.171-4.709-4.709,1.172-1.171a3.33,3.33,0,0,1,4.709,4.709Z" fill="#3c3575"/>
        <path id="Trazado_105019" data-name="Trazado 105019" d="M897.118,1295.789H884.161a2.025,2.025,0,0,0-2.025,2.025v12.957a2.025,2.025,0,0,0,2.025,2.024h12.957a2.025,2.025,0,0,0,2.025-2.024v-12.957A2.025,2.025,0,0,0,897.118,1295.789Zm-2.024,12.957h-8.908v-8.908h8.908Z" fill="#3c3575"/>
        <path id="Trazado_105020" data-name="Trazado 105020" d="M897.118,1318.059H884.161a2.025,2.025,0,0,0-2.025,2.025v12.957a2.025,2.025,0,0,0,2.025,2.024h12.957a2.025,2.025,0,0,0,2.025-2.024v-12.957A2.025,2.025,0,0,0,897.118,1318.059Zm-2.024,12.957h-8.908v-8.908h8.908Z" fill="#3c3575"/>
        <path id="Trazado_105021" data-name="Trazado 105021" d="M897.118,1340.329H884.161a2.025,2.025,0,0,0-2.025,2.025v12.957a2.025,2.025,0,0,0,2.025,2.024h12.957a2.025,2.025,0,0,0,2.025-2.024v-12.957A2.025,2.025,0,0,0,897.118,1340.329Zm-2.024,12.957h-8.908v-8.908h8.908Z" fill="#3c3575"/>
        <path id="Trazado_105022" data-name="Trazado 105022" d="M911.609,1310.294a2.024,2.024,0,0,0,2.863,0l9.141-9.141a2.024,2.024,0,0,0-2.864-2.862L913.041,1306l-3.073-3.073a2.024,2.024,0,0,0-2.863,2.863Z" fill="#3c3575"/>
        <path id="Trazado_105023" data-name="Trazado 105023" d="M911.609,1332.564a2.024,2.024,0,0,0,2.863,0l9.141-9.14a2.025,2.025,0,0,0-2.864-2.863l-7.708,7.709-3.073-3.073a2.024,2.024,0,0,0-2.863,2.863Z" fill="#3c3575"/>
        <path id="Trazado_105024" data-name="Trazado 105024" d="M915.359,1351.7l3.139,3.138a2.024,2.024,0,1,0,2.862-2.863l-3.138-3.139,3.138-3.139a2.024,2.024,0,0,0-2.862-2.862l-3.139,3.138-3.138-3.138a2.024,2.024,0,0,0-2.864,2.862l3.139,3.139-3.139,3.139a2.025,2.025,0,0,0,2.864,2.863Z" fill="#3c3575"/>
      </g>
    </g>
  </g>
</svg>
