<svg xmlns="http://www.w3.org/2000/svg" width="240.274" height="218.896" viewBox="0 0 240.274 218.896">
  <g id="Grupo_60054" data-name="Grupo 60054" transform="translate(-121.157 -1704.128)">
    <rect id="Rectángulo_6405" data-name="Rectángulo 6405" width="240.274" height="218.896" transform="translate(121.157 1704.128)" fill="none"/>
    <g id="Grupo_60053" data-name="Grupo 60053">
      <rect id="Rectángulo_6406" data-name="Rectángulo 6406" width="5.685" height="31.857" transform="translate(177.557 1850.156)" fill="#110239"/>
      <rect id="Rectángulo_6407" data-name="Rectángulo 6407" width="5.685" height="31.857" transform="translate(285.02 1850.156)" fill="#110239"/>
      <rect id="Rectángulo_6408" data-name="Rectángulo 6408" width="186.468" height="114.623" transform="translate(140.898 1738.432)" fill="#d0d1de"/>
      <rect id="Rectángulo_6409" data-name="Rectángulo 6409" width="168.644" height="99.267" transform="translate(149.809 1746.111)" fill="#fff"/>
      <path id="Trazado_108609" data-name="Trazado 108609" d="M267.27,1836.053H160.9s.529-40.082,13.585-45.839,21.792,23.233,27.936,23.616,5.6-23.736,14.544-27.312c23.039-9.215,20.688,27.12,24.912,26.735s8.012-33.55,13.824-33.55C269.958,1779.7,267.27,1836.053,267.27,1836.053Z" fill="#e4e5ec"/>
      <path id="Trazado_108610" data-name="Trazado 108610" d="M267.27,1836.053H160.9s2.682-34.176,15.745-39.935,18.816,21.888,24.96,22.272,11.9-19.2,21.5-19.974,16.128,22.655,20.352,22.271,6.478-37.247,12.289-37.247C267.27,1783.447,267.27,1836.053,267.27,1836.053Z" fill="#47ecfa"/>
      <path id="Trazado_108611" data-name="Trazado 108611" d="M267.27,1836.053H160.9s3.458-16.891,16.513-22.655,19.968,10.176,26.111,10.559,8.641-22.751,18.241-23.519,4.272,27.935,19.487,27.935c11.04,0,9.357-23.615,15.169-23.615C267.942,1804.759,267.27,1836.053,267.27,1836.053Z" fill="#a271dc"/>
      <rect id="Rectángulo_6410" data-name="Rectángulo 6410" width="31.535" height="5.527" transform="translate(279.651 1777.92)" fill="#e4e5ec"/>
      <rect id="Rectángulo_6411" data-name="Rectángulo 6411" width="31.535" height="5.527" transform="translate(279.651 1790.217)" fill="#e4e5ec"/>
      <rect id="Rectángulo_6412" data-name="Rectángulo 6412" width="31.535" height="5.527" transform="translate(279.651 1802.516)" fill="#2ab9c4"/>
      <rect id="Rectángulo_6413" data-name="Rectángulo 6413" width="31.535" height="5.527" transform="translate(279.651 1814.814)" fill="#e4e5ec"/>
      <rect id="Rectángulo_6414" data-name="Rectángulo 6414" width="31.535" height="5.527" transform="translate(279.651 1827.11)" fill="#f17781"/>
      <rect id="Rectángulo_6415" data-name="Rectángulo 6415" width="5.759" height="5.759" transform="translate(158.036 1752.075)" fill="#47ecfa"/>
      <rect id="Rectángulo_6416" data-name="Rectángulo 6416" width="26.119" height="5.759" transform="translate(169.348 1752.075)" fill="#e4e5ec"/>
      <rect id="Rectángulo_6417" data-name="Rectángulo 6417" width="5.759" height="5.759" transform="translate(158.036 1761.741)" fill="#47ecfa"/>
      <rect id="Rectángulo_6418" data-name="Rectángulo 6418" width="26.119" height="5.759" transform="translate(169.348 1761.741)" fill="#e4e5ec"/>
      <rect id="Rectángulo_6419" data-name="Rectángulo 6419" width="5.759" height="5.759" transform="translate(158.036 1771.407)" fill="#47ecfa"/>
      <rect id="Rectángulo_6420" data-name="Rectángulo 6420" width="26.119" height="5.759" transform="translate(169.348 1771.407)" fill="#e4e5ec"/>
      <rect id="Rectángulo_6421" data-name="Rectángulo 6421" width="81.998" height="8.02" transform="translate(229.188 1752.075)" fill="#e4e5ec"/>
      <rect id="Rectángulo_6422" data-name="Rectángulo 6422" width="41.133" height="6.787" transform="translate(206.82 1769.146)" fill="#e4e5ec"/>
      <rect id="Rectángulo_6423" data-name="Rectángulo 6423" width="15.107" height="5.632" transform="translate(172.845 1877.965)" fill="#d0d1de"/>
      <rect id="Rectángulo_6424" data-name="Rectángulo 6424" width="15.108" height="5.632" transform="translate(280.31 1877.965)" fill="#d0d1de"/>
      <g id="Grupo_60052" data-name="Grupo 60052">
        <g id="Grupo_60051" data-name="Grupo 60051">
          <path id="Trazado_108612" data-name="Trazado 108612" d="M212.937,1753.6c2.058.154,3.934,1.033,3.948,3.09l-3.429.02c-.023-.778-.822-.939-1.322-.939-.315,0-1.334.008-1.331.639.009,1.408,6.319-.093,6.343,3.887.014,2.391-1.852,3.291-4.155,3.471l.163,2.539-2.1.013.115-2.56c-2.133-.21-4.122-1.2-4.134-3.351l3.429-.02v.074c.024.945,1.081,1.124,1.618,1.12s1.539-.046,1.534-.732c-.008-1.463-6.32-.09-6.343-3.946-.012-2.224,1.706-3.083,3.836-3.284l-.144-2.557,2.094-.013Z" fill="#47ecfa"/>
        </g>
      </g>
      <path id="Trazado_108613" data-name="Trazado 108613" d="M226.317,1756.949l-3.227-6.28-3.226,6.28h2.213v9.384h2.052v-9.384Z" fill="#f17781"/>
      <path id="Trazado_108614" data-name="Trazado 108614" d="M315.716,1790.706a17.371,17.371,0,0,0-5.562,6.9c-2.536,5.062-4.121,7.775-4.424,7.534-1.35-1.079-4.914-4.13-10.129-12.307-.634-.994.023-1.637.045-2.413s1.063-2.576.837-3.083-.859-.389-1.474.838-.4,1.984-.9,1.636a13.5,13.5,0,0,1-2.086-2.495c-.388-.634-1.615-1.877-1.942-1.677s-.385.528,1.462,3.179c-.67-.939-2.321-3.132-2.894-2.605-.426.392,1.2,2.354,1.936,3.225-.631-.73-2.067-2.279-2.581-1.764-.622.619,2.439,2.95,2.439,2.95s-2.279-1.81-2.591-1.279,1.022,1.707,2.331,2.444,1.543,1,2.072,1.268a5.326,5.326,0,0,1,1.2,1.548c.021.041,9.587,20.521,13.018,18.633s8-8.6,8-8.6a15.966,15.966,0,0,0,1.767-5.362A20.608,20.608,0,0,0,315.716,1790.706Z" fill="#ffbea3"/>
      <path id="Trazado_108615" data-name="Trazado 108615" d="M308.273,1799.483c.693-1.619,4.692-9.728,7.556-10.945l3.834,1.5c1.69,2.106-.468,7.1-1.167,7.668-.59.477-3.429,6.319-4.021,6.929A49.768,49.768,0,0,1,308.273,1799.483Z" fill="#f17781"/>
      <path id="Trazado_108616" data-name="Trazado 108616" d="M322.723,1776.834l5.5.856a12.587,12.587,0,0,0,.825,9.056s-3.951,4.28-6.7,3.149a3.243,3.243,0,0,1-1.847-4.185S323.49,1783.341,322.723,1776.834Z" fill="#ffc6aa"/>
      <path id="Trazado_108617" data-name="Trazado 108617" d="M333.733,1879.542s1.483,5.884.637,6.837-13.174,3.063-14.363,2.086-.819-2.932,1.692-3.993c2.692-1.139,4.156-.557,5.815-1.514s.834-3.653.834-3.653Z" fill="#110239"/>
      <path id="Trazado_108618" data-name="Trazado 108618" d="M318.4,1878.532s.3,7.373-.685,8.2-13.487,1.006-14.512-.135-.429-2.785,2.1-3.351c2.279-.505,3.976-.059,5.735-.8,1.542-.659,2.312-4.118,2.312-4.118Z" fill="#110239"/>
      <path id="Trazado_108619" data-name="Trazado 108619" d="M313.129,1817.02l16.073-2.857s-6.083,33.09-6.892,36.906-3.206,28.969-3.206,28.969l-7.006-.823s.08-27.49.433-29.937S313.129,1817.02,313.129,1817.02Z" fill="#2ab9c4"/>
      <path id="Trazado_108620" data-name="Trazado 108620" d="M319.066,1830.193c-.8-5.19-.259-9.222-1.406-11.752-.455-1-1.939-.744-2.279-1.769a3.1,3.1,0,0,0,.5-.789l13.347-2s-6.052,28.524-7.623,35.524C321.609,1849.405,319.7,1834.334,319.066,1830.193Z" fill="#21949d"/>
      <path id="Trazado_108621" data-name="Trazado 108621" d="M319.8,1815.415l12.907,3.286a24.626,24.626,0,0,1,.78,10.7c-1.062,7.18-1.166,18.442-1.3,19.974s2.413,25.791,2.608,31.6l-6.954.3s-5.333-30.4-5.644-31.062S319.8,1815.415,319.8,1815.415Z" fill="#2ab9c4"/>
      <path id="Trazado_108622" data-name="Trazado 108622" d="M313.829,1804.111c.268-5.439-1.2-13.642,1.994-15.573,2.681-1.617,4.887-2.928,4.887-2.928a3.776,3.776,0,0,0,2.705,2.2c1.9.256,4.929-2.612,4.929-2.612s3.485,2.052,6.622,3.455c-.76,2.52.8,4.78.8,7.292a15.224,15.224,0,0,0,.545,4.094,31.2,31.2,0,0,0-2.782,7.326c-.7,4.961,1.542,12.565,1.542,12.565a86.935,86.935,0,0,1-11.956,1.813,38.089,38.089,0,0,1-11.8-1.4A149.975,149.975,0,0,0,313.829,1804.111Z" fill="#f17781"/>
      <path id="Trazado_108623" data-name="Trazado 108623" d="M336.308,1800.036c-.1-.369-.158-.754-.232-1.133-.055-.28-.134-.551-.171-.839a14.676,14.676,0,0,1-.134-2.116c0-1.232-.083-2.547-.091-3.867-.652.477-1.447,1.619-2.234,1.158-3.7-2.171-4.206,7.74-4.206,12.735s-.126,10.821-2.1,15.344c4.743-.61,7.933-1.382,7.933-1.382s-.313-1.072-.67-2.669c-.178-.8-.367-1.732-.536-2.729-.055-.331-.108-.67-.156-1.014a31.586,31.586,0,0,1-.3-3.153,16.9,16.9,0,0,1,.115-3A31.192,31.192,0,0,1,336.308,1800.036Z" fill="#ce666e"/>
      <path id="Trazado_108624" data-name="Trazado 108624" d="M328.113,1767.765s-7.87-1.194-8.775-.32-1.056,4.042-1.019,6.72-1.089,7.8,2.038,8.751,9.09-1.975,11.2-7.281C334.249,1768.88,328.65,1767.843,328.113,1767.765Z" fill="#ffc6aa"/>
      <path id="Trazado_108625" data-name="Trazado 108625" d="M329.454,1767.136s-3.723.127-4.376,5.734c-.294,2.526-.93,4.476-.151,4.6a1.314,1.314,0,0,0,1.563-1.005c.009-.041.017-.084.022-.127,0-.729.226-3.109,1.709-2.447s.981,3.528-.9,4.358a2.367,2.367,0,0,0,1.119,2.515,10.528,10.528,0,0,0,4.488-6.873C333.484,1769.488,331.824,1767.01,329.454,1767.136Z" fill="#110239"/>
      <path id="Trazado_108626" data-name="Trazado 108626" d="M330.939,1767.631a5.4,5.4,0,0,0-5.029-3.8,10.323,10.323,0,0,0-9.455,5.532s1.131,1.987,5.406,2.238a15.7,15.7,0,0,0,6.512-1.207A4.638,4.638,0,0,0,330.939,1767.631Z" fill="#110239"/>
      <path id="Trazado_108627" data-name="Trazado 108627" d="M341.61,1813.145c-.257-1.264-1.446-8.714-1.863-11.474-2.413.8-4.641,1.621-7.128,2.279a68.722,68.722,0,0,1,2.646,10.207c.268,2.518-.872,13.642-1.216,17.495h0c-.026.309-.051.571-.069.787a5.4,5.4,0,0,1-.889,2.279c-.565.707-2.451,3.013-2.129,4.021s1.892-.834,2.467-1.461.67,1.467.536,2.594-2.413,3.013-2.17,3.786c.168.537.863.15,1.742-.847-.413.62-.726,1.221-.5,1.377.309.212.876-.177,1.491-.842-.33.511-.536.97-.324,1.082.323.169.97-.368,1.56-1.014-.307.465-.516.91-.3,1.048.41.259,1.743-.958,2.241-2.553.412-1.294-.567-4.94-.917-6.805a3.292,3.292,0,0,1,.116-1.659C337.974,1830.214,342.33,1816.683,341.61,1813.145Z" fill="#ffbea3"/>
      <path id="Trazado_108628" data-name="Trazado 108628" d="M332.619,1806.386a41.077,41.077,0,0,0,8.685-2.61c-.67-4.692-2.313-11.126-4.733-13.688-.67-.714-1.868-2.017-2.959-1.644-1.434.491-3.271,2.451-3.415,6.254a43.25,43.25,0,0,0,1.437,8.283C331.93,1803.777,332.224,1805.236,332.619,1806.386Z" fill="#f17781"/>
    </g>
  </g>
</svg>
