<svg xmlns="http://www.w3.org/2000/svg" width="240.274" height="218.896" viewBox="0 0 240.274 218.896">
  <g id="Grupo_60070" data-name="Grupo 60070" transform="translate(-543.427 -1704.128)">
    <g id="Grupo_59808" data-name="Grupo 59808" transform="translate(-278.395 -670.396)">
      <g id="Grupo_59751" data-name="Grupo 59751" transform="translate(870.822 2443.114)">
        <path id="Trazado_108193" data-name="Trazado 108193" d="M1004.325,2453.749H875.862a5.04,5.04,0,0,0-5.04,5.04v62.918l4.9,3.061h128.748l4.9-3.061v-62.918A5.04,5.04,0,0,0,1004.325,2453.749Z" transform="translate(-870.822 -2453.749)" fill="#855db5"/>
        <path id="Trazado_108194" data-name="Trazado 108194" d="M1047.177,2453.749h-5.115a5.04,5.04,0,0,1,5.04,5.04v65.979h.218l4.9-3.061v-62.918a5.04,5.04,0,0,0-5.04-5.04Z" transform="translate(-913.675 -2453.749)" fill="#855db5"/>
      </g>
      <path id="Trazado_108195" data-name="Trazado 108195" d="M1009.365,2544.39v17.566a5.042,5.042,0,0,1-5.04,5.042H875.862a5.042,5.042,0,0,1-5.04-5.042V2544.39Z" transform="translate(0 -33.317)" fill="#dae7ef"/>
      <path id="Trazado_108196" data-name="Trazado 108196" d="M1047.1,2544.39v17.566a5.042,5.042,0,0,1-5.04,5.042h5.115a5.042,5.042,0,0,0,5.04-5.042V2544.39Z" transform="translate(-42.853 -33.317)" fill="#c1d5e4"/>
      <path id="Trazado_108197" data-name="Trazado 108197" d="M881.232,2524.314v-59.28a.876.876,0,0,1,.876-.876h121.182a.875.875,0,0,1,.875.876v59.28Z" transform="translate(-2.605 -13.24)" fill="#dcbfff"/>
      <path id="Trazado_108198" data-name="Trazado 108198" d="M1037.913,2464.158v60.156h5.461v-59.28a.875.875,0,0,0-.875-.876Z" transform="translate(-41.814 -13.24)" fill="#bb83ff"/>
      <g id="Grupo_59752" data-name="Grupo 59752" transform="translate(935.247 2520.136)">
        <path id="Trazado_108199" data-name="Trazado 108199" d="M964.2,2560.961h-5.211a2.241,2.241,0,1,1,0-4.482H964.2a2.241,2.241,0,0,1,0,4.482Z" transform="translate(-956.751 -2556.479)" fill="#242e7a"/>
      </g>
      <path id="Trazado_108200" data-name="Trazado 108200" d="M981.252,2606.822H926.173a.929.929,0,0,1-.873-1.247l1.259-3.448a4.612,4.612,0,0,1,4.44-2.7h45.426a4.612,4.612,0,0,1,4.44,2.7l1.259,3.448A.928.928,0,0,1,981.252,2606.822Z" transform="translate(-13.619 -47.091)" fill="#dae7ef"/>
      <path id="Trazado_108201" data-name="Trazado 108201" d="M969.494,2574.544H944.3c2.318,7.323.208,13.914-6.327,18.658h37.845c-6.535-4.744-8.645-11.334-6.327-18.658Z" transform="translate(-16.805 -40.864)" fill="#c1d5e4"/>
      <path id="Trazado_108202" data-name="Trazado 108202" d="M946.415,2574.544a18.624,18.624,0,0,1,.908,5.354H970.7a18.6,18.6,0,0,1,.908-5.354Z" transform="translate(-18.917 -40.864)" fill="#98b9d3"/>
      <path id="Trazado_108203" data-name="Trazado 108203" d="M959.418,2421.621H914.06l14.815-10.369h20.237a7.751,7.751,0,0,1,6.785,4Z" transform="translate(-10.82)" fill="#dd5ca2"/>
      <path id="Trazado_108204" data-name="Trazado 108204" d="M944.818,2421.621H906.324l12.115-10.369h16.074a7.753,7.753,0,0,1,6.785,4Z" transform="translate(-8.884)" fill="#eab14d"/>
      <path id="Trazado_108205" data-name="Trazado 108205" d="M992.11,2504.306H901.973a3.386,3.386,0,0,1-3.385-3.386v-75.838H992.11a3.386,3.386,0,0,1,3.386,3.385v72.453a3.386,3.386,0,0,1-3.385,3.386Z" transform="translate(-6.948 -3.461)" fill="#f9f6f6"/>
      <path id="Trazado_108206" data-name="Trazado 108206" d="M1021.483,2425.082h-5.52a3.386,3.386,0,0,1,3.385,3.385v72.453a3.386,3.386,0,0,1-3.385,3.386h5.52a3.386,3.386,0,0,0,3.385-3.386v-72.453A3.385,3.385,0,0,0,1021.483,2425.082Z" transform="translate(-36.321 -3.461)" fill="#dae7ef"/>
      <path id="Trazado_108207" data-name="Trazado 108207" d="M930.217,2421.621H898.588v-6.5a3.866,3.866,0,0,1,3.866-3.866h17.458a7.751,7.751,0,0,1,6.785,4Z" transform="translate(-6.948)" fill="#80b4fb"/>
      <path id="Trazado_108208" data-name="Trazado 108208" d="M926.164,2509.911h-8.91a1.34,1.34,0,0,1-1.339-1.34v-21.348a1.34,1.34,0,0,1,1.339-1.34h8.91a1.34,1.34,0,0,1,1.34,1.34v21.348A1.34,1.34,0,0,1,926.164,2509.911Z" transform="translate(-11.285 -18.677)" fill="#86f1a7"/>
      <path id="Trazado_108209" data-name="Trazado 108209" d="M927.651,2485.885h-5.794a1.34,1.34,0,0,1,1.34,1.339v21.349a1.34,1.34,0,0,1-1.34,1.339h5.794a1.34,1.34,0,0,0,1.34-1.339v-21.349a1.339,1.339,0,0,0-1.34-1.339Z" transform="translate(-12.771 -18.677)" fill="#80e29d"/>
      <path id="Trazado_108210" data-name="Trazado 108210" d="M952.545,2505.923h-8.91a1.339,1.339,0,0,1-1.339-1.339v-33.3a1.339,1.339,0,0,1,1.339-1.339h8.91a1.339,1.339,0,0,1,1.34,1.339v33.3A1.34,1.34,0,0,1,952.545,2505.923Z" transform="translate(-17.886 -14.688)" fill="#80b4fb"/>
      <path id="Trazado_108211" data-name="Trazado 108211" d="M954.032,2469.946h-5.794a1.339,1.339,0,0,1,1.339,1.339v33.3a1.339,1.339,0,0,1-1.339,1.339h5.794a1.339,1.339,0,0,0,1.34-1.339v-33.3a1.34,1.34,0,0,0-1.34-1.339Z" transform="translate(-19.373 -14.688)" fill="#61a2f9"/>
      <path id="Trazado_108212" data-name="Trazado 108212" d="M978.926,2510.908h-8.91a1.339,1.339,0,0,1-1.34-1.339v-18.361a1.34,1.34,0,0,1,1.34-1.339h8.91a1.339,1.339,0,0,1,1.339,1.339v18.361A1.339,1.339,0,0,1,978.926,2510.908Z" transform="translate(-24.488 -19.674)" fill="#ffe07d"/>
      <path id="Trazado_108213" data-name="Trazado 108213" d="M980.413,2489.869h-5.794a1.34,1.34,0,0,1,1.339,1.34v18.361a1.339,1.339,0,0,1-1.339,1.339h5.794a1.339,1.339,0,0,0,1.339-1.339v-18.361A1.339,1.339,0,0,0,980.413,2489.869Z" transform="translate(-25.975 -19.674)" fill="#ffd064"/>
      <path id="Trazado_108214" data-name="Trazado 108214" d="M1005.307,2503.43H996.4a1.339,1.339,0,0,1-1.34-1.339v-40.767a1.34,1.34,0,0,1,1.34-1.339h8.91a1.34,1.34,0,0,1,1.339,1.339v40.768a1.339,1.339,0,0,1-1.339,1.339Z" transform="translate(-31.09 -12.195)" fill="#dd5ca2"/>
      <path id="Trazado_108215" data-name="Trazado 108215" d="M1006.794,2459.984H1001a1.34,1.34,0,0,1,1.339,1.339v40.768a1.339,1.339,0,0,1-1.339,1.339h5.794a1.339,1.339,0,0,0,1.339-1.339v-40.768a1.34,1.34,0,0,0-1.339-1.339Z" transform="translate(-32.577 -12.195)" fill="#da4093"/>
      <path id="Trazado_108216" data-name="Trazado 108216" d="M981.193,2429.385a5.349,5.349,0,0,0-5.12,6.906l-12.085,10.748a5.336,5.336,0,0,0-7.136,1.907l-9.971-2.357a5.349,5.349,0,0,0-10.557,1.7L924.4,2455.6a5.355,5.355,0,1,0,2.691,3.607l11.574-7.106a5.335,5.335,0,0,0,7.175-1.155l10.5,2.482a5.35,5.35,0,0,0,10.315-2.77l12.394-11.021a5.351,5.351,0,1,0,2.14-10.254Zm-59.336,31.794a.871.871,0,1,1,.87-.87A.872.872,0,0,1,921.857,2461.179Zm19.779-12.656a.871.871,0,1,1,.871-.871A.872.872,0,0,1,941.636,2448.523Zm19.779,4.078a.871.871,0,1,1,.87-.871A.872.872,0,0,1,961.415,2452.6Zm19.778-16.993a.871.871,0,1,1,.871-.871A.872.872,0,0,1,981.193,2435.608Z" transform="translate(-11.432 -4.538)" fill="#855db5"/>
    </g>
    <g id="Grupo_60057" data-name="Grupo 60057">
      <path id="Trazado_108632" data-name="Trazado 108632" d="M740.9,1840.692a6.03,6.03,0,0,1-3.583-2.076c-1.267-1.628-1.465-4.08-.559-7.1.09-.3.2-.647.33-1.028.71-2.164,1.8-5.47.726-7.3a2.6,2.6,0,0,0-1.728-1.206.39.39,0,0,1-.3-.465l.007-.026a.441.441,0,0,1,.524-.287h0a3.438,3.438,0,0,1,2.241,1.588c1.233,2.124.079,5.619-.677,7.909-.122.372-.234.713-.323,1.009-.843,2.8-.689,5.033.432,6.477a6.415,6.415,0,0,0,4.966,2.039.362.362,0,0,1,.369.353c0,.013,0,.027,0,.04a.42.42,0,0,1-.448.35A11.78,11.78,0,0,1,740.9,1840.692Z" fill="#fff"/>
    </g>
    <path id="Trazado_108646" data-name="Trazado 108646" d="M723.732,1790.043c-18.293,8.734-13.956,7.3-16.927,8.095s-20.475,1.893-20.475,1.893l-1.933,7.507s21.325-1.168,24.233-1.837,15.141-5.311,15.141-5.311Z" fill="#f17781"/>
    <path id="Trazado_108647" data-name="Trazado 108647" d="M694.278,1800.51a3.071,3.071,0,0,0,2.869,1.553,74.36,74.36,0,0,0,8.644-.587,23.275,23.275,0,0,0,4.906-.939,60.422,60.422,0,0,0,8.416-3.114,43.448,43.448,0,0,1,4.641-1.5l.017,4.473s-12.235,4.644-15.148,5.311-24.231,1.837-24.231,1.837l1.913-7.436C688.91,1800.366,691.592,1800.5,694.278,1800.51Z" fill="#ce666e"/>
    <path id="Trazado_108648" data-name="Trazado 108648" d="M726.234,1878.578a15.39,15.39,0,0,1,.784,4.012c.007,1.751-.119,3.61-.656,4.05-1.072.879-14.645.992-15.75-.268s-.368-3.283,2.506-3.985c3.083-.752,3.513-.43,5.452-1.167a2.548,2.548,0,0,0,1.475-2.917Z" fill="#110239"/>
    <path id="Trazado_108649" data-name="Trazado 108649" d="M756.01,1876.028a15.389,15.389,0,0,1,2.162,3.471c.63,1.631,1.175,3.414.83,4.022-.689,1.206-13.329,6.147-14.808,5.362s-1.514-2.936.921-4.616c2.613-1.8,3.129-1.654,4.679-3.034a2.548,2.548,0,0,0,.334-3.249Z" fill="#110239"/>
    <path id="Trazado_108650" data-name="Trazado 108650" d="M726.326,1820.9l18.288,2.031s-16.355,26.14-17.592,30.345.456,27.025.456,27.025H719.2s-1.777-26.957-1.371-28.989S726.326,1820.9,726.326,1820.9Z" fill="#110239"/>
    <path id="Trazado_108651" data-name="Trazado 108651" d="M727.022,1822.248H747.9s2.438,6.4,1.32,11.278a107.227,107.227,0,0,0-1.761,17.068c.1,1.83,10.3,26.213,10.3,26.213l-7.6,2.827s-10.482-23.248-11.5-25.889S727.022,1822.248,727.022,1822.248Z" fill="#110239"/>
    <path id="Trazado_108652" data-name="Trazado 108652" d="M727.905,1779.058a18.559,18.559,0,0,0,5.042-.4,7.478,7.478,0,0,0,1.712-.6c.178,2.1.768,6.992,2.5,8.834,0,0-.237,2.472-4.571,3.083s-5.228-2.607-5.228-2.607A43.349,43.349,0,0,0,727.905,1779.058Z" fill="#ffbea3"/>
    <path id="Trazado_108653" data-name="Trazado 108653" d="M737.15,1786.971a1.579,1.579,0,0,1-.046.179l-.008.023a2.273,2.273,0,0,1-.1.268v.014a2.928,2.928,0,0,1-.182.335l-.031.048a3.589,3.589,0,0,1-.7.782l-.052.046a4.6,4.6,0,0,1-.55.38l-.083.048a5.919,5.919,0,0,1-.731.354,6.175,6.175,0,0,0-1.661-2.926,7.725,7.725,0,0,0-5.242-2.233,29.654,29.654,0,0,0,.154-5.228,18.536,18.536,0,0,0,5.042-.4,7.481,7.481,0,0,0,1.711-.6c.179,2.1.769,6.992,2.5,8.834l-.008.054Z" fill="#f3b49a"/>
    <path id="Trazado_108654" data-name="Trazado 108654" d="M734.947,1766.584s-7.261-1.787-8.323,0-.727,4.582-1.145,5.838-2.137,2.64-2.3,3.142,1.256,1.384,1.466,1.761,1.117,4.4,2.4,5.237,7.848-1.843,9.356-5.07S736.913,1767.529,734.947,1766.584Z" fill="#ffc6aa"/>
    <path id="Trazado_108655" data-name="Trazado 108655" d="M727.361,1786.636s5.094,2.531,9.238-.511c0,0,7.88,1.378,8.847,1.771.8.326-1.3,11.543-.39,17.183s4.572,19.3,4.572,19.3-9.652,7.416-26.213,2.743c0,0-.537-19.162-.364-24.485.259-7.79.313-12.4.313-12.4A47.742,47.742,0,0,1,727.361,1786.636Z" fill="#f17781"/>
    <path id="Trazado_108656" data-name="Trazado 108656" d="M739.419,1817.642a21.653,21.653,0,0,0,.708-8.916c-.563-3.317,1.817-7.689,2.262-11.064.476-3.61.846-6.063,3.217-8.061-.16,3.405-1.261,11.106-.552,15.478.914,5.638,4.571,19.3,4.571,19.3s-6.129,4.679-16.973,4.242C736.927,1826.041,738.222,1822.557,739.419,1817.642Z" fill="#ce666e"/>
    <path id="Trazado_108657" data-name="Trazado 108657" d="M731.821,1767.6a7.124,7.124,0,0,0,.924,3.668c.468.836-1.567,3.217-.924,4.222.428.671,1,.47,1.464-.917a2.075,2.075,0,0,1,1.113-1.042c1.718-.839,2.249,1.815.713,2.681-1.073.606-.292,3.363-.292,3.363,1.222.855,5.079-.421,4.52-3.253-.355-1.8-.508-2.49.108-2.962,1.116-.852,2.513-3.143.537-4.941-2.731-2.477-.388-3.411-3.441-4.021S731.073,1765.747,731.821,1767.6Z" fill="#110239"/>
    <path id="Trazado_108658" data-name="Trazado 108658" d="M737.092,1765.833c-.2-.651-1.43-1.446-2.04-1.858a8.691,8.691,0,0,0-3.154-1.254,7.984,7.984,0,0,0-3.45.042c-.97.231-1.772.705-2.769.864a3.236,3.236,0,0,1-2.52-.37,6.379,6.379,0,0,0-.019,2.272,7.062,7.062,0,0,0,1.4,2.433,7.44,7.44,0,0,0,8.3,1.849,5.812,5.812,0,0,0,3.115-2.351A7.023,7.023,0,0,1,737.092,1765.833Z" fill="#110239"/>
    <path id="Trazado_108662" data-name="Trazado 108662" d="M681.042,1799.131c1.048-1.363,3.258-1.3,4.622-.722,1.1.466,1.165,1.663,1.322,3.412a4.919,4.919,0,0,1-.157,2.659c-1.409,1.035-1.449-2.918-1.683-3.917,0,0,.537,4.173-.193,4.533-1.376.63-1.326-3.229-1.481-4.191a6.421,6.421,0,0,1,.1,2.859c-.008.747-.578.6-.716.516-.7-.425-.7-3.583-.7-3.583,0,.56.433,2.623-.472,2.2-.589-.268-.623-1.169-.737-1.646A3.081,3.081,0,0,1,681.042,1799.131Z" fill="#ffbea3"/>
    <path id="Trazado_108663" data-name="Trazado 108663" d="M741.141,1817.479c-1.435-.058-3.177.214-4.655.214-.67,0-1.371-.1-2.039-.134-.422-.024-1.281-.167-1.529.3-.268.518.578.7.911.775.483.107,1.475.039,1.573.686.134.938-1.624,1.19-2.31,1.489-.635.279-2.319.872-1.215,1.493.744.42,2.309-.536,2.95-.792a9.666,9.666,0,0,0-2.3.96c-.432.248-1.281.589-1.281,1.072,0,.711,1.573.285,1.962.116a6.946,6.946,0,0,0,1.75-.968c-.661.35-3.083,1.378-2.292,2.217.485.513,2.379-.929,3.134-1.236-.414.384-1.658.585-1.556,1.395.051.4.754.083,1.092-.1.475-.258.9-.635,1.378-.863a6.8,6.8,0,0,0,1.029-.687,12.328,12.328,0,0,0,2.376-1.549,26.991,26.991,0,0,1,2.062-2.107C740.792,1819.25,742.2,1818.22,741.141,1817.479Z" fill="#ffbea3"/>
    <path id="Trazado_108664" data-name="Trazado 108664" d="M739.043,1817.1l2.032,4.692s20.982-6.808,20-12.317c-.863-4.835-13.073-21.04-15.731-21.621-3.575-.781-5.007,7.737-2.949,9.8,4.328,4.354,10.505,10.478,10,11.465S739.043,1817.1,739.043,1817.1Z" fill="#f17781"/>
    <rect id="Rectángulo_6451" data-name="Rectángulo 6451" width="240.274" height="218.896" transform="translate(543.427 1704.128)" fill="none"/>
  </g>
</svg>
