<svg xmlns="http://www.w3.org/2000/svg" xmlns:xlink="http://www.w3.org/1999/xlink" width="364.211" height="391.086" viewBox="0 0 364.211 391.086">
  <defs>
    <clipPath id="clip-path">
      <path id="Trazado_104891" data-name="Trazado 104891" d="M1349.428,393.6c.054,5.651-1.5,15.689-4.647,17.716a9.18,9.18,0,0,1-6.225,1.148s-3.033,4.852-6.351,4.709a10.373,10.373,0,0,1-5.652-2.261s-.161.358-.457.879v48.367a14.893,14.893,0,0,1-8.683,13.823,12.752,12.752,0,0,1-5.059,1.041H1176.691c-7.606,0-13.76-6.647-13.76-14.864v-217.2l-43.334,7.8-.5.089a4.13,4.13,0,0,1-1.247-.027c-3.857-.682-6.3-6.888-6.979-16.021-1.785.359-3.57.682-5.365,1-2.2.376-4.4.744-6.611,1.05l-3.319.449c-1.1.117-2.215.26-3.328.35,1.076-.287,2.171-.521,3.256-.79l3.274-.69c2.18-.467,4.377-.853,6.575-1.247,1.821-.3,3.632-.619,5.462-.879a83.183,83.183,0,0,1-.008-9.239l-3.777.189c-3.274.153-6.548.233-9.822.323-3.283.053-6.557.117-9.84.107s-6.557-.009-9.84-.125c3.274-.251,6.548-.413,9.831-.557,3.274-.161,6.548-.242,9.822-.322,3.283-.064,6.557-.126,9.84-.117l3.812.009a110.744,110.744,0,0,1,1.551-13.249l.028-.135c-1.875-.3-3.75-.61-5.624-.924-3.786-.637-7.562-1.346-11.338-2.009-3.767-.744-7.544-1.444-11.3-2.225l-5.641-1.175c-1.866-.431-3.75-.825-5.616-1.282,1.9.26,3.8.564,5.7.843l5.687.942c3.786.628,7.562,1.346,11.338,2.009,3.768.744,7.544,1.444,11.3,2.225,1.857.385,3.714.771,5.57,1.175a109.656,109.656,0,0,1,3.732-14.837l-2.906-2c-2.745-1.883-5.445-3.821-8.145-5.759-2.682-1.955-5.373-3.919-8.019-5.929s-5.292-4.027-7.876-6.127c2.8,1.794,5.543,3.678,8.279,5.57s5.445,3.822,8.145,5.759c2.682,1.955,5.373,3.911,8.019,5.93l2.673,2.036a73.265,73.265,0,0,1,3.194-7.984c-1.265-1.121-2.5-2.287-3.732-3.453-1.426-1.373-2.844-2.745-4.216-4.172s-2.754-2.843-4.055-4.341c1.552,1.229,3.05,2.539,4.53,3.848s2.925,2.664,4.359,4.018c1.158,1.112,2.315,2.234,3.454,3.383,3.561-7.266,7.624-11.518,11.195-10.89a4.044,4.044,0,0,1,1.184.4v-.009l.053.036,30.579,17.8v-24.3c0-16.738,6.154-17.554,13.76-17.554h27.179c1.579,0,2.87,1.794,2.87,4.019v.96c0,5.212,2.853,5.23,6.351,5.23h62.844c3.534,0,6.369-.018,6.369-5.23v-.96c0-2.225,1.274-4.019,2.879-4.019h27.171c7.588,0,13.742,2.225,13.742,17.554V302.267a54.634,54.634,0,0,1,5.382,9.347c4.755,11.58,13.518,54.43,13.518,54.43l-1.928.153c.2,1.4.349,2.682.457,3.839v.009C1344.907,374.907,1349.383,388.478,1349.428,393.6Z" transform="translate(-1072.889 -155.92)" fill="none"/>
    </clipPath>
  </defs>
  <g id="Grupo_56597" data-name="Grupo 56597" transform="translate(-1061.846 -121.556)">
    <g id="Grupo_56597-2" data-name="Grupo 56597" transform="translate(1072.232 258.148)">
      <path id="Trazado_104762" data-name="Trazado 104762" d="M1074.435,300.667a26,26,0,1,1,33.436,15.314A26,26,0,0,1,1074.435,300.667Z" transform="translate(-1072.798 -265.594)" fill="#dcbfff"/>
      <path id="Trazado_104763" data-name="Trazado 104763" d="M1112.959,293.993c-2.983,8.326-11.721,14.081-11.721,14.081s-9.829-3.586-14.644-11c-4.017-6.185-2.788-13.52,2.16-15.67,7.093-3.083,10.477,9.5,10.477,9.5s.391-13.026,8.011-11.662C1112.553,280.194,1115.441,287.048,1112.959,293.993Z" transform="translate(-1073.387 -266.294)" fill="#fff"/>
    </g>
    <g id="Grupo_56599" data-name="Grupo 56599" transform="translate(1357.238 315.857)">
      <path id="Trazado_104764" data-name="Trazado 104764" d="M1411.075,375.666a26,26,0,0,1-27.247-2.353,26,26,0,1,1,27.247,2.353Z" transform="translate(-1373.34 -326.449)" fill="#dcbfff"/>
      <g id="Grupo_56598" data-name="Grupo 56598" transform="translate(10.489 15.132)">
        <path id="Trazado_104765" data-name="Trazado 104765" d="M1408.483,351a7.913,7.913,0,1,1-7.207-8.561A7.914,7.914,0,0,1,1408.483,351Z" transform="translate(-1384.828 -342.406)" fill="#fff"/>
        <path id="Trazado_104766" data-name="Trazado 104766" d="M1411.927,374.11l-.28,3.253a26,26,0,0,1-27.247-2.353l.278-3.241a13.675,13.675,0,0,1,27.249,2.341Z" transform="translate(-1384.4 -343.277)" fill="#fff"/>
      </g>
    </g>
    <g id="Grupo_56601" data-name="Grupo 56601" transform="translate(1333.721 121.556)">
      <circle id="Elipse_4052" data-name="Elipse 4052" cx="28.567" cy="28.567" r="28.567" transform="translate(0 22.391) rotate(-23.073)" fill="#dcbfff"/>
      <g id="xsrjP0" transform="translate(19.236 18.275)">
        <g id="Grupo_56600" data-name="Grupo 56600">
          <path id="Trazado_104767" data-name="Trazado 104767" d="M1383.806,171.394c-.756-.474-1.413-1.164-2.426-1.068-.388.039-.3-.283-.305-.494q-.007-5.711-.008-11.414c0-.277.017-.5.319-.656,2.906-1.466,4.167-4.35,5.947-6.814a11.375,11.375,0,0,0,2.108-8.633c-.121-.856.278-1.24,1.05-1.415a1.907,1.907,0,0,1,2.172.683,15.364,15.364,0,0,1,1.66,4.986,17.923,17.923,0,0,1-.53,4.276c-.133,1.045-.375,2.078-.574,3.136.254.185.551.088.824.093q4.822.007,9.643,0c1.355,0,2.018.389,2.207,1.288a2.575,2.575,0,0,1-1.4,2.786c-.24.121-.674.012-.7.389s.418.344.64.5c1.164.8.948,2.444-.4,3.4-.324.228-.952.122-.968.6-.007.379.58.375.847.641.939.928.472,2.662-.931,3.362a4.212,4.212,0,0,0-.564.217c-.16.108-.317.228-.008.448,1.392.995,1.363,2.379-.039,3.388-.138.1-.278.2-.419.3a2.706,2.706,0,0,1-1.693.37q-7.56.016-15.122,0A1.79,1.79,0,0,1,1383.806,171.394Z" transform="translate(-1369.458 -140.827)" fill="#fff" fill-rule="evenodd"/>
          <path id="Trazado_104768" data-name="Trazado 104768" d="M1368.839,165.549c0-2.417.011-4.837-.008-7.253,0-.492.047-.733.649-.726q4.425.054,8.845,0c.578-.006.668.193.665.707q-.024,7.3,0,14.6c0,.618-.165.794-.787.783-2.86-.032-5.72-.039-8.578.006-.712.011-.81-.238-.8-.861C1368.862,170.384,1368.839,167.968,1368.839,165.549Z" transform="translate(-1368.826 -141.692)" fill="#fff" fill-rule="evenodd"/>
        </g>
      </g>
    </g>
    <g id="Grupo_56602" data-name="Grupo 56602" transform="translate(1089.848 388.328)">
      <path id="Trazado_104769" data-name="Trazado 104769" d="M1122.884,443.438c1.477,9.575-3.929,19.681-3.929,19.681s-11.337,1.682-19.847-2.943c-7.1-3.856-9.747-11.562-6.1-16.216,5.219-6.674,15.052,3.677,15.052,3.677s-6.429-12.747,1.621-15.415C1115.286,430.363,1121.648,435.455,1122.884,443.438Z" transform="translate(-1091.375 -404.367)" fill="#dcbfff"/>
      <path id="Trazado_104770" data-name="Trazado 104770" d="M1144.3,418.375c-4.286,5.7-12.388,8.043-12.388,8.043s-6.712-5.108-8.649-11.967c-1.616-5.722,1.083-11.076,5.406-11.549,6.2-.68,5.8,9.819,5.8,9.819s3.412-9.937,8.954-7.067C1147.28,407.653,1147.867,413.621,1144.3,418.375Z" transform="translate(-1092.998 -402.87)" fill="#dcbfff"/>
    </g>
    <g id="Grupo_56603" data-name="Grupo 56603" transform="translate(1101.844 474.585)">
      <ellipse id="Elipse_4053" data-name="Elipse 4053" cx="142.108" cy="19.029" rx="142.108" ry="19.029" transform="translate(0 0)" fill="#dcbfff"/>
    </g>
    <path id="Trazado_104771" data-name="Trazado 104771" d="M1061.846,496.61l45.526-.218,45.526-.079,91.053-.15,91.053.149,45.527.079,45.526.219-45.526.22-45.527.079-91.053.149-91.053-.15-45.526-.079Z" transform="translate(0 -19.364)" fill="#263238"/>
    <path id="Trazado_104772" data-name="Trazado 104772" d="M1324.72,145.477H1173.081a15.481,15.481,0,0,0-15.339,15.626V473.271a15.493,15.493,0,0,0,15.339,15.626H1324.72a15.5,15.5,0,0,0,15.356-15.626V161.1A15.491,15.491,0,0,0,1324.72,145.477Zm5.768,318.142c0,8.217-6.154,14.864-13.742,14.864H1181.082c-7.606,0-13.76-6.647-13.76-14.864V172.934c0-16.738,6.154-17.554,13.76-17.554h27.17c1.579,0,2.871,1.794,2.871,4.019v.96c0,5.212,2.853,5.23,6.36,5.23h62.844c3.534,0,6.359-.018,6.359-5.23v-.96c0-2.225,1.274-4.019,2.88-4.019h27.179c7.588,0,13.742,2.225,13.742,17.554Z" transform="translate(-4.957 -1.237)" fill="#a271dc"/>
    <path id="Trazado_104773" data-name="Trazado 104773" d="M1261.921,159.7h-17.142a1.059,1.059,0,0,1-1.058-1.058h0a1.059,1.059,0,0,1,1.058-1.059h17.142a1.059,1.059,0,0,1,1.059,1.059h0A1.059,1.059,0,0,1,1261.921,159.7Z" transform="translate(-9.402 -1.863)" fill="#fff"/>
    <line id="Línea_137" data-name="Línea 137" x1="0.511" transform="translate(1161.853 443.958)" fill="none"/>
    <path id="Trazado_104774" data-name="Trazado 104774" d="M1331.01,173.474V464.159c0,8.217-6.154,14.864-13.742,14.864H1181.6c-7.606,0-13.76-6.647-13.76-14.864V173.474c0-16.738,6.154-17.554,13.76-17.554h27.17c1.579,0,2.871,1.794,2.871,4.019v.96c0,5.212,2.853,5.23,6.36,5.23h62.844c3.534,0,6.359-.018,6.359-5.23v-.96c0-2.225,1.274-4.019,2.88-4.019h27.179C1324.856,155.92,1331.01,158.145,1331.01,173.474Z" transform="translate(-5.479 -1.776)" fill="#fff"/>
    <path id="Trazado_104775" data-name="Trazado 104775" d="M1331,173.474v21.69H1167.839v-21.69c0-16.738,6.154-17.554,13.76-17.554h27.179c1.579,0,2.87,1.794,2.87,4.019v.96c0,5.212,2.853,5.23,6.351,5.23h62.844c3.534,0,6.369-.018,6.369-5.23v-.96c0-2.225,1.274-4.019,2.879-4.019h27.171C1324.851,155.92,1331,158.145,1331,173.474Z" transform="translate(-5.479 -1.776)" fill="#31d9e7"/>
    <g id="Grupo_56604" data-name="Grupo 56604" transform="translate(1173.003 173.451)">
      <path id="Trazado_104776" data-name="Trazado 104776" d="M1183.883,185.645l-4.821-4.517,4.821-4.516.748.8-3.97,3.72,3.97,3.72Z" transform="translate(-1179.062 -176.297)" fill="#fff"/>
      <path id="Trazado_104777" data-name="Trazado 104777" d="M1323.928,185.942H1320.7v-1.118a.268.268,0,0,0-.152-.239,4.1,4.1,0,0,1-.359-.209.275.275,0,0,0-.285-.013l-.97.56-1.612-2.794.971-.559a.272.272,0,0,0,.128-.253c0-.067,0-.137,0-.206s0-.138.006-.208a.274.274,0,0,0-.13-.252l-.97-.559,1.612-2.794.969.559a.271.271,0,0,0,.284-.012,4.03,4.03,0,0,1,.361-.209.27.27,0,0,0,.152-.24V176.28h3.226V177.4a.27.27,0,0,0,.152.24,4.013,4.013,0,0,1,.362.209.271.271,0,0,0,.284.012l.969-.559,1.611,2.794-.971.559a.271.271,0,0,0-.13.253c0,.071.006.138.006.207s0,.135,0,.2a.27.27,0,0,0,.127.255l.972.562-1.61,2.793-.971-.56a.276.276,0,0,0-.284.012,3.779,3.779,0,0,1-.36.21.268.268,0,0,0-.152.239Zm-2.553-.672h1.88v-.446a.941.941,0,0,1,.518-.838,3.338,3.338,0,0,0,.3-.173.938.938,0,0,1,.988-.032l.387.223.94-1.628-.391-.225a.936.936,0,0,1-.462-.871l0-.169,0-.174a.936.936,0,0,1,.466-.869l.387-.223-.939-1.628-.385.223a.938.938,0,0,1-.988-.031,3.1,3.1,0,0,0-.3-.173.94.94,0,0,1-.52-.839v-.445h-1.88v.445a.94.94,0,0,1-.52.839,3.1,3.1,0,0,0-.3.173.94.94,0,0,1-.988.031l-.386-.223-.939,1.628.387.223a.943.943,0,0,1,.465.872c0,.058,0,.115,0,.172s0,.114,0,.17a.94.94,0,0,1-.463.872l-.388.224.939,1.627.388-.223a.936.936,0,0,1,.988.032,2.947,2.947,0,0,0,.3.172.943.943,0,0,1,.519.839Zm.939-1.734a2.427,2.427,0,1,1,2.428-2.425A2.428,2.428,0,0,1,1322.314,183.536Zm0-4.181a1.754,1.754,0,1,0,1.755,1.756A1.757,1.757,0,0,0,1322.314,179.355Z" transform="translate(-1186.209 -176.28)" fill="#fff"/>
    </g>
    <g id="Grupo_56608" data-name="Grupo 56608" transform="translate(1173.003 159.45)">
      <g id="u5Zjqx" transform="translate(19.722)">
        <g id="Grupo_56605" data-name="Grupo 56605">
          <path id="Trazado_104778" data-name="Trazado 104778" d="M1205.74,162.738l-.262.261-.149.149a3.574,3.574,0,0,0-5.063,0c-.046-.048-.093-.1-.141-.148l-.259-.26-.008,0v-.007l.019-.016c.11-.1.218-.2.332-.293a3.809,3.809,0,0,1,.768-.489,3.855,3.855,0,0,1,1.018-.342c.168-.031.339-.046.508-.067.058-.008.433-.009.445-.008.116.009.231.013.347.026a3.984,3.984,0,0,1,.933.223,4.079,4.079,0,0,1,.632.3,3.919,3.919,0,0,1,.6.422c.095.081.185.166.277.249Z" transform="translate(-1199.859 -161.516)" fill="#fff"/>
          <path id="Trazado_104779" data-name="Trazado 104779" d="M1201.145,164.038l-.415-.413a2.924,2.924,0,0,1,1.689-.847,2.959,2.959,0,0,1,2.539.841l-.416.415a2.4,2.4,0,0,0-3.4,0Z" transform="translate(-1199.904 -161.579)" fill="#fff"/>
          <path id="Trazado_104780" data-name="Trazado 104780" d="M1204.172,164.515l-.414.413a1.227,1.227,0,0,0-1.739,0l-.412-.412A1.8,1.8,0,0,1,1204.172,164.515Z" transform="translate(-1199.949 -161.643)" fill="#fff"/>
        </g>
        <path id="Trazado_104781" data-name="Trazado 104781" d="M1203.311,165.355a.373.373,0,1,1-.373-.374A.373.373,0,0,1,1203.311,165.355Z" transform="translate(-1199.999 -161.695)" fill="#fff"/>
      </g>
      <g id="Grupo_56606" data-name="Grupo 56606" transform="translate(0 0.934)">
        <path id="Trazado_104782" data-name="Trazado 104782" d="M1179.062,163.583a1.082,1.082,0,1,1,1.081,1.081A1.081,1.081,0,0,1,1179.062,163.583Z" transform="translate(-1179.062 -162.501)" fill="#fff"/>
        <path id="Trazado_104783" data-name="Trazado 104783" d="M1182.654,163.583a1.081,1.081,0,1,1,1.081,1.081A1.081,1.081,0,0,1,1182.654,163.583Z" transform="translate(-1179.248 -162.501)" fill="#fff"/>
        <path id="Trazado_104784" data-name="Trazado 104784" d="M1186.245,163.583a1.082,1.082,0,1,1,1.082,1.081A1.082,1.082,0,0,1,1186.245,163.583Z" transform="translate(-1179.433 -162.501)" fill="#fff"/>
        <path id="Trazado_104785" data-name="Trazado 104785" d="M1189.837,163.583a1.081,1.081,0,1,1,1.081,1.081A1.081,1.081,0,0,1,1189.837,163.583Z" transform="translate(-1179.619 -162.501)" fill="#fff"/>
        <path id="Trazado_104786" data-name="Trazado 104786" d="M1193.429,163.583a1.081,1.081,0,1,1,1.081,1.081A1.081,1.081,0,0,1,1193.429,163.583Z" transform="translate(-1179.805 -162.501)" fill="#fff"/>
      </g>
      <g id="Grupo_56607" data-name="Grupo 56607" transform="translate(131.483 0.299)">
        <path id="Trazado_104787" data-name="Trazado 104787" d="M1326.515,165.909h-8.8v-4.078h8.8Zm-8.355-.449h7.906V162.28h-7.906Z" transform="translate(-1317.712 -161.831)" fill="#fff"/>
        <rect id="Rectángulo_5518" data-name="Rectángulo 5518" width="5.675" height="2.693" transform="translate(0.73 0.692)" fill="#fff"/>
        <rect id="Rectángulo_5519" data-name="Rectángulo 5519" width="0.783" height="2.181" transform="translate(8.808 0.948)" fill="#fff"/>
      </g>
    </g>
    <path id="Trazado_104788" data-name="Trazado 104788" d="M1193.375,477.58h-1.241v5.7h-2.318v-2.9h-4.1v2.9h-2.318v-5.7h-1.241l5.611-5.8Z" transform="translate(-6.219 -18.104)" fill="#ebebeb"/>
    <g id="Grupo_56609" data-name="Grupo 56609" transform="translate(1298.445 453.678)">
      <rect id="Rectángulo_5520" data-name="Rectángulo 5520" width="13.524" height="1.933" transform="translate(0 0)" fill="#ebebeb"/>
      <rect id="Rectángulo_5521" data-name="Rectángulo 5521" width="13.524" height="1.933" transform="translate(0 4.781)" fill="#ebebeb"/>
      <rect id="Rectángulo_5522" data-name="Rectángulo 5522" width="13.524" height="1.933" transform="translate(0 9.563)" fill="#ebebeb"/>
    </g>
    <g id="Grupo_56614" data-name="Grupo 56614" transform="translate(1173.003 205.076)">
      <g id="Grupo_56612" data-name="Grupo 56612" transform="translate(0)">
        <g id="Grupo_56611" data-name="Grupo 56611">
          <path id="Trazado_104789" data-name="Trazado 104789" d="M1192.952,226.478a9.1,9.1,0,0,1-9.573,0,9.1,9.1,0,1,1,9.573,0Z" transform="translate(-1179.062 -209.629)" fill="#dbdbdb"/>
          <g id="Grupo_56610" data-name="Grupo 56610" transform="translate(4.316 5.295)">
            <path id="Trazado_104790" data-name="Trazado 104790" d="M1191.281,217.982a2.77,2.77,0,1,1-2.77-2.77A2.77,2.77,0,0,1,1191.281,217.982Z" transform="translate(-1183.724 -215.212)" fill="#fff"/>
            <path id="Trazado_104791" data-name="Trazado 104791" d="M1193.187,225.93v1.143a9.1,9.1,0,0,1-9.573,0V225.93a4.787,4.787,0,1,1,9.573,0Z" transform="translate(-1183.614 -215.519)" fill="#fff"/>
          </g>
        </g>
      </g>
      <g id="Grupo_56613" data-name="Grupo 56613" transform="translate(29.622 0.523)">
        <rect id="Rectángulo_5523" data-name="Rectángulo 5523" width="57.869" height="4.772" fill="#ebebeb"/>
        <rect id="Rectángulo_5524" data-name="Rectángulo 5524" width="50.511" height="3.161" transform="translate(0 7.956)" fill="#ebebeb"/>
        <rect id="Rectángulo_5525" data-name="Rectángulo 5525" width="83.522" height="3.161" transform="translate(0 14.042)" fill="#ebebeb"/>
      </g>
    </g>
    <g id="Grupo_56615" data-name="Grupo 56615" transform="translate(1162.365 230.826)">
      <rect id="Rectángulo_5526" data-name="Rectángulo 5526" width="163.139" height="114.244" transform="translate(163.139 114.244) rotate(180)" fill="#ebebeb"/>
      <path id="Trazado_104792" data-name="Trazado 104792" d="M1187.948,270.291a13.515,13.515,0,1,0,13.515-13.515A13.515,13.515,0,0,0,1187.948,270.291Z" transform="translate(-1168.883 -237.816)" fill="#dbdbdb"/>
      <path id="Trazado_104793" data-name="Trazado 104793" d="M1244.231,327.693h90.722l-45.361-61.485Z" transform="translate(-1171.792 -238.303)" fill="#c7c7c7"/>
      <path id="Trazado_104794" data-name="Trazado 104794" d="M1206.73,329.173h74.9l-37.45-40.039Z" transform="translate(-1169.854 -239.488)" fill="#dbdbdb"/>
      <rect id="Rectángulo_5527" data-name="Rectángulo 5527" width="163.139" height="24.614" transform="translate(0 89.63)" fill="#dbdbdb"/>
    </g>
    <g id="Grupo_56620" data-name="Grupo 56620" transform="translate(1173.003 388.462)">
      <g id="Grupo_56618" data-name="Grupo 56618" transform="translate(0 0)">
        <g id="Grupo_56617" data-name="Grupo 56617">
          <path id="Trazado_104795" data-name="Trazado 104795" d="M1192.952,419.86a9.1,9.1,0,0,1-9.573,0,9.1,9.1,0,1,1,9.573,0Z" transform="translate(-1179.062 -403.011)" fill="#dbdbdb"/>
          <g id="Grupo_56616" data-name="Grupo 56616" transform="translate(4.316 5.294)">
            <path id="Trazado_104796" data-name="Trazado 104796" d="M1191.281,411.364a2.77,2.77,0,1,1-2.77-2.77A2.77,2.77,0,0,1,1191.281,411.364Z" transform="translate(-1183.724 -408.594)" fill="#fff"/>
            <path id="Trazado_104797" data-name="Trazado 104797" d="M1193.187,419.312v1.143a9.1,9.1,0,0,1-9.573,0v-1.139a4.787,4.787,0,1,1,9.573,0Z" transform="translate(-1183.614 -408.901)" fill="#fff"/>
          </g>
        </g>
      </g>
      <g id="Grupo_56619" data-name="Grupo 56619" transform="translate(29.622 0.523)">
        <rect id="Rectángulo_5528" data-name="Rectángulo 5528" width="74.424" height="4.772" fill="#ebebeb"/>
        <rect id="Rectángulo_5529" data-name="Rectángulo 5529" width="95.006" height="3.161" transform="translate(0 7.956)" fill="#ebebeb"/>
        <rect id="Rectángulo_5530" data-name="Rectángulo 5530" width="32.365" height="3.161" transform="translate(0 14.042)" fill="#ebebeb"/>
      </g>
    </g>
    <g id="Grupo_56621" data-name="Grupo 56621" transform="translate(1162.365 414.213)">
      <rect id="Rectángulo_5531" data-name="Rectángulo 5531" width="163.139" height="27.906" fill="#ebebeb"/>
      <path id="Trazado_104798" data-name="Trazado 104798" d="M1214.225,459.105h-25.439a13.517,13.517,0,0,1,25.439,0Z" transform="translate(-1168.926 -431.2)" fill="#dbdbdb"/>
    </g>
    <g id="Grupo_56623" data-name="Grupo 56623" transform="translate(1173.171 351.776)">
      <circle id="Elipse_4054" data-name="Elipse 4054" cx="5.4" cy="5.4" r="5.4" transform="translate(0 0)" fill="#ebebeb"/>
      <g id="xsrjP0-2" data-name="xsrjP0" transform="translate(1.952 1.77)">
        <g id="Grupo_56622" data-name="Grupo 56622">
          <path id="Trazado_104799" data-name="Trazado 104799" d="M1184.13,371.971c-.143-.09-.267-.22-.459-.2-.073.008-.057-.053-.057-.093,0-.72,0-1.44,0-2.158,0-.052,0-.095.061-.124.549-.277.787-.822,1.124-1.288a2.146,2.146,0,0,0,.4-1.632c-.023-.162.053-.234.2-.267a.361.361,0,0,1,.411.129,2.918,2.918,0,0,1,.314.943,3.416,3.416,0,0,1-.1.809c-.026.2-.071.393-.109.593.048.035.1.016.155.017h1.824c.256,0,.381.073.417.244a.487.487,0,0,1-.265.526c-.046.023-.128,0-.134.074s.08.064.121.094c.22.151.179.462-.076.642-.061.043-.179.023-.182.113,0,.072.109.071.159.121a.412.412,0,0,1-.175.635.9.9,0,0,0-.107.041c-.03.021-.06.044,0,.084a.359.359,0,0,1-.008.641l-.08.057a.519.519,0,0,1-.32.07q-1.43,0-2.859,0A.34.34,0,0,1,1184.13,371.971Z" transform="translate(-1181.417 -366.193)" fill="#fff" fill-rule="evenodd"/>
          <path id="Trazado_104800" data-name="Trazado 104800" d="M1181.3,370.866c0-.457,0-.914,0-1.371,0-.093.009-.138.122-.138.559.008,1.115.008,1.673,0,.109,0,.126.037.125.134q0,1.38,0,2.759c0,.118-.031.151-.149.149-.54-.007-1.081-.008-1.622,0-.135,0-.154-.046-.152-.163C1181.3,371.78,1181.3,371.323,1181.3,370.866Z" transform="translate(-1181.298 -366.356)" fill="#fff" fill-rule="evenodd"/>
        </g>
      </g>
    </g>
    <g id="Grupo_56624" data-name="Grupo 56624" transform="translate(1184.512 351.775)">
      <path id="Trazado_104801" data-name="Trazado 104801" d="M1191.354,371.007a5.4,5.4,0,1,1,6.527,3.965A5.4,5.4,0,0,1,1191.354,371.007Z" transform="translate(-1191.199 -364.324)" fill="#31d9e7"/>
      <path id="Trazado_104802" data-name="Trazado 104802" d="M1199.483,370.556a2.76,2.76,0,0,1-5.513,0c-.679-1.373-.249-2.856.824-3.181,1.537-.465,1.932,2.212,1.932,2.212s.395-2.677,1.933-2.212C1199.732,367.7,1200.162,369.182,1199.483,370.556Z" transform="translate(-1191.325 -364.479)" fill="#fff"/>
    </g>
    <rect id="Rectángulo_5532" data-name="Rectángulo 5532" width="76.645" height="3.12" transform="translate(1203.519 356.471)" fill="#ebebeb"/>
    <path id="Trazado_104803" data-name="Trazado 104803" d="M1167.844,388.889l20.392-.164,20.392-.059,40.785-.113,40.785.112,20.392.059,20.392.165-20.392.165-20.392.059-40.785.112-40.785-.113-20.392-.059Z" transform="translate(-5.479 -13.802)" fill="#ebebeb"/>
    <g id="Grupo_56625" data-name="Grupo 56625" transform="translate(1075.558 318.692)">
      <rect id="Rectángulo_5533" data-name="Rectángulo 5533" width="56.957" height="56.957" transform="translate(0 14.674) rotate(-14.929)" fill="#f17781"/>
      <path id="Trazado_104804" data-name="Trazado 104804" d="M1108.785,372.109l-7.378,1.967-2.26-8.473,7.238-1.93c-.139-.652-.236-1.164-.358-1.669-.542-2.238-1.229-4.451-1.611-6.716-.84-4.983,1.23-9.213,5.861-11.16,2.889-1.215,6.082-1.7,9.218-2.54l2.056,7.711c-1.118.3-2.237.572-3.34.9a16.067,16.067,0,0,0-2.916.99,2.866,2.866,0,0,0-1.638,3.307c.491,2.187,1.133,4.339,1.759,6.686l8.414-2.244c.384,2.866.768,5.522,1.051,8.189.027.258-.529.743-.9.852-2.014.6-4.054,1.11-6.255,1.7,1.943,7.288,3.853,14.453,5.8,21.74l-8.958,2.389Z" transform="translate(-1077.486 -330.066)" fill="#fff"/>
    </g>
    <rect id="Rectángulo_5534" data-name="Rectángulo 5534" width="57.113" height="57.114" transform="translate(1345.596 378.189) rotate(5.657)" fill="#95f7ff"/>
    <g id="Grupo_56626" data-name="Grupo 56626" transform="translate(1349.106 387.24)">
      <path id="Trazado_104805" data-name="Trazado 104805" d="M1408.906,414.426c.54-5.693-2.649-9.724-8.284-10.337q-11.693-1.276-23.413-2.319c-5.525-.488-9.464,2.813-10.093,8.314-.439,3.888-.781,7.791-1.167,11.686-.377,3.81-.779,7.624-1.128,11.438-.527,5.821,2.651,9.891,8.4,10.52q11.567,1.272,23.164,2.295c5.652.5,9.636-2.86,10.222-8.478Q1407.822,425.993,1408.906,414.426Zm-6.03,22.818c-.395,3.592-2.529,5.392-6.133,5.059q-11.587-1.074-23.16-2.294c-3.614-.377-5.374-2.558-5.038-6.141q1.105-11.687,2.314-23.364c.368-3.566,2.567-5.417,6.132-5.089q11.587,1.067,23.159,2.294c3.569.378,5.354,2.614,5.04,6.175-.341,3.9-.761,7.789-1.147,11.683S1403.305,433.355,1402.875,437.244Z" transform="translate(-1364.764 -401.723)" fill="#fff"/>
      <path id="Trazado_104806" data-name="Trazado 104806" d="M1388.577,413.541a10.98,10.98,0,1,0,9.76,12.162A10.964,10.964,0,0,0,1388.577,413.541Zm-1.939,18.188a7.413,7.413,0,0,1-6.451-7.9,7.319,7.319,0,0,1,14.567,1.438A7.418,7.418,0,0,1,1386.638,431.729Z" transform="translate(-1365.373 -402.331)" fill="#fff"/>
      <path id="Trazado_104807" data-name="Trazado 104807" d="M1403.937,414.587a2.276,2.276,0,0,1-2.83,2,2.3,2.3,0,0,1-2.107-2.959c.264-1.515,1.329-2.125,2.866-2.062A2.461,2.461,0,0,1,1403.937,414.587Z" transform="translate(-1366.531 -402.231)" fill="#fff"/>
    </g>
    <g id="Grupo_56627" data-name="Grupo 56627" transform="translate(1340.598 245.433)">
      <rect id="Rectángulo_5535" data-name="Rectángulo 5535" width="42.475" height="42.474" transform="translate(14.239 0) rotate(19.587)" fill="#d4c266"/>
      <path id="Trazado_104808" data-name="Trazado 104808" d="M1364.611,284.4a14.621,14.621,0,0,0,9.867.423c-3.281-2.426-4.347-4.07-4.138-6.353l2.511.757c-2.506-2.148-3.518-4.7-2.608-7.97l2.3,1.575c-1.472-4.3-1.086-7.09,1.368-8.949a19.474,19.474,0,0,0,10.723,11.165c.124-.424.212-.744.311-1.062a6.367,6.367,0,0,1,5.642-4.789,6.441,6.441,0,0,1,6.632,3.3,1.352,1.352,0,0,0,1.3.784c1.123-.019,2.247-.024,3.481-.034a6.712,6.712,0,0,1-3.527,2.243c0,.068,0,.137.006.2l3.328.3.08.164c-1.071.514-2.121,1.075-3.219,1.52a1.73,1.73,0,0,0-1.147,1.124,18.94,18.94,0,0,1-22.608,12.108,19.216,19.216,0,0,1-9.823-5.931C1364.922,284.8,1364.769,284.594,1364.611,284.4Z" transform="translate(-1356.249 -252.79)" fill="#fff"/>
    </g>
    <rect id="Rectángulo_5536" data-name="Rectángulo 5536" width="36.91" height="36.91" transform="matrix(0.949, -0.316, 0.316, 0.949, 1340.119, 189.748)" fill="#2ab9c4"/>
    <g id="Grupo_56628" data-name="Grupo 56628" transform="translate(1349.852 187.7)">
      <path id="Trazado_104809" data-name="Trazado 104809" d="M1370.431,222.331c-.112-2.2-.239-4.234-.305-6.272a2.186,2.186,0,0,0-.708-1.606,13.656,13.656,0,1,1,22.863-13.576,13.766,13.766,0,0,1-8.1,16.564,14.641,14.641,0,0,1-6.827.927,2.163,2.163,0,0,0-1.262.317C1374.24,219.836,1372.422,221.041,1370.431,222.331Zm2.123-4.094c1.17-.757,2.145-1.432,3.168-2.027a1.944,1.944,0,0,1,1.19-.232,12.149,12.149,0,0,0,5.675-.382,11.362,11.362,0,0,0,6.576-16.162,10.646,10.646,0,0,0-10.917-5.757,10.824,10.824,0,0,0-9.83,7.95c-1.473,4.6-.217,8.6,3.335,11.892a2.1,2.1,0,0,1,.584,1.212C1372.47,215.841,1372.484,216.964,1372.554,218.237Z" transform="translate(-1365.552 -191.305)" fill="#fff"/>
      <path id="Trazado_104810" data-name="Trazado 104810" d="M1372.088,202.078c.485-1.479,1.743-1.639,2.8-.535.412.431.526.584.958,1.09a1.666,1.666,0,0,1,.321,2.161c-.324.569-.159.919.321,1.288a9.581,9.581,0,0,0,5.033,2.008.911.911,0,0,0,1.1-.661c.684-1.737.706-1.729,2.562-1.509.214.026.429.054.642.08a1.586,1.586,0,0,1,1.309,2.54,3.806,3.806,0,0,1-3.329,2.088,13.9,13.9,0,0,1-9.854-3.353,5.264,5.264,0,0,1-1.962-2.6A4.574,4.574,0,0,1,1372.088,202.078Z" transform="translate(-1365.877 -191.797)" fill="#fff"/>
    </g>
    <g id="Grupo_56673" data-name="Grupo 56673" transform="translate(1072.318 154.144)">
      <g id="Grupo_56672" data-name="Grupo 56672" transform="translate(0)" clip-path="url(#clip-path)">
        <g id="Grupo_56644" data-name="Grupo 56644" transform="translate(84.639 186.477)">
          <g id="Grupo_56636" data-name="Grupo 56636">
            <g id="Grupo_56632" data-name="Grupo 56632" transform="translate(0 256.758)">
              <path id="Trazado_104811" data-name="Trazado 104811" d="M1163.543,713.289c3.127,1.009,92.259-.146,95.622-2.348,1.293-.814,1.881-13.811,2.142-29.537q0-.246,0-.492c.061-3.24.1-6.577.108-9.96,0-.466,0-.931.017-1.395l-4.325-46.24-59.625.6,5.884,45.806.068,1.813.36,9.482.035.976s-33.92,15.7-37.365,18.512C1163.051,703.3,1160.414,712.294,1163.543,713.289Z" transform="translate(-1162.142 -623.316)" fill="#ad6359"/>
              <path id="Trazado_104812" data-name="Trazado 104812" d="M1163.543,715.809c3.127,1.009,92.259-.146,95.622-2.348,1.293-.814,1.881-13.811,2.142-29.537q0-.246,0-.492c.061-3.24.1-6.577.108-9.96,0-.466,0-.931.017-1.395l-58.066.163.068,1.813.36,9.482.035.976s-33.92,15.7-37.365,18.512C1163.051,705.822,1160.414,714.814,1163.543,715.809Z" transform="translate(-1162.142 -625.836)" fill="#ebebeb"/>
              <g id="Grupo_56631" data-name="Grupo 56631" transform="translate(0 57.452)">
                <path id="Trazado_104813" data-name="Trazado 104813" d="M1163.534,716.422c1.609.518,25.825.464,49.5-.014,4.759-.095,9.49-.2,14-.327,16.88-.464,30.829-1.159,32.124-2,1.282-.805,1.868-13.444,2.127-28.879,0-.219.013-.437.013-.655,0-.163,0-.34.014-.5h-.068l-57.445.109.027.982s-33.924,15.693-37.359,18.5S1160.412,715.426,1163.534,716.422Z" transform="translate(-1162.141 -683.907)" fill="#a6a6a6"/>
                <g id="Grupo_56630" data-name="Grupo 56630" transform="translate(2.128)">
                  <g id="Grupo_56629" data-name="Grupo 56629">
                    <path id="Trazado_104814" data-name="Trazado 104814" d="M1164.622,714.479c15.02-.564,75.656-1.421,90.545-.836.121.006.122.087,0,.095-14.875.884-75.516,1.249-90.545.988C1164.308,714.72,1164.305,714.491,1164.622,714.479Z" transform="translate(-1164.386 -685.427)" fill="#263238"/>
                    <path id="Trazado_104815" data-name="Trazado 104815" d="M1199.3,684.393c5.9-1.18,13.142-.366,17.714,3.788.177.161-.054.411-.247.353a83.189,83.189,0,0,0-17.435-3.394A.378.378,0,0,1,1199.3,684.393Z" transform="translate(-1166.175 -683.9)" fill="#263238"/>
                    <path id="Trazado_104816" data-name="Trazado 104816" d="M1194.838,687.164c5.9-1.181,13.142-.366,17.714,3.788.177.16-.055.411-.247.352a83.133,83.133,0,0,0-17.435-3.393A.378.378,0,0,1,1194.838,687.164Z" transform="translate(-1165.944 -684.043)" fill="#263238"/>
                    <path id="Trazado_104817" data-name="Trazado 104817" d="M1190.373,689.934c5.9-1.18,13.142-.366,17.713,3.788.177.16-.054.41-.245.352a83.14,83.14,0,0,0-17.435-3.393A.379.379,0,0,1,1190.373,689.934Z" transform="translate(-1165.714 -684.186)" fill="#263238"/>
                  </g>
                </g>
                <path id="Trazado_104818" data-name="Trazado 104818" d="M1215.8,716.407c4.759-.095,9.49-.2,14-.327,16.88-.464,30.829-1.159,32.124-2,1.282-.805,1.868-13.444,2.127-28.879,0-.219.013-.437.013-.655,0-.163,0-.34.014-.5h-.068C1256.15,689.561,1228.416,708.023,1215.8,716.407Z" transform="translate(-1164.915 -683.907)" fill="#263238"/>
              </g>
            </g>
            <g id="Grupo_56635" data-name="Grupo 56635" transform="translate(29.649)">
              <path id="Trazado_104819" data-name="Trazado 104819" d="M1201.5,667.217H1265.7s-12.926-149.93-12.422-152.549c.641-3.354,4.431-18.53,9.476-38.355,1.582-6.2,3.286-12.858,5.058-19.757,4.786-18.653,10.063-39.037,14.658-56.776,6.9-26.575,12.285-47.218,12.285-47.218h-54.4s-6.34,20.1-14.33,46.25c-13.021,42.5-30.42,100.995-32.138,115.215C1191.1,536.989,1201.5,667.217,1201.5,667.217Z" transform="translate(-1193.407 -352.562)" fill="#455a64"/>
              <g id="Grupo_56634" data-name="Grupo 56634" transform="translate(10.8 13.626)">
                <g id="Grupo_56633" data-name="Grupo 56633" transform="translate(0 289.611)">
                  <path id="Trazado_104820" data-name="Trazado 104820" d="M1204.933,672.794c9.8-.2,6.987-.284,16.793-.377,4.8-.046,36.33-.322,40.813.421a.1.1,0,0,1,0,.2c-4.484.743-36.015.468-40.813.421-9.806-.095-6.989-.174-16.793-.378A.143.143,0,0,1,1204.933,672.794Z" transform="translate(-1204.795 -672.328)" fill="#263238"/>
                </g>
                <path id="Trazado_104821" data-name="Trazado 104821" d="M1243.715,506.248c2.105-9.28,5.25-18.373,7.988-27.482q8.346-27.761,16.793-55.492,4.213-13.868,8.467-27.725,2.154-6.994,4.329-13.983c1.429-4.556,3.053-9.073,4.343-13.67.524-1.87.811-.843.139,1.532-1.354,4.788-2.69,9.581-4.086,14.356q-4.148,14.189-8.348,28.361-8.347,28.21-16.84,56.377-4.238,14.129-8.5,28.25a115.841,115.841,0,0,0-3.471,13.665,62.952,62.952,0,0,0-.566,14.619c.615,9.822,1.753,19.629,2.66,29.427q1.363,14.728,2.726,29.457,2.713,29.311,5.378,58.627c.223,2.477.439,4.954.63,7.434.064.83-1.19.767-1.277-.031-2.115-19.323-3.735-38.708-5.55-58.06q-2.708-28.886-5.41-57.772c-.451-4.834-.966-9.678-.97-14.539A59.986,59.986,0,0,1,1243.715,506.248Z" transform="translate(-1206.726 -366.931)" fill="#263238"/>
              </g>
            </g>
            <path id="Trazado_104822" data-name="Trazado 104822" d="M1249.42,352.562c3.777,29.219,10.976,84,16.225,123.751,12.271-48.159,32-123.751,32-123.751Z" transform="translate(-1166.653 -352.562)" fill="#263238"/>
          </g>
          <g id="Grupo_56643" data-name="Grupo 56643" transform="translate(68.018)">
            <g id="Grupo_56640" data-name="Grupo 56640" transform="translate(0 257.974)">
              <path id="Trazado_104823" data-name="Trazado 104823" d="M1235.253,714.214c3.123,1.02,92.259.19,95.63-2,1.3-.81,1.932-13.805,2.249-29.529,0-.164,0-.328,0-.492.073-3.24.127-6.577.145-9.959,0-.466,0-.931.022-1.4.208-22.693-1.43-46.24-1.43-46.24l-58.263.379,1.627,45.813.062,1.814.325,9.483.031.976s-33.977,15.578-37.433,18.376C1234.8,704.225,1232.129,713.207,1235.253,714.214Z" transform="translate(-1233.868 -624.598)" fill="#ad6359"/>
              <path id="Trazado_104824" data-name="Trazado 104824" d="M1235.253,716.732c3.123,1.02,92.259.19,95.63-2,1.3-.81,1.932-13.805,2.249-29.529,0-.164,0-.328,0-.492.073-3.24.127-6.577.145-9.959,0-.466,0-.931.022-1.4l-58.066-.048.062,1.814.325,9.483.031.976s-33.977,15.578-37.433,18.376C1234.8,706.743,1232.129,715.725,1235.253,716.732Z" transform="translate(-1233.868 -627.116)" fill="#ebebeb"/>
              <g id="Grupo_56639" data-name="Grupo 56639" transform="translate(0 57.237)">
                <path id="Trazado_104825" data-name="Trazado 104825" d="M1235.253,717.348c3.123,1.02,92.259.19,95.63-2,1.3-.81,1.932-13.805,2.249-29.529,0-.164,0-.328,0-.492l-57.512-.106.031.976s-33.977,15.578-37.433,18.376C1234.8,707.359,1232.129,716.341,1235.253,717.348Z" transform="translate(-1233.868 -684.969)" fill="#a6a6a6"/>
                <g id="Grupo_56638" data-name="Grupo 56638" transform="translate(2.125)">
                  <g id="Grupo_56637" data-name="Grupo 56637">
                    <path id="Trazado_104826" data-name="Trazado 104826" d="M1236.346,715.4c15.022-.508,75.66-1.144,90.547-.505.121.006.122.087,0,.095-14.878.83-75.519.973-90.547.657C1236.03,715.642,1236.028,715.413,1236.346,715.4Z" transform="translate(-1236.109 -686.489)" fill="#263238"/>
                    <path id="Trazado_104827" data-name="Trazado 104827" d="M1271.136,685.43c5.9-1.159,13.143-.318,17.7,3.853.176.161-.056.41-.248.351a83.2,83.2,0,0,0-17.421-3.457A.378.378,0,0,1,1271.136,685.43Z" transform="translate(-1237.904 -684.955)" fill="#263238"/>
                    <path id="Trazado_104828" data-name="Trazado 104828" d="M1266.661,688.185c5.9-1.159,13.143-.319,17.7,3.852.176.161-.056.41-.248.351a83.2,83.2,0,0,0-17.422-3.457A.378.378,0,0,1,1266.661,688.185Z" transform="translate(-1237.672 -685.097)" fill="#263238"/>
                    <path id="Trazado_104829" data-name="Trazado 104829" d="M1262.186,690.939c5.9-1.159,13.143-.319,17.7,3.852.177.162-.055.41-.247.352a83.117,83.117,0,0,0-17.421-3.458A.378.378,0,0,1,1262.186,690.939Z" transform="translate(-1237.441 -685.24)" fill="#263238"/>
                  </g>
                </g>
              </g>
            </g>
            <g id="Grupo_56641" data-name="Grupo 56641" transform="translate(10.33)">
              <path id="Trazado_104830" data-name="Trazado 104830" d="M1244.761,352.562s1.255,26.029,7.213,46.645c.478,1.7,1,3.382,1.555,4.99a96.824,96.824,0,0,1,15.68,8.059s.627,20.943,1.254,44.3c.7,26.111,1.419,55.235,1.268,61.412-.545,23.111,2.891,150.189,2.891,150.189l64.18.259s-11.6-141.913-11.521-150.381c.122-13.607-3.11-73.752-5.6-117.616-1.527-27.024-2.781-47.858-2.781-47.858Z" transform="translate(-1244.761 -352.562)" fill="#455a64"/>
              <path id="Trazado_104831" data-name="Trazado 104831" d="M1278.561,673.3c9.8-.162,6.988-.254,16.794-.306,4.8-.027,36.332-.167,40.811.595a.1.1,0,0,1,0,.2c-4.486.724-36.017.315-40.814.248-9.806-.136-6.989-.2-16.791-.45A.143.143,0,0,1,1278.561,673.3Z" transform="translate(-1246.501 -369.125)" fill="#263238"/>
              <path id="Trazado_104832" data-name="Trazado 104832" d="M1317.225,362.357c1.181,35.807,2.432,71.617,4.034,107.408,1.607,35.914,3.772,71.815,6.778,107.641,1.678,20.016,3.261,48.17,5.421,68.14.014.135-.191.183-.209.045-4.673-35.519-7.278-79.439-9.576-115.182s-3.855-71.538-5.073-107.329c-.689-20.245-1.217-40.5-1.822-60.746C1316.77,362.045,1317.215,362.071,1317.225,362.357Z" transform="translate(-1248.484 -353.057)" fill="#263238"/>
            </g>
            <g id="Grupo_56642" data-name="Grupo 56642" transform="translate(15.832 50.05)">
              <path id="Trazado_104833" data-name="Trazado 104833" d="M1251.16,405.375a119.11,119.11,0,0,1,18.348,9.61.212.212,0,0,1-.193.377c-6.192-3.008-12.513-5.905-18.531-9.25A.414.414,0,0,1,1251.16,405.375Z" transform="translate(-1250.563 -405.34)" fill="#263238"/>
            </g>
            <path id="Trazado_104834" data-name="Trazado 104834" d="M1247.127,375.007c.512,2.752,1.18,5.476,1.773,8.21.558,2.566.967,5.184,1.646,7.721a13.137,13.137,0,0,0,3.6,6.471c1.007.936,2.116,1.764,3.189,2.621.578.462,1.2.906,1.806,1.373-.079-.362-.141-.732-.208-1.107q-.275-1.565-.535-3.131-.583-3.477-1.115-6.962c-.7-4.565-1.341-9.18-2.293-13.7a.147.147,0,0,1,.284-.071c1.138,4.479,2.394,8.91,3.385,13.428.485,2.215,2.219,13.153,2.3,13.928.08.8.146,1.6.175,2.4a9.632,9.632,0,0,1,0,2.455c-.047.2-.288.168-.373.032l-.011.009a9.652,9.652,0,0,1-.7-2.377c-.2-.78-.377-1.572-.518-2.366-.05-.286-.09-.579-.131-.872-1.077-.655-2.08-1.52-3.088-2.249-1.085-.786-2.192-1.552-3.218-2.416a12.331,12.331,0,0,1-3.928-6.138,44.716,44.716,0,0,1-1.289-7.861c-.347-3.108-.6-6.233-1.036-9.329C1246.817,374.9,1247.092,374.819,1247.127,375.007Z" transform="translate(-1234.538 -353.717)" fill="#263238"/>
          </g>
        </g>
        <path id="Trazado_104835" data-name="Trazado 104835" d="M1254.029,275.449c-3.678,29.313-10.1,78.478-20.5,82.455-1.8.688-9.455,2.207-14.687-3.683-8.821-9.931-24.07-43.4-28.331-54.164-1.89-4.774,29.233-20.351,31.9-15.551,3.732,6.72,7.65,16.836,8.393,16.5,1.24-.563,3.356-13.045,11.671-30.57C1252.808,248.66,1255.4,264.552,1254.029,275.449Z" transform="translate(-1078.965 -161.278)" fill="#ad6359"/>
        <g id="Grupo_56653" data-name="Grupo 56653" transform="translate(0 21.494)">
          <path id="Trazado_104836" data-name="Trazado 104836" d="M1180.972,288.341c3.064,6.582,14.6,17.591,18.4,19.177s23.172-17.4,22.679-21.6-12.526-25.561-19.165-28.848S1177.8,281.523,1180.972,288.341Z" transform="translate(-1078.457 -182.629)" fill="#ad6359"/>
          <g id="Grupo_56645" data-name="Grupo 56645" transform="translate(129.1 64.022)">
            <path id="Trazado_104837" data-name="Trazado 104837" d="M1222.109,281.368s-.638-9.421,1.6-17.434c1.884-6.737,5.442-16.528,1.858-17.676-7.36-2.358-16.224,22.062-16.224,22.062s-2.182,11.4,4.9,14.384A7.631,7.631,0,0,0,1222.109,281.368Z" transform="translate(-1209.027 -246.098)" fill="#ad6359"/>
          </g>
          <g id="Grupo_56650" data-name="Grupo 56650">
            <path id="Trazado_104838" data-name="Trazado 104838" d="M1201.438,289.679l-10.919-1.925,5.573-31.62,13.818,2.435Z" transform="translate(-1078.97 -182.595)" fill="#ffc727"/>
            <path id="Trazado_104839" data-name="Trazado 104839" d="M1209.907,258.569l-3.228,11.868-5.245,19.245-10.919-1.925,5.574-31.624Z" transform="translate(-1078.969 -182.594)" fill="#31d9e7"/>
            <path id="Trazado_104840" data-name="Trazado 104840" d="M1210.095,258.569l-3.228,11.868L1194.15,268.2l2.126-12.062Z" transform="translate(-1079.157 -182.594)" opacity="0.1"/>
            <rect id="Rectángulo_5537" data-name="Rectángulo 5537" width="17.457" height="13.261" transform="translate(116.513 64.78) rotate(9.996)" fill="#47ecfa"/>
            <g id="Grupo_56648" data-name="Grupo 56648" transform="translate(32.861)">
              <g id="Grupo_56646" data-name="Grupo 56646" transform="translate(99.605 42.916)">
                <path id="Trazado_104841" data-name="Trazado 104841" d="M1226.166,245.993l-13.589-1.019,3.725-21.133,13.119,3.688Z" transform="translate(-1212.576 -223.841)" fill="#31d9e7"/>
              </g>
              <path id="Trazado_104842" data-name="Trazado 104842" d="M1205.468,216.245l-5.5,31.187-22.881-1.266-55.478,9.984,13.2-74.9,48.72,28.357Z" transform="translate(-1108.269 -178.724)" fill="#31d9e7"/>
              <ellipse id="Elipse_4055" data-name="Elipse 4055" cx="38.214" cy="12.283" rx="38.214" ry="12.283" transform="matrix(0.174, -0.985, 0.985, 0.174, 0, 75.268)" fill="#2ab9c4"/>
              <ellipse id="Elipse_4056" data-name="Elipse 4056" cx="33.924" cy="10.057" rx="33.924" ry="10.057" transform="matrix(0.174, -0.985, 0.985, 0.174, 2.425, 70.673)" opacity="0.2"/>
              <path id="Trazado_104843" data-name="Trazado 104843" d="M1134.8,220.684c-.432,2.458-.935,4.836-1.5,7.113a7.586,7.586,0,0,1-11.159-7.952l.623-3.532a7.58,7.58,0,0,1,13.155-3.708C1135.663,215.21,1135.285,217.919,1134.8,220.684Z" transform="translate(-1108.29 -180.212)" fill="#2ab9c4"/>
              <g id="Grupo_56647" data-name="Grupo 56647" transform="translate(77.205 29.726)">
                <path id="Trazado_104844" data-name="Trazado 104844" d="M1215.235,252.772l-26.28-1.971,7.2-40.868,25.37,7.132Z" transform="translate(-1188.955 -209.932)" fill="#2ab9c4"/>
                <path id="Trazado_104845" data-name="Trazado 104845" d="M1215.235,252.772l-26.28-1.971,7.2-40.868,25.37,7.132Z" transform="translate(-1188.955 -209.932)" fill="#2ab9c4" opacity="0.2"/>
              </g>
              <path id="Trazado_104846" data-name="Trazado 104846" d="M1137.612,187.315a23.747,23.747,0,0,1,2.651,8.129,54.179,54.179,0,0,1,.675,8.572c.04,1.435-.051,2.868-.09,4.3-.119,1.428-.2,2.861-.348,4.285-.177,1.422-.3,2.852-.522,4.267s-.416,2.834-.669,4.245a94.127,94.127,0,0,1-4.456,16.589,48.939,48.939,0,0,1-3.731,7.75,20.364,20.364,0,0,1-5.7,6.362,21.033,21.033,0,0,0,5.349-6.567,48.954,48.954,0,0,0,3.486-7.766,99.79,99.79,0,0,0,4.241-16.513,102.351,102.351,0,0,0,1.807-16.957,54.414,54.414,0,0,0-.442-8.509A24.746,24.746,0,0,0,1137.612,187.315Z" transform="translate(-1108.466 -179.037)" opacity="0.2"/>
            </g>
            <g id="Grupo_56649" data-name="Grupo 56649" transform="translate(0 1.775)">
              <path id="Trazado_104847" data-name="Trazado 104847" d="M1109.464,180.458c1.558,1.231,3.049,2.533,4.529,3.846s2.926,2.662,4.364,4.019c1.423,1.372,2.846,2.745,4.221,4.169l2.059,2.138c.664.736,1.349,1.45,1.994,2.207-.785-.61-1.531-1.26-2.3-1.889l-2.232-1.956c-1.486-1.306-2.926-2.663-4.363-4.02-1.422-1.373-2.845-2.746-4.219-4.171S1110.767,181.956,1109.464,180.458Z" transform="translate(-1074.78 -180.458)" fill="#263238"/>
              <path id="Trazado_104848" data-name="Trazado 104848" d="M1119.665,241.488c-2.166.563-4.348,1.03-6.533,1.482s-4.377.854-6.573,1.247c-2.2.371-4.4.741-6.609,1.042l-3.316.449c-1.111.117-2.218.265-3.333.355,1.081-.29,2.172-.524,3.257-.788l3.275-.7c2.183-.462,4.378-.854,6.574-1.246,2.2-.37,4.4-.74,6.609-1.04S1117.436,241.687,1119.665,241.488Z" transform="translate(-1073.944 -183.613)" fill="#263238"/>
              <path id="Trazado_104849" data-name="Trazado 104849" d="M1077.784,233.234c3.272-.258,6.548-.417,9.823-.562s6.553-.239,9.83-.323c3.277-.064,6.555-.124,9.834-.116l4.919.015c1.64.038,3.279.046,4.921.11-1.637.138-3.274.219-4.911.33l-4.913.234c-3.275.155-6.553.239-9.829.322-3.277.062-6.556.123-9.834.114S1081.065,233.346,1077.784,233.234Z" transform="translate(-1073.142 -183.134)" fill="#263238"/>
              <path id="Trazado_104850" data-name="Trazado 104850" d="M1090.16,181.147c2.8,1.8,5.547,3.678,8.281,5.568s5.441,3.823,8.141,5.762c2.688,1.957,5.374,3.916,8.02,5.93l3.967,3.025c1.3,1.035,2.624,2.045,3.911,3.1-1.406-.891-2.779-1.831-4.169-2.744l-4.113-2.822c-2.742-1.883-5.442-3.823-8.141-5.763-2.687-1.958-5.373-3.917-8.018-5.932S1092.745,183.246,1090.16,181.147Z" transform="translate(-1073.782 -180.494)" fill="#263238"/>
              <path id="Trazado_104851" data-name="Trazado 104851" d="M1118.172,218.572c-3.807-.523-7.6-1.144-11.384-1.779s-7.56-1.345-11.34-2.013c-3.768-.741-7.542-1.442-11.3-2.218l-5.638-1.182c-1.873-.426-3.751-.821-5.62-1.275,1.905.253,3.8.562,5.7.842l5.683.936c3.788.634,7.56,1.344,11.34,2.015,3.767.743,7.542,1.441,11.3,2.219S1114.432,217.685,1118.172,218.572Z" transform="translate(-1072.889 -181.991)" fill="#263238"/>
            </g>
          </g>
          <g id="Grupo_56652" data-name="Grupo 56652" transform="translate(98.175 65.951)">
            <path id="Trazado_104852" data-name="Trazado 104852" d="M1211.864,263.734c-.415,3.824-4.684,1.146-4.684,1.146s5.215,5.336,3.262,9.113c-1.892,3.635-6.934.218-7.3-.022.273.284,4.938,5.313,2.585,8.906-2.448,3.733-6.923-.567-7.21-.846.173.35,2.393,5.015-.015,7.338-4.14,3.99-10.146-7.782-14.63-9.032,0,0-2.985,7.36-3.117,7.555,0,0-5.943-11.083-3.919-17.038a4.016,4.016,0,0,1,4.2-2.765s-2.311-3.362-.547-6.249c.909-1.479,4.085-1.342,4.085-1.342s-1.738-2.769-.009-5.24c1.373-1.976,4.346-1.53,4.346-1.53s-.435-3.434,1.624-5C1194.682,245.57,1212.746,255.544,1211.864,263.734Z" transform="translate(-1176.416 -248.131)" fill="#ad6359"/>
            <g id="Grupo_56651" data-name="Grupo 56651" transform="translate(4.875 5.489)">
              <path id="Trazado_104853" data-name="Trazado 104853" d="M1190.1,254.025a.054.054,0,0,1,.033-.1,35.787,35.787,0,0,1,18,11.377c.144.179-.084.492-.281.325A73.3,73.3,0,0,0,1190.1,254.025Z" transform="translate(-1181.997 -253.919)" fill="#263238"/>
              <path id="Trazado_104854" data-name="Trazado 104854" d="M1184.946,261.074c-.073-.032-.02-.156.063-.132,6.936,1.924,14.52,6.728,18.862,13.631.149.237.046.6-.146.339C1200.489,270.541,1191.039,263.787,1184.946,261.074Z" transform="translate(-1181.73 -254.282)" fill="#263238"/>
              <path id="Trazado_104855" data-name="Trazado 104855" d="M1198.92,283.7c-4.42-6.457-10.465-10.849-17.324-14.466-.089-.047-.013-.168.072-.149,3.837.855,7.968,3.617,11,6.038a20.638,20.638,0,0,1,6.478,8.423C1199.2,283.678,1199.015,283.838,1198.92,283.7Z" transform="translate(-1181.557 -254.703)" fill="#263238"/>
            </g>
            <path id="Trazado_104856" data-name="Trazado 104856" d="M1207.716,265.784c.173.216-.332.232-.165.453.7.929,4.439,6.884,2.805,8.788-1.312,1.522-4.268.815-5.3.1l-2.587-1.8,1.8,2.594a12.906,12.906,0,0,1,1.832,3.757,4.617,4.617,0,0,1-.28,3.763,2.637,2.637,0,0,1-3.076,1.245,7.984,7.984,0,0,1-3.366-2.156l-2.632-2.652,1.613,3.352a12.141,12.141,0,0,1,.98,2.935,5,5,0,0,1-.171,2.878,2.378,2.378,0,0,1-2.038,1.455,5.257,5.257,0,0,1-2.744-1.053,41.338,41.338,0,0,1-4.9-4.238c-.8-.751-1.594-1.506-2.429-2.222a7.809,7.809,0,0,0-2.787-1.728,8.428,8.428,0,0,1,2.582,1.951c.769.77,1.5,1.577,2.239,2.386a35.163,35.163,0,0,0,4.778,4.592,6.139,6.139,0,0,0,3.25,1.367,3.369,3.369,0,0,0,3.089-2.03,6.115,6.115,0,0,0,.308-3.565,13.275,13.275,0,0,0-1.042-3.285l-1.019.7a9.158,9.158,0,0,0,3.951,2.586,3.817,3.817,0,0,0,2.582-.141,4.322,4.322,0,0,0,1.9-1.705,5.825,5.825,0,0,0,.356-4.764,13.978,13.978,0,0,0-2.08-4.1l-.783.79c1.338.868,4.557,2.019,6.89-.086C1213.912,272.744,1208.74,266.8,1207.716,265.784Z" transform="translate(-1176.822 -249.044)" fill="#263238"/>
            <path id="Trazado_104857" data-name="Trazado 104857" d="M1208.857,265.534a7.726,7.726,0,0,0,2.306.5,1.785,1.785,0,0,0,1.633-.78,3.634,3.634,0,0,0,.339-2.038c-.055-.773-.153-1.583-.287-2.414a6.125,6.125,0,0,1,1.118,2.285,3.6,3.6,0,0,1-.259,2.741,2.564,2.564,0,0,1-1.192.961,2.668,2.668,0,0,1-1.449.078A4.133,4.133,0,0,1,1208.857,265.534Z" transform="translate(-1178.093 -248.786)" fill="#263238"/>
          </g>
        </g>
        <g id="Grupo_56654" data-name="Grupo 56654" transform="translate(109.111 96.534)">
          <path id="Trazado_104858" data-name="Trazado 104858" d="M1187.948,310.527l34.021-27.362s8.25,17.041,8.734,16.974,5.882-22.684,14.831-36.772,11.111,1.2,9.209,12.833-10.856,76.05-18.9,81.956-15.609-1.485-18.864-4.624C1212.491,349.207,1187.948,310.527,1187.948,310.527Z" transform="translate(-1187.948 -257.716)" fill="#31d9e7"/>
          <path id="Trazado_104859" data-name="Trazado 104859" d="M1194.852,315.452c1.065-1.093,11.76-9.429,14.122-11.19s4.73-3.519,7.1-5.274c2.448-1.813,4.854-3.78,7.438-5.393a.107.107,0,0,1,.133.168c-2.238,2.064-4.769,3.862-7.163,5.739q-3.545,2.779-7.1,5.55c-2.371,1.844-13.128,9.855-14.428,10.572C1194.846,315.685,1194.779,315.526,1194.852,315.452Z" transform="translate(-1188.303 -259.569)" fill="#31d9e7"/>
          <path id="Trazado_104860" data-name="Trazado 104860" d="M1233.034,302.451c.943,2.009,1.761,4.067,2.547,6.138s1.5,4.167,2.177,6.277c.651,2.118,1.283,4.243,1.789,6.4a57.31,57.31,0,0,1,1.233,6.537c-.331-1.061-.6-2.131-.945-3.183-.3-1.062-.627-2.117-.953-3.17l-1.98-6.317-1.972-6.323-.973-3.17C1233.659,304.576,1233.325,303.522,1233.034,302.451Z" transform="translate(-1190.279 -260.028)" fill="#31d9e7"/>
        </g>
        <g id="Grupo_56655" data-name="Grupo 56655" transform="translate(151.867 90.966)">
          <path id="Trazado_104861" data-name="Trazado 104861" d="M1233.2,370.016c1.473,1.458,91.93-3.327,92.366-3.913,1.186-1.6-31.164-97.869-52.371-113.1-4.56-3.275-16.809,1.112-19.954,4.268-1.974,1.98-6.27,14.493-9.081,24.842C1238.529,302.83,1231.913,368.734,1233.2,370.016Z" transform="translate(-1233.034 -251.844)" fill="#fff"/>
        </g>
        <path id="Trazado_104862" data-name="Trazado 104862" d="M1256.112,253.132c-3.583,2.66-6.339,16.423,1.864,18.287s15.809-11.093,16.927-15.278S1263.867,247.374,1256.112,253.132Z" transform="translate(-1082.18 -160.805)" fill="#31d9e7"/>
        <g id="Grupo_56668" data-name="Grupo 56668" transform="translate(152.735 31.515)">
          <g id="Grupo_56657" data-name="Grupo 56657" transform="translate(14.851 42.391)">
            <g id="Grupo_56656" data-name="Grupo 56656" transform="translate(0.005)">
              <path id="Trazado_104863" data-name="Trazado 104863" d="M1258.411,268.679c5.087.653,12.812-7.826,15.531-14.326.184-.447-.927-4.821-2.027-10.2-.655-3.267-1.307-6.921-1.661-10.3l-20.638,7.366a54.1,54.1,0,0,1,3.406,12.75,7.686,7.686,0,0,1,0,1.4c0,.064-.011.144-.007.233C1252.861,258.282,1253.495,268.044,1258.411,268.679Z" transform="translate(-1249.615 -233.855)" fill="#ad6359"/>
            </g>
            <path id="Trazado_104864" data-name="Trazado 104864" d="M1269.276,234.224c-.217,4.285-1.843,19.728-14.077,21.29a14.791,14.791,0,0,1-2.184.114.85.85,0,0,1,.01-.238,7.8,7.8,0,0,0,0-1.4,54.394,54.394,0,0,0-3.416-12.752Z" transform="translate(-1249.61 -233.874)" fill="#263238"/>
          </g>
          <g id="Grupo_56667" data-name="Grupo 56667">
            <g id="Grupo_56658" data-name="Grupo 56658" transform="translate(1.707 6.537)">
              <path id="Trazado_104865" data-name="Trazado 104865" d="M1269.882,206.6c3.01,7.3,1.109,29.389-3.776,34.739-7.081,7.756-19.706,9.636-26.556.889-6.64-8.48-3.654-37.227,1.9-42.195C1249.627,192.711,1265.437,195.815,1269.882,206.6Z" transform="translate(-1235.75 -196.047)" fill="#ad6359"/>
            </g>
            <path id="Trazado_104866" data-name="Trazado 104866" d="M1268.307,243.526c.006,0,.006-.008,0-.008" transform="translate(-1235.726 -191.964)" fill="none" stroke="#f4a69d" stroke-linecap="round" stroke-linejoin="round" stroke-width="0"/>
            <g id="Grupo_56664" data-name="Grupo 56664" transform="translate(3.724 24.793)">
              <g id="Grupo_56659" data-name="Grupo 56659" transform="translate(12.407 6.105)">
                <path id="Trazado_104867" data-name="Trazado 104867" d="M1251.166,223.261c.017-.056.111.08.1.14-.168,1.485-.11,3.214,1.2,3.817.041.019.03.093-.019.083C1250.822,226.936,1250.769,224.64,1251.166,223.261Z" transform="translate(-1250.96 -221.814)" fill="#263238"/>
                <path id="Trazado_104868" data-name="Trazado 104868" d="M1252.625,221.736c2.409.012,2.208,4.83-.025,4.818C1250.4,226.543,1250.606,221.726,1252.625,221.736Z" transform="translate(-1250.964 -221.736)" fill="#263238"/>
              </g>
              <g id="Grupo_56660" data-name="Grupo 56660" transform="translate(0.962 5.62)">
                <path id="Trazado_104869" data-name="Trazado 104869" d="M1242.27,222.938c-.01-.057-.12.065-.12.127-.015,1.495-.284,3.2-1.655,3.641-.043.013-.042.089.009.083C1242.161,226.628,1242.494,224.356,1242.27,222.938Z" transform="translate(-1238.973 -221.312)" fill="#263238"/>
                <path id="Trazado_104870" data-name="Trazado 104870" d="M1240.921,221.236c-2.393-.283-2.782,4.522-.566,4.784C1242.536,226.278,1242.926,221.473,1240.921,221.236Z" transform="translate(-1238.891 -221.224)" fill="#263238"/>
              </g>
              <path id="Trazado_104871" data-name="Trazado 104871" d="M1254.613,219.308a18.762,18.762,0,0,1-1.838-.736,3.2,3.2,0,0,1-1.731-1.107,1.02,1.02,0,0,1,.215-1.226,2.53,2.53,0,0,1,2.557-.155,3.712,3.712,0,0,1,2.07,1.7A1.088,1.088,0,0,1,1254.613,219.308Z" transform="translate(-1238.551 -215.325)" fill="#263238"/>
              <path id="Trazado_104872" data-name="Trazado 104872" d="M1239.108,218.426a18.635,18.635,0,0,0,1.935-.416,3.2,3.2,0,0,0,1.892-.8,1.018,1.018,0,0,0-.007-1.245,2.526,2.526,0,0,0-2.494-.58,3.716,3.716,0,0,0-2.326,1.323A1.088,1.088,0,0,0,1239.108,218.426Z" transform="translate(-1237.877 -215.298)" fill="#263238"/>
              <path id="Trazado_104873" data-name="Trazado 104873" d="M1253.03,237.992c-.372.334-.748.8-1.292.823a3.94,3.94,0,0,1-1.588-.443.052.052,0,0,0-.067.074,2.01,2.01,0,0,0,1.86.89,1.589,1.589,0,0,0,1.229-1.271C1253.2,237.979,1253.085,237.942,1253.03,237.992Z" transform="translate(-1238.507 -216.47)" fill="#263238"/>
              <g id="Grupo_56662" data-name="Grupo 56662" transform="translate(4.547 0.524)">
                <g id="Grupo_56661" data-name="Grupo 56661">
                  <path id="Trazado_104874" data-name="Trazado 104874" d="M1251.266,232.315a5.084,5.084,0,0,1-3.486,2.119,6.4,6.4,0,0,1-1.831.007,1.82,1.82,0,0,1-.347-.054c-.109-.018-.207-.035-.325-.064a.371.371,0,0,1-.285-.346v-.011a.7.7,0,0,1,.021-.152V233.8l.009-.131c.016-1.15.2-2.892.2-2.892-.43.193-2.61,1.066-2.551.467.505-4.956,1.067-10.468,2.616-15.293a.139.139,0,0,1,.271.049c-.3,4.783-1.434,9.481-1.808,14.281a8.934,8.934,0,0,1,2.429-.628c.161.054-.417,3.362-.383,3.879a.172.172,0,0,0,.007.056c1.919.327,3.4-.194,5.328-1.412C1251.247,232.095,1251.361,232.2,1251.266,232.315Z" transform="translate(-1242.672 -215.851)" fill="#263238"/>
                </g>
              </g>
              <g id="Grupo_56663" data-name="Grupo 56663" transform="translate(8.68 16.837)">
                <path id="Trazado_104875" data-name="Trazado 104875" d="M1247.03,235.043a5.974,5.974,0,0,0,2.476,1.744,2.691,2.691,0,0,0,1.638.028c1.166-.364,1.146-1.449.888-2.367a6.432,6.432,0,0,0-.595-1.395A7.744,7.744,0,0,1,1247.03,235.043Z" transform="translate(-1247.03 -233.053)" fill="#263238"/>
                <path id="Trazado_104876" data-name="Trazado 104876" d="M1249.641,236.863a2.691,2.691,0,0,0,1.638.028c1.166-.364,1.146-1.449.888-2.367A2.78,2.78,0,0,0,1249.641,236.863Z" transform="translate(-1247.165 -233.129)" fill="#f392b9"/>
              </g>
            </g>
            <path id="Trazado_104877" data-name="Trazado 104877" d="M1270.457,224.553c.54-1.929,5.521-22.72,4.972-24.988-.5-2.064-2.758-1.22-2.791-1.337s-.1-2-1.268-2.7a3.156,3.156,0,0,0-2.523.046s-.354-1.984-1.6-2.522a2.52,2.52,0,0,0-2.437.526,3.319,3.319,0,0,0-1.993-2.365,2.155,2.155,0,0,0-2.407.916s-.529-1.892-1.831-2.257-2.425,1.033-2.425,1.033a2.857,2.857,0,0,0-2.3-1.745,2.492,2.492,0,0,0-2.193,1.705,3.4,3.4,0,0,0-2.421-1.71c-1.484-.043-2,1.807-2,1.807s-.606-1.651-2-1.542-1.727,2.063-1.727,2.063-.784-1.815-2.427-1.282c-2.522.817-2.838,12.874-3.414,18.113,0,0,.706-2.5,1.775-2.6s1.873,1.613,3.867,2.054c2.844.629,7.577-2.708,11.5-1.87,3.809.814,6.633,4.816,8.006,10.8C1264.368,223.44,1269.175,229.134,1270.457,224.553Z" transform="translate(-1234.142 -189.153)" fill="#263238"/>
            <g id="Grupo_56665" data-name="Grupo 56665" transform="translate(0 26.796)">
              <path id="Trazado_104878" data-name="Trazado 104878" d="M1251.876,230.375a6.156,6.156,0,0,1-4.957-7.143h0a6.151,6.151,0,1,1,4.957,7.144Zm-4.148-7a5.324,5.324,0,1,0,4.866-4.366A5.333,5.333,0,0,0,1247.728,223.378Z" transform="translate(-1234.615 -217.449)" fill="#31d9e7"/>
              <path id="Trazado_104879" data-name="Trazado 104879" d="M1238.244,229.7c-2.52-.118-4.442-2.968-4.285-6.354a7.337,7.337,0,0,1,1.5-4.233,3.829,3.829,0,0,1,6.549.3,7.334,7.334,0,0,1,1.1,4.354c-.149,3.2-2.108,5.757-4.454,5.923A3.582,3.582,0,0,1,1238.244,229.7Zm-2.148-10.074a6.527,6.527,0,0,0-1.317,3.759c-.135,2.932,1.437,5.4,3.5,5.493s3.861-2.212,4-5.146a6.536,6.536,0,0,0-.964-3.863,3.279,3.279,0,0,0-2.542-1.63,2.633,2.633,0,0,0-.312,0A3.388,3.388,0,0,0,1236.1,219.622Z" transform="translate(-1233.95 -217.41)" fill="#31d9e7"/>
              <path id="Trazado_104880" data-name="Trazado 104880" d="M1246.889,224.169l.557-.605c-.9-.825-3-1.976-4.574-.441l.574.588C1244.854,222.333,1246.807,224.094,1246.889,224.169Z" transform="translate(-1234.411 -217.666)" fill="#31d9e7"/>
              <path id="Trazado_104881" data-name="Trazado 104881" d="M1275.018,227.039l.746-.343c-.161-.348-1.617-3.413-3.436-3.8-1.7-.353-12.755.168-13.224.191l.04.821c3.169-.153,11.7-.484,13.015-.207C1273.36,223.957,1274.629,226.2,1275.018,227.039Z" transform="translate(-1235.25 -217.687)" fill="#31d9e7"/>
            </g>
            <g id="Grupo_56666" data-name="Grupo 56666" transform="translate(30.623 28.547)">
              <path id="Trazado_104882" data-name="Trazado 104882" d="M1267.04,225.35s4.391-7.4,7.714-5.889.39,11.988-3.252,13.664a3.822,3.822,0,0,1-5.26-1.665Z" transform="translate(-1266.242 -219.257)" fill="#ad6359"/>
              <path id="Trazado_104883" data-name="Trazado 104883" d="M1273.951,222.616a.052.052,0,0,1,.027.1c-2.548,1.261-3.748,3.8-4.527,6.4a2.109,2.109,0,0,1,3.1-.811c.072.044.014.156-.061.145a2.35,2.35,0,0,0-2.519,1.012,11.365,11.365,0,0,0-1.078,2.179c-.105.245-.54.15-.469-.127,0-.02.011-.042.016-.063C1268.128,228.106,1270.38,223.223,1273.951,222.616Z" transform="translate(-1266.354 -219.43)" fill="#263238"/>
            </g>
          </g>
        </g>
        <g id="Grupo_56671" data-name="Grupo 56671" transform="translate(195.296 95.546)">
          <path id="Trazado_104884" data-name="Trazado 104884" d="M1288.336,259.547c29.272,20.129,50.4,51.688,52.434,58.355,4.921,16.134,12.272,44.58,13.4,57.356.419,4.724-35.982,3.842-36.588-1.193-1.9-15.764-8.679-50.063-8.851-50.654-1.212-4.147-11.538-22.115-22.166-41.664S1276.014,251.075,1288.336,259.547Z" transform="translate(-1278.83 -256.674)" fill="#ad6359"/>
          <g id="Grupo_56670" data-name="Grupo 56670" transform="translate(32.693 117.363)">
            <path id="Trazado_104885" data-name="Trazado 104885" d="M1322.268,430.245c3.719,1.269,6.129-2.009,6.129-2.009a8.377,8.377,0,0,0,4.891,2.923c3.417.5,5.693-4.642,5.693-4.642a10.337,10.337,0,0,0,5.652,2.261c3.317.146,6.354-4.711,6.354-4.711a9.154,9.154,0,0,0,6.221-1.143c3.148-2.031,4.7-12.065,4.647-17.714s-5.5-21.625-6.224-24.774l-36.262.027s-6.97,25.4-5.964,32.036C1314.251,418.087,1318.095,428.82,1322.268,430.245Z" transform="translate(-1313.305 -380.435)" fill="#ad6359"/>
            <g id="Grupo_56669" data-name="Grupo 56669" transform="translate(10.823 27.372)">
              <path id="Trazado_104886" data-name="Trazado 104886" d="M1328.4,429.6c-2.326-5.726-2.833-11.826-3.685-17.888a.106.106,0,0,1,.211-.027c.778,6.038,2.743,11.844,3.758,17.839A.149.149,0,0,1,1328.4,429.6Z" transform="translate(-1324.718 -409.417)" fill="#263238"/>
              <path id="Trazado_104887" data-name="Trazado 104887" d="M1339.811,427.942a16.075,16.075,0,0,1-.665-4.16q-.2-2.232-.326-4.467c-.17-2.984-.271-5.972-.285-8.961,0-.133.2-.167.21-.028.175,2.974.394,5.945.692,8.909q.225,2.225.484,4.447a19.1,19.1,0,0,1,.294,4.206A.213.213,0,0,1,1339.811,427.942Z" transform="translate(-1325.432 -409.347)" fill="#263238"/>
              <path id="Trazado_104888" data-name="Trazado 104888" d="M1352.972,425.433a11.2,11.2,0,0,1-.4-3.777q-.074-2.043-.17-4.083c-.128-2.721-.257-5.441-.481-8.156-.01-.136.2-.164.211-.027.241,2.758.519,5.511.735,8.27q.159,2.033.3,4.066a10.532,10.532,0,0,1-.055,3.707A.075.075,0,0,1,1352.972,425.433Z" transform="translate(-1326.124 -409.299)" fill="#263238"/>
            </g>
          </g>
        </g>
        <path id="Trazado_104889" data-name="Trazado 104889" d="M1315.678,374.355l39.784-3.209s-8.764-42.852-13.516-54.434-28.427-40.151-53.112-57.079c-16.791-11.516-15.761-1.667-8,13.587s26.022,50.148,26.884,52.907S1315.678,374.355,1315.678,374.355Z" transform="translate(-1083.359 -161.021)" fill="#31d9e7"/>
        <path id="Trazado_104890" data-name="Trazado 104890" d="M1318.6,372.069c1.487-.345,14.99-1.588,17.929-1.8s5.881-.409,8.822-.607c3.038-.206,6.126-.561,9.173-.523a.106.106,0,0,1,.021.211c-3,.53-6.1.676-9.128.964q-4.484.427-8.97.841c-2.99.272-16.371,1.208-17.852,1.11C1318.473,372.262,1318.5,372.093,1318.6,372.069Z" transform="translate(-1085.586 -166.942)" fill="#263238"/>
      </g>
    </g>
  </g>
</svg>
