<svg xmlns="http://www.w3.org/2000/svg" width="240.274" height="218.896" viewBox="0 0 240.274 218.896">
  <g id="Grupo_60075" data-name="Grupo 60075" transform="translate(-965.538 -1704.128)">
    <g id="Grupo_59809" data-name="Grupo 59809" transform="translate(-136.595 -435.616)">
      <path id="Trazado_108696" data-name="Trazado 108696" d="M967.611,5318.429h-31.7l2.606-38.22H965Z" transform="translate(270.404 -2985.649)" fill="#855db5"/>
      <path id="Trazado_108697" data-name="Trazado 108697" d="M975.186,5300.84a2.073,2.073,0,0,0-1.721-.919H936.893a2.078,2.078,0,0,0-1.723.919l-4.79,7.148a2.071,2.071,0,0,0,1.721,3.225h46.153a2.071,2.071,0,0,0,1.721-3.225Z" transform="translate(266.984 -2974.181)" fill="#a271dc"/>
      <rect id="Rectángulo_6457" data-name="Rectángulo 6457" width="173.1" height="116.036" rx="5.641" transform="translate(1135.613 2188.685)" fill="#a271dc"/>
      <rect id="Rectángulo_6458" data-name="Rectángulo 6458" width="157.16" height="99.459" transform="translate(1143.583 2196.372)" fill="#fefefe"/>
      <rect id="Rectángulo_6459" data-name="Rectángulo 6459" width="149.308" height="88.627" transform="translate(1147.509 2207.203)" fill="#e5e6ed"/>
      <rect id="Rectángulo_6460" data-name="Rectángulo 6460" width="149.308" height="7.332" transform="translate(1147.509 2207.203)" fill="#b3eef6"/>
      <rect id="Rectángulo_6461" data-name="Rectángulo 6461" width="46.369" height="6.121" transform="translate(1243.2 2238.449)" fill="#fefefe"/>
      <rect id="Rectángulo_6462" data-name="Rectángulo 6462" width="46.369" height="6.121" transform="translate(1243.2 2249.271)" fill="#fefefe"/>
      <rect id="Rectángulo_6463" data-name="Rectángulo 6463" width="46.369" height="6.121" transform="translate(1243.2 2260.092)" fill="#fefefe"/>
      <rect id="Rectángulo_6464" data-name="Rectángulo 6464" width="46.369" height="6.121" transform="translate(1161.279 2221.894)" fill="#fefefe"/>
      <rect id="Rectángulo_6465" data-name="Rectángulo 6465" width="46.369" height="6.121" transform="translate(1161.279 2232.714)" fill="#fefefe"/>
      <path id="Trazado_108698" data-name="Trazado 108698" d="M969.625,5242.3H882.082a5.551,5.551,0,0,0-5.55,5.55v28.23a5.55,5.55,0,0,0,5.55,5.55h54.844l20.89,17.762-9.919-17.762h21.727a5.55,5.55,0,0,0,5.55-5.55v-28.23A5.551,5.551,0,0,0,969.625,5242.3Z" transform="translate(235.863 -3007.699)" fill="#f17781"/>
      <rect id="Rectángulo_6466" data-name="Rectángulo 6466" width="58.996" height="3.397" transform="translate(1145.382 2242.218)" fill="#fff"/>
      <rect id="Rectángulo_6467" data-name="Rectángulo 6467" width="58.996" height="3.397" transform="translate(1145.382 2249.148)" fill="#fff"/>
      <rect id="Rectángulo_6468" data-name="Rectángulo 6468" width="58.996" height="3.397" transform="translate(1145.382 2256.078)" fill="#fff"/>
      <rect id="Rectángulo_6469" data-name="Rectángulo 6469" width="39.156" height="3.397" transform="translate(1145.382 2263.008)" fill="#fff"/>
      <path id="Trazado_108699" data-name="Trazado 108699" d="M902.806,5258.541a11.382,11.382,0,1,1-11.382-11.381A11.382,11.382,0,0,1,902.806,5258.541Z" transform="translate(237.905 -3004.876)" fill="#855db5"/>
      <ellipse id="Elipse_4184" data-name="Elipse 4184" cx="3.212" cy="3.313" rx="3.212" ry="3.313" transform="translate(1126.117 2246.968)" fill="#fff"/>
      <path id="Trazado_108700" data-name="Trazado 108700" d="M889.415,5254.624H889.3a5.7,5.7,0,0,0-5.7,5.7v3.637a11.078,11.078,0,0,0,11.52,0v-3.637A5.7,5.7,0,0,0,889.415,5254.624Z" transform="translate(239.973 -3000.533)" fill="#fff"/>
      <path id="Trazado_108701" data-name="Trazado 108701" d="M1036.772,5195.993H949.229a5.551,5.551,0,0,0-5.55,5.551v28.229a5.551,5.551,0,0,0,5.55,5.551h25.346l-6.79,17.764,17.762-17.764h51.226a5.551,5.551,0,0,0,5.55-5.551v-28.229A5.551,5.551,0,0,0,1036.772,5195.993Z" transform="translate(274.926 -3034.642)" fill="#d0d1de"/>
      <rect id="Rectángulo_6470" data-name="Rectángulo 6470" width="58.996" height="3.397" transform="translate(1251.592 2168.963)" fill="#fff"/>
      <rect id="Rectángulo_6471" data-name="Rectángulo 6471" width="58.996" height="3.397" transform="translate(1251.592 2175.894)" fill="#fff"/>
      <rect id="Rectángulo_6472" data-name="Rectángulo 6472" width="58.996" height="3.397" transform="translate(1251.592 2182.823)" fill="#fff"/>
      <rect id="Rectángulo_6473" data-name="Rectángulo 6473" width="39.156" height="3.397" transform="translate(1251.592 2189.754)" fill="#fff"/>
      <path id="Trazado_108702" data-name="Trazado 108702" d="M969.952,5212.228a11.381,11.381,0,1,1-11.381-11.381A11.381,11.381,0,0,1,969.952,5212.228Z" transform="translate(276.969 -3031.818)" fill="#855db5"/>
      <path id="Trazado_108703" data-name="Trazado 108703" d="M958.777,5207.121a3.213,3.213,0,1,1-3.211-3.312A3.264,3.264,0,0,1,958.777,5207.121Z" transform="translate(279.973 -3030.095)" fill="#fff"/>
      <path id="Trazado_108704" data-name="Trazado 108704" d="M956.56,5208.312h-.114a5.7,5.7,0,0,0-5.7,5.7v3.636a11.063,11.063,0,0,0,11.518,0v-3.636A5.7,5.7,0,0,0,956.56,5208.312Z" transform="translate(279.036 -3027.475)" fill="#fff"/>
      <rect id="Rectángulo_6474" data-name="Rectángulo 6474" width="44.949" height="14.266" rx="3.233" transform="translate(1247.314 2276.158)" fill="#f17781"/>
      <g id="Grupo_60076" data-name="Grupo 60076" transform="translate(1259.41 2279.777)">
        <path id="Trazado_108705" data-name="Trazado 108705" d="M975.355,5272.618a1.542,1.542,0,0,1-1.2,1.506,1.716,1.716,0,0,1,1.428,1.755c0,1.19-1.041,1.933-2.678,1.933h-3.429v-6.949h3.3C974.354,5270.862,975.355,5271.546,975.355,5272.618Zm-1.863.315c0-.416-.309-.665-.815-.654h-1.389v1.35h1.389C973.184,5273.629,973.492,5273.371,973.492,5272.933Zm.217,2.718c0-.437-.4-.715-1.031-.7h-1.389v1.458h1.389C973.312,5276.4,973.709,5276.126,973.709,5275.651Z" transform="translate(-969.476 -5270.862)" fill="#fff"/>
        <path id="Trazado_108706" data-name="Trazado 108706" d="M977.116,5276.346a1.317,1.317,0,0,0,1.359-1.447v-4.036h1.814v4.036a3.21,3.21,0,0,1-6.4,0v-4.036H975.7v4.036A1.355,1.355,0,0,0,977.116,5276.346Z" transform="translate(-966.911 -5270.862)" fill="#fff"/>
        <path id="Trazado_108707" data-name="Trazado 108707" d="M982.623,5275.591v2.221h-1.814v-2.17l-2.559-4.779h1.816l1.647,2.986,1.605-2.986h1.813Z" transform="translate(-964.372 -5270.862)" fill="#fff"/>
      </g>
      <path id="Trazado_108708" data-name="Trazado 108708" d="M953.484,5240.039a25.837,25.837,0,0,1-7.025.311,10.448,10.448,0,0,1-2.466-.538c.114,2.925.136,9.78-1.946,12.619,0,0,.75,3.369,6.835,3.47s6.772-4.491,6.772-4.491S953.608,5244.354,953.484,5240.039Z" transform="translate(273.978 -3009.148)" fill="#f88667"/>
      <path id="Trazado_108709" data-name="Trazado 108709" d="M942.081,5252.538a2.36,2.36,0,0,0,.093.238l.014.03a3.166,3.166,0,0,0,.188.355l.01.018a4.3,4.3,0,0,0,.31.432l.052.061a4.954,4.954,0,0,0,1.1.958c.027.018.052.036.081.053a6.283,6.283,0,0,0,.823.432c.039.017.084.033.123.051a8.142,8.142,0,0,0,1.068.363,8.586,8.586,0,0,1,1.794-4.319,10.75,10.75,0,0,1,6.852-3.979,41,41,0,0,1-1.107-7.191,25.837,25.837,0,0,1-7.025.311,10.448,10.448,0,0,1-2.466-.538c.114,2.925.136,9.78-1.946,12.619l.021.071Z" transform="translate(273.978 -3009.148)" fill="#e45940"/>
      <path id="Trazado_108710" data-name="Trazado 108710" d="M944.912,5230.123s9.972-2.945,11.56-.53,1.3,6.317,1.961,8.036,3.137,3.53,3.4,4.218-1.658,2-1.925,2.537-1.272,6.181-3,7.426-11.017-2.061-13.317-6.446S942.237,5231.567,944.912,5230.123Z" transform="translate(274.119 -3015.648)" fill="#f88667"/>
      <path id="Trazado_108711" data-name="Trazado 108711" d="M951.429,5232.3a9.889,9.889,0,0,1-1.05,5.151c-.6,1.193,2.382,4.366,1.552,5.807-.552.959-1.359.717-2.091-1.179a2.882,2.882,0,0,0-1.612-1.378c-2.441-1.055-3.01,2.665-.821,3.768,1.533.774.622,4.651.622,4.651-1.645,1.269-7.083-.259-6.487-4.228.38-2.529.547-3.489-.339-4.106-1.6-1.114-3.689-4.206-1.05-6.83,3.633-3.614.32-4.762,4.522-5.806S952.349,5229.673,951.429,5232.3Z" transform="translate(272.143 -3016.073)" fill="#110239"/>
      <path id="Trazado_108712" data-name="Trazado 108712" d="M942.116,5231.181c.236-.917,1.895-2.1,2.714-2.71a12.132,12.132,0,0,1,4.3-1.941,11.114,11.114,0,0,1,4.793-.162c1.363.261,2.507.867,3.9,1.025a4.5,4.5,0,0,0,3.477-.673,8.917,8.917,0,0,1,.171,3.154,9.875,9.875,0,0,1-1.794,3.469c-2.022,3.019-7.526,4.689-11.4,3.094-1.874-.771-3.557-1.437-4.478-3.067A9.8,9.8,0,0,0,942.116,5231.181Z" transform="translate(274.017 -3017.081)" fill="#110239"/>
      <path id="Trazado_108713" data-name="Trazado 108713" d="M979.828,5233.451l9.639,21.4s-2.822,3.174-3.761,2.469-15.4-18.065-16.813-18.967S979.828,5233.451,979.828,5233.451Z" transform="translate(289.529 -3012.85)" fill="#bb83ff"/>
      <path id="Trazado_108714" data-name="Trazado 108714" d="M960.652,5245.241s.04,6.153,3.8,7.563c0,0,19.28-7.988,23.16-8.756s17.988-.883,17.988-.883l-14.226-25.4s-6.818,13.638-13.05,18.106S960.652,5245.241,960.652,5245.241Z" transform="translate(284.8 -3021.974)" fill="#f17781"/>
      <path id="Trazado_108715" data-name="Trazado 108715" d="M969.962,5241.565c1.525-.605,3.116-1.232,4.684-1.838a19.628,19.628,0,0,1-4.059-8.7c-1.462.839-2.977,1.646-4.443,2.4A17.687,17.687,0,0,0,969.962,5241.565Z" transform="translate(287.996 -3014.261)" fill="#bb83ff"/>
      <path id="Trazado_108716" data-name="Trazado 108716" d="M1000.908,5226.951c4.016,9.688,2.6,19.479-3.17,21.869s-13.7-3.523-17.713-13.209-2.6-19.477,3.17-21.869S996.894,5217.266,1000.908,5226.951Z" transform="translate(294.743 -3024.625)" fill="#2ab9c4"/>
      <path id="Trazado_108717" data-name="Trazado 108717" d="M999.145,5226.4c3.415,8.241,2.208,16.569-2.7,18.6s-11.653-3-15.068-11.237-2.21-16.569,2.7-18.6S995.729,5218.162,999.145,5226.4Z" transform="translate(295.729 -3023.753)" fill="#a271dc"/>
      <path id="Trazado_108718" data-name="Trazado 108718" d="M975.933,5245.03c-.459-.278-.329-2-.237-2.449.147-.7.631-1.615.146-2.285-.861-1.187-2.071,2-2.227,2.465a3.349,3.349,0,0,0-.221,2.125,8.375,8.375,0,0,0,1.844,2.787c-.089.318-.187.647-.307,1a21.21,21.21,0,0,1,2.323,1.178c.93.536.881,1.2,1.753,1.8l.87-2C979.511,5249.194,976.7,5245.492,975.933,5245.03Z" transform="translate(292.158 -3009.021)" fill="#f88667"/>
      <path id="Trazado_108719" data-name="Trazado 108719" d="M980.9,5238.963c-.832-.9-2.131-.552-3.138.182-.737.538-2.856,2.254-2.286,3.5.475,1.034,3.2-1.254,3.2-1.254-1,.864-2.877,1.556-2.407,2.42.527.966,2.909-.41,3.429-.793-.535.138-3.2,1.753-2.13,2.6.731.576,2.686-.637,3.273-1.047-.786.239-1.854.935-1.647,2.022.342.6,1.528.2,2.189-.067,1-.4,1.935-.56,2.015-1.8a5.508,5.508,0,0,0,.035-.673,6.783,6.783,0,0,0-.878-2.7A11.767,11.767,0,0,0,980.9,5238.963Z" transform="translate(293.368 -3009.955)" fill="#f88667"/>
      <path id="Trazado_108720" data-name="Trazado 108720" d="M922.27,5250.46a10.96,10.96,0,0,1-1.114-2.372c-.248-.71-.424-1.437-.669-2.146a5.557,5.557,0,0,1-.479-2.1,6.053,6.053,0,0,1,.258-1.283c.142-.545.341-1.077.454-1.629.1-.491.057-.969.15-1.459a8.709,8.709,0,0,1,.849-2.7,10.018,10.018,0,0,1,1.239-1.7,6.461,6.461,0,0,1,.732-.783,1.93,1.93,0,0,0,.672-.826.789.789,0,0,0-.576-1.063,2.955,2.955,0,0,0-2.733.893c-.726,1-1.068,2.225-1.878,3.188-2.472,2.944-4.793-.523-7.68-1.77a17.186,17.186,0,0,1-2.787-1.8c-.517-.388-2.732-2.492-3.779-1.943-.771.4.737,2.171,1.466,2.6.288.17,2.76,2.178,3.083,2.275a15.7,15.7,0,0,1-4.146-2.568c-1.095-.855-2.154-1.7-2.752-1.212-1.835,1.507,5.369,4.948,5.931,5.265-.6.05-6.24-3.943-6.775-2.475-.293.806.878,1.606,1.835,2.126,1.2.653,3.214,1.121,3.668,1.473-.849.288-4.584-2.252-4.585-.7,0,1.016,2.319,1.774,3.192,2.041.9.273,3.54,2.07,4.377,2.468,2.789,1.33,3.939,1.174,5.038,2.845.7,1.064,1.949,6.687,2.96,8.826Z" transform="translate(250.5 -3014.351)" fill="#f88667"/>
      <path id="Trazado_108721" data-name="Trazado 108721" d="M985.746,5245.013c-2.485,7.236-7.8,20.04-9.557,19.141-3.292-1.687-10.378-7.48-15.67-11.023a37.12,37.12,0,0,0-6.156-3.546l3.686,17.472s17.467,13.266,21.126,11.233c2.877-1.6,9.962-21.771,12.461-30.13C991.635,5248.159,985.787,5245.045,985.746,5245.013Z" transform="translate(281.141 -3006.124)" fill="#2ab9c4"/>
      <path id="Trazado_108722" data-name="Trazado 108722" d="M967.281,5264.992a118.5,118.5,0,0,0-11.514-11.48l.587,8.286s17.607,13.237,21.5,11.584C974.5,5271.224,969.672,5268.1,967.281,5264.992Z" transform="translate(281.958 -3001.181)" fill="#21949d"/>
      <path id="Trazado_108723" data-name="Trazado 108723" d="M950.281,5253.893s-21.48,8.672-23.818,8.062-10.126-22.757-10.126-22.757l-6.506,2.644s6.949,31.943,11.42,33.436,31.134-6.208,31.134-6.208A45.209,45.209,0,0,0,950.281,5253.893Z" transform="translate(255.235 -3009.508)" fill="#2ab9c4"/>
      <path id="Trazado_108724" data-name="Trazado 108724" d="M925.935,5265.285c-1.893.678-3.82,1.348-5.754,1.917,9.112-1.2,26.185-6.134,26.185-6.134a46.879,46.879,0,0,0-.467-8.119C940.608,5258.676,933.087,5262.718,925.935,5265.285Z" transform="translate(261.255 -3001.507)" fill="#21949d"/>
      <path id="Trazado_108725" data-name="Trazado 108725" d="M988.707,5227.354c-.984-3.03-3.939-4.786-6.6-3.922a4.592,4.592,0,0,0-2.221,1.607,26.616,26.616,0,0,0,1.24,3.783,25.621,25.621,0,0,0,3.315,5.782,4.478,4.478,0,0,0,1.223-.2C988.325,5233.541,989.689,5230.385,988.707,5227.354Z" transform="translate(295.988 -3018.808)" fill="#d0d1de"/>
      <path id="Trazado_108726" data-name="Trazado 108726" d="M936.087,5275.706c-.759,7.457-1.349,23.127-1.8,25.317h35.245c.623-11.708.416-28.661-.163-34.9a67.515,67.515,0,0,0-3.685-17.472s-2.632-.832-5.753-2.034c0,0-6.488,3.966-12.528.053,0,0-10.9,2.584-12.224,3.213C934.091,5250.405,936.9,5267.745,936.087,5275.706Z" transform="translate(269.465 -3005.191)" fill="#2ab9c4"/>
      <path id="Trazado_108727" data-name="Trazado 108727" d="M945.409,5281.382a27.807,27.807,0,0,0-2.017-10.17,9.135,9.135,0,0,1-.647-2.28,15.128,15.128,0,0,0-1.491-5.207c-.788-1.189-1.587-2.375-2.365-3.571-.433-.586-.887-1.208-1.389-1.94a33.533,33.533,0,0,1-2.153-3.809c.413,5.475,1.145,12.785.741,16.77-.759,7.457-1.349,23.127-1.8,25.317h16.4c-2.109-2.714-3.374-6.016-4.612-10.042A18.057,18.057,0,0,1,945.409,5281.382Z" transform="translate(269.465 -3000.66)" fill="#21949d"/>
    </g>
    <rect id="Rectángulo_6452" data-name="Rectángulo 6452" width="240.274" height="218.896" transform="translate(965.538 1704.128)" fill="none"/>
  </g>
</svg>
