<svg xmlns="http://www.w3.org/2000/svg" width="196.316" height="196.316" viewBox="0 0 196.316 196.316">
  <g id="Grupo_61521" data-name="Grupo 61521" transform="translate(-254.5 -3690.5)">
    <g id="Grupo_61518" data-name="Grupo 61518">
      <g id="Grupo_61515" data-name="Grupo 61515" transform="translate(0.128 0.197)">
        <circle id="Elipse_4194" data-name="Elipse 4194" cx="97.658" cy="97.658" r="97.658" transform="translate(254.872 3690.803)" fill="#fff" stroke="#fff" stroke-width="1"/>
        <g id="Grupo_60446" data-name="Grupo 60446" transform="translate(136.595 5.969)">
          <g id="Grupo_60445" data-name="Grupo 60445">
            <g id="Grupo_60414" data-name="Grupo 60414">
              <path id="Trazado_109726" data-name="Trazado 109726" d="M267.4,3772.64H164.471a11.271,11.271,0,0,0-11.271,11.271v29.748a11.271,11.271,0,0,0,11.271,11.272h34.5a3.254,3.254,0,0,1,2.6,1.3l12.365,16.384a2.505,2.505,0,0,0,4,0l12.364-16.384a3.256,3.256,0,0,1,2.6-1.3h34.5a11.272,11.272,0,0,0,11.271-11.272v-29.748A11.271,11.271,0,0,0,267.4,3772.64Z" fill="#c595ff" stroke="#fff" stroke-width="1"/>
            </g>
            <g id="Grupo_60415" data-name="Grupo 60415">
              <path id="Trazado_109727" data-name="Trazado 109727" d="M269.7,3772.876a11.366,11.366,0,0,1,.236,2.3v27.271a13.748,13.748,0,0,1-13.748,13.748H155.74a11.374,11.374,0,0,1-2.3-.236,11.276,11.276,0,0,0,11.035,8.967h34.5a3.254,3.254,0,0,1,2.6,1.3l12.365,16.384a2.5,2.5,0,0,0,4,0l12.365-16.384a3.256,3.256,0,0,1,2.6-1.3h34.5a11.272,11.272,0,0,0,11.272-11.272v-29.748a11.275,11.275,0,0,0-8.967-11.035Z" fill="#bb83ff" stroke="#fff" stroke-width="1"/>
            </g>
            <g id="Grupo_60416" data-name="Grupo 60416">
              <path id="Trazado_109728" data-name="Trazado 109728" d="M203.386,3780.744a21.041,21.041,0,0,0-20.734-17.482h-8.377a21.044,21.044,0,0,0-20.409,15.926,1.255,1.255,0,0,0,1.218,1.556Z" fill="#f17781" stroke="#fff" stroke-width="1"/>
            </g>
            <g id="Grupo_60417" data-name="Grupo 60417">
              <path id="Trazado_109729" data-name="Trazado 109729" d="M194.962,3780.744h8.425a21.042,21.042,0,0,0-20.735-17.482h-8.4a21.042,21.042,0,0,1,20.711,17.481Z" fill="#ce666e" stroke="#fff" stroke-width="1"/>
            </g>
            <g id="Grupo_60418" data-name="Grupo 60418">
              <path id="Trazado_109730" data-name="Trazado 109730" d="M240.182,3780.744a21.042,21.042,0,0,0-20.735-17.482H211.07a21.041,21.041,0,0,0-20.734,17.482Z" fill="#f9e478" stroke="#fff" stroke-width="1"/>
            </g>
            <g id="Grupo_60419" data-name="Grupo 60419">
              <path id="Trazado_109731" data-name="Trazado 109731" d="M231.757,3780.744h8.425a21.042,21.042,0,0,0-20.735-17.482h-8.4A21.041,21.041,0,0,1,231.757,3780.744Z" fill="#d4c266" stroke="#fff" stroke-width="1"/>
            </g>
            <g id="Grupo_60420" data-name="Grupo 60420">
              <path id="Trazado_109732" data-name="Trazado 109732" d="M276.739,3780.744a1.255,1.255,0,0,0,1.218-1.556,21.044,21.044,0,0,0-20.408-15.926h-8.378a21.042,21.042,0,0,0-20.734,17.482Z" fill="#31d9e7" stroke="#fff" stroke-width="1"/>
            </g>
            <g id="Grupo_60421" data-name="Grupo 60421">
              <path id="Trazado_109733" data-name="Trazado 109733" d="M181.913,3770.039h-6.9a3.787,3.787,0,0,1-3.786-3.786v-10.686H185.7v10.686A3.786,3.786,0,0,1,181.913,3770.039Z" fill="#904f40" stroke="#fff" stroke-width="1"/>
            </g>
            <g id="Grupo_60422" data-name="Grupo 60422">
              <path id="Trazado_109734" data-name="Trazado 109734" d="M218.709,3770.039h-6.9a3.787,3.787,0,0,1-3.786-3.786v-10.686h14.471v10.686A3.785,3.785,0,0,1,218.709,3770.039Z" fill="#eaac9d" stroke="#fff" stroke-width="1"/>
            </g>
            <g id="Grupo_60423" data-name="Grupo 60423">
              <circle id="Elipse_4195" data-name="Elipse 4195" cx="16.398" cy="16.398" r="16.398" transform="translate(236.962 3786.362)" fill="#f4fbff" stroke="#fff" stroke-width="1"/>
            </g>
            <g id="Grupo_60424" data-name="Grupo 60424">
              <path id="Trazado_109735" data-name="Trazado 109735" d="M262.961,3789.47a16.394,16.394,0,0,1-22.891,22.89,16.4,16.4,0,1,0,22.891-22.89Z" fill="#e4f6ff" stroke="#fff" stroke-width="1"/>
            </g>
            <g id="Grupo_60425" data-name="Grupo 60425">
              <path id="Trazado_109736" data-name="Trazado 109736" d="M269.858,3780.744h6.881a1.255,1.255,0,0,0,1.218-1.556,21.044,21.044,0,0,0-20.408-15.926h-8.4A21.04,21.04,0,0,1,269.858,3780.744Z" fill="#2ab9c4" stroke="#fff" stroke-width="1"/>
            </g>
            <g id="Grupo_60426" data-name="Grupo 60426">
              <path id="Trazado_109737" data-name="Trazado 109737" d="M256.81,3770.039h-6.9a3.787,3.787,0,0,1-3.786-3.786v-10.686H260.6v10.686A3.786,3.786,0,0,1,256.81,3770.039Z" fill="#eaac9d" stroke="#fff" stroke-width="1"/>
            </g>
            <g id="Grupo_60427" data-name="Grupo 60427">
              <path id="Trazado_109738" data-name="Trazado 109738" d="M181.264,3755.567v10.715a3.757,3.757,0,0,1-3.757,3.757h4.435a3.757,3.757,0,0,0,3.757-3.757v-10.715Z" fill="#784033" stroke="#fff" stroke-width="1"/>
            </g>
            <g id="Grupo_60428" data-name="Grupo 60428">
              <path id="Trazado_109739" data-name="Trazado 109739" d="M218.059,3755.567v10.715a3.757,3.757,0,0,1-3.757,3.757h4.436a3.757,3.757,0,0,0,3.757-3.757v-10.715Z" fill="#df9380" stroke="#fff" stroke-width="1"/>
            </g>
            <g id="Grupo_60429" data-name="Grupo 60429">
              <path id="Trazado_109740" data-name="Trazado 109740" d="M256.161,3755.567v10.715a3.758,3.758,0,0,1-3.758,3.757h4.436a3.757,3.757,0,0,0,3.757-3.757v-10.715Z" fill="#df9380" stroke="#fff" stroke-width="1"/>
            </g>
            <g id="Grupo_60436" data-name="Grupo 60436">
              <g id="Grupo_60430" data-name="Grupo 60430">
                <circle id="Elipse_4196" data-name="Elipse 4196" cx="5.541" cy="5.541" r="5.541" transform="translate(209.718 3721.379)" fill="#aa7a63" stroke="#fff" stroke-width="1"/>
              </g>
              <g id="Grupo_60431" data-name="Grupo 60431">
                <path id="Trazado_109741" data-name="Trazado 109741" d="M215.259,3721.379a5.512,5.512,0,0,0-1.9.342,5.533,5.533,0,0,1,0,10.4,5.538,5.538,0,1,0,1.9-10.738Z" fill="#986b54" stroke="#fff" stroke-width="1"/>
              </g>
              <g id="Grupo_60432" data-name="Grupo 60432">
                <path id="Trazado_109742" data-name="Trazado 109742" d="M222.461,3760.267l-.884.9a8.852,8.852,0,0,1-12.636,0l-.885-.9a15.613,15.613,0,0,1-4.469-10.934v-7.753H226.93v7.753A15.609,15.609,0,0,1,222.461,3760.267Z" fill="#ffcbbe" stroke="#fff" stroke-width="1"/>
              </g>
              <path id="Trazado_109743" data-name="Trazado 109743" d="M227.361,3745.924h-.431V3738.7H203.587v7.225h-.431a3.482,3.482,0,0,0-3.482,3.482v1.067a4.073,4.073,0,0,0,4.073,4.073h.737a15.617,15.617,0,0,0,3.572,5.721l.885.9a8.85,8.85,0,0,0,12.636,0l.884-.9a15.617,15.617,0,0,0,3.572-5.721h.737a4.073,4.073,0,0,0,4.073-4.073v-1.067a3.482,3.482,0,0,0-3.482-3.482Z" fill="#ffcbbe" stroke="#fff" stroke-width="1"/>
              <path id="Trazado_109744" data-name="Trazado 109744" d="M227.361,3745.924h-.431V3738.7H221.8v10.634a15.613,15.613,0,0,1-4.469,10.934l-.885.9a8.8,8.8,0,0,1-3.751,2.273,8.85,8.85,0,0,0,8.884-2.273l.884-.9a15.609,15.609,0,0,0,3.572-5.72h.737a4.073,4.073,0,0,0,4.073-4.073v-1.067a3.482,3.482,0,0,0-3.482-3.483Z" fill="#eaac9d" stroke="#fff" stroke-width="1"/>
              <g id="Grupo_60433" data-name="Grupo 60433">
                <path id="Trazado_109745" data-name="Trazado 109745" d="M215.259,3740.061a25.921,25.921,0,0,1,11.671,2.758v-4.346a8.641,8.641,0,0,0-8.641-8.641h-6.06a8.641,8.641,0,0,0-8.642,8.641v4.346A25.922,25.922,0,0,1,215.259,3740.061Z" fill="#aa7a63" stroke="#fff" stroke-width="1"/>
              </g>
              <g id="Grupo_60435" data-name="Grupo 60435">
                <g id="Grupo_60434" data-name="Grupo 60434">
                  <path id="Trazado_109746" data-name="Trazado 109746" d="M218.289,3729.832h-5.134a8.641,8.641,0,0,1,8.642,8.641v2.419a25.868,25.868,0,0,1,5.133,1.927v-4.346a8.641,8.641,0,0,0-8.641-8.641Z" fill="#986b54" stroke="#fff" stroke-width="1"/>
                </g>
              </g>
            </g>
            <g id="Grupo_60440" data-name="Grupo 60440">
              <path id="Trazado_109747" data-name="Trazado 109747" d="M190.566,3745.254h-.431v-4.345H166.792v4.345h-.431a3.482,3.482,0,0,0-3.482,3.482v1.067a4.073,4.073,0,0,0,4.073,4.073h.737a15.6,15.6,0,0,0,3.571,5.72l.885.9a8.852,8.852,0,0,0,12.636,0l.885-.9a15.61,15.61,0,0,0,3.572-5.72h.736a4.073,4.073,0,0,0,4.073-4.073v-1.067a3.481,3.481,0,0,0-3.481-3.482Z" fill="#a55e4d" stroke="#fff" stroke-width="1"/>
              <g id="Grupo_60437" data-name="Grupo 60437">
                <path id="Trazado_109748" data-name="Trazado 109748" d="M190.135,3742.559v-5.807a5.762,5.762,0,0,0-5.761-5.761H172.553a5.761,5.761,0,0,0-5.761,5.761v5.807Z" fill="#8b5e5e" stroke="#fff" stroke-width="1"/>
              </g>
              <g id="Grupo_60438" data-name="Grupo 60438">
                <path id="Trazado_109749" data-name="Trazado 109749" d="M190.135,3742.559v-5.807a5.762,5.762,0,0,0-5.761-5.761H172.553a5.761,5.761,0,0,0-5.761,5.761v5.807Z" fill="#7a402b" stroke="#fff" stroke-width="1"/>
              </g>
              <g id="Grupo_60439" data-name="Grupo 60439">
                <path id="Trazado_109750" data-name="Trazado 109750" d="M184.374,3730.991h-5.133a5.761,5.761,0,0,1,5.761,5.761v5.807h5.133v-5.807A5.762,5.762,0,0,0,184.374,3730.991Z" fill="#523838" stroke="#fff" stroke-width="1"/>
              </g>
              <path id="Trazado_109751" data-name="Trazado 109751" d="M190.566,3745.254h-.431v-4.345H185v7.753a15.612,15.612,0,0,1-4.468,10.934l-.885.9a8.809,8.809,0,0,1-3.752,2.273,8.848,8.848,0,0,0,8.884-2.273l.885-.9a15.61,15.61,0,0,0,3.572-5.72h.737a4.074,4.074,0,0,0,4.073-4.073v-1.067a3.482,3.482,0,0,0-3.482-3.482Z" fill="#904f40" stroke="#fff" stroke-width="1"/>
            </g>
            <g id="Grupo_60444" data-name="Grupo 60444">
              <g id="Grupo_60441" data-name="Grupo 60441">
                <path id="Trazado_109752" data-name="Trazado 109752" d="M265.032,3742.559v-5.807a5.762,5.762,0,0,0-5.762-5.761H247.45a5.761,5.761,0,0,0-5.761,5.761v5.807Z" fill="#8b5e5e" stroke="#fff" stroke-width="1"/>
              </g>
              <path id="Trazado_109753" data-name="Trazado 109753" d="M265.462,3745.254h-.43v-4.345H241.689v4.345h-.431a3.482,3.482,0,0,0-3.482,3.482v1.067a4.073,4.073,0,0,0,4.073,4.073h.736a15.61,15.61,0,0,0,3.572,5.72l.885.9a8.852,8.852,0,0,0,12.636,0l.885-.9a15.611,15.611,0,0,0,3.572-5.72h.736a4.073,4.073,0,0,0,4.073-4.073v-1.067A3.482,3.482,0,0,0,265.462,3745.254Z" fill="#ffcbbe" stroke="#fff" stroke-width="1"/>
              <g id="Grupo_60442" data-name="Grupo 60442">
                <path id="Trazado_109754" data-name="Trazado 109754" d="M265.032,3742.559v-5.807a5.762,5.762,0,0,0-5.762-5.761H247.45a5.761,5.761,0,0,0-5.761,5.761v5.807Z" fill="#ffd064" stroke="#fff" stroke-width="1"/>
              </g>
              <path id="Trazado_109755" data-name="Trazado 109755" d="M265.462,3745.254h-.43v-4.345H259.9v7.753a15.608,15.608,0,0,1-4.469,10.934l-.884.9a8.809,8.809,0,0,1-3.752,2.273,8.849,8.849,0,0,0,8.884-2.273l.885-.9a15.611,15.611,0,0,0,3.572-5.72h.736a4.073,4.073,0,0,0,4.073-4.073v-1.067A3.482,3.482,0,0,0,265.462,3745.254Z" fill="#eaac9d" stroke="#fff" stroke-width="1"/>
              <g id="Grupo_60443" data-name="Grupo 60443">
                <path id="Trazado_109756" data-name="Trazado 109756" d="M259.27,3730.991h-5.132a5.761,5.761,0,0,1,5.761,5.761v5.807h5.133v-5.807a5.762,5.762,0,0,0-5.762-5.761Z" fill="#ffc250" stroke="#fff" stroke-width="1"/>
              </g>
            </g>
            <path id="Trazado_109757" data-name="Trazado 109757" d="M279.863,3779.717a3.161,3.161,0,0,0-.083-.984,22.88,22.88,0,0,0-17.3-16.815l0-1.606a16.8,16.8,0,0,0,2.944-4.58,5.929,5.929,0,0,0,5.407-5.9v-1.125a5.344,5.344,0,0,0-3.913-5.142v-6.815a7.648,7.648,0,0,0-7.639-7.639H247.45a7.649,7.649,0,0,0-7.64,7.639v6.815a5.342,5.342,0,0,0-3.913,5.142v1.125a5.929,5.929,0,0,0,5.407,5.9,17.667,17.667,0,0,0,2.944,4.57c0,.015,0,1.616,0,1.616a22.836,22.836,0,0,0-9.943,4.936,22.8,22.8,0,0,0-9.929-4.936v-.946a17.443,17.443,0,0,0,2.94-4.569,5.929,5.929,0,0,0,5.407-5.9v-1.124a5.344,5.344,0,0,0-3.913-5.143v-5.764a10.536,10.536,0,0,0-6.377-9.669,7.419,7.419,0,1,0-14.346,0,10.535,10.535,0,0,0-6.377,9.668v5.764a5.345,5.345,0,0,0-3.913,5.143v1.124a5.929,5.929,0,0,0,5.408,5.9,17.652,17.652,0,0,0,2.943,4.569c0,.016,0,.946,0,.946a22.817,22.817,0,0,0-9.291,4.4,22.788,22.788,0,0,0-9.276-4.4s0-1.6,0-1.615a17.679,17.679,0,0,0,2.944-4.569,5.929,5.929,0,0,0,5.407-5.9v-1.125a5.344,5.344,0,0,0-3.913-5.142v-6.814a7.648,7.648,0,0,0-7.64-7.64H172.553a7.648,7.648,0,0,0-7.64,7.64v6.814a5.344,5.344,0,0,0-3.913,5.142v1.125a5.929,5.929,0,0,0,5.407,5.9,17.679,17.679,0,0,0,2.944,4.569c0,.016,0,1.617,0,1.617a22.918,22.918,0,0,0-8.732,3.98,1.879,1.879,0,1,0,2.242,3.015,19.146,19.146,0,0,1,6.49-3.13v.5a5.642,5.642,0,0,0,5.636,5.636h6.957a5.642,5.642,0,0,0,5.636-5.636v-.5a19.063,19.063,0,0,1,6.5,3.14,22.86,22.86,0,0,0-5.267,9.943H155.9a19.093,19.093,0,0,1,1.957-4.443,1.879,1.879,0,0,0-3.218-1.939,22.823,22.823,0,0,0-2.6,6.25,3.149,3.149,0,0,0-.074,1.1,13.145,13.145,0,0,0-.648,4.079v29.748a13.165,13.165,0,0,0,13.15,13.15h34.5a1.385,1.385,0,0,1,1.1.548l1.874,2.484a1.879,1.879,0,1,0,3-2.263l-1.874-2.484a5.16,5.16,0,0,0-4.1-2.042h-34.5a9.4,9.4,0,0,1-9.393-9.393v-29.748a9.524,9.524,0,0,1,.089-1.289H276.7a9.529,9.529,0,0,1,.089,1.289v8.556a1.878,1.878,0,0,0,3.757,0v-8.556a13.115,13.115,0,0,0-.687-4.194ZM168.67,3736.752a3.887,3.887,0,0,1,3.883-3.882h11.821a3.886,3.886,0,0,1,3.882,3.882v3.929H168.67Zm15.151,29.529a1.881,1.881,0,0,1-1.879,1.879h-6.958a1.881,1.881,0,0,1-1.878-1.879V3763.6a10.748,10.748,0,0,0,10.714,0v2.683Zm.5-8-.884.9a6.974,6.974,0,0,1-9.955,0l-.885-.9a13.83,13.83,0,0,1-3.142-5.032,1.879,1.879,0,0,0-1.771-1.251h-.768a2.166,2.166,0,0,1-2.163-2.163v-1.125a1.579,1.579,0,0,1,1.577-1.577h.457a1.879,1.879,0,0,0,1.879-1.878v-.816h19.586v.816a1.878,1.878,0,0,0,1.878,1.878h.458a1.579,1.579,0,0,1,1.577,1.577v1.125a2.166,2.166,0,0,1-2.163,2.163h-.768a1.879,1.879,0,0,0-1.771,1.251,13.829,13.829,0,0,1-3.142,5.033ZM248,3763.6a10.651,10.651,0,0,0,5.357,1.431h0a10.658,10.658,0,0,0,5.358-1.431v2.683a1.881,1.881,0,0,1-1.879,1.879h-6.958a1.881,1.881,0,0,1-1.878-1.879Zm-4.436-26.846a3.887,3.887,0,0,1,3.883-3.882h11.821a3.886,3.886,0,0,1,3.882,3.882v3.929H243.567ZM242.585,3752h-.767a2.166,2.166,0,0,1-2.164-2.163v-1.125a1.579,1.579,0,0,1,1.577-1.577h.458a1.878,1.878,0,0,0,1.878-1.878v-.816h19.586v.816a1.879,1.879,0,0,0,1.879,1.878h.457a1.579,1.579,0,0,1,1.577,1.577v1.125A2.166,2.166,0,0,1,264.9,3752h-.767a1.879,1.879,0,0,0-1.771,1.251,13.842,13.842,0,0,1-3.142,5.033l-.885.9a6.973,6.973,0,0,1-9.954,0l-.885-.9a13.817,13.817,0,0,1-3.142-5.032A1.878,1.878,0,0,0,242.585,3752Zm-27.326-28.74a3.649,3.649,0,0,1,3.505,4.708c-.158-.007-.316-.012-.476-.012h-6.059c-.16,0-.318.005-.476.012a3.649,3.649,0,0,1,3.506-4.708Zm-9.793,15.216a6.77,6.77,0,0,1,6.763-6.762h6.059a6.77,6.77,0,0,1,6.763,6.762v1.475a28.052,28.052,0,0,0-19.586,0v-1.475Zm-.982,14.2h-.768a2.166,2.166,0,0,1-2.163-2.163v-1.125a1.578,1.578,0,0,1,1.577-1.577h.457a1.879,1.879,0,0,0,1.879-1.879v-1.914a24.2,24.2,0,0,1,19.586,0v1.914a1.878,1.878,0,0,0,1.878,1.879h.458a1.579,1.579,0,0,1,1.577,1.577v1.124a2.167,2.167,0,0,1-2.164,2.164h-.767a1.879,1.879,0,0,0-1.771,1.251,13.83,13.83,0,0,1-3.142,5.032l-.885.9a6.974,6.974,0,0,1-9.954,0l-.885-.9a13.83,13.83,0,0,1-3.142-5.032,1.879,1.879,0,0,0-1.771-1.251Zm16.132,11.6v2.012a1.881,1.881,0,0,1-1.878,1.879H211.78a1.881,1.881,0,0,1-1.879-1.879v-2.012a10.745,10.745,0,0,0,10.715,0Zm-14.472,1.513v.5a5.642,5.642,0,0,0,5.636,5.636h6.958a5.642,5.642,0,0,0,5.635-5.636v-.5a19.037,19.037,0,0,1,7.274,3.748,22.836,22.836,0,0,0-4.736,9.334H192.7a19.143,19.143,0,0,1,13.448-13.083Zm24.653,13.083a19.143,19.143,0,0,1,13.449-13.083v.5a5.642,5.642,0,0,0,5.635,5.635h6.958a5.642,5.642,0,0,0,5.636-5.635v-.5a19.121,19.121,0,0,1,13.448,13.083Z" fill="#855db5" stroke="#fff" stroke-width="1"/>
            <path id="Trazado_109758" data-name="Trazado 109758" d="M278.671,3799.167a1.878,1.878,0,0,0-1.878,1.879v12.613a9.4,9.4,0,0,1-9.393,9.393H232.9a5.163,5.163,0,0,0-4.1,2.042l-12.365,16.384a.625.625,0,0,1-1,0l-5.61-7.434a1.879,1.879,0,0,0-3,2.264l5.61,7.433a4.383,4.383,0,0,0,7,0l12.365-16.384a1.385,1.385,0,0,1,1.1-.548h34.5a13.165,13.165,0,0,0,13.15-13.15v-12.613a1.879,1.879,0,0,0-1.879-1.879Z" fill="#855db5" stroke="#fff" stroke-width="1"/>
            <path id="Trazado_109759" data-name="Trazado 109759" d="M271.637,3802.759a18.276,18.276,0,1,0-18.277,18.277A18.3,18.3,0,0,0,271.637,3802.759Zm-32.8,0a14.519,14.519,0,1,1,14.519,14.52A14.535,14.535,0,0,1,238.841,3802.759Z" fill="#855db5" stroke="#fff" stroke-width="1"/>
            <path id="Trazado_109760" data-name="Trazado 109760" d="M264.2,3795.281a1.88,1.88,0,0,0-2.657,0l-10.634,10.634-5.02-5.02a1.879,1.879,0,0,0-2.657,2.657l6.349,6.348a1.879,1.879,0,0,0,2.657,0l11.962-11.962a1.878,1.878,0,0,0,0-2.657Z" fill="#855db5" stroke="#fff" stroke-width="1"/>
            <path id="Trazado_109761" data-name="Trazado 109761" d="M213.806,3795.517a1.878,1.878,0,0,0-1.879,1.878v12.12a1.879,1.879,0,0,0,3.757,0v-2.282l3.767,3.634a1.878,1.878,0,1,0,2.608-2.7l-5.126-4.945,4.663-4.286a1.879,1.879,0,0,0-2.542-2.767l-3.37,3.1V3797.4a1.878,1.878,0,0,0-1.878-1.878Z" fill="#fff" stroke="#fff" stroke-width="1"/>
            <path id="Trazado_109762" data-name="Trazado 109762" d="M168.38,3812.36a1.878,1.878,0,0,0,1.878-1.878v-14.475a1.879,1.879,0,0,0-1.878-1.879h-3.094a1.879,1.879,0,1,0,0,3.757H166.5v12.6A1.879,1.879,0,0,0,168.38,3812.36Z" fill="#fff" stroke="#fff" stroke-width="1"/>
            <path id="Trazado_109763" data-name="Trazado 109763" d="M181.39,3802.124c-2.289,3.272-3.656,5.061-4.39,6.021-.929,1.217-1.4,1.827-1.079,2.854a1.943,1.943,0,0,0,1.262,1.28c.254.084.469.156,3.273.156,1.112,0,2.631-.011,4.721-.037a1.879,1.879,0,1,0-.047-3.757c-1.284.016-2.64.027-3.821.031.778-1.048,1.813-2.471,3.159-4.394a11.237,11.237,0,0,0,1.83-3.8,1.706,1.706,0,0,0,.034-.187l.071-.56a1.894,1.894,0,0,0,.015-.238,5.583,5.583,0,0,0-11.06-1.08,1.879,1.879,0,0,0,3.687.725,1.825,1.825,0,0,1,3.613.256l-.04.317a7.934,7.934,0,0,1-1.228,2.408Z" fill="#fff" stroke="#fff" stroke-width="1"/>
            <path id="Trazado_109764" data-name="Trazado 109764" d="M191.225,3799.9v6.694a6.064,6.064,0,1,0,12.128,0V3799.9a6.064,6.064,0,0,0-12.128,0Zm8.371,0v6.694a2.307,2.307,0,0,1-4.614,0V3799.9a2.307,2.307,0,0,1,4.614,0Z" fill="#fff" stroke="#fff" stroke-width="1"/>
          </g>
        </g>
      </g>
      <g id="Grupo_61512" data-name="Grupo 61512" transform="translate(-450 -79)">
        <g id="Elipse_4269" data-name="Elipse 4269" transform="translate(705 3770)" fill="#af8bdb" stroke="#fff" stroke-width="1">
          <circle cx="28" cy="28" r="28" stroke="none"/>
          <circle cx="28" cy="28" r="27.5" fill="none"/>
        </g>
        <path id="Trazado_110627" data-name="Trazado 110627" d="M4.828,26V13.906a7.374,7.374,0,0,1-1.7.732,11.706,11.706,0,0,1-1.992.369v-3.75a13.163,13.163,0,0,0,2.947-.85A15.209,15.209,0,0,0,6.879,8.82H9.82V26Z" transform="translate(727 3782)" fill="#fff" stroke="#fff" stroke-width="1"/>
      </g>
    </g>
  </g>
</svg>
