<svg xmlns="http://www.w3.org/2000/svg" width="178.297" height="178.296" viewBox="0 0 178.297 178.296">
  <g id="Grupo_61521" data-name="Grupo 61521" transform="translate(-359.957 -4402.536)">
    <circle id="Elipse_4206" data-name="Elipse 4206" cx="86.148" cy="86.148" r="86.148" transform="translate(362.957 4405.536)" fill="#fff" stroke="#2ab9c4" stroke-miterlimit="10" stroke-width="6"/>
    <g id="Grupo_60498" data-name="Grupo 60498">
      <g id="Grupo_60497" data-name="Grupo 60497">
        <path id="Trazado_109823" data-name="Trazado 109823" d="M486.759,4466.642v24.545a4.336,4.336,0,0,1-4.336,4.336H423.4l-8.505,8.488v-8.488H396.214a4.336,4.336,0,0,1-4.337-4.336v-20.209a4.336,4.336,0,0,1,4.337-4.336Z" fill="#f9e478"/>
        <path id="Trazado_109824" data-name="Trazado 109824" d="M404.763,4447.888V4468.1a4.337,4.337,0,0,0,4.337,4.337h59.018l8.5,8.487v-8.487h18.686a4.337,4.337,0,0,0,4.337-4.337v-20.208a4.338,4.338,0,0,0-4.337-4.337H409.1A4.338,4.338,0,0,0,404.763,4447.888Z" fill="#feeb8a"/>
        <g id="Grupo_60492" data-name="Grupo 60492">
          <path id="Trazado_109825" data-name="Trazado 109825" d="M495.309,4443.551h-8.674a4.337,4.337,0,0,1,4.337,4.337V4468.1a4.337,4.337,0,0,1-4.337,4.337h8.674a4.337,4.337,0,0,0,4.337-4.337v-20.208A4.338,4.338,0,0,0,495.309,4443.551Z" fill="#d4c266"/>
        </g>
        <path id="Trazado_109826" data-name="Trazado 109826" d="M499.646,4518.288V4538.5a4.337,4.337,0,0,1-4.337,4.337H456.674l-4.253,8.487-4.252-8.487H409.1a4.337,4.337,0,0,1-4.337-4.337v-20.208a4.337,4.337,0,0,1,4.337-4.337h86.209a4.337,4.337,0,0,1,4.337,4.337Z" fill="#95f7ff"/>
        <g id="Grupo_60493" data-name="Grupo 60493">
          <path id="Trazado_109827" data-name="Trazado 109827" d="M452.421,4551.32l4.253-8.487h-8.505Z" fill="#31d9e7"/>
          <path id="Trazado_109828" data-name="Trazado 109828" d="M495.309,4513.951h-8.674a4.336,4.336,0,0,1,4.337,4.337V4538.5a4.337,4.337,0,0,1-4.337,4.337h8.674a4.337,4.337,0,0,0,4.337-4.337v-20.208A4.337,4.337,0,0,0,495.309,4513.951Z" fill="#31d9e7"/>
        </g>
        <g id="Grupo_60494" data-name="Grupo 60494">
          <circle id="Elipse_4209" data-name="Elipse 4209" cx="3.463" cy="3.463" r="3.463" transform="translate(425.984 4525.71)" fill="#fff"/>
          <circle id="Elipse_4210" data-name="Elipse 4210" cx="3.463" cy="3.463" r="3.463" transform="translate(441.156 4525.71)" fill="#fff"/>
          <circle id="Elipse_4211" data-name="Elipse 4211" cx="3.463" cy="3.463" r="3.463" transform="translate(456.328 4525.71)" fill="#fff"/>
          <circle id="Elipse_4212" data-name="Elipse 4212" cx="3.463" cy="3.463" r="3.463" transform="translate(471.5 4525.71)" fill="#fff"/>
        </g>
        <g id="Grupo_60495" data-name="Grupo 60495">
          <path id="Trazado_109829" data-name="Trazado 109829" d="M421.567,4450.921l2.173,4.4,4.86.705-3.517,3.425.83,4.837-4.346-2.283-4.347,2.283.83-4.837-3.516-3.425,4.86-.705Z" fill="#f9edb0"/>
        </g>
        <g id="Grupo_60496" data-name="Grupo 60496">
          <path id="Trazado_109830" data-name="Trazado 109830" d="M495.309,4441.925H409.1a5.97,5.97,0,0,0-5.963,5.963v17.127h-6.923a5.97,5.97,0,0,0-5.963,5.963v3.256a1.627,1.627,0,0,0,3.252,0v-3.256a2.714,2.714,0,0,1,2.711-2.71h6.926a5.97,5.97,0,0,0,5.96,5.791h58.345l8.029,8.012a1.634,1.634,0,0,0,2.775-1.151v-6.861h6.884v17.127a2.714,2.714,0,0,1-2.711,2.711H423.4a1.627,1.627,0,0,0-1.149.475l-5.73,5.718v-4.567a1.626,1.626,0,0,0-1.626-1.626H396.214a2.714,2.714,0,0,1-2.711-2.71V4483.2a1.627,1.627,0,0,0-3.252,0v7.991a5.97,5.97,0,0,0,5.963,5.963h17.059v6.861a1.635,1.635,0,0,0,2.776,1.151l8.028-8.012h58.345a5.97,5.97,0,0,0,5.964-5.963V4474.06h6.923a5.97,5.97,0,0,0,5.963-5.964v-20.208a5.97,5.97,0,0,0-5.963-5.963Zm2.71,26.171a2.713,2.713,0,0,1-2.71,2.711H476.623a1.626,1.626,0,0,0-1.626,1.626V4477l-5.73-5.718a1.627,1.627,0,0,0-1.149-.475H409.1a2.714,2.714,0,0,1-2.71-2.711v-20.208a2.713,2.713,0,0,1,2.71-2.71h86.209a2.712,2.712,0,0,1,2.71,2.71Z" fill="#21949d"/>
          <path id="Trazado_109831" data-name="Trazado 109831" d="M495.309,4512.325h-3.364a1.626,1.626,0,1,0,0,3.252h3.364a2.713,2.713,0,0,1,2.71,2.711V4538.5a2.713,2.713,0,0,1-2.71,2.71H456.674a1.627,1.627,0,0,0-1.454.9l-2.8,5.586-2.8-5.586a1.627,1.627,0,0,0-1.454-.9H409.1a2.713,2.713,0,0,1-2.71-2.71v-20.208a2.714,2.714,0,0,1,2.71-2.711h74.174a1.626,1.626,0,1,0,0-3.252H409.1a5.97,5.97,0,0,0-5.963,5.963V4538.5a5.97,5.97,0,0,0,5.963,5.963h38.065l3.8,7.589a1.639,1.639,0,0,0,2.907,0l3.8-7.589h37.631a5.97,5.97,0,0,0,5.963-5.963v-20.208a5.97,5.97,0,0,0-5.963-5.963Z" fill="#21949d"/>
          <path id="Trazado_109832" data-name="Trazado 109832" d="M424.357,4529.173a5.089,5.089,0,1,0,5.089-5.089A5.1,5.1,0,0,0,424.357,4529.173Zm6.926,0a1.837,1.837,0,1,1-1.837-1.837A1.839,1.839,0,0,1,431.283,4529.173Z" fill="#21949d"/>
          <path id="Trazado_109833" data-name="Trazado 109833" d="M439.53,4529.173a5.089,5.089,0,1,0,5.089-5.089,5.094,5.094,0,0,0-5.089,5.089Zm6.925,0a1.836,1.836,0,1,1-1.837-1.837A1.839,1.839,0,0,1,446.455,4529.173Z" fill="#21949d"/>
          <path id="Trazado_109834" data-name="Trazado 109834" d="M454.7,4529.173a5.089,5.089,0,1,0,5.089-5.089A5.1,5.1,0,0,0,454.7,4529.173Zm6.925,0a1.837,1.837,0,1,1-1.836-1.837A1.838,1.838,0,0,1,461.627,4529.173Z" fill="#21949d"/>
          <path id="Trazado_109835" data-name="Trazado 109835" d="M469.874,4529.173a5.089,5.089,0,1,0,5.089-5.089A5.1,5.1,0,0,0,469.874,4529.173Zm6.925,0a1.836,1.836,0,1,1-1.836-1.837A1.838,1.838,0,0,1,476.8,4529.173Z" fill="#21949d"/>
          <path id="Trazado_109836" data-name="Trazado 109836" d="M488.045,4451.885h-50.9a1.626,1.626,0,0,0,0,3.252h50.9a1.626,1.626,0,0,0,0-3.252Z" fill="#21949d"/>
          <path id="Trazado_109837" data-name="Trazado 109837" d="M465.494,4460.073H437.15a1.626,1.626,0,1,0,0,3.252h28.344a1.626,1.626,0,1,0,0-3.252Z" fill="#21949d"/>
          <path id="Trazado_109838" data-name="Trazado 109838" d="M428.834,4454.418l-4.014-.583-1.8-3.634a1.64,1.64,0,0,0-2.916,0l-1.8,3.634-4.014.583a1.64,1.64,0,0,0-.9,2.774l2.9,2.829-.685,3.993a1.64,1.64,0,0,0,2.359,1.715l3.59-1.886,3.59,1.886a1.642,1.642,0,0,0,2.36-1.715l-.686-3.993,2.9-2.829a1.64,1.64,0,0,0-.9-2.774Zm-4.886,3.87c-.672.655-.477,2.223-.2,3.029a3.326,3.326,0,0,0-4.373,0,3.716,3.716,0,0,1,2.187-6.723,3.52,3.52,0,0,0,3.536,2.569Z" fill="#21949d"/>
        </g>
      </g>
    </g>
  </g>
</svg>
