<svg xmlns="http://www.w3.org/2000/svg" width="178.297" height="178.297" viewBox="0 0 178.297 178.297">
  <g id="Grupo_60472" data-name="Grupo 60472" transform="translate(-884.417 -3754.838)">
    <circle id="Elipse_4204" data-name="Elipse 4204" cx="86.148" cy="86.148" r="86.148" transform="translate(887.417 3757.838)" fill="#fff" stroke="#c595ff" stroke-miterlimit="10" stroke-width="6"/>
    <g id="Grupo_60471" data-name="Grupo 60471">
      <path id="Trazado_109784" data-name="Trazado 109784" d="M999.856,3833.405H981.221l-7.629,10.61-7.437-10.61H947.274a21.615,21.615,0,0,1,0-43.231h52.582a21.615,21.615,0,0,1,0,43.231Z" fill="#c9f3ff"/>
      <path id="Trazado_109785" data-name="Trazado 109785" d="M942.2,3875.151h-9.028a13.424,13.424,0,0,0-13.424,13.424v9.224h35.875v-9.224A13.423,13.423,0,0,0,942.2,3875.151Z" fill="#31d9e7"/>
      <path id="Trazado_109786" data-name="Trazado 109786" d="M978.079,3875.151h-9.028a13.424,13.424,0,0,0-13.424,13.424v9.224H991.5v-9.224A13.423,13.423,0,0,0,978.079,3875.151Z" fill="#f9e478"/>
      <path id="Trazado_109787" data-name="Trazado 109787" d="M1013.954,3875.151h-9.028a13.424,13.424,0,0,0-13.424,13.424v9.224h35.875v-9.224A13.423,13.423,0,0,0,1013.954,3875.151Z" fill="#f17781"/>
      <g id="Grupo_60470" data-name="Grupo 60470">
        <path id="Trazado_109788" data-name="Trazado 109788" d="M937.69,3856.236a8.866,8.866,0,0,0-8.866,8.867v1.182a8.866,8.866,0,0,0,17.732,0V3865.1A8.866,8.866,0,0,0,937.69,3856.236Z" fill="#fccd9d"/>
        <path id="Trazado_109789" data-name="Trazado 109789" d="M973.565,3856.236a8.866,8.866,0,0,0-8.866,8.867v1.182a8.866,8.866,0,0,0,17.732,0V3865.1A8.866,8.866,0,0,0,973.565,3856.236Z" fill="#fccd9d"/>
        <path id="Trazado_109790" data-name="Trazado 109790" d="M1009.44,3856.236a8.866,8.866,0,0,0-8.866,8.867v1.182a8.866,8.866,0,0,0,17.732,0V3865.1A8.866,8.866,0,0,0,1009.44,3856.236Z" fill="#fccd9d"/>
      </g>
      <path id="Trazado_109791" data-name="Trazado 109791" d="M999.856,3790.174H947.274a21.617,21.617,0,0,0-10.6,40.455l-.021,13.386,12.961-10.61h15.5l8.476,10.61,7.629-10.61h16.388l12.906,10.61V3830.6a21.617,21.617,0,0,0-10.659-40.422Z" fill="#c9f3ff"/>
      <path id="Trazado_109792" data-name="Trazado 109792" d="M978.025,3802.289a5.75,5.75,0,0,1-8.864,0,6.406,6.406,0,0,0-6.1,6.674c0,5.165,10.533,12.327,10.533,12.327s10.533-7.162,10.533-12.327A6.406,6.406,0,0,0,978.025,3802.289Z" fill="#ff5d5d"/>
      <path id="Trazado_109793" data-name="Trazado 109793" d="M1017.843,3873.454a11,11,0,0,0,2.651-7.169V3865.1a11.054,11.054,0,0,0-22.108,0v1.182a11,11,0,0,0,2.651,7.169,15.673,15.673,0,0,0-9.535,7.164,15.668,15.668,0,0,0-9.534-7.164,11,11,0,0,0,2.651-7.169V3865.1a11.054,11.054,0,0,0-22.108,0v1.182a11,11,0,0,0,2.651,7.169,15.673,15.673,0,0,0-9.535,7.164,15.668,15.668,0,0,0-9.534-7.164,11,11,0,0,0,2.651-7.169V3865.1a11.054,11.054,0,0,0-22.108,0v1.182a11,11,0,0,0,2.651,7.169,15.639,15.639,0,0,0-11.722,15.121v9.224a2.187,2.187,0,0,0,2.187,2.187h107.625a2.187,2.187,0,0,0,2.188-2.187v-9.224A15.639,15.639,0,0,0,1017.843,3873.454Zm-15.082-8.351a6.679,6.679,0,0,1,13.358,0v1.182a6.679,6.679,0,1,1-13.358,0Zm-35.875,0a6.679,6.679,0,0,1,13.358,0v1.182a6.679,6.679,0,1,1-13.358,0Zm-35.875,0a6.679,6.679,0,0,1,13.358,0v1.182a6.679,6.679,0,1,1-13.358,0Zm-9.071,23.472a11.249,11.249,0,0,1,11.236-11.236H942.2a11.249,11.249,0,0,1,11.236,11.236v7.036h-31.5Zm35.875,0a11.249,11.249,0,0,1,11.236-11.236h9.028a11.249,11.249,0,0,1,11.236,11.236v7.036h-31.5Zm67.375,7.036h-31.5v-7.036a11.249,11.249,0,0,1,11.236-11.236h9.028a11.249,11.249,0,0,1,11.236,11.236Z" fill="#855db5"/>
      <path id="Trazado_109794" data-name="Trazado 109794" d="M934.483,3831.865l-.02,12.145a2.186,2.186,0,0,0,3.573,1.7l12.357-10.113h13.67l7.82,9.786a2.188,2.188,0,0,0,3.485-.088l6.974-9.7h14.483l12.3,10.112a2.188,2.188,0,0,0,3.577-1.69V3831.83a23.8,23.8,0,0,0-12.846-43.844H947.274a23.8,23.8,0,0,0-12.791,43.879Zm12.791-39.5h52.582a19.43,19.43,0,0,1,9.579,36.334,2.184,2.184,0,0,0-1.108,1.9v8.788l-9.33-7.669a2.184,2.184,0,0,0-1.388-.5H981.221a2.185,2.185,0,0,0-1.775.911l-5.945,8.266-6.676-8.355a2.189,2.189,0,0,0-1.709-.822h-15.5a2.19,2.19,0,0,0-1.386.495l-9.38,7.678.014-8.758a2.187,2.187,0,0,0-1.113-1.909,19.429,19.429,0,0,1,9.527-36.362Z" fill="#855db5"/>
      <path id="Trazado_109795" data-name="Trazado 109795" d="M999.856,3801.111h.082a2.188,2.188,0,0,0,.009-4.375h-.091a2.188,2.188,0,1,0,0,4.375Z" fill="#855db5"/>
      <path id="Trazado_109796" data-name="Trazado 109796" d="M1006.87,3803.746a10.66,10.66,0,0,1,.4,15.716,2.187,2.187,0,0,0,3.041,3.144,15.034,15.034,0,0,0-.567-22.156,2.188,2.188,0,0,0-2.878,3.3Z" fill="#855db5"/>
      <path id="Trazado_109797" data-name="Trazado 109797" d="M966.841,3818.669a52.619,52.619,0,0,0,5.522,4.43,2.186,2.186,0,0,0,2.46,0,52.665,52.665,0,0,0,5.521-4.43c4.017-3.715,5.969-6.89,5.969-9.7,0-4.887-3.718-8.863-8.288-8.863a7.835,7.835,0,0,1-8.864,0c-4.571,0-8.289,3.975-8.289,8.863C960.872,3811.779,962.824,3814.953,966.841,3818.669Zm2.32-14.193a3.656,3.656,0,0,1,2.777,1.332,2.189,2.189,0,0,0,3.309,0,3.657,3.657,0,0,1,2.778-1.332,4.235,4.235,0,0,1,3.913,4.488c0,2.447-4.61,6.861-8.347,9.641-3.736-2.777-8.345-7.187-8.345-9.641A4.237,4.237,0,0,1,969.161,3804.476Z" fill="#855db5"/>
    </g>
  </g>
</svg>
