<svg xmlns="http://www.w3.org/2000/svg" width="178.297" height="178.296" viewBox="0 0 178.297 178.296">
  <g id="Grupo_61520" data-name="Grupo 61520" transform="translate(-805.827 -4402.536)">
    <circle id="Elipse_4207" data-name="Elipse 4207" cx="86.148" cy="86.148" r="86.148" transform="translate(808.827 4405.536)" fill="#fff" stroke="#2ab9c4" stroke-miterlimit="10" stroke-width="6"/>
    <g id="Grupo_60502" data-name="Grupo 60502">
      <path id="Trazado_109839" data-name="Trazado 109839" d="M929.781,4537.613c-.081-.407-5.029-25.268-5.084-25.523a9.632,9.632,0,0,0-4.568-6.5,10.952,10.952,0,0,0-3.14-1.273l-16.874-5.9a2.464,2.464,0,0,1-1.665-2.331v-5.167a21.2,21.2,0,0,1-19.257.091v5.076a2.464,2.464,0,0,1-1.665,2.331l-6.937,2.378h-.006v0h0l-9.924,3.516-1.306.385a9.987,9.987,0,0,0-5.555,4.891c-.794,1.611-.559,1.045-4.412,20.39-1.427,7.388-1.742,7.927-1.564,9.578.5,4.614,5.243,4.132,5.372,4.188h71.258C924.5,4543.729,930.712,4544.2,929.781,4537.613Z" fill="#31d9e7"/>
      <path id="Trazado_109840" data-name="Trazado 109840" d="M853.664,4537.613l5.084-27.842a9.7,9.7,0,0,1,4.2-6.267c-4.269,1.512-2.946.907-4.258,1.469a9.726,9.726,0,0,0-5.344,5.7c-.379,1.075-.134.13-3.958,19.308-1.427,7.389-1.742,7.928-1.563,9.578.5,4.615,5.243,4.133,5.371,4.189h5.8C854.9,4543.747,853.135,4541.355,853.664,4537.613Z" fill="#2ab9c4"/>
      <path id="Trazado_109841" data-name="Trazado 109841" d="M863.685,4543.747H853.2c-.135-.059-5.544.484-5.409-5.155.029-1.2.18-1.253,1.6-8.612l.082-.413h14.216Z" fill="#dd9a5e"/>
      <path id="Trazado_109842" data-name="Trazado 109842" d="M855.133,4529.567h-5.664l-.082.413c-1.426,7.384-1.571,7.407-1.6,8.612-.135,5.621,5.3,5.108,5.409,5.154h5.8c-3.766,0-5.484-1.981-5.408-5.154C853.591,4538.223,853.728,4537.453,855.133,4529.567Z" fill="#d18c54"/>
      <path id="Trazado_109843" data-name="Trazado 109843" d="M879.193,4490.794v9.036h.006v.347a5.365,5.365,0,0,0,3.66,5.088,19.538,19.538,0,0,0,11.925,0,5.366,5.366,0,0,0,3.659-5.088v-.347h.006c0-2.259,0-7.828,0-9.036A20.187,20.187,0,0,1,879.193,4490.794Z" fill="#dd9a5e"/>
      <path id="Trazado_109844" data-name="Trazado 109844" d="M885,4501.757h-.007v-8.89a21.139,21.139,0,0,1-5.8-2.073v9.036h.006v.347a5.365,5.365,0,0,0,3.66,5.088,17.832,17.832,0,0,0,3.409.775A6.871,6.871,0,0,1,885,4501.757Z" fill="#d18c54"/>
      <path id="Trazado_109845" data-name="Trazado 109845" d="M863.685,4523.88a1.739,1.739,0,0,0-1.739,1.739v18.128h3.478v-18.128A1.739,1.739,0,0,0,863.685,4523.88Z" fill="#566a75"/>
      <path id="Trazado_109846" data-name="Trazado 109846" d="M945.117,4543.747h-56.3a4.253,4.253,0,0,1-4.253-4.253h0a2.437,2.437,0,0,1,2.438-2.438h59.926a2.437,2.437,0,0,1,2.437,2.438h0A4.253,4.253,0,0,1,945.117,4543.747Z" fill="#c6c6c6"/>
      <path id="Trazado_109847" data-name="Trazado 109847" d="M895.523,4539.494h0a2.438,2.438,0,0,1,2.437-2.438H887.006a2.438,2.438,0,0,0-2.438,2.438h0a4.253,4.253,0,0,0,4.253,4.253h10.955A4.253,4.253,0,0,1,895.523,4539.494Z" fill="#b7b7b7"/>
      <path id="Trazado_109848" data-name="Trazado 109848" d="M941.429,4499.83h-48.92a2.79,2.79,0,0,0-2.783,2.782v31.662a2.791,2.791,0,0,0,2.783,2.782h48.92a2.79,2.79,0,0,0,2.782-2.782v-31.662A2.79,2.79,0,0,0,941.429,4499.83Z" fill="#ededed"/>
      <g id="Grupo_60499" data-name="Grupo 60499">
        <path id="Trazado_109849" data-name="Trazado 109849" d="M895.523,4534.274v-31.662a2.79,2.79,0,0,1,2.782-2.782h-5.8a2.79,2.79,0,0,0-2.783,2.782v31.662a2.791,2.791,0,0,0,2.783,2.782h5.8A2.79,2.79,0,0,1,895.523,4534.274Z" fill="#dadada"/>
        <circle id="Elipse_4213" data-name="Elipse 4213" cx="4.019" cy="4.019" r="4.019" transform="translate(912.95 4514.423)" fill="#dadada"/>
      </g>
      <path id="Trazado_109850" data-name="Trazado 109850" d="M916.971,4514.427a4.017,4.017,0,1,0,3.476,6.022A4.014,4.014,0,0,1,916.971,4514.427Z" fill="#c6c6c6"/>
      <path id="Trazado_109851" data-name="Trazado 109851" d="M888.3,4428.563a27.827,27.827,0,0,0-27.622,27.818v10.543h55.644v-15.772c0-10.772-6.628-13.254-6.628-13.254-8.242-10.163-21.383-9.335-21.383-9.335" fill="#4c4846"/>
      <path id="Trazado_109852" data-name="Trazado 109852" d="M892.055,4428.73a27.912,27.912,0,0,0-31.357,26.555c-.044,1.127-.014.706-.023,11.639H867.3v-10.543A27.824,27.824,0,0,1,892.055,4428.73Z" fill="#3d3938"/>
      <g id="Grupo_60500" data-name="Grupo 60500">
        <path id="Trazado_109853" data-name="Trazado 109853" d="M867.3,4463.614c-3.489-1.244-7.278,1.069-7.278,4.443s3.788,5.686,7.278,4.443Z" fill="#dd9a5e"/>
        <path id="Trazado_109854" data-name="Trazado 109854" d="M909.691,4463.614c3.489-1.244,7.278,1.069,7.278,4.443s-3.788,5.686-7.278,4.443Z" fill="#dd9a5e"/>
      </g>
      <g id="Grupo_60501" data-name="Grupo 60501">
        <path id="Trazado_109855" data-name="Trazado 109855" d="M860.534,4466.014c-2.039,3.87,2.253,8.095,6.768,6.486v-4.086A5.568,5.568,0,0,1,860.534,4466.014Z" fill="#d18c54"/>
        <path id="Trazado_109856" data-name="Trazado 109856" d="M909.691,4468.414v4.086c4.515,1.609,8.807-2.616,6.768-6.486A6.25,6.25,0,0,1,909.691,4468.414Z" fill="#d18c54"/>
      </g>
      <path id="Trazado_109857" data-name="Trazado 109857" d="M908.735,4454.809a1.052,1.052,0,0,1,.956,1.044c0,17.844.012,16.5-.03,17.327a21.139,21.139,0,0,1-6.371,14.094c-13.23,12.9-35.3,3.751-35.97-14.342-.03-.8-.018-10.04-.018-10.014a6.812,6.812,0,0,1,7.8-6.733c6.478.935,15.933.572,24.184-6.48a1.75,1.75,0,0,1,2.675.484A8.566,8.566,0,0,0,908.735,4454.809Z" fill="#edae6b"/>
      <path id="Trazado_109858" data-name="Trazado 109858" d="M873.119,4472.932c-.026-.684-.021-13.2-.019-16.741a6.806,6.806,0,0,0-5.8,6.727c0-.026-.013,9.216.018,10.014.49,13.34,12.619,21.815,24.261,20.179A21.151,21.151,0,0,1,873.119,4472.932Z" fill="#dd9a5e"/>
      <path id="Trazado_109859" data-name="Trazado 109859" d="M911.209,4518.443a5.758,5.758,0,1,0,5.757-5.758A5.765,5.765,0,0,0,911.209,4518.443Zm8.037,0a2.28,2.28,0,1,1-2.28-2.28A2.283,2.283,0,0,1,919.246,4518.443Z" fill="#21949d"/>
      <path id="Trazado_109860" data-name="Trazado 109860" d="M946.929,4535.317h-1.108c.238-1,.079-.268.126-17.984a1.739,1.739,0,1,0-3.477,0v16.941a1.058,1.058,0,0,1-1.044,1.044h-48.92a1.058,1.058,0,0,1-1.044-1.044v-31.662a1.058,1.058,0,0,1,1.044-1.043h48.92a1.058,1.058,0,0,1,1.044,1.043v6.606a1.739,1.739,0,1,0,3.477,0v-6.606a4.527,4.527,0,0,0-4.521-4.521H904.554l-3.878-1.319a.725.725,0,0,1-.49-.686v-4.261a22.91,22.91,0,0,0,11.108-17.256c5.321.247,8.969-4.835,6.761-9.241v-14.176c0-10.251-5.575-13.818-7.279-14.668-9.823-11.727-30.072-13.433-42.514-1.648a1.741,1.741,0,0,0,1.191,3.007c1.281,0,1.086-.9,5.044-3.47.293-.19.862-.526.838-.512,10.254-6.154,25.378-4.269,33,5.133a1.67,1.67,0,0,0,.723.526c.225.09,5.516,2.317,5.516,11.633v10.974a7.5,7.5,0,0,0-3.15-.586v-5.688a2.781,2.781,0,0,0-2.528-2.774,6.869,6.869,0,0,1-5.419-3.733,3.49,3.49,0,0,0-5.326-.963c-7.753,6.628-16.68,6.965-22.8,6.082a8.554,8.554,0,0,0-9.677,7.078,7.537,7.537,0,0,0-3.261.584c.109-5.415-.81-11.277,3.479-18.757a1.738,1.738,0,1,0-3.016-1.73,29.761,29.761,0,0,0-3.915,13.578c-.044,1.122-.017.711-.025,10.11-2.211,4.412,1.451,9.487,6.761,9.24a22.948,22.948,0,0,0,11.757,17.631v3.887a.726.726,0,0,1-.489.686c-6.892,2.409,1.23-.521-16.841,5.887a11.966,11.966,0,0,0-1.85.6,11.523,11.523,0,0,0-7.045,8.569c-5.424,27.245-5.218,25.7-5.182,27.181h0c.169,4.3,2.916,6.476,7.148,6.476h41.324a1.739,1.739,0,1,0,0-3.477h-5.7c-2.431,0-3.236-3.213-1.816-3.213H946.93c1.422,0,.608,3.213-1.816,3.213H902.631a1.739,1.739,0,0,0,0,3.477h42.483a6,6,0,0,0,5.991-5.991A4.181,4.181,0,0,0,946.929,4535.317Zm-66-41.569a22.816,22.816,0,0,0,13.522.5l0-.014.023-.007,0,.014a21.161,21.161,0,0,0,2.234-.73v4.582h-4.2a4.526,4.526,0,0,0-4.521,4.521v1.828a16.273,16.273,0,0,1-4.576-.825,3.621,3.621,0,0,1-2.473-3.439C880.931,4495.957,880.942,4498.534,880.929,4493.748Zm34.3-25.691c0,1.809-1.815,3.142-3.8,3.037v-6.074C913.432,4464.914,915.228,4466.265,915.228,4468.057Zm-6.663-11.517Zm-46.8,11.517c0-1.81,1.814-3.142,3.8-3.037v6.074C863.556,4471.2,861.761,4469.849,861.761,4468.057Zm7.3,5.032c-.044-.8-.022-.513-.027-9.475a5.362,5.362,0,0,1,1.745-4.518,5.092,5.092,0,0,1,4.068-1.189c6.835.987,16.818.594,25.562-6.88l.025.007h0a10.32,10.32,0,0,0,7.51,5.429c0,15.717.2,17.25-.577,20.361a19.839,19.839,0,0,1-2.32,5.493C894.848,4498.445,870.017,4492.1,869.066,4473.089Zm-15.874,68.919c-2.976,0-3.51-1.409-3.642-2.636-.138-1.28.146-1.854,1.343-8.066h11.051v10.7ZM887,4535.317c-2.826,0-5.042,2.737-3.837,6.162.05.142.134.357.214.529H865.421v-16.389a1.739,1.739,0,1,0-3.477,0v2.21H851.586c3.28-16.463,3.092-15.774,3.449-16.723a7.8,7.8,0,0,1,3.312-3.989,9.053,9.053,0,0,1,2.792-1.131c.092-.027-.522.187,10.023-3.549h0l6.3-2.16a7.1,7.1,0,0,0,4.843,6.637,19.767,19.767,0,0,0,5.681,1c.11,26.459-.159,26.221.121,27.4H887Z" fill="#21949d"/>
    </g>
  </g>
</svg>
