<svg xmlns="http://www.w3.org/2000/svg" width="185.137" height="185.137" viewBox="0 0 185.137 185.137">
  <g id="Grupo_60571" data-name="Grupo 60571" transform="translate(-725.635 -5801.364)">
    <rect id="Rectángulo_6586" data-name="Rectángulo 6586" width="185.137" height="185.137" transform="translate(725.635 5801.364)" fill="none"/>
    <g id="Grupo_60572" data-name="Grupo 60572">
      <g id="Grupo_60571-2" data-name="Grupo 60571">
        <path id="Trazado_110099" data-name="Trazado 110099" d="M802.2,5835.87H791.5a1.69,1.69,0,0,1-1.568-1.062l-1.048-3.537a1.69,1.69,0,0,0-1.568-1.062h-4.442a1.689,1.689,0,0,0-1.689,1.689v16.655a1.689,1.689,0,0,0,1.689,1.689H802.2a1.69,1.69,0,0,0,1.689-1.689V5837.56A1.69,1.69,0,0,0,802.2,5835.87Z" fill="#fcdd86"/>
      </g>
    </g>
    <g id="Grupo_60575" data-name="Grupo 60575">
      <g id="Grupo_60574" data-name="Grupo 60574">
        <g id="Grupo_60573" data-name="Grupo 60573">
          <path id="Trazado_110100" data-name="Trazado 110100" d="M802.2,5830.846H788.632a1.685,1.685,0,0,1,.249.425l1.048,3.537a1.69,1.69,0,0,0,1.568,1.062h10.7a1.69,1.69,0,0,1,1.689,1.69v-5.026A1.689,1.689,0,0,0,802.2,5830.846Z" fill="#f5c84c"/>
        </g>
      </g>
    </g>
    <g id="Grupo_60577" data-name="Grupo 60577">
      <g id="Grupo_60576" data-name="Grupo 60576">
        <path id="Trazado_110101" data-name="Trazado 110101" d="M871.368,5848.392h-10.7a1.691,1.691,0,0,1-1.569-1.062l-1.048-3.537a1.688,1.688,0,0,0-1.568-1.062h-4.441a1.69,1.69,0,0,0-1.69,1.689v16.655a1.69,1.69,0,0,0,1.69,1.689h19.329a1.69,1.69,0,0,0,1.69-1.689v-10.994a1.689,1.689,0,0,0-1.69-1.689Z" fill="#fcdd86"/>
      </g>
    </g>
    <g id="Grupo_60580" data-name="Grupo 60580">
      <g id="Grupo_60579" data-name="Grupo 60579">
        <g id="Grupo_60578" data-name="Grupo 60578">
          <path id="Trazado_110102" data-name="Trazado 110102" d="M871.368,5843.367H857.8a1.685,1.685,0,0,1,.249.425l1.048,3.538a1.689,1.689,0,0,0,1.568,1.062h10.7a1.689,1.689,0,0,1,1.689,1.689v-5.025a1.689,1.689,0,0,0-1.689-1.689Z" fill="#f5c84c"/>
        </g>
      </g>
    </g>
    <g id="Grupo_60582" data-name="Grupo 60582">
      <g id="Grupo_60581" data-name="Grupo 60581">
        <path id="Trazado_110103" data-name="Trazado 110103" d="M875.542,5913.385h-10.7a1.691,1.691,0,0,1-1.569-1.062l-1.048-3.537a1.69,1.69,0,0,0-1.568-1.062h-4.441a1.69,1.69,0,0,0-1.69,1.69v16.654a1.69,1.69,0,0,0,1.69,1.689h19.329a1.689,1.689,0,0,0,1.689-1.689v-10.993a1.689,1.689,0,0,0-1.689-1.69Z" fill="#fcdd86"/>
      </g>
    </g>
    <g id="Grupo_60585" data-name="Grupo 60585">
      <g id="Grupo_60584" data-name="Grupo 60584">
        <g id="Grupo_60583" data-name="Grupo 60583">
          <path id="Trazado_110104" data-name="Trazado 110104" d="M875.542,5908.36H861.973a1.669,1.669,0,0,1,.249.426l1.048,3.537a1.689,1.689,0,0,0,1.568,1.062h10.7a1.69,1.69,0,0,1,1.69,1.689v-5.025a1.69,1.69,0,0,0-1.689-1.689Z" fill="#f5c84c"/>
        </g>
      </g>
    </g>
    <g id="Grupo_60587" data-name="Grupo 60587">
      <g id="Grupo_60586" data-name="Grupo 60586">
        <path id="Trazado_110105" data-name="Trazado 110105" d="M818.9,5943.795h-10.7a1.688,1.688,0,0,1-1.568-1.062l-1.048-3.537a1.692,1.692,0,0,0-1.569-1.062h-4.441a1.689,1.689,0,0,0-1.689,1.689v16.655a1.689,1.689,0,0,0,1.689,1.689H818.9a1.69,1.69,0,0,0,1.69-1.689v-10.994a1.69,1.69,0,0,0-1.69-1.689Z" fill="#fcdd86"/>
      </g>
    </g>
    <g id="Grupo_60590" data-name="Grupo 60590">
      <g id="Grupo_60589" data-name="Grupo 60589">
        <g id="Grupo_60588" data-name="Grupo 60588">
          <path id="Trazado_110106" data-name="Trazado 110106" d="M818.9,5938.77H805.327a1.674,1.674,0,0,1,.249.426l1.048,3.537a1.69,1.69,0,0,0,1.568,1.062h10.7a1.689,1.689,0,0,1,1.689,1.689v-5.025a1.688,1.688,0,0,0-1.689-1.689Z" fill="#f5c84c"/>
        </g>
      </g>
    </g>
    <g id="Grupo_60592" data-name="Grupo 60592">
      <g id="Grupo_60591" data-name="Grupo 60591">
        <path id="Trazado_110107" data-name="Trazado 110107" d="M772.387,5898.479h-10.7a1.691,1.691,0,0,1-1.569-1.062l-1.048-3.537a1.687,1.687,0,0,0-1.568-1.062h-4.441a1.69,1.69,0,0,0-1.69,1.689v16.654a1.69,1.69,0,0,0,1.69,1.69h19.329a1.689,1.689,0,0,0,1.689-1.69v-10.993A1.689,1.689,0,0,0,772.387,5898.479Z" fill="#fcdd86"/>
      </g>
    </g>
    <g id="Grupo_60595" data-name="Grupo 60595">
      <g id="Grupo_60594" data-name="Grupo 60594">
        <g id="Grupo_60593" data-name="Grupo 60593">
          <path id="Trazado_110108" data-name="Trazado 110108" d="M772.387,5893.454H758.819a1.682,1.682,0,0,1,.248.425l1.048,3.537a1.691,1.691,0,0,0,1.569,1.062h10.7a1.689,1.689,0,0,1,1.689,1.69v-5.026A1.688,1.688,0,0,0,772.387,5893.454Z" fill="#f5c84c"/>
        </g>
      </g>
    </g>
    <g id="Grupo_60597" data-name="Grupo 60597">
      <g id="Grupo_60596" data-name="Grupo 60596">
        <path id="Trazado_110109" data-name="Trazado 110109" d="M790.618,5940.231a53.433,53.433,0,0,1-14.989-13.164l3.77.58a3.067,3.067,0,0,0,3.468-2.187,2.98,2.98,0,0,0-2.435-3.686l-11.176-1.72a2.982,2.982,0,0,0-3.4,2.494l-1.7,11.05a3.067,3.067,0,0,0,2.187,3.468,2.981,2.981,0,0,0,3.687-2.435l.65-4.225a59.425,59.425,0,0,0,16.976,15,2.982,2.982,0,0,0,2.962-5.176Z" fill="#95f7ff"/>
      </g>
    </g>
    <g id="Grupo_60599" data-name="Grupo 60599">
      <g id="Grupo_60598" data-name="Grupo 60598">
        <path id="Trazado_110110" data-name="Trazado 110110" d="M765.6,5882.661a53.116,53.116,0,0,1,8.793-19.6l.658,4.037a3.069,3.069,0,0,0,3.152,2.623,2.983,2.983,0,0,0,2.754-3.456l-1.819-11.16a2.98,2.98,0,0,0-3.421-2.463l-11.034,1.8a3.068,3.068,0,0,0-2.624,3.151,2.983,2.983,0,0,0,3.455,2.755l3.954-.645a59.05,59.05,0,0,0-9.689,21.674,2.992,2.992,0,0,0,2.419,3.615h0a2.991,2.991,0,0,0,3.4-2.329Z" fill="#95f7ff"/>
      </g>
    </g>
    <g id="Grupo_60601" data-name="Grupo 60601">
      <g id="Grupo_60600" data-name="Grupo 60600">
        <path id="Trazado_110111" data-name="Trazado 110111" d="M857.138,5934.367a2.992,2.992,0,0,0-4.121-.117,53.207,53.207,0,0,1-18.005,10.473l1.793-3.557a3.068,3.068,0,0,0-1.008-3.975,2.981,2.981,0,0,0-4.259,1.177l-5.088,10.1a2.98,2.98,0,0,0,1.321,4l9.984,5.031a3.068,3.068,0,0,0,3.974-1.007,2.982,2.982,0,0,0-1.176-4.26l-3.669-1.849a59.181,59.181,0,0,0,20.089-11.671,2.992,2.992,0,0,0,.167-4.345Z" fill="#95f7ff"/>
      </g>
    </g>
    <g id="Grupo_60603" data-name="Grupo 60603">
      <g id="Grupo_60602" data-name="Grupo 60602">
        <path id="Trazado_110112" data-name="Trazado 110112" d="M830.31,5845.248a2.983,2.983,0,0,0-1.139,4.269,3.069,3.069,0,0,0,3.984.973l9.938-5.12a2.981,2.981,0,0,0,1.285-4.015l-5.12-9.939a3.069,3.069,0,0,0-3.808-1.52,2.982,2.982,0,0,0-1.552,4.137l1.9,3.69a59.243,59.243,0,0,0-18.1-2.817q-2.856,0-5.69.27a2.992,2.992,0,0,0-2.691,3.413h0a2.968,2.968,0,0,0,3.205,2.528q2.574-.249,5.176-.248a53.326,53.326,0,0,1,16.223,2.515Z" fill="#95f7ff"/>
      </g>
    </g>
    <g id="Grupo_60605" data-name="Grupo 60605">
      <g id="Grupo_60604" data-name="Grupo 60604">
        <path id="Trazado_110113" data-name="Trazado 110113" d="M883.939,5889.731a3.067,3.067,0,0,0-4.088.306l-2.842,2.867a59.237,59.237,0,0,0-4.95-22.476,2.971,2.971,0,0,0-4.087-1.42h0a3,3,0,0,0-1.348,3.872,53.248,53.248,0,0,1,4.422,19.974l-2.789-2.765a3.069,3.069,0,0,0-4.091-.269,2.982,2.982,0,0,0-.2,4.414l8.031,7.96a2.981,2.981,0,0,0,4.216-.018l7.961-8.032a2.984,2.984,0,0,0-.238-4.413Z" fill="#95f7ff"/>
      </g>
    </g>
    <g id="Grupo_60608" data-name="Grupo 60608">
      <g id="Grupo_60607" data-name="Grupo 60607">
        <g id="Grupo_60606" data-name="Grupo 60606">
          <path id="Trazado_110114" data-name="Trazado 110114" d="M841.782,5880.844H840.13a.532.532,0,0,1-.516-.4,11.037,11.037,0,0,0-1.155-2.786.532.532,0,0,1,.085-.645l1.169-1.169a.535.535,0,0,0,0-.756l-2.67-2.67a.534.534,0,0,0-.756,0l-1.169,1.169a.531.531,0,0,1-.645.084,11.064,11.064,0,0,0-2.787-1.155.532.532,0,0,1-.4-.515v-1.653a.534.534,0,0,0-.534-.534H826.98a.535.535,0,0,0-.535.534V5872a.53.53,0,0,1-.4.515,11.073,11.073,0,0,0-2.786,1.155.529.529,0,0,1-.645-.084l-1.169-1.169a.534.534,0,0,0-.756,0l-2.67,2.67a.535.535,0,0,0,0,.756l1.169,1.169a.531.531,0,0,1,.084.645,11.072,11.072,0,0,0-1.155,2.786.531.531,0,0,1-.515.4h-1.653a.535.535,0,0,0-.534.535v3.776a.534.534,0,0,0,.534.534h1.653a.531.531,0,0,1,.515.4,11.072,11.072,0,0,0,1.155,2.787.53.53,0,0,1-.084.645l-1.169,1.169a.534.534,0,0,0,0,.756l2.67,2.67a.534.534,0,0,0,.756,0l1.169-1.169a.533.533,0,0,1,.645-.085,11.056,11.056,0,0,0,2.786,1.155.533.533,0,0,1,.4.516v1.652a.535.535,0,0,0,.535.535h3.776a.534.534,0,0,0,.534-.535v-1.652a.533.533,0,0,1,.4-.516,11.048,11.048,0,0,0,2.787-1.155.532.532,0,0,1,.645.085l1.169,1.169a.534.534,0,0,0,.756,0l2.67-2.67a.534.534,0,0,0,0-.756l-1.169-1.169a.533.533,0,0,1-.085-.645,11.036,11.036,0,0,0,1.155-2.787.534.534,0,0,1,.516-.4h1.652a.534.534,0,0,0,.535-.534v-3.776a.535.535,0,0,0-.535-.535Zm-12.915,8.716a6.293,6.293,0,1,1,6.293-6.293A6.292,6.292,0,0,1,828.867,5889.56Z" fill="#fcdd86"/>
        </g>
      </g>
    </g>
    <g id="Grupo_60611" data-name="Grupo 60611">
      <g id="Grupo_60610" data-name="Grupo 60610">
        <g id="Grupo_60609" data-name="Grupo 60609">
          <path id="Trazado_110115" data-name="Trazado 110115" d="M831.406,5895.578h-.117v.6a.534.534,0,0,1-.534.534h-3.776a.535.535,0,0,1-.535-.534v-1.653a.531.531,0,0,0-.4-.515,11.093,11.093,0,0,1-2.786-1.155.531.531,0,0,0-.645.084l-1.17,1.169a.534.534,0,0,1-.756,0l-.454-.454a8.929,8.929,0,1,1-1.761-1.761l-.455-.455a.534.534,0,0,1,0-.756l1.169-1.169a.533.533,0,0,0,.085-.645,11.037,11.037,0,0,1-1.155-2.786.534.534,0,0,0-.516-.4h-1.652a.535.535,0,0,1-.535-.534v-3.776a.534.534,0,0,1,.535-.534h.6v-.117a.757.757,0,0,0-.757-.757h-5.344a.756.756,0,0,0-.756.757v2.339a.752.752,0,0,1-.561.729,15.66,15.66,0,0,0-3.943,1.635.752.752,0,0,1-.913-.119l-1.655-1.655a.755.755,0,0,0-1.07,0l-3.779,3.779a.757.757,0,0,0,0,1.07l1.655,1.655a.754.754,0,0,1,.119.913,15.613,15.613,0,0,0-1.635,3.943.751.751,0,0,1-.729.561h-2.34a.756.756,0,0,0-.756.756v5.345a.757.757,0,0,0,.756.756h2.34a.753.753,0,0,1,.729.56,15.619,15.619,0,0,0,1.635,3.944.754.754,0,0,1-.119.913l-1.655,1.655a.758.758,0,0,0,0,1.07l3.779,3.778a.756.756,0,0,0,1.07,0l1.655-1.654a.752.752,0,0,1,.913-.12,15.608,15.608,0,0,0,3.943,1.635.753.753,0,0,1,.561.73v2.339a.755.755,0,0,0,.756.756H815.8a.756.756,0,0,0,.757-.756v-2.339a.754.754,0,0,1,.56-.73,15.616,15.616,0,0,0,3.944-1.635.753.753,0,0,1,.913.12l1.655,1.654a.756.756,0,0,0,1.07,0l3.778-3.778a.756.756,0,0,0,0-1.07l-1.655-1.655a.753.753,0,0,1-.118-.913,15.6,15.6,0,0,0,1.634-3.944.754.754,0,0,1,.73-.56h2.339a.757.757,0,0,0,.757-.756v-5.345a.757.757,0,0,0-.757-.757Z" fill="#f9e478"/>
        </g>
      </g>
    </g>
    <g id="Grupo_60614" data-name="Grupo 60614">
      <g id="Grupo_60613" data-name="Grupo 60613">
        <g id="Grupo_60612" data-name="Grupo 60612">
          <path id="Trazado_110116" data-name="Trazado 110116" d="M830.755,5898.152h-3.776a1.972,1.972,0,0,1-1.97-1.97v-.978a12.41,12.41,0,0,1-1.856-.768l-.691.691a1.974,1.974,0,0,1-2.786,0l-2.67-2.671a1.969,1.969,0,0,1,0-2.786l.691-.691a12.47,12.47,0,0,1-.769-1.856h-.978a1.972,1.972,0,0,1-1.97-1.969v-3.776a1.972,1.972,0,0,1,1.97-1.97h.978a12.437,12.437,0,0,1,.769-1.855l-.691-.692a1.97,1.97,0,0,1,0-2.786l2.669-2.669a2.016,2.016,0,0,1,2.786,0l.691.691a12.489,12.489,0,0,1,1.855-.769v-.977a1.972,1.972,0,0,1,1.97-1.97h3.776a1.972,1.972,0,0,1,1.97,1.97v.977a12.443,12.443,0,0,1,1.856.769l.691-.691a2.017,2.017,0,0,1,2.787,0l2.669,2.67a1.968,1.968,0,0,1,0,2.785l-.692.692a12.431,12.431,0,0,1,.769,1.855h.978a1.971,1.971,0,0,1,1.969,1.97v3.776a1.971,1.971,0,0,1-1.969,1.969H840.8a12.464,12.464,0,0,1-.769,1.856l.692.691a1.97,1.97,0,0,1,0,2.786l-2.671,2.67a1.973,1.973,0,0,1-2.785,0l-.692-.692a12.589,12.589,0,0,1-1.855.768v.978a1.97,1.97,0,0,1-1.969,1.97Zm-2.876-2.87h1.976v-.753a1.967,1.967,0,0,1,1.469-1.9,9.63,9.63,0,0,0,2.423-1,1.966,1.966,0,0,1,2.386.308l.532.532,1.4-1.4-.533-.534a1.966,1.966,0,0,1-.308-2.384,9.6,9.6,0,0,0,1.005-2.425,1.969,1.969,0,0,1,1.9-1.468h.752v-1.975h-.752a1.968,1.968,0,0,1-1.9-1.468,9.6,9.6,0,0,0-1.005-2.425,1.967,1.967,0,0,1,.308-2.384l.533-.533-1.4-1.4-.533.533a1.968,1.968,0,0,1-2.384.308,9.561,9.561,0,0,0-2.424-1,1.971,1.971,0,0,1-1.469-1.9v-.753H827.88V5872a1.968,1.968,0,0,1-1.466,1.9,9.632,9.632,0,0,0-2.426,1,1.969,1.969,0,0,1-2.384-.306l-.534-.534-1.4,1.4.532.533a1.967,1.967,0,0,1,.308,2.384,9.651,9.651,0,0,0-1.005,2.425,1.966,1.966,0,0,1-1.9,1.468h-.753v1.975h.753a1.968,1.968,0,0,1,1.9,1.469,9.584,9.584,0,0,0,1.005,2.423,1.969,1.969,0,0,1-.308,2.385l-.533.534,1.4,1.4.532-.533a1.97,1.97,0,0,1,2.387-.307,9.583,9.583,0,0,0,2.423,1,1.97,1.97,0,0,1,1.468,1.9v.753Zm-5.342-1.184h0Zm12.661,0h0Zm-1.1-.139h0Zm7.68-11.678h0ZM828.867,5891a7.729,7.729,0,1,1,7.728-7.729A7.737,7.737,0,0,1,828.867,5891Zm0-12.587a4.858,4.858,0,1,0,4.858,4.858A4.864,4.864,0,0,0,828.867,5878.409Z" fill="#3c3575"/>
        </g>
      </g>
    </g>
    <g id="Grupo_60619" data-name="Grupo 60619">
      <g id="Grupo_60616" data-name="Grupo 60616">
        <g id="Grupo_60615" data-name="Grupo 60615">
          <path id="Trazado_110117" data-name="Trazado 110117" d="M813.127,5909.349a10.342,10.342,0,0,1,0-20.684,10.248,10.248,0,0,1,6.213,2.086,1.83,1.83,0,0,0,2.044,2.043,10.252,10.252,0,0,1,2.086,6.212,10.356,10.356,0,0,1-10.343,10.343Zm0-17.814a7.472,7.472,0,1,0,7.472,7.472,7.391,7.391,0,0,0-1.508-4.484,1.127,1.127,0,0,0-1.479-1.479,7.392,7.392,0,0,0-4.485-1.509Z" fill="#3c3575"/>
        </g>
      </g>
      <g id="Grupo_60618" data-name="Grupo 60618">
        <g id="Grupo_60617" data-name="Grupo 60617">
          <path id="Trazado_110118" data-name="Trazado 110118" d="M815.8,5919.478h-5.344a2.194,2.194,0,0,1-2.191-2.192v-1.822a17.068,17.068,0,0,1-3.333-1.382l-1.29,1.29a2.195,2.195,0,0,1-3.1,0l-3.779-3.779a2.189,2.189,0,0,1,0-3.1l1.289-1.289a17.087,17.087,0,0,1-1.382-3.333h-1.822a2.194,2.194,0,0,1-2.192-2.191v-5.345a2.194,2.194,0,0,1,2.192-2.191h1.822a17.075,17.075,0,0,1,1.382-3.333l-1.29-1.29a2.191,2.191,0,0,1,0-3.1l3.78-3.779a2.195,2.195,0,0,1,3.1,0l1.29,1.29a17.031,17.031,0,0,1,3.333-1.382v-1.822a2.194,2.194,0,0,1,2.191-2.192H815.8a2.194,2.194,0,0,1,2.192,2.192,1.435,1.435,0,0,1-2.7.678h-4.158v1.661a2.188,2.188,0,0,1-1.631,2.117,14.2,14.2,0,0,0-3.583,1.485,2.187,2.187,0,0,1-2.652-.342l-1.176-1.176-2.82,2.82,1.176,1.175a2.189,2.189,0,0,1,.343,2.652,14.167,14.167,0,0,0-1.485,3.582,2.188,2.188,0,0,1-2.118,1.633h-1.661V5901h1.661a2.188,2.188,0,0,1,2.118,1.634,14.147,14.147,0,0,0,1.485,3.579,2.193,2.193,0,0,1-.343,2.654l-1.175,1.175,2.82,2.82,1.175-1.176a2.186,2.186,0,0,1,2.653-.342,14.216,14.216,0,0,0,3.581,1.484,2.188,2.188,0,0,1,1.632,2.118v1.661h3.987v-1.661a2.188,2.188,0,0,1,1.634-2.118,14.194,14.194,0,0,0,3.58-1.484,2.189,2.189,0,0,1,2.653.342l1.176,1.176,2.82-2.82-1.176-1.175a2.19,2.19,0,0,1-.343-2.653,14.157,14.157,0,0,0,1.485-3.581,2.19,2.19,0,0,1,2.118-1.633h1.661v-4.157a1.436,1.436,0,0,1,.679-2.7,2.194,2.194,0,0,1,2.191,2.191v5.345a2.194,2.194,0,0,1-2.191,2.191h-1.823a17.05,17.05,0,0,1-1.381,3.332l1.289,1.291a2.192,2.192,0,0,1,0,3.1l-3.778,3.779a2.2,2.2,0,0,1-3.1,0l-1.289-1.291a17.12,17.12,0,0,1-3.333,1.382v1.822a2.2,2.2,0,0,1-2.193,2.192Z" fill="#3c3575"/>
        </g>
      </g>
    </g>
    <g id="Grupo_60621" data-name="Grupo 60621">
      <g id="Grupo_60620" data-name="Grupo 60620">
        <path id="Trazado_110119" data-name="Trazado 110119" d="M789.123,5947.245a4.316,4.316,0,0,1-2.193-.6,60.5,60.5,0,0,1-15.323-12.823l-.158,1.028a4.416,4.416,0,0,1-5.458,3.608,4.523,4.523,0,0,1-3.253-5.078l1.7-11.05a4.423,4.423,0,0,1,5.036-3.694l11.176,1.72a4.417,4.417,0,0,1,3.609,5.456,4.516,4.516,0,0,1-5.078,3.254h0a51.754,51.754,0,0,0,12.167,9.93,4.426,4.426,0,0,1-2.224,8.25ZM770.68,5928.97a1.437,1.437,0,0,1,1.138.56,57.771,57.771,0,0,0,16.566,14.64,1.483,1.483,0,0,0,1.178.14,1.551,1.551,0,0,0,.327-2.842h0A54.677,54.677,0,0,1,774.5,5927.95a1.435,1.435,0,0,1,1.349-2.3l3.769.581a1.635,1.635,0,0,0,1.859-1.121,1.548,1.548,0,0,0-1.261-1.917l-11.176-1.719a1.553,1.553,0,0,0-1.764,1.294l-1.7,11.049a1.631,1.631,0,0,0,1.121,1.859,1.546,1.546,0,0,0,1.917-1.261l.65-4.226a1.434,1.434,0,0,1,1.061-1.171,1.4,1.4,0,0,1,.357-.046Z" fill="#3c3575"/>
      </g>
    </g>
    <g id="Grupo_60623" data-name="Grupo 60623">
      <g id="Grupo_60622" data-name="Grupo 60622">
        <path id="Trazado_110120" data-name="Trazado 110120" d="M762.681,5886.464a4.5,4.5,0,0,1-.687-.054l-.034-.005a4.367,4.367,0,0,1-2.93-1.879,4.477,4.477,0,0,1-.656-3.462,60.128,60.128,0,0,1,8.037-19.412l-.67.109a4.417,4.417,0,0,1-5.119-4.076,4.521,4.521,0,0,1,3.825-4.662l11.034-1.8a4.421,4.421,0,0,1,5.069,3.648l1.819,11.161a4.417,4.417,0,0,1-4.074,5.118,4.518,4.518,0,0,1-4.664-3.823l-.073-.453a51.357,51.357,0,0,0-6.561,16.1,4.436,4.436,0,0,1-4.316,3.493Zm-.273-2.9.022,0a1.56,1.56,0,0,0,1.766-1.222,54.268,54.268,0,0,1,9.03-20.13,1.435,1.435,0,0,1,2.581.607l.658,4.038a1.641,1.641,0,0,0,1.639,1.422,1.549,1.549,0,0,0,1.434-1.793l-1.819-11.161a1.546,1.546,0,0,0-1.775-1.277l-11.034,1.8a1.629,1.629,0,0,0-1.422,1.639,1.547,1.547,0,0,0,1.793,1.433l3.953-.645a1.435,1.435,0,0,1,1.4,2.253,57.365,57.365,0,0,0-9.454,21.148,1.574,1.574,0,0,0,.232,1.234A1.509,1.509,0,0,0,762.408,5883.569Z" fill="#3c3575"/>
      </g>
    </g>
    <g id="Grupo_60625" data-name="Grupo 60625">
      <g id="Grupo_60624" data-name="Grupo 60624">
        <path id="Trazado_110121" data-name="Trazado 110121" d="M839.184,5959.275a4.606,4.606,0,0,1-2.076-.493l-9.984-5.031a4.415,4.415,0,0,1-1.956-5.931l5.088-10.1a4.416,4.416,0,0,1,6.3-1.745,4.521,4.521,0,0,1,1.525,5.835l-.126.251a51.527,51.527,0,0,0,14.107-8.887,4.435,4.435,0,0,1,6.094.185,4.375,4.375,0,0,1,1.266,3.246,4.471,4.471,0,0,1-1.505,3.182,60.287,60.287,0,0,1-17.456,10.795l.732.369a4.39,4.39,0,0,1-2.014,8.323Zm-4.982-21.113a1.552,1.552,0,0,0-.415.057,1.522,1.522,0,0,0-.967.795l-5.089,10.1a1.546,1.546,0,0,0,.685,2.077l9.984,5.031a1.632,1.632,0,0,0,2.114-.49,1.547,1.547,0,0,0-.607-2.214l-3.67-1.849a1.434,1.434,0,0,1,.183-2.639,57.5,57.5,0,0,0,19.6-11.389,1.569,1.569,0,0,0,.537-1.131,1.524,1.524,0,0,0-.441-1.132l1.022-1.007-1.022,1.007a1.564,1.564,0,0,0-2.149-.049,54.41,54.41,0,0,1-18.491,10.754,1.435,1.435,0,0,1-1.746-2l1.793-3.557a1.631,1.631,0,0,0-.491-2.115,1.567,1.567,0,0,0-.832-.243Z" fill="#3c3575"/>
      </g>
    </g>
    <g id="Grupo_60627" data-name="Grupo 60627">
      <g id="Grupo_60626" data-name="Grupo 60626">
        <path id="Trazado_110122" data-name="Trazado 110122" d="M831.7,5852.277a4.395,4.395,0,0,1-2.046-8.306l.375-.193A52.005,52.005,0,0,0,817.7,5842.3c-1.677,0-3.372.082-5.039.241a4.411,4.411,0,0,1-3.874-7.109,4.466,4.466,0,0,1,3.087-1.687c1.924-.184,3.885-.277,5.825-.277A60.8,60.8,0,0,1,833,5835.418l-.375-.728a4.418,4.418,0,0,1,2.294-6.127,4.521,4.521,0,0,1,5.616,2.2l5.121,9.939a4.416,4.416,0,0,1-1.9,5.948l-9.938,5.12a4.611,4.611,0,0,1-2.112.511Zm-.732-5.753a1.545,1.545,0,0,0-.588,2.218,1.629,1.629,0,0,0,2.117.472l9.939-5.12a1.546,1.546,0,0,0,.667-2.083l-5.12-9.939a1.63,1.63,0,0,0-2-.845,1.548,1.548,0,0,0-.81,2.148l1.9,3.69a1.435,1.435,0,0,1-1.713,2.024,57.84,57.84,0,0,0-17.658-2.748c-1.85,0-3.718.088-5.553.263a1.569,1.569,0,0,0-1.1.6,1.541,1.541,0,0,0,1.338,2.485c1.758-.169,3.545-.254,5.313-.254a54.8,54.8,0,0,1,16.66,2.583,1.435,1.435,0,0,1,.222,2.643Z" fill="#3c3575"/>
      </g>
    </g>
    <g id="Grupo_60629" data-name="Grupo 60629">
      <g id="Grupo_60628" data-name="Grupo 60628">
        <path id="Trazado_110123" data-name="Trazado 110123" d="M874.1,5904.491a4.4,4.4,0,0,1-3.109-1.278l-8.031-7.96a4.416,4.416,0,0,1,.288-6.536,4.521,4.521,0,0,1,6.021.352l.121.12a51.493,51.493,0,0,0-4.079-15.735,4.421,4.421,0,0,1,5.521-5.963,4.324,4.324,0,0,1,2.544,2.36,60.363,60.363,0,0,1,4.91,19.727l.547-.552a4.521,4.521,0,0,1,6.017-.407,4.416,4.416,0,0,1,.347,6.533l-7.96,8.032a4.4,4.4,0,0,1-3.137,1.307Zm-8.077-13.9a1.456,1.456,0,0,0-.937.328,1.545,1.545,0,0,0-.1,2.292l8.031,7.96a1.548,1.548,0,0,0,2.187-.01l7.96-8.032a1.545,1.545,0,0,0-.127-2.291,1.631,1.631,0,0,0-2.16.205l-2.841,2.867a1.435,1.435,0,0,1-2.455-.978A57.594,57.594,0,0,0,870.745,5871a1.482,1.482,0,0,0-.873-.806,1.552,1.552,0,0,0-1.933,2.108,54.449,54.449,0,0,1,4.541,20.511,1.434,1.434,0,0,1-2.444,1.055l-2.789-2.765a1.766,1.766,0,0,0-1.226-.512Z" fill="#3c3575"/>
      </g>
    </g>
    <g id="Grupo_60631" data-name="Grupo 60631">
      <g id="Grupo_60630" data-name="Grupo 60630">
        <path id="Trazado_110124" data-name="Trazado 110124" d="M802.2,5851.677h-19.33a3.127,3.127,0,0,1-3.124-3.124V5831.9a3.127,3.127,0,0,1,3.124-3.123h4.441a3.108,3.108,0,0,1,2.9,1.963c.016.042.031.084.044.126l1.021,3.445a.253.253,0,0,0,.219.127h10.7a3.128,3.128,0,0,1,3.124,3.124v10.993A3.127,3.127,0,0,1,802.2,5851.677Zm-19.33-20.033a.254.254,0,0,0-.254.254v16.655a.255.255,0,0,0,.254.254H802.2a.255.255,0,0,0,.254-.254V5837.56a.254.254,0,0,0-.254-.254H791.5a3.11,3.11,0,0,1-2.9-1.965c-.016-.041-.031-.083-.044-.125l-1.021-3.446a.253.253,0,0,0-.219-.126Z" fill="#3c3575"/>
      </g>
    </g>
    <g id="Grupo_60634" data-name="Grupo 60634">
      <g id="Grupo_60633" data-name="Grupo 60633">
        <g id="Grupo_60632" data-name="Grupo 60632">
          <path id="Trazado_110125" data-name="Trazado 110125" d="M803.89,5839a1.435,1.435,0,0,1-1.435-1.435v-5.026a.254.254,0,0,0-.254-.253H788.869a1.435,1.435,0,1,1,0-2.87H802.2a3.127,3.127,0,0,1,3.124,3.123v5.026A1.435,1.435,0,0,1,803.89,5839Z" fill="#3c3575"/>
        </g>
      </g>
    </g>
    <g id="Grupo_60636" data-name="Grupo 60636">
      <g id="Grupo_60635" data-name="Grupo 60635">
        <path id="Trazado_110126" data-name="Trazado 110126" d="M871.368,5864.2H852.039a3.129,3.129,0,0,1-3.125-3.124V5844.42a3.128,3.128,0,0,1,3.125-3.124h4.441a3.109,3.109,0,0,1,2.9,1.964c.016.041.031.083.043.125l1.021,3.446a.253.253,0,0,0,.22.127h10.7a3.128,3.128,0,0,1,3.125,3.123v10.994a3.129,3.129,0,0,1-3.125,3.124Zm-19.33-20.033a.254.254,0,0,0-.254.254v16.655a.255.255,0,0,0,.254.254h19.33a.255.255,0,0,0,.254-.254v-10.994a.254.254,0,0,0-.254-.254h-10.7a3.108,3.108,0,0,1-2.9-1.964c-.017-.041-.031-.083-.044-.126l-1.021-3.445a.25.25,0,0,0-.219-.126Z" fill="#3c3575"/>
      </g>
    </g>
    <g id="Grupo_60639" data-name="Grupo 60639">
      <g id="Grupo_60638" data-name="Grupo 60638">
        <g id="Grupo_60637" data-name="Grupo 60637">
          <path id="Trazado_110127" data-name="Trazado 110127" d="M873.058,5851.516a1.435,1.435,0,0,1-1.436-1.435v-5.025a.255.255,0,0,0-.254-.254H858.1a1.435,1.435,0,1,1,0-2.87h13.269a3.128,3.128,0,0,1,3.125,3.124v5.025A1.435,1.435,0,0,1,873.058,5851.516Z" fill="#3c3575"/>
        </g>
      </g>
    </g>
    <g id="Grupo_60641" data-name="Grupo 60641">
      <g id="Grupo_60640" data-name="Grupo 60640">
        <path id="Trazado_110128" data-name="Trazado 110128" d="M875.542,5929.192H856.213a3.127,3.127,0,0,1-3.124-3.123v-16.655a3.127,3.127,0,0,1,3.124-3.124h4.441a3.109,3.109,0,0,1,2.9,1.963c.017.041.031.084.044.126l1.021,3.445a.25.25,0,0,0,.219.127h10.7a3.128,3.128,0,0,1,3.125,3.124v10.994a3.127,3.127,0,0,1-3.124,3.123Zm-19.33-20.033a.254.254,0,0,0-.254.254v16.655a.254.254,0,0,0,.254.254h19.329a.255.255,0,0,0,.255-.254v-10.993a.256.256,0,0,0-.255-.255h-10.7a3.11,3.11,0,0,1-2.9-1.963c-.016-.042-.031-.084-.043-.126l-1.021-3.445a.253.253,0,0,0-.22-.127Z" fill="#3c3575"/>
      </g>
    </g>
    <g id="Grupo_60644" data-name="Grupo 60644">
      <g id="Grupo_60643" data-name="Grupo 60643">
        <g id="Grupo_60642" data-name="Grupo 60642">
          <path id="Trazado_110129" data-name="Trazado 110129" d="M877.231,5916.51a1.435,1.435,0,0,1-1.435-1.435v-5.025a.254.254,0,0,0-.254-.254H862.3a1.435,1.435,0,0,1,0-2.87h13.245a3.127,3.127,0,0,1,3.124,3.124v5.025A1.435,1.435,0,0,1,877.231,5916.51Z" fill="#3c3575"/>
        </g>
      </g>
    </g>
    <g id="Grupo_60646" data-name="Grupo 60646">
      <g id="Grupo_60645" data-name="Grupo 60645">
        <path id="Trazado_110130" data-name="Trazado 110130" d="M818.9,5959.6H799.567a3.128,3.128,0,0,1-3.125-3.124v-16.655a3.128,3.128,0,0,1,3.125-3.124h4.441a3.109,3.109,0,0,1,2.9,1.964c.016.041.031.083.043.126l1.021,3.445a.252.252,0,0,0,.22.126h10.7a3.127,3.127,0,0,1,3.124,3.125v10.993a3.127,3.127,0,0,1-3.124,3.124Zm-19.329-20.033a.255.255,0,0,0-.254.254v16.655a.254.254,0,0,0,.254.254H818.9a.254.254,0,0,0,.254-.254v-10.993a.255.255,0,0,0-.254-.255h-10.7a3.11,3.11,0,0,1-2.9-1.963c-.016-.042-.031-.084-.044-.126l-1.02-3.446a.254.254,0,0,0-.22-.126Z" fill="#3c3575"/>
      </g>
    </g>
    <g id="Grupo_60649" data-name="Grupo 60649">
      <g id="Grupo_60648" data-name="Grupo 60648">
        <g id="Grupo_60647" data-name="Grupo 60647">
          <path id="Trazado_110131" data-name="Trazado 110131" d="M820.585,5946.92a1.435,1.435,0,0,1-1.435-1.435v-5.025a.254.254,0,0,0-.254-.254H805.635a1.435,1.435,0,0,1,0-2.87H818.9a3.127,3.127,0,0,1,3.124,3.124v5.025A1.435,1.435,0,0,1,820.585,5946.92Z" fill="#3c3575"/>
        </g>
      </g>
    </g>
    <g id="Grupo_60651" data-name="Grupo 60651">
      <g id="Grupo_60650" data-name="Grupo 60650">
        <path id="Trazado_110132" data-name="Trazado 110132" d="M772.387,5914.285H753.058a3.128,3.128,0,0,1-3.125-3.124v-16.654a3.128,3.128,0,0,1,3.125-3.124h4.44a3.11,3.11,0,0,1,2.9,1.963c.017.041.031.084.044.126l1.02,3.445a.254.254,0,0,0,.22.127h10.7a3.128,3.128,0,0,1,3.125,3.124v10.993A3.127,3.127,0,0,1,772.387,5914.285Zm-19.329-20.032a.255.255,0,0,0-.255.254v16.654a.255.255,0,0,0,.255.254h19.329a.254.254,0,0,0,.254-.254v-10.993a.254.254,0,0,0-.254-.254h-10.7a3.111,3.111,0,0,1-2.9-1.964,1.33,1.33,0,0,1-.043-.126l-1.021-3.445a.254.254,0,0,0-.22-.126Z" fill="#3c3575"/>
      </g>
    </g>
    <g id="Grupo_60654" data-name="Grupo 60654">
      <g id="Grupo_60653" data-name="Grupo 60653">
        <g id="Grupo_60652" data-name="Grupo 60652">
          <path id="Trazado_110133" data-name="Trazado 110133" d="M774.076,5901.6a1.436,1.436,0,0,1-1.435-1.435v-5.026a.253.253,0,0,0-.254-.253H759.1a1.435,1.435,0,0,1,0-2.87h13.285a3.127,3.127,0,0,1,3.124,3.123v5.026A1.436,1.436,0,0,1,774.076,5901.6Z" fill="#3c3575"/>
        </g>
      </g>
    </g>
    <g id="Grupo_60656" data-name="Grupo 60656">
      <g id="Grupo_60655" data-name="Grupo 60655">
        <path id="Trazado_110134" data-name="Trazado 110134" d="M755.267,5923.138a6.372,6.372,0,0,1-5.108-5,.115.115,0,0,0-.227,0,6.371,6.371,0,0,1-5.108,5,.112.112,0,0,0,0,.222,6.372,6.372,0,0,1,5.108,5,.115.115,0,0,0,.227,0,6.373,6.373,0,0,1,5.108-5A.112.112,0,0,0,755.267,5923.138Z" fill="#31d9e7"/>
      </g>
    </g>
    <g id="Grupo_60658" data-name="Grupo 60658">
      <g id="Grupo_60657" data-name="Grupo 60657">
        <path id="Trazado_110135" data-name="Trazado 110135" d="M756.122,5868.947a3.212,3.212,0,0,1-2.575-2.523.058.058,0,0,0-.114,0,3.212,3.212,0,0,1-2.575,2.523.057.057,0,0,0,0,.112,3.21,3.21,0,0,1,2.575,2.523.058.058,0,0,0,.114,0,3.215,3.215,0,0,1,2.575-2.523A.057.057,0,0,0,756.122,5868.947Z" fill="#fc657e"/>
      </g>
    </g>
    <g id="Grupo_60660" data-name="Grupo 60660">
      <g id="Grupo_60659" data-name="Grupo 60659">
        <path id="Trazado_110136" data-name="Trazado 110136" d="M881.027,5863.212h1.338v-1.338a1.812,1.812,0,0,1,3.624,0v1.338h1.337a1.812,1.812,0,0,1,0,3.624h-1.337v1.338a1.812,1.812,0,0,1-3.624,0v-1.338h-1.338a1.812,1.812,0,0,1,0-3.624Z" fill="#31d9e7"/>
      </g>
    </g>
    <g id="Grupo_60662" data-name="Grupo 60662">
      <g id="Grupo_60661" data-name="Grupo 60661">
        <circle id="Elipse_4238" data-name="Elipse 4238" cx="1.939" cy="1.939" r="1.939" transform="translate(887.803 5877.424)" fill="#31d9e7"/>
      </g>
    </g>
    <g id="Grupo_60664" data-name="Grupo 60664">
      <g id="Grupo_60663" data-name="Grupo 60663">
        <circle id="Elipse_4239" data-name="Elipse 4239" cx="1.939" cy="1.939" r="1.939" transform="translate(753.48 5934.828)" fill="#31d9e7"/>
      </g>
    </g>
    <g id="Grupo_60666" data-name="Grupo 60666">
      <g id="Grupo_60665" data-name="Grupo 60665">
        <circle id="Elipse_4240" data-name="Elipse 4240" cx="1.939" cy="1.939" r="1.939" transform="translate(867.712 5934.828)" fill="#fc657e"/>
      </g>
    </g>
  </g>
</svg>
