<svg xmlns="http://www.w3.org/2000/svg" width="178.297" height="178.296" viewBox="0 0 178.297 178.296">
  <g id="Grupo_61526" data-name="Grupo 61526" transform="translate(-941.275 -5278.188)">
    <circle id="Elipse_4217" data-name="Elipse 4217" cx="86.148" cy="86.148" r="86.148" transform="translate(944.275 5281.188)" fill="#fff" stroke="#afa054" stroke-miterlimit="10" stroke-width="6"/>
    <g id="Grupo_60551" data-name="Grupo 60551" transform="translate(160.595 0.969)">
      <g id="Grupo_60535" data-name="Grupo 60535">
        <path id="Trazado_109917" data-name="Trazado 109917" d="M835.5,5321.932a7.162,7.162,0,0,1-.921-3.467,6.92,6.92,0,0,1,6.933-6.932h1a4.787,4.787,0,0,1,1.312-2.507,4.908,4.908,0,0,1,3.427-1.41h11.614a16.849,16.849,0,0,1,15.98,22.169l-.979,2.937a5.891,5.891,0,0,0-4.034-1.6H867.87v-.451a3.931,3.931,0,0,0-3.427-3.9l-8.6-1.077a4.083,4.083,0,0,1-3.6-3.819h-.019l-6.091,1.743a7.843,7.843,0,0,0-5.679,7.5h-1.959a5.915,5.915,0,0,0-3.721,1.331,6.795,6.795,0,0,1,.725-10.516Z" fill="#d4c266"/>
      </g>
      <g id="Grupo_60536" data-name="Grupo 60536">
        <path id="Trazado_109918" data-name="Trazado 109918" d="M854.161,5405.536H834.577v19.584h39.168v-19.584Z" fill="#f9e478"/>
      </g>
      <g id="Grupo_60537" data-name="Grupo 60537">
        <path id="Trazado_109919" data-name="Trazado 109919" d="M834.577,5409.453h-9.792a1.965,1.965,0,0,1-1.958-1.959v-31.765a15.667,15.667,0,0,1,13.082-15.452l4.818-.8,3.642,12.769,9.792-7.834v41.127H834.577Z" fill="#a75259"/>
      </g>
      <g id="Grupo_60538" data-name="Grupo 60538">
        <path id="Trazado_109920" data-name="Trazado 109920" d="M854.161,5405.536v-41.127l9.792,7.834,3.917-13.709h13.709V5374.2h-7.834v31.335Z" fill="#a75259"/>
      </g>
      <g id="Grupo_60539" data-name="Grupo 60539">
        <path id="Trazado_109921" data-name="Trazado 109921" d="M867.87,5358.534l-3.917,13.709-9.792-7.834,7.834-5.875Z" fill="#ce666e"/>
      </g>
      <g id="Grupo_60540" data-name="Grupo 60540">
        <path id="Trazado_109922" data-name="Trazado 109922" d="M854.161,5364.409l-9.792,7.834-3.642-12.769,5.6-.94Z" fill="#ce666e"/>
      </g>
      <g id="Grupo_60541" data-name="Grupo 60541">
        <path id="Trazado_109923" data-name="Trazado 109923" d="M834.577,5409.453v11.75h-1.958a5.867,5.867,0,0,1-5.875-5.875v-5.875Z" fill="#f0d0b4"/>
      </g>
      <g id="Grupo_60542" data-name="Grupo 60542">
        <path id="Trazado_109924" data-name="Trazado 109924" d="M903.356,5321.09a5.871,5.871,0,0,0-10.027,4.151v1.959l-.763.391a5.693,5.693,0,0,0-1.489,9.107l2.252,2.252H905.08v-13.709a5.859,5.859,0,0,0-1.724-4.151Z" fill="#f0d0b4"/>
      </g>
      <g id="Grupo_60543" data-name="Grupo 60543">
        <path id="Trazado_109925" data-name="Trazado 109925" d="M873.863,5332.722a5.877,5.877,0,0,1-4.034,10.145H867.3a13.538,13.538,0,0,0,.568-3.917v-7.833h1.959a5.891,5.891,0,0,1,4.034,1.6Z" fill="#f0d0b4"/>
      </g>
      <g id="Grupo_60544" data-name="Grupo 60544">
        <path id="Trazado_109926" data-name="Trazado 109926" d="M860.174,5351.269l1.821,7.265-7.834,5.875-7.833-5.875,1.821-7.265a13.7,13.7,0,0,0,12.025,0Z" fill="#f0d0b4"/>
      </g>
      <g id="Grupo_60545" data-name="Grupo 60545">
        <path id="Trazado_109927" data-name="Trazado 109927" d="M867.87,5331.117v7.833a13.7,13.7,0,0,1-7.7,12.319,13.7,13.7,0,0,1-12.025,0,13.716,13.716,0,0,1-7.128-8.4,13.5,13.5,0,0,1-.568-3.917v-7.833a7.843,7.843,0,0,1,5.679-7.5l6.091-1.743h.019a4.083,4.083,0,0,0,3.6,3.819l8.6,1.077a3.931,3.931,0,0,1,3.427,3.9Z" fill="#f0d0b4"/>
      </g>
      <g id="Grupo_60546" data-name="Grupo 60546">
        <path id="Trazado_109928" data-name="Trazado 109928" d="M841.021,5342.867h-2.527a5.875,5.875,0,0,1,0-11.75h1.959v7.833A13.5,13.5,0,0,0,841.021,5342.867Z" fill="#f0d0b4"/>
      </g>
      <g id="Grupo_60547" data-name="Grupo 60547">
        <path id="Trazado_109929" data-name="Trazado 109929" d="M893.329,5338.95H905.08V5350.7H893.329Z" fill="#a75259"/>
      </g>
      <g id="Grupo_60548" data-name="Grupo 60548">
        <path id="Trazado_109930" data-name="Trazado 109930" d="M916.83,5352.659v37.21a3.928,3.928,0,0,1-3.917,3.916H885.5a3.928,3.928,0,0,1-3.917-3.916v-37.21a1.964,1.964,0,0,1,1.958-1.958h31.335A1.964,1.964,0,0,1,916.83,5352.659Z" fill="#a75259"/>
      </g>
      <g id="Grupo_60549" data-name="Grupo 60549">
        <path id="Trazado_109931" data-name="Trazado 109931" d="M889.413,5362.451H909v15.667H889.413Z" fill="#f1b0b5"/>
      </g>
      <g id="Grupo_60550" data-name="Grupo 60550">
        <circle id="Elipse_4231" data-name="Elipse 4231" cx="1.958" cy="1.958" r="1.958" transform="translate(846.328 5333.075)" fill="#afa054"/>
        <circle id="Elipse_4232" data-name="Elipse 4232" cx="1.958" cy="1.958" r="1.958" transform="translate(858.078 5333.075)" fill="#afa054"/>
        <path id="Trazado_109932" data-name="Trazado 109932" d="M861.582,5342.2l.205-.413-3.5-1.753-.206.415a4.378,4.378,0,0,1-7.833,0l-.206-.413-3.5,1.753.206.413a8.3,8.3,0,0,0,14.841,0Z" fill="#afa054"/>
        <path id="Trazado_109933" data-name="Trazado 109933" d="M860.037,5391.827h3.916v3.917h-3.916Z" fill="#afa054"/>
        <path id="Trazado_109934" data-name="Trazado 109934" d="M860.037,5383.993h3.916v3.917h-3.916Z" fill="#afa054"/>
        <path id="Trazado_109935" data-name="Trazado 109935" d="M910.955,5360.493h-23.5v19.584h23.5Zm-3.917,15.667H891.371v-11.751h15.667Z" fill="#afa054"/>
        <path id="Trazado_109936" data-name="Trazado 109936" d="M914.872,5348.742v-3.917a15.668,15.668,0,0,0-7.834-13.548v-6.036a7.834,7.834,0,0,0-15.667,0V5326a7.61,7.61,0,0,0-3.917,6.678,7.744,7.744,0,0,0,.182,1.622,15.592,15.592,0,0,0-4.1,10.528v3.917a3.92,3.92,0,0,0-3.916,3.917v3.917h-16.1l-1.086-4.348a15.744,15.744,0,0,0,6.237-7.4h1.154a7.841,7.841,0,0,0,7.833-7.833,7.749,7.749,0,0,0-1.6-4.687l.631-1.891a18.81,18.81,0,0,0-17.843-24.757h-11.6a6.8,6.8,0,0,0-6.157,3.958,8.8,8.8,0,0,0-7.955,11.782,8.688,8.688,0,0,0-.954,10.993,7.756,7.756,0,0,0-1.525,4.6,7.841,7.841,0,0,0,7.833,7.833h1.154a15.729,15.729,0,0,0,6.237,7.4l-1.145,4.585-9.144,1.523a17.571,17.571,0,0,0-14.727,17.387v31.771a3.921,3.921,0,0,0,3.916,3.917v3.917a7.842,7.842,0,0,0,7.834,7.833v3.917H875.7V5376.16h3.917v13.709a5.882,5.882,0,0,0,5.875,5.875h27.417a5.883,5.883,0,0,0,5.876-5.875v-37.21A3.921,3.921,0,0,0,914.872,5348.742Zm-3.917-3.917v3.917h-3.917v-12.651A11.718,11.718,0,0,1,910.955,5344.825Zm-7.834-7.833H894.14l-1.676-1.675c-.02-.019-.034-.043-.051-.062a11.626,11.626,0,0,1,10.708-1.5Zm-7.833,3.917h7.833v7.833h-7.833Zm-1.855-11.573,1.855-.924v-3.171a3.916,3.916,0,0,1,7.833,0v4.432a15.468,15.468,0,0,0-11.337,1.359,3.687,3.687,0,0,1,1.649-1.7Zm-5.979,15.489a11.679,11.679,0,0,1,2.188-6.8c.019.02.033.045.053.065l1.676,1.674v8.981h-3.917Zm-22.181,15.668-2.4,8.382-5.519-4.417,5.288-3.965Zm4.556-19.584h-.136a15.648,15.648,0,0,0,.136-1.959v-5.875a3.917,3.917,0,0,1,0,7.834Zm-31.335,0a3.917,3.917,0,0,1,0-7.834v5.875a15.836,15.836,0,0,0,.135,1.959Zm.233-11.751h-.233a7.735,7.735,0,0,0-3.247.727,4.774,4.774,0,0,1,2-6.727l4.079-2.039-1.753-3.5-2.957,1.479a5.132,5.132,0,0,1-.084-.638,4.969,4.969,0,0,1,4.018-4.869,6.752,6.752,0,0,0,3.657,4.953l1.239.619,1.751-3.5-1.239-.619a2.883,2.883,0,0,1,1.29-5.462h11.6a14.894,14.894,0,0,1,14.128,19.6l-.192.574a7.811,7.811,0,0,0-2.961-.59h-.22a5.867,5.867,0,0,0-4.927-4.33l-8.592-1.075a2.2,2.2,0,0,1,.275-4.387h1.713v-3.917h-1.713a6.126,6.126,0,0,0-6,4.926l-4.769,1.361a9.824,9.824,0,0,0-6.868,7.422Zm3.684,9.792v-7.8a5.9,5.9,0,0,1,4.259-5.65l4.217-1.205a6.124,6.124,0,0,0,4.716,3.343l8.591,1.076a1.961,1.961,0,0,1,1.716,1.942v8.292a11.749,11.749,0,1,1-23.5,0Zm11.75,15.667a15.628,15.628,0,0,0,4.659-.707l.96,3.839-5.619,4.212-5.618-4.214.959-3.839A15.576,15.576,0,0,0,854.161,5354.617Zm-8.337,5.987,5.141,3.856-5.519,4.417-2.238-7.836Zm-21.039,15.119A13.665,13.665,0,0,1,836.24,5362.2l3.077-.513,3.977,13.922,8.909-7.124v35.092H836.536V5376.16h-3.917v31.334h-7.834Zm3.917,39.6v-3.917h3.917v7.834A3.921,3.921,0,0,1,828.7,5415.328Zm7.834-7.834H852.2v15.667H836.536Zm19.584,15.667v-15.667h15.667v15.667Zm15.667-50.918v31.334H856.12v-35.092l8.909,7.126,4.318-15.118h10.274v11.75Zm43.085,17.626a1.961,1.961,0,0,1-1.959,1.958H885.5a1.961,1.961,0,0,1-1.959-1.958v-37.21h31.335Z" fill="#8e8043"/>
      </g>
    </g>
  </g>
</svg>
