<svg xmlns="http://www.w3.org/2000/svg" width="178.297" height="178.296" viewBox="0 0 178.297 178.296">
  <g id="Grupo_61528" data-name="Grupo 61528" transform="translate(-741.479 -5514.843)">
    <circle id="Elipse_4218" data-name="Elipse 4218" cx="86.148" cy="86.148" r="86.148" transform="translate(744.479 5517.843)" fill="#fff" stroke="#afa054" stroke-miterlimit="10" stroke-width="6"/>
    <g id="Grupo_60555" data-name="Grupo 60555" transform="translate(160.595 0.969)">
      <path id="Trazado_109968" data-name="Trazado 109968" d="M698.643,5614.994c-9.872-.353-15.88,3.735-36.625,13.883l-18.118-9.832-6.888-3.738c.71-9.439,4.222-33.784,21.629-43.4,0,0-12.422-9.068-11.283-20.74a1.589,1.589,0,0,1,1.577-1.443h37.812a1.591,1.591,0,0,1,1.578,1.443c1.138,11.672-11.284,20.74-11.284,20.74C694.261,5581.42,697.884,5605.345,698.643,5614.994Z" fill="#b76c6c"/>
      <path id="Trazado_109969" data-name="Trazado 109969" d="M698.643,5614.994c-9.872-.353-15.88,3.735-36.625,13.883l-18.118-9.832-6.888-3.738c.71-9.439,4.222-33.784,21.629-43.4,0,0-12.422-9.068-11.283-20.74a1.589,1.589,0,0,1,1.577-1.443h37.812a1.591,1.591,0,0,1,1.578,1.443c1.138,11.672-11.284,20.74-11.284,20.74C694.261,5581.42,697.884,5605.345,698.643,5614.994Z" fill="#c98585"/>
      <path id="Trazado_109970" data-name="Trazado 109970" d="M698.643,5614.994c-9.872-.353-15.88,3.735-36.625,13.883l-18.118-9.832c1.055-11.234,5.2-38.165,21.442-47.135,0,0-12.422-9.068-11.284-20.74a1.59,1.59,0,0,1,1.577-1.443h31.112a1.591,1.591,0,0,1,1.578,1.443c1.138,11.672-11.284,20.74-11.284,20.74C694.261,5581.42,697.884,5605.345,698.643,5614.994Z" fill="#b76c6c"/>
      <path id="Trazado_109971" data-name="Trazado 109971" d="M698.643,5614.994a27.457,27.457,0,0,0-6.915.581c-1.138-11.221-5.413-33.418-21.387-42.647,0,0,12.422-9.483,11.283-21.691a1.618,1.618,0,0,0-1.577-1.51h6.7a1.591,1.591,0,0,1,1.578,1.443c1.138,11.672-11.284,20.74-11.284,20.74C694.261,5581.42,697.884,5605.345,698.643,5614.994Z" fill="#965959"/>
      <path id="Trazado_109972" data-name="Trazado 109972" d="M701.331,5615.132c-1.018-.092-2.039-.141-3.062-.141a33.918,33.918,0,0,0-10.847,1.78,33.07,33.07,0,0,0-4.082,1.676l-21.322,10.431-35.678-19.359a6.839,6.839,0,1,0-6.814,11.859l35.274,32.315c.021.015.042.037.064.054a12.616,12.616,0,0,0,12.1,1.67l28.507-10.766a19.971,19.971,0,0,1,15,.925v-28.309A34.141,34.141,0,0,0,701.331,5615.132Z" fill="#ffbb98"/>
      <path id="Trazado_109973" data-name="Trazado 109973" d="M723.987,5612.79v35.481a2.446,2.446,0,0,1-2.448,2.448h-8.62a2.447,2.447,0,0,1-2.449-2.448V5612.79a2.449,2.449,0,0,1,2.449-2.448h8.62A2.448,2.448,0,0,1,723.987,5612.79Z" fill="#95f7ff"/>
      <path id="Trazado_109974" data-name="Trazado 109974" d="M723.987,5612.79v35.481a2.446,2.446,0,0,1-2.448,2.448h-1.92a2.447,2.447,0,0,1-2.448-2.448V5612.79a2.449,2.449,0,0,1,2.448-2.448h1.92A2.448,2.448,0,0,1,723.987,5612.79Z" fill="#2ab9c4"/>
      <path id="Trazado_109975" data-name="Trazado 109975" d="M701.331,5615.132c-1.018-.092-2.039-.141-3.062-.141a33.918,33.918,0,0,0-10.847,1.78,33.07,33.07,0,0,0-4.082,1.676l-21.322,10.431-3.38,1.654a6.345,6.345,0,0,0-3.488,5.667,6.278,6.278,0,0,0,.682,2.855,6.342,6.342,0,0,0,8.522,2.812l26.176-12.8a38.953,38.953,0,0,1,16.889-2.751l3.05.245v-9.289A34.141,34.141,0,0,0,701.331,5615.132Z" fill="#ffcaa6"/>
      <path id="Trazado_109976" data-name="Trazado 109976" d="M668.089,5625.88c3.341-1.738,6.151-3.167,8.648-4.311C674.209,5622.815,671.363,5624.245,668.089,5625.88Z" fill="#965959"/>
      <g id="Grupo_60554" data-name="Grupo 60554">
        <path id="Trazado_109977" data-name="Trazado 109977" d="M721.532,5608.633h-8.62a4.238,4.238,0,0,0-4.235,4.235v1.97a35.628,35.628,0,0,0-8.38-1.492c-1.5-15.518-7.147-32.988-20.182-41.659,3.671-3.279,10.926-11.065,9.988-20.687a3.365,3.365,0,0,0-3.355-3.06H648.935a3.365,3.365,0,0,0-3.355,3.06c-.938,9.622,6.317,17.408,9.988,20.687-12.789,8.508-18.478,25.487-20.1,40.828l-8.241-4.471a8.624,8.624,0,0,0-8.769,14.852c2.435,2.234,35.156,32.22,35.316,32.341a14.463,14.463,0,0,0,13.812,1.921l28.477-10.752a18.086,18.086,0,0,1,12.611.406v1.528a4.238,4.238,0,0,0,4.235,4.235h8.62a4.242,4.242,0,0,0,4.235-4.235v-35.472A4.241,4.241,0,0,0,721.532,5608.633Zm-72.415-57.119H686.56c.786,9.235-8.041,16.922-10.134,18.607h-17.17C657.163,5568.445,648.332,5560.754,649.117,5551.514Zm10,22.181h17.444c13.189,8.008,18.54,24.308,20.125,39.624-9.336.4-12.767,2.925-34.623,13.62l-23.174-12.57C640.3,5598.741,645.573,5582.03,659.117,5573.695ZM708.676,5643a21.6,21.6,0,0,0-13.785.032c-.049.011-28.519,10.765-28.566,10.782a10.886,10.886,0,0,1-10.32-1.375c-.2-.179-35.354-32.412-35.588-32.538a5,5,0,0,1-2.358-3.06,5.058,5.058,0,0,1,7.429-5.677c23.888,12.955-2.818-1.52,32.635,17.7-8.049,3.962-5.1,15.536,3.39,15.536,2.5,0,.954.444,30.309-13.914a1.787,1.787,0,0,0-1.573-3.208l-26.7,13.062a4.567,4.567,0,0,1-6.392-5.463c1.378-2.749-1.689-.737,26.972-14.755a32.163,32.163,0,0,1,24.55-1.527Zm13.518,5.338a.663.663,0,0,1-.662.661h-8.621a.66.66,0,0,1-.662-.661v-35.472a.66.66,0,0,1,.662-.662h8.621a.663.663,0,0,1,.662.662Z" fill="#afa054"/>
        <path id="Trazado_109978" data-name="Trazado 109978" d="M666.054,5619.1a1.786,1.786,0,0,0,3.573,0v-5.269h1.954a8.415,8.415,0,0,0,0-16.83H664.1a4.842,4.842,0,0,1,0-9.683h9.978a2.35,2.35,0,0,1,2.347,2.347,1.787,1.787,0,0,0,1.786,1.787c3.538,0,1.637-7.707-4.133-7.707h-4.449v-5.269a1.786,1.786,0,1,0-3.573,0v5.269H664.1a8.415,8.415,0,0,0,0,16.83h7.483a4.841,4.841,0,1,1,0,9.682H661.6a2.349,2.349,0,0,1-2.346-2.347,1.787,1.787,0,0,0-1.787-1.787c-3.539,0-1.633,7.708,4.133,7.708h4.45Z" fill="#f9e478"/>
      </g>
    </g>
  </g>
</svg>
