<svg xmlns="http://www.w3.org/2000/svg" width="170.071" height="170.071" viewBox="0 0 170.071 170.071">
  <g id="Grupo_56711" data-name="Grupo 56711" transform="translate(-578.37 -1244.704)">
    <rect id="Rectángulo_5541" data-name="Rectángulo 5541" width="170.071" height="170.071" transform="translate(578.37 1244.704)" fill="none"/>
    <circle id="Elipse_4068" data-name="Elipse 4068" cx="54.426" cy="54.426" r="54.426" transform="translate(586.397 1323.777) rotate(-45)" fill="#fff"/>
    <g id="Grupo_56706" data-name="Grupo 56706">
      <path id="Trazado_104969" data-name="Trazado 104969" d="M735.4,1342a.712.712,0,0,1-.689-.876,74.016,74.016,0,0,0,1.488-8.095.709.709,0,0,1,1.407.178,75.412,75.412,0,0,1-1.518,8.251A.71.71,0,0,1,735.4,1342Zm2.089-16.463a.711.711,0,0,1-.709-.719q.007-.549.008-1.1c0-2.374-.117-4.772-.348-7.128a.709.709,0,0,1,1.411-.138c.235,2.4.355,4.846.355,7.266q0,.557-.009,1.116A.709.709,0,0,1,737.489,1325.535Zm-1.62-16.508a.709.709,0,0,1-.692-.561,73.2,73.2,0,0,0-2.172-7.935.709.709,0,1,1,1.344-.45,74.52,74.52,0,0,1,2.214,8.089.709.709,0,0,1-.545.841A.762.762,0,0,1,735.869,1309.027ZM730.6,1293.3a.707.707,0,0,1-.642-.409,74.274,74.274,0,0,0-3.887-7.254.709.709,0,1,1,1.21-.738,75.479,75.479,0,0,1,3.961,7.393.708.708,0,0,1-.642,1.008Zm-8.639-14.165a.709.709,0,0,1-.561-.275,74.281,74.281,0,0,0-5.393-6.218.709.709,0,0,1,1.018-.987,75.6,75.6,0,0,1,5.5,6.337.71.71,0,0,1-.56,1.143ZM710.4,1267.223a.7.7,0,0,1-.45-.162,73.8,73.8,0,0,0-6.635-4.871.709.709,0,1,1,.773-1.188,75.1,75.1,0,0,1,6.763,4.965.709.709,0,0,1-.451,1.256Z" fill="#3c3575"/>
    </g>
    <g id="Grupo_56707" data-name="Grupo 56707">
      <path id="Trazado_104970" data-name="Trazado 104970" d="M594.611,1352.158a.708.708,0,0,1-.657-.443,74.709,74.709,0,0,1-2.7-7.942.708.708,0,1,1,1.365-.38,73.356,73.356,0,0,0,2.652,7.791.708.708,0,0,1-.391.922A.7.7,0,0,1,594.611,1352.158Zm-4.452-15.984a.709.709,0,0,1-.7-.6,74.528,74.528,0,0,1-.854-8.345.709.709,0,1,1,1.416-.065,72.857,72.857,0,0,0,.838,8.186.71.71,0,0,1-.588.812A.728.728,0,0,1,590.159,1336.174ZM589.4,1319.6l-.048,0a.709.709,0,0,1-.66-.754c.061-.917.14-1.849.236-2.77.192-1.856.456-3.726.785-5.558a.709.709,0,0,1,1.395.25c-.322,1.8-.582,3.632-.77,5.454-.094.9-.171,1.818-.231,2.718A.71.71,0,0,1,589.4,1319.6Zm2.935-16.335a.716.716,0,0,1-.2-.029.709.709,0,0,1-.476-.882,74.824,74.824,0,0,1,2.844-7.893.709.709,0,0,1,1.3.555,73.624,73.624,0,0,0-2.79,7.743A.709.709,0,0,1,592.337,1303.264Zm6.494-15.269a.7.7,0,0,1-.349-.092.71.71,0,0,1-.268-.966,75,75,0,0,1,4.534-7.057.709.709,0,0,1,1.148.832,73.349,73.349,0,0,0-4.448,6.923A.706.706,0,0,1,598.831,1287.995Zm9.737-13.432a.71.71,0,0,1-.523-1.187c1.686-1.848,3.487-3.634,5.355-5.309q.316-.283.636-.563a.709.709,0,1,1,.934,1.066q-.313.275-.623.553c-1.833,1.643-3.6,3.4-5.255,5.208A.7.7,0,0,1,608.568,1274.563Z" fill="#3c3575"/>
    </g>
    <g id="Grupo_56708" data-name="Grupo 56708">
      <path id="Trazado_104971" data-name="Trazado 104971" d="M661.57,1398.593c-1.98-.05-3.961-.178-5.907-.379-.822-.085-1.654-.185-2.473-.3a.709.709,0,0,1,.192-1.405c.8.11,1.62.208,2.427.292,1.91.2,3.854.323,5.778.371a.709.709,0,0,1-.017,1.418Zm8.3-.257a.709.709,0,0,1-.061-1.415,73.3,73.3,0,0,0,8.145-1.176.709.709,0,0,1,.281,1.39,74.681,74.681,0,0,1-8.3,1.2C669.916,1398.335,669.9,1398.336,669.874,1398.336Zm-24.746-2a.7.7,0,0,1-.175-.022,74.574,74.574,0,0,1-8-2.515.709.709,0,0,1,.5-1.326,73.277,73.277,0,0,0,7.852,2.467.709.709,0,0,1-.173,1.4Zm41.009-1.3a.709.709,0,0,1-.218-1.383,73.276,73.276,0,0,0,7.677-2.966.709.709,0,0,1,.584,1.292,75.085,75.085,0,0,1-7.825,3.023A.724.724,0,0,1,686.137,1395.044Zm-56.536-4.566a.708.708,0,0,1-.323-.078,75.061,75.061,0,0,1-7.237-4.245.709.709,0,0,1,.785-1.181,73.614,73.614,0,0,0,7.1,4.165.709.709,0,0,1-.324,1.339Zm71.655-2.274a.709.709,0,0,1-.364-1.318,73.628,73.628,0,0,0,6.825-4.6.709.709,0,0,1,.857,1.129,75.073,75.073,0,0,1-6.957,4.69A.7.7,0,0,1,701.256,1388.2Z" fill="#3c3575"/>
    </g>
    <g id="Grupo_56710" data-name="Grupo 56710">
      <g id="Fill_Outline" data-name="Fill Outline">
        <path id="Trazado_104972" data-name="Trazado 104972" d="M615.615,1318.233H663.08v37.295H615.615Z" fill="#31d9e7"/>
        <path id="Trazado_104973" data-name="Trazado 104973" d="M610.529,1355.528h57.637v3.39a6.781,6.781,0,0,1-6.781,6.781H617.31a6.781,6.781,0,0,1-6.781-6.781v-3.39Z" fill="#c595ff"/>
        <path id="Trazado_104974" data-name="Trazado 104974" d="M622.4,1331.8v-13.562h-6.781v37.295H663.08v-6.781H639.347A16.952,16.952,0,0,1,622.4,1331.8Z" fill="#2ab9c4"/>
        <path id="Trazado_104975" data-name="Trazado 104975" d="M620.7,1360.613a5.086,5.086,0,0,1-5.085-5.085h-5.086v3.39a6.781,6.781,0,0,0,6.781,6.781h44.075a6.779,6.779,0,0,0,6.543-5.086Z" fill="#a271dc"/>
        <rect id="Rectángulo_5542" data-name="Rectángulo 5542" width="27.123" height="27.123" rx="3.39" transform="translate(681.727 1319.929)" fill="#f9e478"/>
        <circle id="Elipse_4069" data-name="Elipse 4069" cx="5.086" cy="5.086" r="5.086" transform="translate(690.203 1328.405)" fill="#31d9e7"/>
        <path id="Trazado_104976" data-name="Trazado 104976" d="M686.813,1328.405v-8.476h-1.7a3.391,3.391,0,0,0-3.391,3.39v20.342a3.391,3.391,0,0,0,3.391,3.391H705.46a3.39,3.39,0,0,0,3.39-3.391v-1.7h-8.476A13.562,13.562,0,0,1,686.813,1328.405Z" fill="#d4c266"/>
        <circle id="Elipse_4070" data-name="Elipse 4070" cx="1.695" cy="1.695" r="1.695" transform="translate(695.289 1330.1)" fill="#aae1f9"/>
        <path id="Trazado_104977" data-name="Trazado 104977" d="M610.529,1282.634h20.342v27.123H610.529Z" fill="#f9e478"/>
        <circle id="Elipse_4071" data-name="Elipse 4071" cx="13.562" cy="13.562" r="13.562" transform="translate(637.652 1265.682)" fill="#f1b0b5"/>
        <path id="Trazado_104978" data-name="Trazado 104978" d="M647.823,1284.33v-10.172l10.172,5.086Z" fill="#95f7ff"/>
        <path id="Trazado_104979" data-name="Trazado 104979" d="M656.3,1287.72a13.562,13.562,0,0,1-13.561-13.562,13.393,13.393,0,0,1,1.78-6.7,13.562,13.562,0,1,0,18.562,18.563A13.394,13.394,0,0,1,656.3,1287.72Z" fill="#f17781"/>
        <rect id="Rectángulo_5543" data-name="Rectángulo 5543" width="27.123" height="27.123" rx="3.39" transform="translate(681.727 1267.378)" fill="#2ab9c4"/>
        <path id="Trazado_104980" data-name="Trazado 104980" d="M686.813,1275.854v-8.476h-1.7a3.39,3.39,0,0,0-3.391,3.39v20.342a3.391,3.391,0,0,0,3.391,3.391H705.46a3.39,3.39,0,0,0,3.39-3.391v-1.695h-8.476A13.562,13.562,0,0,1,686.813,1275.854Z" fill="#21949d"/>
        <path id="Trazado_104981" data-name="Trazado 104981" d="M615.615,1294.5v-11.867h-5.086v27.123h20.342v-5.085h-5.085A10.171,10.171,0,0,1,615.615,1294.5Z" fill="#d4c266"/>
        <path id="Trazado_104982" data-name="Trazado 104982" d="M637.758,1335.466l5.872-3.391h0l6.781,11.745a3.391,3.391,0,0,1-5.873,3.39l-6.78-11.744Z" fill="#f17781"/>
        <path id="Trazado_104983" data-name="Trazado 104983" d="M647.925,1339.508l-4.289-7.442-5.882,3.391,4.018,6.95,2.932-1.695Z" fill="#ce666e"/>
        <path id="Trazado_104984" data-name="Trazado 104984" d="M673.675,1326.472,644.7,1337.321l-8.476-14.68,23.886-19.664Z" fill="#f9e478"/>
        <path id="Trazado_104985" data-name="Trazado 104985" d="M628.9,1326.881l7.34-4.238h0l8.476,14.681h0l-7.34,4.238a5.086,5.086,0,0,1-6.947-1.862l-3.39-5.872A5.086,5.086,0,0,1,628.9,1326.881Z" fill="#f17781"/>
        <path id="Trazado_104986" data-name="Trazado 104986" d="M624.086,1335.52l2.936-1.7h0l3.39,5.872h0l-2.936,1.695a3.39,3.39,0,1,1-3.39-5.872Z" fill="#ce666e"/>
        <path id="Trazado_104987" data-name="Trazado 104987" d="M646.671,1332.134a3.622,3.622,0,0,0-.509.237l-3.238,1.865,1.78,3.085,28.971-10.849-2.119-3.662Z" fill="#d4c266"/>
        <path id="Trazado_104988" data-name="Trazado 104988" d="M641.992,1334.779a8.476,8.476,0,0,1-12.646-8.171l-.458.271a5.084,5.084,0,0,0-1.867,6.945l0,.005,3.391,5.866a5.086,5.086,0,0,0,6.945,1.867l.005,0,7.34-4.238-1.78-3.085Z" fill="#ce666e"/>
        <g id="Grupo_56709" data-name="Grupo 56709">
          <path id="Trazado_104989" data-name="Trazado 104989" d="M668.166,1353.833h-3.391V1337.22a1.7,1.7,0,1,0-3.39,0v16.613H617.31v-33.9h14.1a1.7,1.7,0,0,0,0-3.391h-15.8a1.7,1.7,0,0,0-1.7,1.7v35.6h-3.391a1.694,1.694,0,0,0-1.7,1.695v3.39a8.476,8.476,0,0,0,8.476,8.476h44.075a8.476,8.476,0,0,0,8.476-8.476v-3.39A1.694,1.694,0,0,0,668.166,1353.833Zm-1.7,5.085a5.086,5.086,0,0,1-5.086,5.086h-3.39v-1.7a1.7,1.7,0,0,0-3.391,0v1.7H624.091v-1.7a1.7,1.7,0,0,0-3.391,0v1.7h-3.39a5.086,5.086,0,0,1-5.086-5.086v-1.695h54.247Z" fill="#3c3575"/>
          <path id="Trazado_104990" data-name="Trazado 104990" d="M696.984,1275.854h3.39a1.7,1.7,0,1,0,0-3.391h-3.39a5.085,5.085,0,0,0-5.085,5.086v1.7h-1.7a1.7,1.7,0,1,0,0,3.39h1.7v5.086a1.7,1.7,0,1,0,3.39,0v-5.086h1.7a1.7,1.7,0,1,0,0-3.39h-1.7v-1.7A1.7,1.7,0,0,1,696.984,1275.854Z" fill="#3c3575"/>
          <path id="Trazado_104991" data-name="Trazado 104991" d="M705.46,1265.682H685.118a5.086,5.086,0,0,0-5.086,5.086v3.39a1.7,1.7,0,1,0,3.391,0v-3.39a1.7,1.7,0,0,1,1.7-1.695H705.46a1.7,1.7,0,0,1,1.7,1.695v20.342a1.7,1.7,0,0,1-1.7,1.7H685.118a1.694,1.694,0,0,1-1.7-1.7v-10.171a1.7,1.7,0,0,0-3.391,0v10.171a5.086,5.086,0,0,0,5.086,5.086H705.46a5.086,5.086,0,0,0,5.086-5.086v-20.342A5.086,5.086,0,0,0,705.46,1265.682Z" fill="#3c3575"/>
          <path id="Trazado_104992" data-name="Trazado 104992" d="M688.508,1333.49a6.781,6.781,0,1,0,6.781-6.781A6.781,6.781,0,0,0,688.508,1333.49Zm10.171,0a3.39,3.39,0,1,1-3.39-3.39A3.39,3.39,0,0,1,698.679,1333.49Z" fill="#3c3575"/>
          <path id="Trazado_104993" data-name="Trazado 104993" d="M705.46,1318.233H685.118a5.086,5.086,0,0,0-5.086,5.086v20.342a5.086,5.086,0,0,0,5.086,5.086H705.46a5.086,5.086,0,0,0,5.086-5.086v-3.39a1.7,1.7,0,0,0-3.391,0v3.39a1.7,1.7,0,0,1-1.7,1.7H685.118a1.7,1.7,0,0,1-1.7-1.7v-20.342a1.7,1.7,0,0,1,1.7-1.695H705.46a1.7,1.7,0,0,1,1.7,1.695v10.171a1.7,1.7,0,0,0,3.391,0v-10.171A5.086,5.086,0,0,0,705.46,1318.233Z" fill="#3c3575"/>
          <path id="Trazado_104994" data-name="Trazado 104994" d="M646.925,1285.77a1.682,1.682,0,0,0,1.661.068l10.171-5.085a1.7,1.7,0,0,0,0-3.018l-10.171-5.085a1.7,1.7,0,0,0-2.458,1.508v10.172A1.694,1.694,0,0,0,646.925,1285.77Zm2.594-8.865,4.678,2.339-4.678,2.339Z" fill="#3c3575"/>
          <path id="Trazado_104995" data-name="Trazado 104995" d="M651.214,1294.5a15.257,15.257,0,1,0-15.257-15.257A15.257,15.257,0,0,0,651.214,1294.5Zm0-27.123a11.866,11.866,0,1,1-11.867,11.866A11.866,11.866,0,0,1,651.214,1267.378Z" fill="#3c3575"/>
          <path id="Trazado_104996" data-name="Trazado 104996" d="M668.166,1301.281a1.7,1.7,0,0,0,1.356-.678l5.086-6.78a1.7,1.7,0,0,0-2.713-2.035l-5.085,6.781a1.7,1.7,0,0,0,1.356,2.712Z" fill="#3c3575"/>
          <path id="Trazado_104997" data-name="Trazado 104997" d="M671.9,1307.384a1.7,1.7,0,0,0,2.373.339l6.781-5.085a1.7,1.7,0,0,0-2.034-2.713l-6.781,5.086a1.7,1.7,0,0,0-.339,2.373Z" fill="#3c3575"/>
          <path id="Trazado_104998" data-name="Trazado 104998" d="M688.508,1311.114a1.7,1.7,0,0,0-1.968-1.37l-.066.013-8.476,1.7a1.7,1.7,0,1,0,.339,3.39h.339l8.476-1.7a1.694,1.694,0,0,0,1.369-1.968C688.517,1311.158,688.513,1311.136,688.508,1311.114Z" fill="#3c3575"/>
          <path id="Trazado_104999" data-name="Trazado 104999" d="M610.529,1311.453h20.342a1.7,1.7,0,0,0,1.7-1.7v-27.123a1.7,1.7,0,0,0-1.7-1.7H610.529a1.7,1.7,0,0,0-1.7,1.7v27.123A1.7,1.7,0,0,0,610.529,1311.453Zm1.7-27.123h16.952v23.732H612.224Z" fill="#3c3575"/>
          <path id="Trazado_105000" data-name="Trazado 105000" d="M624.091,1287.72H620.7a1.7,1.7,0,1,0,0,3.39h3.391a1.7,1.7,0,1,0,0-3.39Z" fill="#3c3575"/>
          <path id="Trazado_105001" data-name="Trazado 105001" d="M624.091,1294.5H617.31a1.7,1.7,0,1,0,0,3.39h6.781a1.7,1.7,0,1,0,0-3.39Z" fill="#3c3575"/>
          <path id="Trazado_105002" data-name="Trazado 105002" d="M624.091,1301.281H617.31a1.7,1.7,0,0,0,0,3.391h6.781a1.7,1.7,0,0,0,0-3.391Z" fill="#3c3575"/>
          <path id="Trazado_105003" data-name="Trazado 105003" d="M666.674,1310.944a1.7,1.7,0,0,0-2.95,1.7l7.476,12.935-27.123,10.171h-.254l-4.408,2.543-2.932,1.7a3.385,3.385,0,0,1-4.628-1.238l-3.391-5.865a3.39,3.39,0,0,1,1.272-4.475l5.865-3.391,4.238,7.34a1.7,1.7,0,1,0,2.95-1.695l-4.374-7.56,21.275-17.546.7,1.2a1.7,1.7,0,1,0,2.949-1.695l-1.7-2.933a1.716,1.716,0,0,0-2.559-.458l-23.733,19.563-7.222,4.17a6.781,6.781,0,0,0-3.119,7.679l-1.7.967a5.082,5.082,0,0,0,2.543,9.493,5.2,5.2,0,0,0,2.543-.678l1.7-.967a6.566,6.566,0,0,0,2.966,1.763,6.461,6.461,0,0,0,1.78.238,6.692,6.692,0,0,0,3.391-.916l1.474-.847,3.391,5.882a5.081,5.081,0,1,0,8.8-5.081l0-.005-3.085-5.373,25.428-9.544a1.7,1.7,0,0,0,.881-2.424Zm-40.041,28.971a1.694,1.694,0,1,1-1.7-2.933l1.475-.847,1.695,2.932Zm22.309,4.747a1.693,1.693,0,0,1-2.932,1.7l-3.391-5.883,2.814-1.61h.136Z" fill="#3c3575"/>
        </g>
      </g>
    </g>
  </g>
</svg>
