<svg xmlns="http://www.w3.org/2000/svg" width="150" height="150" viewBox="0 0 150 150">
  <g id="Grupo_61516" data-name="Grupo 61516" transform="translate(-325 -4406)">
    <circle id="Elipse_4257" data-name="Elipse 4257" cx="75" cy="75" r="75" transform="translate(325 4406)" fill="#fff"/>
    <g id="Grupo_61479" data-name="Grupo 61479" transform="translate(-22.346 -2800.514)">
      <g id="Grupo_61481" data-name="Grupo 61481">
        <path id="Trazado_110524" data-name="Trazado 110524" d="M394.245,7322.154h-11.26V7312.3a6.951,6.951,0,0,0,4.223,1.407,7.039,7.039,0,0,0,7.037-7.037v-1.407h8.444a28.832,28.832,0,0,1,8.445,20.393v2.126H394.245Z" fill="#c595ff"/>
      </g>
      <g id="Grupo_61482" data-name="Grupo 61482">
        <path id="Trazado_110525" data-name="Trazado 110525" d="M411.134,7277.116H400.072a3.46,3.46,0,0,0-3.435,2.984l-.985,6.868h-.746a3.475,3.475,0,0,0-1.548,6.587l.887.45v12.667a7.039,7.039,0,0,1-7.037,7.037,6.951,6.951,0,0,1-4.223-1.407,6.5,6.5,0,0,1-.76-.648,7.065,7.065,0,0,1-2.055-4.982v-.746A26.564,26.564,0,0,1,382.985,7294a26.558,26.558,0,0,0,2.815-11.921v-4.968a11.257,11.257,0,0,1,11.26-11.26h2.814a11.257,11.257,0,0,1,11.26,11.26Z" fill="#fcd770"/>
      </g>
      <g id="Grupo_61483" data-name="Grupo 61483">
        <path id="Trazado_110526" data-name="Trazado 110526" d="M456.932,7275.061a7.04,7.04,0,0,1-3.575,1.914,6.59,6.59,0,0,1-1.407.141H436.468a2.824,2.824,0,0,1-2.815-2.815v4.222h-1.407a4.191,4.191,0,0,0-2.886,1.14l-1.14-4.6a6.364,6.364,0,0,1,2.66-6.882l1.366-.915a9.523,9.523,0,0,1,7.895-4.223h1.9a9.476,9.476,0,0,1,5.264,1.591l.929.619a4.266,4.266,0,0,1,3.716-2.21,7.046,7.046,0,0,1,4.982,12.02Z" fill="#c595ff"/>
      </g>
      <g id="Grupo_61484" data-name="Grupo 61484">
        <path id="Trazado_110527" data-name="Trazado 110527" d="M444.913,7313.709l2.814,14.075h-8.444l2.815-14.075Z" fill="#fcd770"/>
      </g>
      <g id="Grupo_61485" data-name="Grupo 61485">
        <path id="Trazado_110528" data-name="Trazado 110528" d="M446.7,7309.248l-1.787,4.461H442.1l-1.788-4.461,3.2-3.983Z" fill="#ffc729"/>
      </g>
      <g id="Grupo_61486" data-name="Grupo 61486">
        <path id="Trazado_110529" data-name="Trazado 110529" d="M442.1,7313.709l-2.815,14.075H422.394V7309.6a8.457,8.457,0,0,1,7.051-8.332l7.206-1.2,1.224,12.231,2.435-3.054Z" fill="#c595ff"/>
      </g>
      <g id="Grupo_61487" data-name="Grupo 61487">
        <path id="Trazado_110530" data-name="Trazado 110530" d="M456.172,7327.784h-8.445l-2.814-14.075,1.787-4.461,2.435,3.054,1.224-12.231,7.207,1.2a8.458,8.458,0,0,1,7.051,8.332v18.184Z" fill="#c595ff"/>
      </g>
      <g id="Grupo_61488" data-name="Grupo 61488">
        <path id="Trazado_110531" data-name="Trazado 110531" d="M450.359,7300.071l-1.224,12.231-2.435-3.054-3.2-3.983,4.222-5.63Z" fill="#c595ff"/>
      </g>
      <g id="Grupo_61489" data-name="Grupo 61489">
        <path id="Trazado_110532" data-name="Trazado 110532" d="M439.283,7299.635l4.222,5.63-3.2,3.983-2.435,3.054-1.224-12.231Z" fill="#c595ff"/>
      </g>
      <g id="Grupo_61490" data-name="Grupo 61490">
        <path id="Trazado_110533" data-name="Trazado 110533" d="M430.838,7247.56v8.683a3.989,3.989,0,0,1-3.983,3.984h-1.647v3.645a1.99,1.99,0,0,1-3.392,1.407l-5.052-5.052H406.672a3.989,3.989,0,0,1-3.983-3.984v-8.683a4.217,4.217,0,0,1,4.223-4.223h19.7A4.217,4.217,0,0,1,430.838,7247.56Z" fill="#e6e9ed"/>
      </g>
      <g id="Grupo_61491" data-name="Grupo 61491">
        <path id="Trazado_110534" data-name="Trazado 110534" d="M382.985,7322.154h11.26v5.63h-11.26Z" fill="#f0d0b4"/>
      </g>
      <g id="Grupo_61492" data-name="Grupo 61492">
        <path id="Trazado_110535" data-name="Trazado 110535" d="M453.357,7285.56v-7.037h1.408a4.222,4.222,0,0,1,0,8.445h-1.52a7.848,7.848,0,0,0,.112-1.408Z" fill="#f0d0b4"/>
      </g>
      <g id="Grupo_61493" data-name="Grupo 61493">
        <path id="Trazado_110536" data-name="Trazado 110536" d="M447.727,7294.47v5.165l-4.222,5.63-4.222-5.63v-5.18a9.782,9.782,0,0,0,8.444,0Z" fill="#f0d0b4"/>
      </g>
      <g id="Grupo_61494" data-name="Grupo 61494">
        <path id="Trazado_110537" data-name="Trazado 110537" d="M433.653,7285.56a7.76,7.76,0,0,0,.113,1.408h-1.52a4.222,4.222,0,1,1,0-8.445h1.407Z" fill="#f0d0b4"/>
      </g>
      <g id="Grupo_61495" data-name="Grupo 61495">
        <path id="Trazado_110538" data-name="Trazado 110538" d="M453.357,7278.523v7.037a7.848,7.848,0,0,1-.112,1.408,9.785,9.785,0,0,1-5.518,7.487,9.826,9.826,0,0,1-13.961-7.487,7.76,7.76,0,0,1-.113-1.408V7274.3a2.824,2.824,0,0,0,2.815,2.815H451.95a6.59,6.59,0,0,0,1.407-.141Z" fill="#f0d0b4"/>
      </g>
      <g id="Grupo_61496" data-name="Grupo 61496">
        <path id="Trazado_110539" data-name="Trazado 110539" d="M402.689,7299.635v5.63h-8.444V7294l-.887-.45a3.475,3.475,0,0,1,1.548-6.587h.746l.985-6.868a3.46,3.46,0,0,1,3.435-2.984h11.062s2.815,8.444,2.815,12.667l-4.222,1.407v4.757a3.676,3.676,0,0,1-2.041,3.294,3.52,3.52,0,0,1-1.647.394Z" fill="#f0d0b4"/>
      </g>
      <g id="Grupo_61497" data-name="Grupo 61497">
        <path id="Trazado_110540" data-name="Trazado 110540" d="M457.791,7299.885l-8.656-1.442V7295.3a11.287,11.287,0,0,0,5.26-6.922h.37a5.616,5.616,0,0,0,1.478-11.037,8.436,8.436,0,0,0-4.293-15.7,5.6,5.6,0,0,0-4.044,1.73,10.838,10.838,0,0,0-5.865-1.73h-1.9a10.861,10.861,0,0,0-8.895,4.609l-1.142.76a7.821,7.821,0,0,0-3.249,8.406l.973,3.894a5.6,5.6,0,0,0,4.423,9.072h.37a11.292,11.292,0,0,0,5.259,6.922v3.147l-8.655,1.441a9.822,9.822,0,0,0-8.234,9.719v19.587h45.038V7309.6A9.822,9.822,0,0,0,457.791,7299.885Zm-19.12,1.28,3.054,4.073-2.793,3.49-.748-7.483Zm4.581,13.952h.508l2.252,11.259H441Zm.708-2.815h-.909l-1.125-2.811,1.579-1.974,1.579,1.973Zm1.326-7.066,3.054-4.073.487.082-.749,7.483Zm12.294-22.49a2.818,2.818,0,0,1-2.815,2.814v-5.629A2.818,2.818,0,0,1,457.58,7282.746Zm-25.92-13.4,1.6-1.067.157-.235a8.057,8.057,0,0,1,6.717-3.6h1.906a8.054,8.054,0,0,1,4.48,1.356l.013.008a5.557,5.557,0,0,0,5.417,7.082h2.815v-2.814H451.95a2.815,2.815,0,1,1,0-5.63,5.629,5.629,0,1,1,0,11.259H436.468a1.407,1.407,0,0,1,0-2.815h1.407v-2.814h-1.407a4.227,4.227,0,0,0-4.222,4.222v2.815a5.557,5.557,0,0,0-1.975.376l-.691-2.765a5.013,5.013,0,0,1,2.08-5.382Zm-2.229,13.4a2.817,2.817,0,0,1,2.815-2.815v5.629A2.817,2.817,0,0,1,429.431,7282.746Zm5.63,2.814v-7.3a4.168,4.168,0,0,0,1.407.259H451.95v7.037a8.445,8.445,0,1,1-16.889,0Zm8.444,11.26a11.225,11.225,0,0,0,2.815-.37v2.718l-2.815,3.752-2.815-3.752v-2.718A11.225,11.225,0,0,0,443.505,7296.82ZM423.8,7309.6a7.017,7.017,0,0,1,5.88-6.943l5.72-.953,1.417,14.167,3.087-3.857.73,1.826-2.506,12.532h-5.883v-15.482h-2.815v15.482H423.8Zm39.408,16.772H457.58v-15.482h-2.815v15.482h-5.883l-2.507-12.533.73-1.827,3.087,3.858,1.417-14.167,5.72.952a7.02,7.02,0,0,1,5.88,6.945Z" fill="#855db5"/>
        <path id="Trazado_110541" data-name="Trazado 110541" d="M447.727,7286.968h-2.814a1.408,1.408,0,0,1-2.815,0h-2.815a4.222,4.222,0,1,0,8.444,0Z" fill="#855db5"/>
        <path id="Trazado_110542" data-name="Trazado 110542" d="M399.874,7264.449H397.06a12.681,12.681,0,0,0-12.667,12.667v4.965a25.379,25.379,0,0,1-2.667,11.295,28.234,28.234,0,0,0-2.963,12.553v.743a8.419,8.419,0,0,0,2.815,6.277v16.242h30.963v-3.54a30.012,30.012,0,0,0-8.444-20.927v-3.682h1.945a5.118,5.118,0,0,0,2.277-.537,5.066,5.066,0,0,0,2.815-4.555v-3.745l4.222-1.407v-1.015c0-4.106-2.409-11.652-2.829-12.932A12.674,12.674,0,0,0,399.874,7264.449Zm-18.3,41.48a25.363,25.363,0,0,1,2.667-11.293,28.263,28.263,0,0,0,2.963-12.555v-4.965a9.863,9.863,0,0,1,9.852-9.852h2.814a9.859,9.859,0,0,1,9.74,8.444h-9.537a4.915,4.915,0,0,0-4.839,4.2l-.81,5.68a4.887,4.887,0,0,0-1.7,9.235l.112.056v11.8a5.63,5.63,0,1,1-11.259,0Zm2.815,17.632h8.444v2.815h-8.444Zm25.334,2.815H395.652v-11.259h-2.815v5.629h-8.444v-6.122a8.42,8.42,0,0,0,11.259-7.952H402.1a27.241,27.241,0,0,1,7.629,18.979Zm-1.408-36.2v5.775a2.278,2.278,0,0,1-2.277,2.277h-7.575v2.815h2.815v2.815h-5.63v-10.722l-1.67-.834a2.072,2.072,0,0,1,.927-3.926h1.965l1.154-8.073a2.08,2.08,0,0,1,2.051-1.779h10.029a59.061,59.061,0,0,1,2.387,10.26Z" fill="#855db5"/>
        <circle id="Elipse_4259" data-name="Elipse 4259" cx="1.407" cy="1.407" r="1.407" transform="translate(404.097 7282.746)" fill="#855db5"/>
        <path id="Trazado_110543" data-name="Trazado 110543" d="M406.912,7247.56h19.7v2.814h-19.7Z" fill="#855db5"/>
        <path id="Trazado_110544" data-name="Trazado 110544" d="M406.912,7253.189h14.074V7256H406.912Z" fill="#855db5"/>
        <path id="Trazado_110545" data-name="Trazado 110545" d="M423.8,7253.189h2.815V7256H423.8Z" fill="#855db5"/>
        <path id="Trazado_110546" data-name="Trazado 110546" d="M426.616,7263.866v-2.232h.234a5.4,5.4,0,0,0,5.4-5.4v-8.678a5.636,5.636,0,0,0-5.63-5.63h-19.7a5.635,5.635,0,0,0-5.63,5.63v8.678a5.4,5.4,0,0,0,5.4,5.4h9.5l4.633,4.633a3.4,3.4,0,0,0,5.8-2.4Zm-3.81.413-5.46-5.46H406.678a2.583,2.583,0,0,1-2.581-2.581v-8.678a2.817,2.817,0,0,1,2.815-2.815h19.7a2.818,2.818,0,0,1,2.815,2.815v8.678a2.583,2.583,0,0,1-2.581,2.581H423.8v5.047A.606.606,0,0,1,422.806,7264.279Z" fill="#855db5"/>
      </g>
      <rect id="Rectángulo_5525" data-name="Rectángulo 5525" width="102" height="102" transform="translate(371.346 7234.513)" fill="none"/>
    </g>
  </g>
</svg>
