<svg xmlns="http://www.w3.org/2000/svg" width="150" height="150" viewBox="0 0 150 150">
  <g id="Grupo_61517" data-name="Grupo 61517" transform="translate(-325 -4689)">
    <circle id="Elipse_4258" data-name="Elipse 4258" cx="75" cy="75" r="75" transform="translate(325 4689)" fill="#fff"/>
    <g id="Grupo_61479" data-name="Grupo 61479" transform="translate(-170.529 -2517.514)">
      <g id="Grupo_61498" data-name="Grupo 61498">
        <path id="Trazado_110547" data-name="Trazado 110547" d="M598.487,7285.33c0-.049,0-.1,0-.147q-.006-1.1-.023-2.205-.094-7.484-.482-14.965V7268q-.354-6.933-.958-13.874a4.633,4.633,0,0,0-.282-1.242,4.683,4.683,0,0,0-3.407-2.94,4.355,4.355,0,0,0-.461-.075c-.273-.031-.545-.06-.819-.088q-.954-.106-1.905-.2a264.622,264.622,0,0,0-41.722-.912l-1.707,1.737-15.937,16.2-1.727,1.757a391.348,391.348,0,0,0,.975,53.653,4.708,4.708,0,0,0,4.177,4.263q12.567,1.393,25.134,1.589a1.281,1.281,0,0,0-1.255-1.3c-7.87-.163-15.857-.688-23.739-1.562a3.429,3.429,0,0,1-3.039-3.1,391.61,391.61,0,0,1-1.028-52.256h.08c4.437,0,8.92-.19,13.342-.567a5.954,5.954,0,0,0,5.45-5.437c.388-4.56.574-9.184.562-13.766a264.672,264.672,0,0,1,40.085.954c.309.029.619.06.928.092-.333,9.531-.287,19.124.144,28.638q.078,1.742.175,3.477a1.261,1.261,0,0,0,.051.283h0a29.237,29.237,0,0,0,6.07,10.735c-.14,9.212-.617,18.579-1.421,27.847a3.427,3.427,0,0,1-3.04,3.1,265.078,265.078,0,0,1-29.515,1.616h0a1.283,1.283,0,0,0-1.283,1.276,265.086,265.086,0,0,0,30.942-1.616,4.707,4.707,0,0,0,4.177-4.261q1.236-14.235,1.435-28.468v0c.011-.626.017-1.254.022-1.88,0-.138,0-.277,0-.417,0-.387.007-.775.009-1.163v-.14c0-.431,0-.862,0-1.294q0-1.666-.009-3.33Zm-11.108-3.727H555.494a1.283,1.283,0,1,0,0,2.566h31.885a1.283,1.283,0,1,0,0-2.566Zm0,15.887H555.494a1.283,1.283,0,1,0,0,2.566h31.885a1.283,1.283,0,1,0,0-2.566Zm0,15.887H555.494a1.284,1.284,0,1,0,0,2.568h31.885a1.284,1.284,0,0,0,0-2.568Zm-1.744-56.325H579.7a1.283,1.283,0,0,0,0,2.566h1.671v9.462a1.283,1.283,0,0,0,2.566,0v-9.462h1.7a1.283,1.283,0,0,0,0-2.566Zm-10.8,5.537c-1.329-.491-2.567-1.025-2.937-1.187a.806.806,0,0,1-.29-.76,1.138,1.138,0,0,1,.9-.91,3.647,3.647,0,0,1,3.014.695,1.282,1.282,0,0,0,1.643-1.969,6.192,6.192,0,0,0-5.4-1.182,3.722,3.722,0,0,0-2.7,3,3.358,3.358,0,0,0,1.5,3.322,1.245,1.245,0,0,0,.178.1c.063.028,1.541.684,3.2,1.3.486.179,1.6.687,1.447,1.53a1.871,1.871,0,0,1-1.936,1.271,3.8,3.8,0,0,1-2.793-1.171,1.284,1.284,0,0,0-1.9,1.724,6.409,6.409,0,0,0,4.695,2.013,4.372,4.372,0,0,0,4.463-3.385c.264-1.474-.409-3.4-3.086-4.389Zm-.7,14.3H555.494a1.283,1.283,0,1,0,0,2.566H574.13a1.283,1.283,0,0,0,0-2.566Zm0,15.888H555.494a1.282,1.282,0,1,0,0,2.565H574.13a1.282,1.282,0,0,0,0-2.565Zm0,15.887H555.494a1.282,1.282,0,1,0,0,2.565H574.13a1.282,1.282,0,0,0,0-2.565Zm-8.242-40.863h-3.2v-2.757h2.872a1.283,1.283,0,0,0,0-2.566h-2.872v-2.757h3.2a1.284,1.284,0,0,0,0-2.568H561.4a1.284,1.284,0,0,0-1.283,1.285v10.646a1.282,1.282,0,0,0,1.283,1.283h4.486a1.283,1.283,0,1,0,0-2.566Zm-8.27-10.745h-5.934a1.283,1.283,0,0,0,0,2.566h1.671v9.462a1.284,1.284,0,0,0,2.568,0v-9.462h1.7a1.283,1.283,0,0,0,0-2.566Zm-5.717,20.29a3.384,3.384,0,0,0-3.126-3.127,46.055,46.055,0,0,0-6.369,0,3.384,3.384,0,0,0-3.126,3.127,45.749,45.749,0,0,0,0,6.37,3.383,3.383,0,0,0,3.126,3.125c1.056.074,2.12.111,3.184.111s2.129-.037,3.185-.111a3.383,3.383,0,0,0,3.126-3.125,45.749,45.749,0,0,0,0-6.37Zm0,15.887a3.382,3.382,0,0,0-3.126-3.125,45.453,45.453,0,0,0-6.369,0,3.382,3.382,0,0,0-3.126,3.125,45.749,45.749,0,0,0,0,6.37,3.386,3.386,0,0,0,3.126,3.127c1.056.074,2.12.11,3.184.11s2.129-.036,3.185-.11a3.386,3.386,0,0,0,3.126-3.127A45.749,45.749,0,0,0,551.9,7293.229Zm0,15.889a3.384,3.384,0,0,0-3.126-3.127,46.069,46.069,0,0,0-6.37,0,3.384,3.384,0,0,0-3.125,3.127,45.714,45.714,0,0,0,0,6.368,3.383,3.383,0,0,0,3.125,3.127c1.057.074,2.121.111,3.185.111s2.128-.037,3.185-.111a3.384,3.384,0,0,0,3.126-3.127A45.714,45.714,0,0,0,551.9,7309.118Z" fill="#ecf4ff"/>
        <path id="Trazado_110548" data-name="Trazado 110548" d="M591.094,7283.331h0a1.261,1.261,0,0,1-.051-.283q-.1-1.737-.175-3.477c-.431-9.514-.477-19.107-.144-28.638q-.464-.048-.929-.092a264.656,264.656,0,0,0-40.084-.954c.012,4.582-.174,9.206-.563,13.766a5.953,5.953,0,0,1-5.449,5.437c-4.422.377-8.905.567-13.342.567h-.08a391.785,391.785,0,0,0,1.028,52.256,3.43,3.43,0,0,0,3.039,3.1c7.882.874,15.869,1.4,23.739,1.562a1.281,1.281,0,0,1,1.255,1.3q1.281.023,2.563.027a1.283,1.283,0,0,1,1.282-1.276h0a265.078,265.078,0,0,0,29.515-1.616,3.426,3.426,0,0,0,3.04-3.1c.8-9.268,1.281-18.634,1.421-27.847a29.263,29.263,0,0,1-6.071-10.735ZM579.7,7257.052h5.933a1.283,1.283,0,0,1,0,2.566h-1.7v9.462a1.283,1.283,0,0,1-2.566,0v-9.462H579.7a1.283,1.283,0,0,1,0-2.566Zm-10.85,9.485a1.283,1.283,0,0,1,1.813.089,3.8,3.8,0,0,0,2.793,1.171,1.873,1.873,0,0,0,1.937-1.271c.15-.843-.962-1.351-1.447-1.53-1.665-.615-3.143-1.271-3.206-1.3a1.36,1.36,0,0,1-.178-.1,3.36,3.36,0,0,1-1.5-3.322,3.722,3.722,0,0,1,2.7-3,6.2,6.2,0,0,1,5.4,1.182,1.282,1.282,0,0,1-1.644,1.969,3.647,3.647,0,0,0-3.014-.695,1.138,1.138,0,0,0-.9.91.8.8,0,0,0,.291.76c.369.162,1.607.7,2.937,1.187,2.676.987,3.349,2.915,3.085,4.389a4.37,4.37,0,0,1-4.462,3.385,6.413,6.413,0,0,1-4.7-2.013,1.284,1.284,0,0,1,.089-1.813Zm6.561,11.631a1.282,1.282,0,0,1-1.282,1.283H555.494a1.283,1.283,0,1,1,0-2.566H574.13A1.281,1.281,0,0,1,575.412,7278.168Zm-15.293-19.734a1.284,1.284,0,0,1,1.283-1.285h4.486a1.284,1.284,0,0,1,0,2.568h-3.2v2.757h2.872a1.283,1.283,0,0,1,0,2.566h-2.872v2.757h3.2a1.283,1.283,0,1,1,0,2.566H561.4a1.282,1.282,0,0,1-1.283-1.283Zm-8.218,57.052a3.383,3.383,0,0,1-3.126,3.127c-1.057.074-2.121.111-3.185.111s-2.128-.037-3.185-.111a3.383,3.383,0,0,1-3.125-3.127,45.714,45.714,0,0,1,0-6.368,3.382,3.382,0,0,1,3.125-3.126,45.766,45.766,0,0,1,6.37,0,3.383,3.383,0,0,1,3.126,3.126A45.714,45.714,0,0,1,551.9,7315.486Zm0-15.887a3.386,3.386,0,0,1-3.126,3.127c-1.056.074-2.12.11-3.185.11s-2.128-.036-3.184-.11a3.386,3.386,0,0,1-3.126-3.127,45.749,45.749,0,0,1,0-6.37,3.382,3.382,0,0,1,3.126-3.125,45.453,45.453,0,0,1,6.369,0,3.382,3.382,0,0,1,3.126,3.125A45.749,45.749,0,0,1,551.9,7299.6Zm0-15.887a3.383,3.383,0,0,1-3.126,3.125c-1.056.074-2.12.111-3.185.111s-2.128-.037-3.184-.111a3.383,3.383,0,0,1-3.126-3.125,45.749,45.749,0,0,1,0-6.37,3.384,3.384,0,0,1,3.126-3.127,46.055,46.055,0,0,1,6.369,0,3.384,3.384,0,0,1,3.126,3.127,45.749,45.749,0,0,1,0,6.37Zm1.454-14.632v-9.462h-1.671a1.283,1.283,0,0,1,0-2.566h5.934a1.283,1.283,0,0,1,0,2.566h-1.7v9.462a1.284,1.284,0,0,1-2.568,0Zm34.024,46.865H555.494a1.284,1.284,0,1,1,0-2.568h31.885a1.284,1.284,0,0,1,0,2.568Zm-33.17-6a1.283,1.283,0,0,1,1.285-1.283H574.13a1.282,1.282,0,0,1,0,2.565H555.494a1.284,1.284,0,0,1-1.285-1.282Zm33.17-9.887H555.494a1.283,1.283,0,1,1,0-2.566h31.885a1.283,1.283,0,1,1,0,2.566Zm-33.17-6a1.284,1.284,0,0,1,1.285-1.282H574.13a1.282,1.282,0,0,1,0,2.565H555.494a1.283,1.283,0,0,1-1.285-1.283Zm33.17-9.886H555.494a1.283,1.283,0,1,1,0-2.566h31.885a1.283,1.283,0,1,1,0,2.566Z" fill="#ecf4ff"/>
        <path id="Trazado_110549" data-name="Trazado 110549" d="M543.594,7267.813q-7.269.618-14.538.555c.3-6.016,13.356-19.356,19.371-19.7q.078,7.438-.553,14.875A4.692,4.692,0,0,1,543.594,7267.813Z" fill="#ddeafb"/>
      </g>
      <path id="Trazado_110550" data-name="Trazado 110550" d="M611.958,7282.978l0,0a29.2,29.2,0,0,1-3.623,7.492c-.094.138-.192.278-.289.417s-.2.277-.3.415-.207.278-.315.415-.215.275-.326.41-.224.272-.341.407c-.241.282-.492.561-.756.835-.1.108-.207.215-.313.322l-.046.046c-.058.058-.116.114-.176.171-.275.268-.563.528-.86.78l-.286.238c-.293.237-.594.465-.907.684-.1.07-.2.138-.3.205q-.315.21-.641.4l-.147.087c-.06.036-.122.07-.183.1-.062-.034-.124-.068-.183-.1l-.147-.087q-.165-.1-.324-.2c-.1-.065-.208-.131-.311-.2l-.007-.005c-.1-.067-.2-.135-.3-.205-.313-.219-.614-.447-.906-.684-.1-.079-.192-.158-.286-.238-.055-.045-.108-.091-.161-.137-.144-.125-.286-.253-.424-.381l-.175-.165c-.034-.032-.068-.063-.1-.1s-.076-.074-.114-.111-.072-.07-.108-.106-.092-.092-.137-.139v0c-.063-.061-.125-.124-.184-.188l-.091-.1c-.07-.072-.139-.146-.2-.219a.241.241,0,0,1-.025-.026c-.037-.039-.073-.08-.109-.121a.829.829,0,0,1-.069-.079c-.058-.061-.112-.123-.165-.186-.009-.009-.016-.018-.023-.026-.053-.06-.106-.121-.155-.183s-.091-.1-.132-.157a.729.729,0,0,1-.058-.072c-.045-.053-.088-.1-.129-.157a.146.146,0,0,1-.02-.025c-.051-.061-.1-.123-.147-.184a.178.178,0,0,1-.026-.034c-.022-.026-.043-.054-.063-.079a.657.657,0,0,1-.041-.055c-.067-.084-.132-.167-.193-.253-.041-.053-.082-.108-.12-.161-.067-.089-.133-.179-.2-.27l-.007-.008c-.049-.069-.1-.137-.143-.2-.07-.1-.139-.2-.205-.3-.161-.236-.315-.47-.462-.7-.062-.1-.122-.192-.18-.286-.157-.255-.308-.508-.45-.758-.066-.113-.13-.228-.193-.34q-.351-.635-.647-1.23l-.061-.125c-.187-.378-.354-.74-.507-1.083-.034-.077-.068-.152-.1-.225-.06-.139-.118-.276-.174-.407-.029-.072-.06-.144-.087-.214-.25-.611-.435-1.121-.562-1.488-.006-.024-.015-.047-.022-.067-.037-.113-.07-.211-.1-.291-.006-.024-.013-.046-.02-.067s-.01-.029-.014-.042l-.01-.033-.017-.053c0-.015-.009-.029-.012-.039l-.011-.04v0h19.63Z" fill="#ffddce"/>
      <path id="Trazado_110551" data-name="Trazado 110551" d="M602.142,7296.414c-7.115-3.986-9.815-13.435-9.815-13.435h5.762c.346,2.344,1.5,8.96,4.053,13.435Z" fill="#ffcbbe"/>
      <g id="Grupo_61499" data-name="Grupo 61499">
        <path id="Trazado_110552" data-name="Trazado 110552" d="M611.958,7282.978l0,0a19.577,19.577,0,0,1-3.8,5.364c-.222.212-.449.415-.679.6a10.53,10.53,0,0,1-1.483,1.034,7.917,7.917,0,0,1-2.914,1.013,7.065,7.065,0,0,1-1.868,0,7.312,7.312,0,0,1-1.427-.337h0a8.411,8.411,0,0,1-1.288-.566c-.066-.036-.131-.072-.2-.111a10.522,10.522,0,0,1-1.481-1.032q-.347-.287-.683-.607a19.59,19.59,0,0,1-3.8-5.362v0a30.836,30.836,0,0,1-1.456-3.407c-.431-9.514-.477-19.107-.144-28.638q-.464-.048-.929-.092c.11-.426.226-.847.349-1.259s.253-.838.389-1.247q.16-.492.337-.97a30.989,30.989,0,0,1,1.454-3.4,46.193,46.193,0,0,1,5.824-.9q-.22,12.467-.171,24.932v.014q.387,7.482.482,14.965Z" fill="#c595ff"/>
        <path id="Trazado_110553" data-name="Trazado 110553" d="M604.869,7282.674a43.791,43.791,0,0,1-5.453,0c-.21-12.749-.21-25.656,0-38.407a44.171,44.171,0,0,1,5.453,0C605.081,7257.018,605.081,7269.925,604.869,7282.674Z" fill="#c595ff"/>
        <path id="Trazado_110554" data-name="Trazado 110554" d="M612.394,7253.207v2.5a1.28,1.28,0,0,0-1.239,1.3c.153,8.255.009,16.63-.425,24.909-1.095.215-2.192.386-3.291.52.207-12.6.207-25.345,0-37.945q1.65.2,3.291.52c.119,2.292.22,4.626.3,6.952a1.28,1.28,0,0,0,1.326,1.24l.043,0Z" fill="#c595ff"/>
      </g>
      <path id="Trazado_110555" data-name="Trazado 110555" d="M598.144,7283.336c0,.178,0,.357.008.535a46.36,46.36,0,0,1-5.824-.893q-.921-16.6-.274-33.2.113-2.907.274-5.817a46.193,46.193,0,0,1,5.824-.9q-.22,12.467-.171,24.932v.014q.028,7.483.156,14.965c0,.118,0,.236.007.354v0Z" fill="#a271dc"/>
      <path id="Trazado_110556" data-name="Trazado 110556" d="M608.333,7290.473a18.818,18.818,0,0,1-6.19,5.941,18.812,18.812,0,0,1-6.191-5.941,22.357,22.357,0,0,1,3.585-.648,25.967,25.967,0,0,1,2.606-.129,24.011,24.011,0,0,1,6.19.777Z" fill="#dcbfff"/>
      <path id="Trazado_110557" data-name="Trazado 110557" d="M602.142,7296.414a18.818,18.818,0,0,1-6.19-5.941,22.357,22.357,0,0,1,3.585-.648A30.12,30.12,0,0,0,602.142,7296.414Z" fill="#c595ff"/>
      <g id="Grupo_61500" data-name="Grupo 61500">
        <path id="Trazado_110558" data-name="Trazado 110558" d="M599.782,7290.66h0l.006.014.02.072c.007.022.014.046.021.07.027.089.056.178.083.267h0c.428-.041.86-.071,1.3-.086a7.312,7.312,0,0,1-1.427-.337Zm0,0h0l.006.014.02.072c.007.022.014.046.021.07.027.089.056.178.083.267h0c.428-.041.86-.071,1.3-.086a7.312,7.312,0,0,1-1.427-.337Zm13.457-46.767a1.282,1.282,0,0,0-1.008-1.182c-.357-.079-.716-.152-1.074-.221a29.24,29.24,0,0,1,2.256,4.875C613.36,7246.2,613.3,7245.039,613.239,7243.893Zm-13.457,46.767h0l.006.014.02.072c.007.022.014.046.021.07.027.089.056.178.083.267h0c.428-.041.86-.071,1.3-.086a7.312,7.312,0,0,1-1.427-.337Zm13.633-11.087a31.387,31.387,0,0,1-1.457,3.4H598.463q-.094-7.484-.482-14.965V7268q-.051-12.467.171-24.932a46.221,46.221,0,0,0-5.824.9q.386-.766.8-1.473c-.359.069-.718.142-1.076.221a1.276,1.276,0,0,0-1.007,1.182q-.1,1.734-.173,3.472c-.016.332-.031.666-.045,1l-.292-.029a267.433,267.433,0,0,0-42.182-.948v0h0a13.258,13.258,0,0,0-6.163,2.592,42.8,42.8,0,0,0-6.507,5.511c-3.693,3.763-7.7,9.091-7.908,12.784l0,.028a394.271,394.271,0,0,0,.979,53.831,6,6,0,0,0,5.313,5.424c7.957.883,16.022,1.413,23.968,1.576a.155.155,0,0,0,.027,0,1.281,1.281,0,0,0,1.281-1.257v0a1.281,1.281,0,0,0-1.255-1.3c-7.87-.163-15.857-.688-23.739-1.562a3.429,3.429,0,0,1-3.039-3.1,391.785,391.785,0,0,1-1.028-52.256h.08c4.437,0,8.92-.19,13.342-.567a5.954,5.954,0,0,0,5.45-5.437c.388-4.56.574-9.184.562-13.766a264.672,264.672,0,0,1,40.085.954c.309.029.619.06.928.092-.333,9.531-.287,19.124.144,28.638q.078,1.742.175,3.477a1.261,1.261,0,0,0,.051.283h0a29.237,29.237,0,0,0,6.07,10.735c-.14,9.212-.617,18.579-1.421,27.847a3.427,3.427,0,0,1-3.04,3.1,265.078,265.078,0,0,1-29.515,1.616h0a1.284,1.284,0,0,0-1.283,1.276v.006a1.283,1.283,0,0,0,1.282,1.284h.4a267.621,267.621,0,0,0,29.4-1.632,6,6,0,0,0,5.315-5.425c.744-8.579,1.207-17.241,1.389-25.792a16.283,16.283,0,0,0,1.827,1.193,1.3,1.3,0,0,0,1.253,0c7.491-4.2,10.306-13.8,10.422-14.2l-.005,0a1.25,1.25,0,0,0,.052-.281q.094-1.734.176-3.475Zm-14.929,5.61c1.217.1,2.439.145,3.657.145a46.906,46.906,0,0,0,7.837-.663,29.286,29.286,0,0,1-1.827,3.681c-.128.219-.263.441-.4.663-.093-.02-.183-.041-.276-.059a25.794,25.794,0,0,0-5.33-.538,26.836,26.836,0,0,0-2.94.161q-.357.039-.708.087c-.573.079-1.136.176-1.683.291-.093.019-.185.039-.277.06q-.211-.336-.406-.667a29.935,29.935,0,0,1-1.825-3.679q2.073.351,4.155.516a.116.116,0,0,0,.026,0Zm2.536,8.948a17.335,17.335,0,0,1-2.541-2.457c-.105-.121-.207-.244-.308-.369.1-.017.207-.034.311-.048.467-.074.944-.132,1.426-.174h0c.428-.041.861-.071,1.3-.086q.467-.018.936-.019c.311,0,.622,0,.932.019a23.7,23.7,0,0,1,3.036.308,16.713,16.713,0,0,1-3.97,3.616C601.754,7294.675,601.382,7294.41,601.022,7294.131Zm-7.466-49.113q1.641-.319,3.291-.52-.069,4.184-.106,8.385c-.091,9.851-.055,19.75.106,29.56q-1.65-.2-3.291-.52c-.558-10.611-.631-21.339-.222-31.98Q593.426,7247.477,593.556,7245.018Zm-46.4,5.226c0,4.393-.186,8.823-.558,13.192a3.4,3.4,0,0,1-3.109,3.1c-4.266.363-8.59.549-12.874.556.052-.156.108-.315.171-.479.974-2.508,3.457-5.985,6.731-9.322s6.724-5.89,9.206-6.883c.147-.062.293-.115.433-.163Zm52.629,40.416h0l.006.014.02.072c.007.022.014.046.021.07.027.089.056.178.083.267h0c.428-.041.86-.071,1.3-.086a7.312,7.312,0,0,1-1.427-.337Zm0,0h0l.006.014.02.072c.007.022.014.046.021.07.027.089.056.178.083.267h0c.428-.041.86-.071,1.3-.086a7.312,7.312,0,0,1-1.427-.337Zm0,0h0l.006.014.02.072c.007.022.014.046.021.07.027.089.056.178.083.267h0c.428-.041.86-.071,1.3-.086a7.312,7.312,0,0,1-1.427-.337Z" fill="#855db5"/>
        <path id="Trazado_110559" data-name="Trazado 110559" d="M613.721,7256.968a1.29,1.29,0,0,0-1.307-1.259.073.073,0,0,0-.02,0,1.28,1.28,0,0,0-1.239,1.3c.153,8.255.009,16.63-.425,24.909-1.095.215-2.192.386-3.291.52.207-12.6.207-25.345,0-37.945q1.65.2,3.291.52c.119,2.292.22,4.626.3,6.952a1.28,1.28,0,0,0,1.326,1.24l.043,0a1.267,1.267,0,0,0,.664-.238,1.283,1.283,0,0,0,.533-1.083c-.049-1.509-.109-3.021-.178-4.521a29.24,29.24,0,0,0-2.256-4.875,46.715,46.715,0,0,0-18.027,0q-.415.706-.8,1.473a46.221,46.221,0,0,1,5.824-.9q-.22,12.467-.171,24.932v.014q.387,7.482.482,14.965h13.495a31.594,31.594,0,0,0,1.457-3.4c.34-7.527.445-15.115.306-22.605Zm-8.852,25.706a43.791,43.791,0,0,1-5.453,0c-.21-12.749-.21-25.656,0-38.407a44.171,44.171,0,0,1,5.453,0C605.081,7257.018,605.081,7269.925,604.869,7282.674Z" fill="#855db5"/>
        <path id="Trazado_110560" data-name="Trazado 110560" d="M551.9,7277.342a3.384,3.384,0,0,0-3.126-3.127,46.055,46.055,0,0,0-6.369,0,3.384,3.384,0,0,0-3.126,3.127,45.749,45.749,0,0,0,0,6.37,3.383,3.383,0,0,0,3.126,3.125c1.056.074,2.12.111,3.184.111s2.129-.037,3.185-.111a3.383,3.383,0,0,0,3.126-3.125A45.749,45.749,0,0,0,551.9,7277.342Zm-2.56,6.19a.806.806,0,0,1-.744.746,43.355,43.355,0,0,1-6.013,0,.809.809,0,0,1-.746-.746,43.679,43.679,0,0,1,0-6.01.808.808,0,0,1,.746-.746c1-.07,2-.1,3.006-.1s2.01.035,3.007.1a.8.8,0,0,1,.744.744A43.08,43.08,0,0,1,549.341,7283.532Z" fill="#855db5"/>
        <path id="Trazado_110561" data-name="Trazado 110561" d="M588.662,7282.886a1.283,1.283,0,0,1-1.283,1.283H555.494a1.283,1.283,0,1,1,0-2.566h31.885A1.284,1.284,0,0,1,588.662,7282.886Z" fill="#855db5"/>
        <path id="Trazado_110562" data-name="Trazado 110562" d="M575.412,7278.168a1.282,1.282,0,0,1-1.282,1.283H555.494a1.283,1.283,0,1,1,0-2.566H574.13A1.281,1.281,0,0,1,575.412,7278.168Z" fill="#855db5"/>
        <path id="Trazado_110563" data-name="Trazado 110563" d="M551.9,7293.229a3.382,3.382,0,0,0-3.126-3.125,45.453,45.453,0,0,0-6.369,0,3.382,3.382,0,0,0-3.126,3.125,45.749,45.749,0,0,0,0,6.37,3.386,3.386,0,0,0,3.126,3.127c1.056.074,2.12.11,3.184.11s2.129-.036,3.185-.11a3.386,3.386,0,0,0,3.126-3.127A45.749,45.749,0,0,0,551.9,7293.229Zm-2.56,6.191a.806.806,0,0,1-.744.745,43.355,43.355,0,0,1-6.013,0,.809.809,0,0,1-.746-.745,43.686,43.686,0,0,1,0-6.011.81.81,0,0,1,.746-.746c1-.07,2-.1,3.006-.1s2.01.034,3.007.1a.806.806,0,0,1,.744.746A43.059,43.059,0,0,1,549.341,7299.42Z" fill="#855db5"/>
        <path id="Trazado_110564" data-name="Trazado 110564" d="M588.662,7298.773a1.282,1.282,0,0,1-1.283,1.283H555.494a1.283,1.283,0,1,1,0-2.566h31.885A1.283,1.283,0,0,1,588.662,7298.773Z" fill="#855db5"/>
        <path id="Trazado_110565" data-name="Trazado 110565" d="M575.412,7294.055a1.281,1.281,0,0,1-1.282,1.283H555.494a1.282,1.282,0,1,1,0-2.565H574.13A1.282,1.282,0,0,1,575.412,7294.055Z" fill="#855db5"/>
        <path id="Trazado_110566" data-name="Trazado 110566" d="M551.9,7309.118a3.384,3.384,0,0,0-3.126-3.127,46.069,46.069,0,0,0-6.37,0,3.384,3.384,0,0,0-3.125,3.127,45.714,45.714,0,0,0,0,6.368,3.383,3.383,0,0,0,3.125,3.127c1.057.074,2.121.111,3.185.111s2.128-.037,3.185-.111a3.384,3.384,0,0,0,3.126-3.127A45.714,45.714,0,0,0,551.9,7309.118Zm-2.56,6.189a.806.806,0,0,1-.744.746,43.2,43.2,0,0,1-6.013,0,.81.81,0,0,1-.746-.746,43.693,43.693,0,0,1,0-6.011.812.812,0,0,1,.746-.746c1-.068,2-.1,3.006-.1s2.01.036,3.007.1a.808.808,0,0,1,.744.746,43.066,43.066,0,0,1,0,6.011Z" fill="#855db5"/>
        <path id="Trazado_110567" data-name="Trazado 110567" d="M588.662,7314.662a1.283,1.283,0,0,1-1.283,1.283H555.494a1.284,1.284,0,1,1,0-2.568h31.885A1.284,1.284,0,0,1,588.662,7314.662Z" fill="#855db5"/>
        <path id="Trazado_110568" data-name="Trazado 110568" d="M575.412,7309.943a1.282,1.282,0,0,1-1.282,1.282H555.494a1.282,1.282,0,1,1,0-2.565H574.13A1.282,1.282,0,0,1,575.412,7309.943Z" fill="#855db5"/>
        <path id="Trazado_110569" data-name="Trazado 110569" d="M567.171,7269.08a1.282,1.282,0,0,1-1.283,1.283H561.4a1.282,1.282,0,0,1-1.283-1.283v-10.646a1.284,1.284,0,0,1,1.283-1.285h4.486a1.284,1.284,0,0,1,0,2.568h-3.2v2.757h2.872a1.283,1.283,0,0,1,0,2.566h-2.872v2.757h3.2a1.284,1.284,0,0,1,1.283,1.283Z" fill="#855db5"/>
        <path id="Trazado_110570" data-name="Trazado 110570" d="M577.92,7266.978a4.372,4.372,0,0,1-4.463,3.385,6.41,6.41,0,0,1-4.695-2.013,1.284,1.284,0,0,1,1.9-1.724,3.8,3.8,0,0,0,2.793,1.171,1.873,1.873,0,0,0,1.937-1.271c.15-.843-.962-1.351-1.447-1.53-1.665-.615-3.143-1.271-3.206-1.3a1.36,1.36,0,0,1-.178-.1,3.36,3.36,0,0,1-1.5-3.322,3.722,3.722,0,0,1,2.7-3,6.2,6.2,0,0,1,5.4,1.182,1.282,1.282,0,0,1-1.644,1.969,3.647,3.647,0,0,0-3.014-.695,1.138,1.138,0,0,0-.9.91.8.8,0,0,0,.291.76c.369.162,1.607.7,2.937,1.187,2.676.987,3.349,2.915,3.085,4.389Z" fill="#855db5"/>
        <path id="Trazado_110571" data-name="Trazado 110571" d="M558.9,7258.335a1.284,1.284,0,0,1-1.283,1.283h-1.7v9.462a1.284,1.284,0,0,1-2.568,0v-9.462h-1.671a1.283,1.283,0,0,1,0-2.566h5.934A1.284,1.284,0,0,1,558.9,7258.335Z" fill="#855db5"/>
        <path id="Trazado_110572" data-name="Trazado 110572" d="M586.917,7258.335a1.283,1.283,0,0,1-1.282,1.283h-1.7v9.462a1.283,1.283,0,0,1-2.566,0v-9.462H579.7a1.283,1.283,0,0,1,0-2.566h5.933A1.283,1.283,0,0,1,586.917,7258.335Z" fill="#855db5"/>
      </g>
      <rect id="Rectángulo_5525" data-name="Rectángulo 5525" width="102" height="102" transform="translate(519.529 7234.513)" fill="none"/>
    </g>
  </g>
</svg>
