<svg xmlns="http://www.w3.org/2000/svg" width="150" height="150" viewBox="0 0 150 150">
  <g id="Grupo_61518" data-name="Grupo 61518" transform="translate(-325 -5615)">
    <circle id="Elipse_4260" data-name="Elipse 4260" cx="75" cy="75" r="75" transform="translate(325 5615)" fill="#fff"/>
    <g id="Grupo_61479" data-name="Grupo 61479" transform="translate(-299.946 -1591.514)">
      <path id="Trazado_110573" data-name="Trazado 110573" d="M662.151,7253.73h75.768a3.575,3.575,0,0,1,3.574,3.574v5H658.577v-5A3.575,3.575,0,0,1,662.151,7253.73Z" fill="#c595ff"/>
      <circle id="Elipse_4263" data-name="Elipse 4263" cx="1.43" cy="1.43" r="1.43" transform="translate(662.866 7256.59)" fill="#007af6"/>
      <circle id="Elipse_4264" data-name="Elipse 4264" cx="1.43" cy="1.43" r="1.43" transform="translate(668.584 7256.59)" fill="#007af6"/>
      <circle id="Elipse_4265" data-name="Elipse 4265" cx="1.43" cy="1.43" r="1.43" transform="translate(674.303 7256.59)" fill="#007af6"/>
      <path id="Trazado_110574" data-name="Trazado 110574" d="M658.577,7262.308h82.916V7310.2a3.574,3.574,0,0,1-3.574,3.574H662.151a3.574,3.574,0,0,1-3.574-3.574v-47.891Z" fill="#eaeae8"/>
      <path id="Trazado_110575" data-name="Trazado 110575" d="M671.444,7268.026h57.183v45.747H671.444Z" fill="#c595ff"/>
      <path id="Trazado_110576" data-name="Trazado 110576" d="M677.162,7273.745h30.021v25.732H677.162Z" fill="#eaeae8"/>
      <path id="Trazado_110577" data-name="Trazado 110577" d="M690.9,7294.63a3.419,3.419,0,0,1-.838-.1l-1.731-.432a3.42,3.42,0,0,1-2.593-3.321v-4.162a1.43,1.43,0,0,1,2.86,0v4.162a.562.562,0,0,0,.427.547l1.731.432a.564.564,0,0,0,.684-.41.573.573,0,0,0,.017-.137v-3.165a1.43,1.43,0,0,1,2.859,0v3.165a3.426,3.426,0,0,1-3.416,3.425Z" fill="#961b20"/>
      <g id="Grupo_61502" data-name="Grupo 61502">
        <path id="Trazado_110578" data-name="Trazado 110578" d="M722.908,7278.033H715.76a1.43,1.43,0,0,1,0-2.859h7.148a1.43,1.43,0,1,1,0,2.859Z" fill="#d18d28"/>
        <path id="Trazado_110579" data-name="Trazado 110579" d="M722.908,7286.611H712.9a1.429,1.429,0,0,1,0-2.859h10.007a1.429,1.429,0,1,1,0,2.859Z" fill="#d18d28"/>
        <path id="Trazado_110580" data-name="Trazado 110580" d="M722.908,7295.188H712.9a1.429,1.429,0,0,1,0-2.859h10.007a1.429,1.429,0,1,1,0,2.859Z" fill="#d18d28"/>
        <path id="Trazado_110581" data-name="Trazado 110581" d="M720.049,7306.625H680.021a1.429,1.429,0,1,1,0-2.859h40.028a1.429,1.429,0,1,1,0,2.859Z" fill="#d18d28"/>
      </g>
      <path id="Trazado_110582" data-name="Trazado 110582" d="M714.772,7301.133l4.214-3.866,19.328,21.072-4.215,3.866Z" fill="#dcbfff"/>
      <path id="Trazado_110583" data-name="Trazado 110583" d="M711.725,7296.1l3.037,5.01,4.215-3.866-4.732-3.457a1.744,1.744,0,0,0-2.52,2.313Z" fill="#fdc9a6"/>
      <path id="Trazado_110584" data-name="Trazado 110584" d="M734.1,7322.206l4.214-3.866h0l1.933,2.107a2.86,2.86,0,0,1-4.215,3.866l-1.932-2.107Z" fill="#ffd6db"/>
      <path id="Trazado_110585" data-name="Trazado 110585" d="M730.236,7317.991l4.214-3.866,3.866,4.215-4.214,3.865Z" fill="#bb83ff"/>
      <path id="Trazado_110586" data-name="Trazado 110586" d="M687.169,7288.04l12.866,2.859v-11.436l-12.866,2.859Z" fill="#dcbfff"/>
      <path id="Trazado_110587" data-name="Trazado 110587" d="M685.739,7280.892h0a2.861,2.861,0,0,1,2.86,2.86v2.859a2.86,2.86,0,0,1-2.86,2.859h0a2.859,2.859,0,0,1-2.859-2.859v-2.859A2.86,2.86,0,0,1,685.739,7280.892Z" fill="#dcbfff"/>
      <path id="Trazado_110588" data-name="Trazado 110588" d="M737.919,7252.3H662.151a5.009,5.009,0,0,0-5,5v52.9a5.008,5.008,0,0,0,5,5h63.6l7.288,7.941,1.933,2.107a4.289,4.289,0,1,0,6.319-5.8l-1.933-2.106L737.4,7315.2h.524a5.008,5.008,0,0,0,5-5v-52.9a5.009,5.009,0,0,0-5-5Zm-77.912,5a2.147,2.147,0,0,1,2.144-2.144h75.768a2.146,2.146,0,0,1,2.144,2.144v3.574H660.007Zm12.866,55.039v-42.887H727.2v34.633l-7.168-7.811c-.018-.019-.037-.037-.056-.056s-.024-.024-.037-.035c-.038-.034-.076-.066-.117-.1l-1.235-.9h4.324a1.429,1.429,0,1,0,0-2.859H714.57a3.172,3.172,0,0,0-4.068,4.513l3.032,5,.006.01v0l0,0a1.351,1.351,0,0,0,.08.118l.036.043c.016.02.031.04.049.059l1.549,1.688H680.021a1.429,1.429,0,1,0,0,2.859h37.861l5.248,5.718Zm62.362,6.847-1.054.967-1.934-2.107,2.107-1.933,1.933,2.107Zm-4.92-3.246L716.783,7301.2l2.106-1.933,13.533,14.746ZM713,7294.965a.315.315,0,0,1,.4-.023l3.324,2.428-1.644,1.509-2.135-3.52a.315.315,0,0,1,.057-.394Zm26.1,28.438a1.431,1.431,0,0,1-2.019-.086l-.967-1.054,2.106-1.932.967,1.053a1.43,1.43,0,0,1-.087,2.02Zm-1.182-11.06h-3.147l-4.716-5.139v-39.178a1.429,1.429,0,0,0-1.429-1.429H671.444a1.429,1.429,0,0,0-1.43,1.429v44.317h-7.863a2.146,2.146,0,0,1-2.144-2.144v-46.461h80.056V7310.2a2.145,2.145,0,0,1-2.144,2.144Z" fill="#855db5"/>
      <circle id="Elipse_4266" data-name="Elipse 4266" cx="1.43" cy="1.43" r="1.43" transform="translate(662.866 7256.59)" fill="#855db5"/>
      <circle id="Elipse_4267" data-name="Elipse 4267" cx="1.43" cy="1.43" r="1.43" transform="translate(668.584 7256.59)" fill="#855db5"/>
      <circle id="Elipse_4268" data-name="Elipse 4268" cx="1.43" cy="1.43" r="1.43" transform="translate(674.303 7256.59)" fill="#855db5"/>
      <path id="Trazado_110589" data-name="Trazado 110589" d="M708.613,7299.477v-25.732a1.43,1.43,0,0,0-1.43-1.43H677.162a1.43,1.43,0,0,0-1.43,1.43v25.732a1.429,1.429,0,0,0,1.43,1.429h30.021A1.429,1.429,0,0,0,708.613,7299.477Zm-2.86-1.43H678.591v-22.873h27.162Z" fill="#855db5"/>
      <path id="Trazado_110590" data-name="Trazado 110590" d="M685.739,7290.9h.006a3.417,3.417,0,0,0,2.587,3.2l1.732.433a3.416,3.416,0,0,0,4.253-3.322v-.112l5.408,1.2a1.431,1.431,0,0,0,1.706-1.085,1.477,1.477,0,0,0,.034-.311v-11.436a1.429,1.429,0,0,0-1.43-1.43,1.474,1.474,0,0,0-.31.034l-11.143,2.477a4.285,4.285,0,0,0-7.131,3.208v2.859a4.292,4.292,0,0,0,4.288,4.288Zm5.719.306a.564.564,0,0,1-.564.564.521.521,0,0,1-.137-.017l-1.731-.432a.562.562,0,0,1-.427-.547v-.951l2.859.636Zm7.148-2.088-8.62-1.915a4.185,4.185,0,0,0,.042-.591v-2.859a4.192,4.192,0,0,0-.042-.592l8.62-1.915Zm-14.3-5.365a1.43,1.43,0,1,1,2.859,0v2.859a1.43,1.43,0,0,1-2.859,0Z" fill="#855db5"/>
      <path id="Trazado_110591" data-name="Trazado 110591" d="M715.76,7278.033h7.148a1.43,1.43,0,1,0,0-2.859H715.76a1.43,1.43,0,0,0,0,2.859Z" fill="#855db5"/>
      <path id="Trazado_110592" data-name="Trazado 110592" d="M712.9,7286.611h10.007a1.429,1.429,0,1,0,0-2.859H712.9a1.429,1.429,0,0,0,0,2.859Z" fill="#855db5"/>
      <rect id="Rectángulo_5525" data-name="Rectángulo 5525" width="102" height="102" transform="translate(648.946 7234.513)" fill="none"/>
    </g>
  </g>
</svg>
