<svg xmlns="http://www.w3.org/2000/svg" width="150" height="150" viewBox="0 0 150 150">
  <g id="Grupo_61519" data-name="Grupo 61519" transform="translate(-325 -5899)">
    <circle id="Elipse_4261" data-name="Elipse 4261" cx="75" cy="75" r="75" transform="translate(325 5899)" fill="#fff"/>
    <g id="Grupo_61479" data-name="Grupo 61479" transform="translate(-444.13 -1307.514)">
      <rect id="Rectángulo_5525" data-name="Rectángulo 5525" width="102" height="102" transform="translate(793.13 7234.513)" fill="none"/>
      <path id="Trazado_110593" data-name="Trazado 110593" d="M834.081,7318.371h19.686a5.624,5.624,0,0,1,5.624,5.624H828.457A5.624,5.624,0,0,1,834.081,7318.371Z" fill="#bb83ff"/>
      <path id="Trazado_110594" data-name="Trazado 110594" d="M814.4,7253.691h59.056a5.624,5.624,0,0,1,5.624,5.624V7301.5a5.624,5.624,0,0,1-5.624,5.624H814.4a5.624,5.624,0,0,1-5.624-5.624v-42.183A5.624,5.624,0,0,1,814.4,7253.691Z" fill="#dcbfff"/>
      <path id="Trazado_110595" data-name="Trazado 110595" d="M808.772,7295.873h70.3v5.625a5.624,5.624,0,0,1-5.624,5.624H814.4a5.624,5.624,0,0,1-5.624-5.624v-5.625Z" fill="#c595ff"/>
      <g id="Grupo_61503" data-name="Grupo 61503">
        <path id="Trazado_110596" data-name="Trazado 110596" d="M805.96,7281.813h25.309a2.812,2.812,0,0,1,2.812,2.812v36.558a2.812,2.812,0,0,1-2.812,2.812H805.96a2.812,2.812,0,0,1-2.813-2.812v-36.558A2.812,2.812,0,0,1,805.96,7281.813Z" fill="#dcbfff"/>
        <path id="Trazado_110597" data-name="Trazado 110597" d="M870.64,7290.249h11.248a2.812,2.812,0,0,1,2.812,2.812v28.122a2.812,2.812,0,0,1-2.812,2.812H870.64a2.812,2.812,0,0,1-2.813-2.812v-28.122A2.812,2.812,0,0,1,870.64,7290.249Z" fill="#dcbfff"/>
      </g>
      <g id="Grupo_61504" data-name="Grupo 61504">
        <path id="Trazado_110598" data-name="Trazado 110598" d="M867.827,7318.371H884.7v2.812a2.812,2.812,0,0,1-2.812,2.812H870.64a2.812,2.812,0,0,1-2.813-2.812v-2.812Z" fill="#c595ff"/>
        <path id="Trazado_110599" data-name="Trazado 110599" d="M803.147,7318.371h30.934v2.812a2.812,2.812,0,0,1-2.812,2.812H805.96a2.812,2.812,0,0,1-2.813-2.812v-2.812Z" fill="#c595ff"/>
        <path id="Trazado_110600" data-name="Trazado 110600" d="M839.706,7307.122h8.436v11.249h-8.436Z" fill="#c595ff"/>
        <path id="Trazado_110601" data-name="Trazado 110601" d="M811.584,7305.886a1.406,1.406,0,0,1-.994-2.4l5.964-5.965a1.406,1.406,0,1,1,2.023,1.954l-.034.035-5.965,5.964A1.406,1.406,0,0,1,811.584,7305.886Z" fill="#c595ff"/>
        <path id="Trazado_110602" data-name="Trazado 110602" d="M820.02,7305.886a1.407,1.407,0,0,1-.994-2.4l5.965-5.965a1.406,1.406,0,0,1,1.988,1.989l-5.964,5.964A1.409,1.409,0,0,1,820.02,7305.886Z" fill="#c595ff"/>
      </g>
      <g id="Grupo_61505" data-name="Grupo 61505">
        <path id="Trazado_110603" data-name="Trazado 110603" d="M834.081,7283.078a1.406,1.406,0,0,1-.994-2.4l13.92-13.92a1.406,1.406,0,0,1,1.989,1.988l-13.921,13.92a1.393,1.393,0,0,1-.994.412Z" fill="#fdbd40"/>
        <path id="Trazado_110604" data-name="Trazado 110604" d="M842.658,7283.078a1.406,1.406,0,0,1-.994-2.4l13.921-13.92a1.406,1.406,0,0,1,1.988,1.988l-13.92,13.92a1.407,1.407,0,0,1-.995.412Z" fill="#fdbd40"/>
      </g>
      <path id="Trazado_110605" data-name="Trazado 110605" d="M874.276,7307.7a1.406,1.406,0,0,1-.994-2.4l3.976-3.976a1.406,1.406,0,0,1,1.988,1.988l-3.976,3.976A1.4,1.4,0,0,1,874.276,7307.7Z" fill="#fcf05a"/>
      <path id="Trazado_110606" data-name="Trazado 110606" d="M843.952,7302.9a1.406,1.406,0,1,1-.014-2.812h.014a1.406,1.406,0,0,1,0,2.812Z"/>
      <path id="Trazado_110607" data-name="Trazado 110607" d="M846.736,7260.721h-5.624a1.406,1.406,0,1,1,0-2.812h5.624a1.406,1.406,0,1,1,0,2.812Z" fill="#fdbd40"/>
      <path id="Trazado_110608" data-name="Trazado 110608" d="M881.888,7288.843h-1.406v-29.528a7.038,7.038,0,0,0-7.03-7.03H814.4a7.037,7.037,0,0,0-7.03,7.03v21.092H805.96a4.218,4.218,0,0,0-4.219,4.218v36.558a4.218,4.218,0,0,0,4.219,4.218h53.431A1.406,1.406,0,0,0,860.8,7324a7.039,7.039,0,0,0-7.03-7.03h-4.219v-8.437h16.873v12.655a4.218,4.218,0,0,0,4.219,4.218h11.248a4.217,4.217,0,0,0,4.218-4.218h0v-28.122A4.218,4.218,0,0,0,881.888,7288.843Zm-49.213,32.34a1.406,1.406,0,0,1-1.406,1.406H805.96a1.406,1.406,0,0,1-1.406-1.406v-1.406h28.121Zm0-4.218H804.554v-32.34a1.405,1.405,0,0,1,1.406-1.406h25.309a1.405,1.405,0,0,1,1.406,1.406Zm21.092,2.812a4.225,4.225,0,0,1,3.977,2.812H835.229a4.163,4.163,0,0,0,.258-1.406v-1.406Zm-18.28-2.812v-8.437H838.3v8.437Zm5.625,0v-8.437h5.624v8.437Zm25.309-11.249H835.487v-8.436h30.934Zm0-12.655v1.406H835.487v-9.842a4.161,4.161,0,0,0-.48-1.914c.021-.02.049-.025.068-.046L849,7268.744a1.406,1.406,0,0,0-1.989-1.988l-13.92,13.921a1.375,1.375,0,0,0-.077.116,4.159,4.159,0,0,0-1.741-.386H810.178v-21.092a4.218,4.218,0,0,1,4.218-4.218h59.056a4.218,4.218,0,0,1,4.218,4.218v29.528h-7.03A4.219,4.219,0,0,0,866.421,7293.061Zm16.873,28.122a1.406,1.406,0,0,1-1.406,1.406H870.64a1.407,1.407,0,0,1-1.407-1.406v-1.406h14.061Zm0-4.218H869.233v-23.9a1.407,1.407,0,0,1,1.407-1.406h11.248a1.406,1.406,0,0,1,1.406,1.406Z" fill="#855db5"/>
      <path id="Trazado_110609" data-name="Trazado 110609" d="M818.543,7297.521a1.409,1.409,0,0,0-1.989,0l-5.964,5.965a1.406,1.406,0,1,0,1.954,2.023l.034-.035,5.965-5.964A1.407,1.407,0,0,0,818.543,7297.521Z" fill="#855db5"/>
      <path id="Trazado_110610" data-name="Trazado 110610" d="M824.991,7297.521l-5.965,5.965a1.406,1.406,0,0,0,1.954,2.023l.035-.035,5.964-5.964a1.406,1.406,0,0,0-1.988-1.989Z" fill="#855db5"/>
      <path id="Trazado_110611" data-name="Trazado 110611" d="M855.585,7266.758l-13.921,13.92a1.406,1.406,0,0,0,1.954,2.023l.035-.035,13.92-13.92a1.406,1.406,0,0,0-1.988-1.988Z" fill="#855db5"/>
      <path id="Trazado_110612" data-name="Trazado 110612" d="M877.258,7301.328l-3.976,3.976a1.406,1.406,0,0,0,1.953,2.023l.035-.035,3.976-3.976a1.406,1.406,0,0,0-1.988-1.988Z" fill="#855db5"/>
      <path id="Trazado_110613" data-name="Trazado 110613" d="M843.952,7302.9a1.406,1.406,0,0,0,0-2.812h-.014a1.406,1.406,0,1,0,.014,2.812Z" fill="#855db5"/>
      <path id="Trazado_110614" data-name="Trazado 110614" d="M846.736,7257.909h-5.624a1.406,1.406,0,1,0,0,2.812h5.624a1.406,1.406,0,1,0,0-2.812Z" fill="#855db5"/>
    </g>
  </g>
</svg>
