<svg xmlns="http://www.w3.org/2000/svg" width="150" height="150" viewBox="0 0 150 150">
  <g id="Grupo_61520" data-name="Grupo 61520" transform="translate(-325 -6182)">
    <circle id="Elipse_4262" data-name="Elipse 4262" cx="75" cy="75" r="75" transform="translate(325 6182)" fill="#fff"/>
    <g id="Grupo_61479" data-name="Grupo 61479" transform="translate(-589.381 -1024.514)">
      <path id="Trazado_110615" data-name="Trazado 110615" d="M985.855,7322.127V7315.5a3.086,3.086,0,0,0-3.074-3.087l-10.681-.042a3.77,3.77,0,0,1-3.7-3.131l-1.817-10.565h-4.007a.88.88,0,0,1-.88-.88,18.053,18.053,0,0,1,2.719-9.528l1.3-2.1a1.6,1.6,0,0,0,.235-.963l-.489-6.331a23.693,23.693,0,0,1,23.623-25.519,25.164,25.164,0,0,1,24.1,32.413l-4.935,16.408v19.839a2.291,2.291,0,0,1-2.276,2.29l-17.813.107a2.289,2.289,0,0,1-2.3-2.289Z" fill="#fff"/>
      <path id="Trazado_110616" data-name="Trazado 110616" d="M992.618,7323.273V7311.1a3.087,3.087,0,0,0-3.075-3.087l-10.681-.042a3.773,3.773,0,0,1-3.7-3.132l-1.138-6.616a4.754,4.754,0,0,0-4.685-3.948.884.884,0,0,1-.881-.885,18.047,18.047,0,0,1,2.72-9.523l1.3-2.1a1.592,1.592,0,0,0,.235-.963l-.489-6.331a23.634,23.634,0,0,1,7.662-19.336,23.706,23.706,0,0,0-14.583,23.736l.49,6.331a1.592,1.592,0,0,1-.236.963l-1.3,2.1a18.045,18.045,0,0,0-2.72,9.528.881.881,0,0,0,.881.88h4.006l1.818,10.565a3.77,3.77,0,0,0,3.7,3.131l10.68.042a3.087,3.087,0,0,1,3.075,3.087v7.446a1.473,1.473,0,0,0,1.483,1.473l5.947-.036A1.467,1.467,0,0,1,992.618,7323.273Z" fill="#dcbfff"/>
      <path id="Trazado_110617" data-name="Trazado 110617" d="M1020.452,7257.735h-31.26a5.6,5.6,0,0,0-5.6,5.6V7289.4a5.6,5.6,0,0,0,5.6,5.6h1.357l2.432,4.064a1.268,1.268,0,0,0,2.176,0l2.432-4.064h22.863a5.6,5.6,0,0,0,5.6-5.6v-26.067a5.6,5.6,0,0,0-5.6-5.6Z" fill="#dcbfff"/>
      <path id="Trazado_110618" data-name="Trazado 110618" d="M993.12,7285.687h8.643l1.23.726a3.073,3.073,0,0,0,1.563.427h11.886a2.025,2.025,0,0,0,2.03-1.764,1.989,1.989,0,0,0-1.018-1.969.14.14,0,0,1-.074-.122v0a.136.136,0,0,1,.106-.133,1.99,1.99,0,0,0,.912-3.414,2.142,2.142,0,0,0,.475-3.74,2.305,2.305,0,0,0-1.029-4.368h-4.754a.462.462,0,0,1-.421-.654l.564-1.235a5.49,5.49,0,0,0,.5-2.284v-2.569a2.833,2.833,0,0,0-.213-1.079,2.366,2.366,0,0,0-2.187-1.466h-.005a1.629,1.629,0,0,0-1.5.99l-.993,2.328-3.737,2.176-.612.261a3.736,3.736,0,0,0-1.917,1.838l-.8,1.694H993.12a1.573,1.573,0,0,0-1.573,1.573v11.215a1.573,1.573,0,0,0,1.573,1.573Z" fill="#f9f7f8"/>
      <g id="Grupo_61506" data-name="Grupo 61506">
        <path id="Trazado_110619" data-name="Trazado 110619" d="M1009.424,7298.269a1.075,1.075,0,0,0-1.338.719l-.867,2.882a1.088,1.088,0,0,0-.045.31v12.226a1.074,1.074,0,1,0,2.148,0v-12.068l.821-2.731a1.074,1.074,0,0,0-.719-1.338Z" fill="#855db5"/>
        <path id="Trazado_110620" data-name="Trazado 110620" d="M1008.248,7317.909a1.074,1.074,0,0,0-1.074,1.075v5.311a1.074,1.074,0,1,0,2.148,0v-5.311A1.074,1.074,0,0,0,1008.248,7317.909Z" fill="#855db5"/>
        <path id="Trazado_110621" data-name="Trazado 110621" d="M982.785,7311.341,972.1,7311.3a2.692,2.692,0,0,1-2.647-2.24l-.466-2.707h3.292a5.047,5.047,0,0,0,3.593-1.489l1.342-1.342A1.074,1.074,0,0,0,975.7,7302l-1.343,1.343a2.912,2.912,0,0,1-2.073.859h-3.662l-.982-5.709a1.075,1.075,0,0,0-1.059-.892h-3.811a16.953,16.953,0,0,1,2.557-8.767l1.3-2.1a2.646,2.646,0,0,0,.394-1.613l-.489-6.33a22.62,22.62,0,0,1,22.552-24.363c.616,0,1.262.026,1.92.077a1.074,1.074,0,0,0,.166-2.142c-.713-.055-1.415-.083-2.086-.083a24.743,24.743,0,0,0-24.694,26.676l.489,6.331a.513.513,0,0,1-.076.313l-1.3,2.1a19.1,19.1,0,0,0-2.881,10.095,1.957,1.957,0,0,0,1.955,1.954h3.1l1.664,9.673a4.839,4.839,0,0,0,4.756,4.024l10.681.041a2.018,2.018,0,0,1,2.005,2.013v8.928a1.074,1.074,0,0,0,2.148,0V7315.5a4.17,4.17,0,0,0-4.145-4.161Z" fill="#855db5"/>
        <path id="Trazado_110622" data-name="Trazado 110622" d="M1020.452,7256.661h-31.26a6.681,6.681,0,0,0-6.674,6.674v3.926a1.074,1.074,0,0,0,2.148,0v-3.926a4.53,4.53,0,0,1,4.526-4.525h31.26a4.53,4.53,0,0,1,4.525,4.525V7289.4a4.53,4.53,0,0,1-4.525,4.525H997.589a1.076,1.076,0,0,0-.922.523l-2.431,4.063a.184.184,0,0,1-.167.095.181.181,0,0,1-.166-.095l-2.432-4.063a1.075,1.075,0,0,0-.922-.523h-1.357a4.53,4.53,0,0,1-4.526-4.525v-17.564a1.074,1.074,0,0,0-2.148,0V7289.4a6.682,6.682,0,0,0,6.674,6.674h.748l2.119,3.54a2.323,2.323,0,0,0,2.01,1.14h0a2.322,2.322,0,0,0,2.01-1.14l2.119-3.54h22.254a6.682,6.682,0,0,0,6.674-6.674v-26.067a6.682,6.682,0,0,0-6.674-6.674Z" fill="#855db5"/>
        <path id="Trazado_110623" data-name="Trazado 110623" d="M1014.8,7267.153v-2.569a3.9,3.9,0,0,0-.294-1.488,3.43,3.43,0,0,0-3.186-2.131,2.7,2.7,0,0,0-2.485,1.643l-.853,2-3.371,1.963-.551.234a4.809,4.809,0,0,0-2.467,2.367l-.513,1.08h-9.537a1.074,1.074,0,0,0,0,2.149h10.216a1.074,1.074,0,0,0,.97-.614l.805-1.694a2.665,2.665,0,0,1,1.366-1.311l.613-.26a1.065,1.065,0,0,0,.12-.061l3.738-2.175a1.075,1.075,0,0,0,.447-.507l.993-2.329a.556.556,0,0,1,.514-.337,1.285,1.285,0,0,1,1.194.8,1.757,1.757,0,0,1,.133.672v2.569a4.384,4.384,0,0,1-.4,1.837l-.564,1.235a1.537,1.537,0,0,0,1.4,2.175h4.755a1.231,1.231,0,0,1,.548,2.333,1.075,1.075,0,0,0-.145,1.834,1.055,1.055,0,0,1,.448.868,1.075,1.075,0,0,1-.684,1,1.073,1.073,0,0,0-.337,1.795.907.907,0,0,1,.3.678.92.92,0,0,1-.719.894,1.214,1.214,0,0,0-.319,2.248.919.919,0,0,1,.475.786.886.886,0,0,1-.261.64.983.983,0,0,1-.7.293h-3.615a1.074,1.074,0,1,0,0,2.148h3.615a3.147,3.147,0,0,0,2.231-.935,3.025,3.025,0,0,0,.876-2.184,2.981,2.981,0,0,1,.563-3.89,3.055,3.055,0,0,0-.238-1.183,3.2,3.2,0,0,0,.529-3.891,3.382,3.382,0,0,0-2.569-5.579h-3.8l.169-.369a6.526,6.526,0,0,0,.594-2.73Z" fill="#855db5"/>
        <path id="Trazado_110624" data-name="Trazado 110624" d="M991.547,7286.761h9.922l.978.577a4.153,4.153,0,0,0,2.109.576h3.7a1.074,1.074,0,1,0,0-2.148h-3.7a2,2,0,0,1-1.017-.278l-1.23-.726a1.071,1.071,0,0,0-.546-.149H991.547a1.074,1.074,0,0,0,0,2.148Z" fill="#855db5"/>
      </g>
      <rect id="Rectángulo_5525" data-name="Rectángulo 5525" width="102" height="102" transform="translate(938.381 7234.513)" fill="none"/>
    </g>
  </g>
</svg>
