<svg xmlns="http://www.w3.org/2000/svg" width="441.228" height="293.762" viewBox="0 0 441.228 293.762">
  <g id="Grupo_59630" data-name="Grupo 59630" transform="translate(-594.086 -2041.133)">
    <g id="Grupo_59535" data-name="Grupo 59535" transform="translate(594.086 2041.133)">
      <g id="Grupo_56029" data-name="Grupo 56029">
        <path id="Trazado_101095" data-name="Trazado 101095" d="M628.078,2059.45c24.679-19.556,58.377-23.132,87.16-12.262,38.239,14.446,66.383,51.027,103.522,68.594a116.087,116.087,0,0,0,83.385,6.148c13.309-4.085,26.251-10.639,40.065-11.078,12.234-.387,24.319,4.153,34.719,11.236,30.6,20.84,45.967,65.283,35.648,103.15-5.522,20.276-17.378,37.885-31.189,52.649C952.856,2308.4,915,2328.233,875.444,2333.4c-22.081,2.882-44.48,1.316-66.479-2.224-47.943-7.717-95.176-25.2-134.653-56.028-47.258-36.909-94.1-101.29-76.4-168.4C602.863,2087.962,613.612,2070.912,628.078,2059.45Z" transform="translate(-594.086 -2041.133)" fill="#dcbfff"/>
        <path id="Trazado_101096" data-name="Trazado 101096" d="M962.987,2108.577c-1.554-3.974-2.845-9.019-.226-12.251a7.247,7.247,0,0,1,3.817-2.322c6.919-1.865,13.7,3.453,18.528,9.2a81.943,81.943,0,0,1,11.346,17.832,31.394,31.394,0,0,1,3.23,10.476c.329,3.691-.5,7.647-2.852,10.319C981.04,2159.807,967.3,2119.588,962.987,2108.577Z" transform="translate(-558.523 -2036.048)" fill="#dcbfff"/>
      </g>
    </g>
    <g id="Grupo_59543" data-name="Grupo 59543" transform="translate(791.021 2087.176)">
      <g id="Grupo_59540" data-name="Grupo 59540">
        <g id="Grupo_59537" data-name="Grupo 59537">
          <g id="Grupo_59536" data-name="Grupo 59536" transform="translate(0.001)">
            <rect id="Rectángulo_6317" data-name="Rectángulo 6317" width="192.581" height="132.683" rx="7.177" fill="#e6e6e6"/>
          </g>
          <path id="Trazado_107845" data-name="Trazado 107845" d="M966.213,2106.491v-15.508a7.872,7.872,0,0,0-7.872-7.871H781.5a7.872,7.872,0,0,0-7.872,7.871v15.508Z" transform="translate(-773.631 -2083.111)" fill="#c4c4c4"/>
        </g>
        <g id="Grupo_59539" data-name="Grupo 59539" transform="translate(12.867 8.595)">
          <g id="Grupo_59538" data-name="Grupo 59538">
            <path id="Trazado_107846" data-name="Trazado 107846" d="M788.342,2090.947a2.979,2.979,0,1,0,2.98,2.98A2.98,2.98,0,0,0,788.342,2090.947Z" transform="translate(-785.362 -2090.947)" fill="#fff"/>
            <path id="Trazado_107847" data-name="Trazado 107847" d="M798.791,2090.947a2.979,2.979,0,1,0,2.979,2.98A2.98,2.98,0,0,0,798.791,2090.947Z" transform="translate(-784.35 -2090.947)" fill="#fff"/>
            <path id="Trazado_107848" data-name="Trazado 107848" d="M809.239,2090.947a2.979,2.979,0,1,0,2.98,2.98A2.979,2.979,0,0,0,809.239,2090.947Z" transform="translate(-783.338 -2090.947)" fill="#fff"/>
          </g>
          <path id="Trazado_107849" data-name="Trazado 107849" d="M946.178,2096.906H819.838a2.979,2.979,0,0,1-2.98-2.979h0a2.98,2.98,0,0,1,2.98-2.98h126.34a2.98,2.98,0,0,1,2.98,2.98h0A2.979,2.979,0,0,1,946.178,2096.906Z" transform="translate(-782.311 -2090.947)" fill="#fff"/>
        </g>
      </g>
      <g id="Grupo_59542" data-name="Grupo 59542" transform="translate(11.594 29.189)">
        <rect id="Rectángulo_6318" data-name="Rectángulo 6318" width="169.393" height="91.823" rx="4.128" fill="#c4c4c4"/>
        <g id="Grupo_59541" data-name="Grupo 59541" transform="translate(7.034 15.286)">
          <path id="Trazado_107850" data-name="Trazado 107850" d="M791.163,2177l-.548-.87,39.042-24.612.288.242,19.573,16.524,59.917-44.628,37.683,28.868-.625.816-37.066-28.395-59.949,44.65-19.908-16.807Z" transform="translate(-790.614 -2123.658)" fill="#fff"/>
        </g>
      </g>
    </g>
    <path id="Trazado_107851" data-name="Trazado 107851" d="M839.837,2118.127h21.3a16.315,16.315,0,0,1,16.268,16.267h0a16.315,16.315,0,0,1-16.226,16.267v11.067l-16.047-11.066h-5.294a16.316,16.316,0,0,1-16.269-16.268h0A16.316,16.316,0,0,1,839.837,2118.127Z" transform="translate(22.227 7.457)" fill="#2ab9c4"/>
    <g id="Grupo_59544" data-name="Grupo 59544" transform="translate(853.675 2137.086)">
      <path id="Trazado_107852" data-name="Trazado 107852" d="M835.518,2128.613a4.766,4.766,0,1,0,4.766,4.767A4.8,4.8,0,0,0,835.518,2128.613Z" transform="translate(-830.752 -2128.613)" fill="#fff"/>
      <path id="Trazado_107853" data-name="Trazado 107853" d="M848.53,2128.613a4.766,4.766,0,1,0,4.766,4.767A4.8,4.8,0,0,0,848.53,2128.613Z" transform="translate(-829.492 -2128.613)" fill="#fff"/>
      <path id="Trazado_107854" data-name="Trazado 107854" d="M861.543,2128.613a4.766,4.766,0,1,0,4.766,4.767A4.8,4.8,0,0,0,861.543,2128.613Z" transform="translate(-828.231 -2128.613)" fill="#fff"/>
    </g>
    <g id="Grupo_59545" data-name="Grupo 59545" transform="translate(726.561 2213.165)">
      <path id="Trazado_107855" data-name="Trazado 107855" d="M722.437,2213.122a7.574,7.574,0,1,1,7.574-7.575A7.583,7.583,0,0,1,722.437,2213.122Zm0-14.119a6.545,6.545,0,1,0,6.545,6.545A6.552,6.552,0,0,0,722.437,2199Z" transform="translate(-714.863 -2197.974)" fill="#fff"/>
    </g>
    <g id="Grupo_59547" data-name="Grupo 59547" transform="translate(745.538 2165.343)">
      <g id="Grupo_59546" data-name="Grupo 59546">
        <path id="Trazado_107856" data-name="Trazado 107856" d="M755.2,2163.978a11.576,11.576,0,1,1-13.382-9.432A11.577,11.577,0,0,1,755.2,2163.978Z" transform="translate(-732.159 -2154.375)" fill="#c4c4c4"/>
        <rect id="Rectángulo_6319" data-name="Rectángulo 6319" width="23.152" height="11.614" transform="matrix(-0.985, 0.171, -0.171, -0.985, 30.461, 52.468)" fill="#bb2700"/>
        <path id="Trazado_107857" data-name="Trazado 107857" d="M737.986,2199.51l27.35-3.714-10.36-33.87-22.813,3.949Z" transform="translate(-732.164 -2153.643)" fill="#c4c4c4"/>
      </g>
    </g>
    <path id="Trazado_107858" data-name="Trazado 107858" d="M675.467,2226.691l-5.314,72.4h31.139l4.725-47.454h9.672l3.147,47.454h31.139l-5.252-77.442Z" transform="translate(7.368 17.485)" fill="#2ab9c4"/>
    <path id="Trazado_107859" data-name="Trazado 107859" d="M745.177,2234.609l-.864-12.344-68.627-6.926-1.286,21.71Z" transform="translate(7.779 16.873)" fill="#21949d"/>
    <g id="Grupo_59548" data-name="Grupo 59548" transform="translate(682.919 2232.906)">
      <rect id="Rectángulo_6320" data-name="Rectángulo 6320" width="83.908" height="1.027" transform="translate(0 83.63) rotate(-85.334)" fill="#00111c"/>
    </g>
    <g id="Grupo_59549" data-name="Grupo 59549" transform="translate(713.398 2240.797)">
      <path id="Trazado_107860" data-name="Trazado 107860" d="M703.533,2251.673q-.332,0-.671-.029l.084-1.023a7.218,7.218,0,0,0,7.775-6.613l1.684-20.842,1.023.084-1.684,20.843A8.255,8.255,0,0,1,703.533,2251.673Z" transform="translate(-702.862 -2223.166)" fill="#00111c"/>
    </g>
    <g id="Grupo_59550" data-name="Grupo 59550" transform="translate(708.163 2237.693)">
      <rect id="Rectángulo_6321" data-name="Rectángulo 6321" width="79.203" height="1.029" transform="translate(0 78.84) rotate(-84.506)" fill="#00111c"/>
    </g>
    <path id="Trazado_107861" data-name="Trazado 107861" d="M681.339,2151.595l33.561-.876,33.26,4.569-.374,82.268-76.1-6.23Z" transform="translate(7.516 10.614)" fill="#fff"/>
    <g id="Grupo_59551" data-name="Grupo 59551" transform="translate(678.626 2160.819)">
      <path id="Trazado_107862" data-name="Trazado 107862" d="M748.348,2238.16l-.554-.046-76.633-6.274,9.771-80.7,34-.887,33.79,4.636ZM672.31,2230.9l75.014,6.141.37-81.261-32.812-4.507-33.035.868Z" transform="translate(-671.161 -2150.25)" fill="#00111c"/>
    </g>
    <g id="Grupo_59565" data-name="Grupo 59565" transform="translate(704.655 2107.328)">
      <path id="Trazado_107863" data-name="Trazado 107863" d="M720.86,2152.512l-16.6.488-.426-21.713,16.6-.488Z" transform="translate(-694.025 -2098.644)" fill="#bb2700"/>
      <path id="Trazado_107864" data-name="Trazado 107864" d="M721.01,2150.4l-17.036-14.357-.14-4.758,16.6-.488Z" transform="translate(-694.025 -2098.644)" fill="#00111c"/>
      <path id="Trazado_107865" data-name="Trazado 107865" d="M727.256,2116.392c1.476,9.953,1.426,24.077-11.871,26.05-11.9,1.765-17.445-11.53-18.922-21.483s4.855-14.768,13.358-16.03S725.78,2106.439,727.256,2116.392Z" transform="translate(-694.76 -2101.176)" fill="#bb2700"/>
      <g id="Grupo_59554" data-name="Grupo 59554" transform="translate(12.36 18.8)">
        <g id="Grupo_59552" data-name="Grupo 59552" transform="translate(10.543)">
          <path id="Trazado_107866" data-name="Trazado 107866" d="M718.53,2121.571c.639-.095,1.273.606,1.416,1.565s-.261,1.813-.9,1.908-1.273-.607-1.415-1.565S717.89,2121.666,718.53,2121.571Z" transform="translate(-715.595 -2118.338)" fill="#00111c"/>
          <path id="Trazado_107867" data-name="Trazado 107867" d="M721.058,2119.491l-5.286.784A3.507,3.507,0,0,1,721.058,2119.491Z" transform="translate(-715.772 -2118.623)" fill="#00111c"/>
        </g>
        <g id="Grupo_59553" data-name="Grupo 59553" transform="translate(0 1.564)">
          <path id="Trazado_107868" data-name="Trazado 107868" d="M708.919,2123c.639-.095,1.272.605,1.415,1.565s-.261,1.813-.9,1.907-1.272-.605-1.415-1.564S708.28,2123.092,708.919,2123Z" transform="translate(-705.983 -2119.764)" fill="#00111c"/>
          <path id="Trazado_107869" data-name="Trazado 107869" d="M711.447,2120.916l-5.287.784A3.509,3.509,0,0,1,711.447,2120.916Z" transform="translate(-706.16 -2120.048)" fill="#00111c"/>
        </g>
      </g>
      <g id="Grupo_59559" data-name="Grupo 59559" transform="translate(0.272 23.617)">
        <g id="Grupo_59558" data-name="Grupo 59558">
          <g id="Grupo_59557" data-name="Grupo 59557">
            <path id="Trazado_107870" data-name="Trazado 107870" d="M695.19,2128.334a4.638,4.638,0,1,0,3.907-5.268A4.637,4.637,0,0,0,695.19,2128.334Z" transform="translate(-695.14 -2123.015)" fill="#bb2700"/>
            <g id="Grupo_59556" data-name="Grupo 59556" transform="translate(2.906 1.515)">
              <g id="Grupo_59555" data-name="Grupo 59555">
                <path id="Trazado_107871" data-name="Trazado 107871" d="M700.733,2130.306c-1.36-.3-2.141-.739-2.456-1.385a2.378,2.378,0,0,1,.294-2.1c.177-.367.377-.783.289-.961-.033-.064-.206-.29-1.071-.458l.2-1.009c.974.191,1.543.511,1.792,1.007a2.111,2.111,0,0,1-.28,1.867c-.226.468-.439.91-.3,1.2.091.187.441.543,1.753.831Z" transform="translate(-697.789 -2124.396)" fill="#00111c"/>
              </g>
            </g>
          </g>
        </g>
      </g>
      <g id="Grupo_59564" data-name="Grupo 59564" transform="translate(16.878 23.744)">
        <g id="Grupo_59561" data-name="Grupo 59561" transform="translate(4.653)">
          <g id="Grupo_59560" data-name="Grupo 59560">
            <path id="Trazado_107872" data-name="Trazado 107872" d="M715.248,2129.28l-.371-.959c1.731-.668,1.759-1.11,1.759-1.115-.025-.215-.758-.614-1.409-.7l-.4-.054-.3-3.223,1.023-.1.228,2.439c.7.183,1.782.646,1.885,1.517C717.785,2128.169,716.344,2128.857,715.248,2129.28Z" transform="translate(-714.521 -2123.13)" fill="#00111c"/>
          </g>
        </g>
        <g id="Grupo_59563" data-name="Grupo 59563" transform="translate(0 6.704)">
          <g id="Grupo_59562" data-name="Grupo 59562">
            <path id="Trazado_107873" data-name="Trazado 107873" d="M714.2,2131.18a9.255,9.255,0,0,1-3.919-.9l.433-.932a7.866,7.866,0,0,0,7.125-.1l.47.915A8.949,8.949,0,0,1,714.2,2131.18Z" transform="translate(-710.279 -2129.242)" fill="#00111c"/>
          </g>
        </g>
      </g>
      <path id="Trazado_107874" data-name="Trazado 107874" d="M697.631,2125.8c4.47,1.088,8.337-1.662,4.259-9,0,0,27.953,4.993,26.837-6.9C727.34,2095.148,683.7,2099.383,697.631,2125.8Z" transform="translate(-694.891 -2101.483)" fill="#00111c"/>
      <path id="Trazado_107875" data-name="Trazado 107875" d="M727.1,2154.5l-5.386-10.1-9.474,6.946-8.651-7.947-6.795,9.969,10.041,5.557,5.343-6.476,4.6,7.025Z" transform="translate(-694.707 -2097.423)" fill="#fff"/>
    </g>
    <path id="Trazado_107876" data-name="Trazado 107876" d="M751.9,2192.995h0a3.977,3.977,0,0,0-2.674,4.621l1.908,8.9,14.924.657-9.734-12.736A3.977,3.977,0,0,0,751.9,2192.995Z" transform="translate(15.018 14.69)" fill="#bb2700"/>
    <path id="Trazado_107877" data-name="Trazado 107877" d="M725.581,2219.113l23.766,4a3.241,3.241,0,0,0,3.605-2.346l9.015-34.731a2.625,2.625,0,0,0-2.137-3.312l-23.766-4a3.242,3.242,0,0,0-3.605,2.346l-9.015,34.732A2.624,2.624,0,0,0,725.581,2219.113Z" transform="translate(12.52 13.323)" fill="#2ab9c4"/>
    <g id="Grupo_59566" data-name="Grupo 59566" transform="translate(750.099 2209.261)">
      <path id="Trazado_107878" data-name="Trazado 107878" d="M741.073,2204.373a5.116,5.116,0,0,1-.852-.072,4.6,4.6,0,0,1-3.736-5.787,5.566,5.566,0,0,1,6.192-4.027,4.6,4.6,0,0,1,3.737,5.788A5.6,5.6,0,0,1,741.073,2204.373Zm.744-8.929a4.545,4.545,0,0,0-4.336,3.329h0a3.567,3.567,0,0,0,2.911,4.515,4.528,4.528,0,0,0,5.025-3.271,3.57,3.57,0,0,0-2.911-4.515A4.187,4.187,0,0,0,741.817,2195.444Z" transform="translate(-736.323 -2194.415)" fill="#00111c"/>
    </g>
    <path id="Trazado_107879" data-name="Trazado 107879" d="M736.229,2178.755a3.241,3.241,0,0,0-3.605,2.346l-9.015,34.732a2.61,2.61,0,0,0,1.751,3.206l-1.478-.249a2.625,2.625,0,0,1-2.137-3.312l9.015-34.731a3.242,3.242,0,0,1,3.605-2.346" transform="translate(12.356 13.292)" fill="#00111c"/>
    <circle id="Elipse_4121" data-name="Elipse 4121" cx="11.576" cy="11.576" r="11.576" transform="translate(757.499 2219.874) rotate(-14.466)" fill="#bb2700"/>
    <g id="Grupo_59571" data-name="Grupo 59571" transform="translate(748.667 2215.74)">
      <path id="Trazado_107880" data-name="Trazado 107880" d="M737.926,2204.032h0a3.078,3.078,0,0,0,3.285,2.792l11.96.048,5.767-5.649-17.71.019A3.079,3.079,0,0,0,737.926,2204.032Z" transform="translate(-734.735 -2200.235)" fill="#bb2700"/>
      <path id="Trazado_107881" data-name="Trazado 107881" d="M741.577,2218.069h0a3.078,3.078,0,0,0,3.285,2.791l9.283.048.065-5.649-9.33.019A3.079,3.079,0,0,0,741.577,2218.069Z" transform="translate(-734.382 -2198.875)" fill="#bb2700"/>
      <g id="Grupo_59567" data-name="Grupo 59567" transform="translate(6.606 15.889)">
        <path id="Trazado_107882" data-name="Trazado 107882" d="M751.84,2221.466l-7.049-.048a3.332,3.332,0,1,1,.021-6.609v1.029a2.315,2.315,0,1,0-.015,4.553l7.051.049Z" transform="translate(-741.04 -2214.808)" fill="#00111c"/>
      </g>
      <path id="Trazado_107883" data-name="Trazado 107883" d="M737.926,2213.39h0a3.077,3.077,0,0,0,3.285,2.791l11.96.049.066-5.649-12.008.018A3.079,3.079,0,0,0,737.926,2213.39Z" transform="translate(-734.735 -2199.328)" fill="#bb2700"/>
      <g id="Grupo_59568" data-name="Grupo 59568" transform="translate(2.64 10.738)">
        <path id="Trazado_107884" data-name="Trazado 107884" d="M752.969,2216.79l-11.793-.048a3.333,3.333,0,1,1,.019-6.611l11.839-.018,0,1.028-11.841.02a2.315,2.315,0,1,0-.015,4.553l11.793.048Z" transform="translate(-737.424 -2210.112)" fill="#00111c"/>
      </g>
      <g id="Grupo_59569" data-name="Grupo 59569" transform="translate(2.64)">
        <path id="Trazado_107885" data-name="Trazado 107885" d="M752.969,2207.473l-11.793-.048a3.332,3.332,0,1,1,.019-6.61l18.544-.492.027,1.028-18.558.492a2.317,2.317,0,1,0-.029,4.554l11.793.048Z" transform="translate(-737.424 -2200.322)" fill="#00111c"/>
      </g>
      <path id="Trazado_107886" data-name="Trazado 107886" d="M735.485,2208.711h0a3.077,3.077,0,0,0,3.285,2.792l14.638.048.066-5.648-14.687.018A3.079,3.079,0,0,0,735.485,2208.711Z" transform="translate(-734.972 -2199.781)" fill="#bb2700"/>
      <g id="Grupo_59570" data-name="Grupo 59570" transform="translate(0 5.606)">
        <path id="Trazado_107887" data-name="Trazado 107887" d="M753.2,2212.111l-14.433-.049a3.332,3.332,0,1,1,.017-6.61l14.481-.019,0,1.029-14.482.018a2.315,2.315,0,1,0-.015,4.554l14.435.048Z" transform="translate(-735.017 -2205.433)" fill="#00111c"/>
      </g>
    </g>
    <g id="Grupo_59583" data-name="Grupo 59583" transform="translate(638.981 2161.953)">
      <g id="Grupo_59573" data-name="Grupo 59573" transform="translate(7.75)">
        <path id="Trazado_107888" data-name="Trazado 107888" d="M672.635,2155.343a11.773,11.773,0,1,0,16.648-.281A11.773,11.773,0,0,0,672.635,2155.343Z" transform="translate(-639.444 -2151.238)" fill="#fff"/>
        <path id="Trazado_107889" data-name="Trazado 107889" d="M660.034,2202.192l-17.951-15.354,12.136-11.959,16.928,16.368Z" transform="translate(-642.083 -2148.998)" fill="#bb2700"/>
        <path id="Trazado_107890" data-name="Trazado 107890" d="M671.378,2195.574l-20.965-18.686,25-22.756,16.928,16.368Z" transform="translate(-641.276 -2151.008)" fill="#fff"/>
        <g id="Grupo_59572" data-name="Grupo 59572" transform="translate(8.368)">
          <path id="Trazado_107891" data-name="Trazado 107891" d="M671.5,2196.586l-21.787-19.418,25.782-23.465.085.081a12.281,12.281,0,0,1,17.454,16.871l.021.02-.248.43Zm-20.251-19.426,20.145,17.953,20.372-24.365.177-.344a11.253,11.253,0,0,0-16.071-15.539l-.354.291-.044-.042Z" transform="translate(-649.712 -2151.284)" fill="#00111c"/>
        </g>
      </g>
      <g id="Grupo_59582" data-name="Grupo 59582" transform="translate(0 29.417)">
        <g id="Grupo_59575" data-name="Grupo 59575" transform="translate(0 0)">
          <circle id="Elipse_4122" data-name="Elipse 4122" cx="11.773" cy="11.773" r="11.773" transform="translate(0 13.567) rotate(-35.182)" fill="#bb2700"/>
          <path id="Trazado_107892" data-name="Trazado 107892" d="M684,2226.361l-14.954,10.186-27.927-36.158,19.461-13.256Z" transform="translate(-634.426 -2177.229)" fill="#bb2700"/>
          <g id="Grupo_59574" data-name="Grupo 59574" transform="translate(25.71 9.64)">
            <rect id="Rectángulo_6322" data-name="Rectángulo 6322" width="1.028" height="45.688" transform="matrix(0.859, -0.513, 0.513, 0.859, 0, 0.527)" fill="#00111c"/>
          </g>
        </g>
        <g id="Grupo_59581" data-name="Grupo 59581" transform="translate(28.852 37.718)">
          <path id="Trazado_107893" data-name="Trazado 107893" d="M692.711,2219.938h0a3.629,3.629,0,0,1-2.156,4.367l-7.723,3.052L672.033,2216l17.346,1.31A3.628,3.628,0,0,1,692.711,2219.938Z" transform="translate(-660.284 -2212.151)" fill="#bb2700"/>
          <circle id="Elipse_4123" data-name="Elipse 4123" cx="11.773" cy="11.773" r="11.773" transform="translate(0 11.296) rotate(-28.668)" fill="#bb2700"/>
          <g id="Grupo_59580" data-name="Grupo 59580" transform="translate(11.369 5.574)">
            <path id="Trazado_107894" data-name="Trazado 107894" d="M695.665,2235.833h0a3.128,3.128,0,0,1-4.369-.353l-8.64-8.563-.089-8.21,12.729,12.744A3.131,3.131,0,0,1,695.665,2235.833Z" transform="translate(-670.633 -2217.463)" fill="#bb2700"/>
            <path id="Trazado_107895" data-name="Trazado 107895" d="M682.77,2242.775h0a3.127,3.127,0,0,1-4.37-.353l-6.713-6.637,4.013-4.112,6.7,6.721A3.131,3.131,0,0,1,682.77,2242.775Z" transform="translate(-671.687 -2216.208)" fill="#bb2700"/>
            <g id="Grupo_59576" data-name="Grupo 59576" transform="translate(1.334 20.903)">
              <path id="Trazado_107896" data-name="Trazado 107896" d="M680.838,2243.6a4.061,4.061,0,0,1-2.831-1.208l-5.1-5.031.722-.733,5.1,5.032a2.363,2.363,0,1,0,3.276-3.3l.726-.728a3.618,3.618,0,0,1,.338,5.076A3.115,3.115,0,0,1,680.838,2243.6Z" transform="translate(-672.903 -2236.63)" fill="#00111c"/>
            </g>
            <path id="Trazado_107897" data-name="Trazado 107897" d="M688.93,2242.2h0a3.127,3.127,0,0,1-4.369-.354l-8.64-8.562,4.013-4.112,8.627,8.646A3.132,3.132,0,0,1,688.93,2242.2Z" transform="translate(-671.277 -2216.449)" fill="#bb2700"/>
            <g id="Grupo_59577" data-name="Grupo 59577" transform="translate(4.462 12.544)">
              <path id="Trazado_107898" data-name="Trazado 107898" d="M687.105,2243.5a4.062,4.062,0,0,1-2.831-1.208l-8.519-8.444.724-.731,8.519,8.444a2.6,2.6,0,0,0,3.611.323,2.131,2.131,0,0,0,.583-1.7,3.067,3.067,0,0,0-.919-1.918l-8.507-8.528.728-.726,8.506,8.527a4.1,4.1,0,0,1,1.218,2.566,3.056,3.056,0,0,1-3.113,3.4Z" transform="translate(-675.755 -2229.009)" fill="#00111c"/>
            </g>
            <g id="Grupo_59578" data-name="Grupo 59578" transform="translate(11.352)">
              <path id="Trazado_107899" data-name="Trazado 107899" d="M693.875,2237.223a4.062,4.062,0,0,1-2.831-1.209l-8.519-8.442.724-.731,8.519,8.443a2.364,2.364,0,1,0,3.276-3.3l-13.008-13.7.746-.707,13,13.694a3.613,3.613,0,0,1,.327,5.065A3.117,3.117,0,0,1,693.875,2237.223Z" transform="translate(-682.037 -2217.573)" fill="#00111c"/>
            </g>
            <path id="Trazado_107900" data-name="Trazado 107900" d="M694.22,2240.762h0a3.128,3.128,0,0,1-4.369-.353l-10.567-10.488,4.015-4.111,10.553,10.57A3.131,3.131,0,0,1,694.22,2240.762Z" transform="translate(-670.951 -2216.775)" fill="#bb2700"/>
            <g id="Grupo_59579" data-name="Grupo 59579" transform="translate(8.151 8.852)">
              <path id="Trazado_107901" data-name="Trazado 107901" d="M692.368,2242.031a4.066,4.066,0,0,1-2.831-1.208l-10.419-10.341.724-.73,10.42,10.341a2.6,2.6,0,0,0,3.61.323,2.128,2.128,0,0,0,.585-1.7,3.066,3.066,0,0,0-.919-1.918l-10.407-10.426.728-.726,10.406,10.424a4.1,4.1,0,0,1,1.216,2.567,3.055,3.055,0,0,1-3.113,3.4Z" transform="translate(-679.118 -2225.643)" fill="#00111c"/>
            </g>
          </g>
        </g>
      </g>
    </g>
    <path id="Trazado_107902" data-name="Trazado 107902" d="M865.677,2301.442h75.776l17.521-117.826H883.2Z" transform="translate(26.305 13.801)" fill="#d4c266"/>
    <g id="Grupo_59584" data-name="Grupo 59584" transform="translate(967.203 2197.348)">
      <rect id="Rectángulo_6323" data-name="Rectángulo 6323" width="119.121" height="1.029" transform="translate(0 117.811) rotate(-81.497)" fill="#00111c"/>
    </g>
    <g id="Grupo_59585" data-name="Grupo 59585" transform="translate(962.789 2197.348)">
      <rect id="Rectángulo_6324" data-name="Rectángulo 6324" width="119.121" height="1.029" transform="translate(0 117.811) rotate(-81.497)" fill="#00111c"/>
    </g>
    <path id="Trazado_107903" data-name="Trazado 107903" d="M926.537,2172.735c-1.491-3.743-5.277-5.964-8.778-8.449-4.979-3.535-5.51-9.516-8.9-13.954-3.594-4.706-10.518-7.147-17.341-6.011-6.351,1.057-11.967,5.219-14.117,10.417-2.283,5.518-.478,11.744-4.236,16.972-3.341,4.648-7.229,8.935-4.813,15.036,4.87,12.3,19.2,17.452,31.52,15.4l2.48-.414a32.434,32.434,0,0,0,17.8-9.267C924.623,2187.806,929.161,2179.323,926.537,2172.735Z" transform="translate(26.492 9.968)" fill="#00111c"/>
    <g id="Grupo_59586" data-name="Grupo 59586" transform="translate(897.131 2269.281)">
      <path id="Trazado_107904" data-name="Trazado 107904" d="M870.371,2295.1h47.307a22.98,22.98,0,0,0,22.98-22.98h0a22.981,22.981,0,0,0-22.98-22.981H870.371Z" transform="translate(-870.371 -2249.135)" fill="#2ab9c4"/>
    </g>
    <g id="Grupo_59587" data-name="Grupo 59587" transform="translate(830.578 2276.873)">
      <path id="Trazado_107905" data-name="Trazado 107905" d="M827.183,2256.057h60.14l4.01,38.369h-64.15Z" transform="translate(-808.001 -2256.057)" fill="#21949d"/>
      <ellipse id="Elipse_4124" data-name="Elipse 4124" cx="19.015" cy="19.026" rx="19.015" ry="19.026" fill="#21949d"/>
      <path id="Trazado_107906" data-name="Trazado 107906" d="M812.893,2293.034l-2.8-16.082,37.489-6.523,3.934,22.6Z" transform="translate(-809.656 -2254.665)" fill="#21949d"/>
    </g>
    <ellipse id="Elipse_4125" data-name="Elipse 4125" cx="19.015" cy="19.026" rx="19.015" ry="19.026" transform="translate(863.515 2277.213)" fill="#2ab9c4"/>
    <path id="Trazado_107907" data-name="Trazado 107907" d="M836.789,2292.988l3.626-22.086,37.55,6.164-2.614,15.922Z" transform="translate(23.507 22.255)" fill="#2ab9c4"/>
    <path id="Trazado_107908" data-name="Trazado 107908" d="M857.212,2256.366h60.14l4.01,38.052h-64.15Z" transform="translate(25.486 20.847)" fill="#2ab9c4"/>
    <g id="Grupo_59588" data-name="Grupo 59588" transform="translate(898.66 2296.479)">
      <rect id="Rectángulo_6325" data-name="Rectángulo 6325" width="17.919" height="1.028" transform="matrix(0.171, -0.985, 0.985, 0.171, 0, 17.656)" fill="#00111c"/>
    </g>
    <g id="Grupo_59589" data-name="Grupo 59589" transform="translate(882.698 2276.698)">
      <rect id="Rectángulo_6326" data-name="Rectángulo 6326" width="64.009" height="1.028" fill="#00111c"/>
    </g>
    <g id="Grupo_59591" data-name="Grupo 59591" transform="translate(901.375 2269.628)">
      <g id="Grupo_59590" data-name="Grupo 59590">
        <path id="Trazado_107909" data-name="Trazado 107909" d="M913.35,2280.639H874.24v-1.028h39.11a15,15,0,0,0,4.857-29.188l.332-.972a16.026,16.026,0,0,1-5.189,31.188Z" transform="translate(-874.24 -2249.451)" fill="#00111c"/>
      </g>
    </g>
    <g id="Grupo_59595" data-name="Grupo 59595" transform="translate(852.352 2207.883)">
      <g id="Grupo_59592" data-name="Grupo 59592" transform="translate(0 5.023)">
        <path id="Trazado_107910" data-name="Trazado 107910" d="M854.931,2208.583a11.545,11.545,0,1,0,12.223-10.824A11.545,11.545,0,0,0,854.931,2208.583Z" transform="translate(-827.089 -2197.738)" fill="#fff"/>
        <path id="Trazado_107911" data-name="Trazado 107911" d="M836.16,2238.891l-6.614-5.715,18.285-19.735,17.158,15.81-7.778,8.443A15.153,15.153,0,0,1,836.16,2238.891Z" transform="translate(-829.546 -2196.217)" fill="#bb2700"/>
        <rect id="Rectángulo_6327" data-name="Rectángulo 6327" width="23.332" height="22.452" transform="matrix(0.735, 0.678, -0.678, 0.735, 31.181, 3.227)" fill="#fff"/>
      </g>
      <path id="Trazado_107912" data-name="Trazado 107912" d="M869.488,2259.729l-5.309-44.778,1.7-16.978,32.883-4.814,33.4.794-.348,62.18Z" transform="translate(-826.192 -2193.158)" fill="#fff"/>
      <g id="Grupo_59593" data-name="Grupo 59593" transform="translate(37.407 17.663)">
        <rect id="Rectángulo_6328" data-name="Rectángulo 6328" width="1.028" height="49.146" transform="translate(0 0.113) rotate(-6.284)" fill="#00111c"/>
      </g>
      <g id="Grupo_59594" data-name="Grupo 59594" transform="translate(105.115 16.697)">
        <rect id="Rectángulo_6329" data-name="Rectángulo 6329" width="46.276" height="1.028" transform="translate(0 46.276) rotate(-89.884)" fill="#00111c"/>
      </g>
    </g>
    <g id="Grupo_59607" data-name="Grupo 59607" transform="translate(859.15 2208.623)">
      <g id="Grupo_59597" data-name="Grupo 59597" transform="translate(61.68)">
        <path id="Trazado_107913" data-name="Trazado 107913" d="M891.977,2224.984l17.244,18.71,20.426-22.5-18.573-17.033Z" transform="translate(-891.977 -2192.833)" fill="#bb2700"/>
        <path id="Trazado_107914" data-name="Trazado 107914" d="M900.552,2214.5l20,18.119,17.469-20.536-19.15-17.562Z" transform="translate(-891.146 -2193.766)" fill="#fff"/>
        <circle id="Elipse_4126" data-name="Elipse 4126" cx="11.545" cy="11.545" r="11.545" transform="translate(25.876)" fill="#fff"/>
        <g id="Grupo_59596" data-name="Grupo 59596" transform="translate(9.013 0.415)">
          <path id="Trazado_107915" data-name="Trazado 107915" d="M920.243,2233.032l-20.05-18.444,18.334-20.376.765.687-17.655,19.62,19.3,17.757Z" transform="translate(-900.193 -2194.212)" fill="#00111c"/>
        </g>
      </g>
      <g id="Grupo_59603" data-name="Grupo 59603" transform="translate(0 19.175)">
        <path id="Trazado_107916" data-name="Trazado 107916" d="M843.21,2214.927h0a3.377,3.377,0,0,0,.947,4.432l6.265,4.518,12.335-7.776-15.941-2.785A3.375,3.375,0,0,0,843.21,2214.927Z" transform="translate(-835.065 -2211.128)" fill="#bb2700"/>
        <circle id="Elipse_4127" data-name="Elipse 4127" cx="10.952" cy="10.952" r="10.952" transform="translate(6.158 19.009) rotate(-60.207)" fill="#bb2700"/>
        <g id="Grupo_59602" data-name="Grupo 59602" transform="translate(0 3.821)">
          <path id="Trazado_107917" data-name="Trazado 107917" d="M836.562,2228.331h0a2.91,2.91,0,0,0,4.021.68l9.749-5.745,1.957-7.382-14.391,8.581A2.914,2.914,0,0,0,836.562,2228.331Z" transform="translate(-835.695 -2214.693)" fill="#bb2700"/>
          <path id="Trazado_107918" data-name="Trazado 107918" d="M846.32,2237.621h0a2.91,2.91,0,0,0,4.021.68l7.572-4.45-2.68-4.624-7.577,4.528A2.914,2.914,0,0,0,846.32,2237.621Z" transform="translate(-834.75 -2213.4)" fill="#bb2700"/>
          <g id="Grupo_59598" data-name="Grupo 59598" transform="translate(10.67 19.969)">
            <path id="Trazado_107919" data-name="Trazado 107919" d="M848.567,2238.99a3.074,3.074,0,0,1-2.7-1.436,2.959,2.959,0,0,1-.224-2.494,3.858,3.858,0,0,1,1.7-2.057l.524.885a2.163,2.163,0,1,0,2.163,3.661l5.755-3.369.521.886-5.754,3.37A3.928,3.928,0,0,1,848.567,2238.99Z" transform="translate(-845.471 -2233.004)" fill="#00111c"/>
          </g>
          <path id="Trazado_107920" data-name="Trazado 107920" d="M841.089,2235.7h0a2.91,2.91,0,0,0,4.021.681l9.748-5.745-2.679-4.626-9.755,5.823A2.913,2.913,0,0,0,841.089,2235.7Z" transform="translate(-835.257 -2213.712)" fill="#bb2700"/>
          <g id="Grupo_59599" data-name="Grupo 59599" transform="translate(4.962 11.974)">
            <path id="Trazado_107921" data-name="Trazado 107921" d="M843.365,2237.441a3.075,3.075,0,0,1-2.7-1.436,2.955,2.955,0,0,1-.224-2.492,3.844,3.844,0,0,1,1.7-2.057l9.618-5.742.528.883-9.621,5.742A2.163,2.163,0,1,0,844.83,2236l9.612-5.666.523.887-9.613,5.665A3.938,3.938,0,0,1,843.365,2237.441Z" transform="translate(-840.267 -2225.715)" fill="#00111c"/>
          </g>
          <g id="Grupo_59600" data-name="Grupo 59600">
            <path id="Trazado_107922" data-name="Trazado 107922" d="M838.837,2230.153a3.075,3.075,0,0,1-2.7-1.436,3.4,3.4,0,0,1,1.476-4.55l14.84-9.369.548.87-14.851,9.377a2.164,2.164,0,1,0,2.15,3.669l9.613-5.665.523.886-9.613,5.665A3.938,3.938,0,0,1,838.837,2230.153Z" transform="translate(-835.744 -2214.798)" fill="#00111c"/>
          </g>
          <path id="Trazado_107923" data-name="Trazado 107923" d="M836.84,2233.187h0a2.91,2.91,0,0,0,4.021.681l11.926-7.041-2.68-4.625-11.932,7.118A2.915,2.915,0,0,0,836.84,2233.187Z" transform="translate(-835.668 -2214.081)" fill="#bb2700"/>
          <g id="Grupo_59601" data-name="Grupo 59601" transform="translate(0.332 7.802)">
            <path id="Trazado_107924" data-name="Trazado 107924" d="M839.142,2234.914a3.076,3.076,0,0,1-2.7-1.437,2.959,2.959,0,0,1-.224-2.492,3.847,3.847,0,0,1,1.7-2.057l11.765-7.018.528.882-11.767,7.02a2.828,2.828,0,0,0-1.253,1.5,1.943,1.943,0,0,0,.135,1.639,2.38,2.38,0,0,0,3.28.522l11.76-6.942.522.885-11.759,6.942A3.94,3.94,0,0,1,839.142,2234.914Z" transform="translate(-836.047 -2221.911)" fill="#00111c"/>
          </g>
        </g>
      </g>
      <g id="Grupo_59606" data-name="Grupo 59606" transform="translate(22.744 23.787)">
        <g id="Grupo_59605" data-name="Grupo 59605" transform="translate(0 0)">
          <circle id="Elipse_4128" data-name="Elipse 4128" cx="11.984" cy="11.984" r="11.984" transform="matrix(0.884, -0.467, 0.467, 0.884, 31.256, 13.734)" fill="#bb2700"/>
          <path id="Trazado_107925" data-name="Trazado 107925" d="M860.145,2215.982l-3.665,18.049,44.941,11.958,4.77-23.488Z" transform="translate(-856.48 -2215.474)" fill="#bb2700"/>
          <g id="Grupo_59604" data-name="Grupo 59604" transform="translate(3.593)">
            <rect id="Rectángulo_6330" data-name="Rectángulo 6330" width="1.028" height="46.505" transform="translate(0 1.018) rotate(-81.943)" fill="#00111c"/>
          </g>
        </g>
      </g>
    </g>
    <g id="Grupo_59623" data-name="Grupo 59623" transform="translate(904.236 2156.281)">
      <path id="Trazado_107926" data-name="Trazado 107926" d="M876.953,2165.926a17.894,17.894,0,1,0,15.873-19.708A17.892,17.892,0,0,0,876.953,2165.926Z" transform="translate(-876.849 -2146.114)" fill="#00111c"/>
      <g id="Grupo_59621" data-name="Grupo 59621" transform="translate(0.8 2.248)">
        <g id="Grupo_59608" data-name="Grupo 59608" transform="translate(7.821 29.001)">
          <rect id="Rectángulo_6331" data-name="Rectángulo 6331" width="15.448" height="22.784" transform="translate(15.446 23.039) rotate(-179.044)" fill="#bb2700"/>
          <path id="Trazado_107927" data-name="Trazado 107927" d="M884.777,2192.845l15.751-17.983-15.446-.258Z" transform="translate(-884.702 -2174.603)" fill="#00111c"/>
        </g>
        <g id="Grupo_59620" data-name="Grupo 59620">
          <path id="Trazado_107928" data-name="Trazado 107928" d="M878.028,2162.308c-1.526,9.234.373,22.549,12.876,22.757,11.187.187,14.694-12.748,14.85-22.1S881.685,2140.178,878.028,2162.308Z" transform="translate(-877.578 -2147.958)" fill="#bb2700"/>
          <g id="Grupo_59611" data-name="Grupo 59611" transform="translate(2.501 16.975)">
            <g id="Grupo_59609" data-name="Grupo 59609">
              <path id="Trazado_107929" data-name="Trazado 107929" d="M882.193,2166.379c-.6-.011-1.1.713-1.115,1.615s.46,1.641,1.062,1.65,1.1-.713,1.115-1.614S882.795,2166.389,882.193,2166.379Z" transform="translate(-879.74 -2163.373)" fill="#00111c"/>
              <path id="Trazado_107930" data-name="Trazado 107930" d="M879.858,2164.747l4.971.083A3.263,3.263,0,0,0,879.858,2164.747Z" transform="translate(-879.858 -2163.639)" fill="#00111c"/>
            </g>
            <g id="Grupo_59610" data-name="Grupo 59610" transform="translate(9.912 0.165)">
              <path id="Trazado_107931" data-name="Trazado 107931" d="M891.232,2166.53c-.6-.011-1.1.712-1.115,1.615s.459,1.641,1.061,1.651,1.1-.713,1.117-1.615S891.833,2166.54,891.232,2166.53Z" transform="translate(-888.777 -2163.524)" fill="#00111c"/>
              <path id="Trazado_107932" data-name="Trazado 107932" d="M888.9,2164.9l4.971.083A3.263,3.263,0,0,0,888.9,2164.9Z" transform="translate(-888.895 -2163.79)" fill="#00111c"/>
            </g>
          </g>
          <g id="Grupo_59616" data-name="Grupo 59616" transform="translate(6.685 21.123)">
            <g id="Grupo_59613" data-name="Grupo 59613">
              <g id="Grupo_59612" data-name="Grupo 59612">
                <path id="Trazado_107933" data-name="Trazado 107933" d="M886.189,2173.129c-1.074-.26-2.5-.726-2.516-1.766-.012-.823.922-1.389,1.554-1.652l-.084-2.252,1.028-.038.114,3.037-.395.108c-.593.16-1.192.619-1.19.783,0,0,.107.387,1.732.78Z" transform="translate(-883.673 -2167.421)" fill="#00111c"/>
              </g>
            </g>
            <g id="Grupo_59615" data-name="Grupo 59615" transform="translate(0.37 5.598)">
              <g id="Grupo_59614" data-name="Grupo 59614">
                <path id="Trazado_107934" data-name="Trazado 107934" d="M885.7,2174.42q-.847,0-1.686-.084l.1-1.024a15.962,15.962,0,0,0,6.782-.788l.337.973A17.065,17.065,0,0,1,885.7,2174.42Z" transform="translate(-884.01 -2172.525)" fill="#00111c"/>
              </g>
            </g>
          </g>
          <g id="Grupo_59619" data-name="Grupo 59619" transform="translate(20.715 16.703)">
            <circle id="Elipse_4129" data-name="Elipse 4129" cx="4.314" cy="4.314" r="4.314" transform="matrix(0.721, -0.693, 0.693, 0.721, 0, 5.976)" fill="#bb2700"/>
            <g id="Grupo_59618" data-name="Grupo 59618" transform="translate(5.544 3.193)">
              <g id="Grupo_59617" data-name="Grupo 59617">
                <path id="Trazado_107935" data-name="Trazado 107935" d="M902.029,2171.75l-.511-.892c.845-.485,1.007-.975.669-2.018a2.09,2.09,0,0,1,1.259-2.537l.424.937c-.039.018-.975.452-.7,1.283A2.4,2.4,0,0,1,902.029,2171.75Z" transform="translate(-901.518 -2166.303)" fill="#00111c"/>
              </g>
            </g>
          </g>
          <path id="Trazado_107936" data-name="Trazado 107936" d="M906.284,2155.445a18.188,18.188,0,0,0-10.75-7.082c-6.124-1.269-14.019,3.941-14.019,3.941,6.748,9.558,16.989,15.216,28.564,16.916C909.975,2164.508,909.076,2159.241,906.284,2155.445Z" transform="translate(-877.197 -2148.164)" fill="#00111c"/>
        </g>
      </g>
      <g id="Grupo_59622" data-name="Grupo 59622" transform="translate(3.017 47.08)">
        <path id="Trazado_107937" data-name="Trazado 107937" d="M893.687,2196.02l-8.635-6.266-5.453,7.883,9.551,4.941Z" transform="translate(-879.599 -2188.967)" fill="#fff"/>
        <path id="Trazado_107938" data-name="Trazado 107938" d="M891.636,2196.134l8.1-7.1,6.06,7.31-9.119,5.87Z" transform="translate(-878.433 -2189.037)" fill="#fff"/>
      </g>
    </g>
    <g id="Grupo_59626" data-name="Grupo 59626" transform="translate(775.133 2252.783)">
      <g id="Grupo_59625" data-name="Grupo 59625" transform="translate(0 0)">
        <g id="Grupo_59624" data-name="Grupo 59624" transform="translate(15.729 4.88)">
          <path id="Trazado_107939" data-name="Trazado 107939" d="M773.486,2297.46l5.155-58.918h9.431l-6.6,58.918Z" transform="translate(-773.486 -2238.542)" fill="#00111c"/>
          <path id="Trazado_107940" data-name="Trazado 107940" d="M879.774,2297.46l-6.6-58.918H882.6l5.155,58.918Z" transform="translate(-763.831 -2238.542)" fill="#00111c"/>
        </g>
        <rect id="Rectángulo_6332" data-name="Rectángulo 6332" width="155.384" height="7.319" transform="translate(155.384 7.319) rotate(180)" fill="#004f93"/>
      </g>
    </g>
    <path id="Trazado_107941" data-name="Trazado 107941" d="M835.082,2184.49l11.347,47.885,30.978,1.824.685,4.988H778.548l-12.506-54.7Z" transform="translate(16.655 13.885)" fill="#f9e478"/>
    <g id="Grupo_59627" data-name="Grupo 59627" transform="translate(815.068 2217.009)">
      <path id="Trazado_107942" data-name="Trazado 107942" d="M803.346,2215.708c-3.609,0-7.058-3.155-7.691-7.034a6.5,6.5,0,0,1,1.311-5.291,5.443,5.443,0,0,1,4.226-1.905c3.609,0,7.059,3.155,7.692,7.032a6.511,6.511,0,0,1-1.311,5.292A5.449,5.449,0,0,1,803.346,2215.708Zm-2.154-13.2a4.429,4.429,0,0,0-3.443,1.544,5.482,5.482,0,0,0-1.079,4.46c.555,3.4,3.551,6.17,6.677,6.17a4.433,4.433,0,0,0,3.443-1.543,5.482,5.482,0,0,0,1.079-4.462C807.313,2205.274,804.319,2202.506,801.192,2202.506Z" transform="translate(-795.555 -2201.478)" fill="#00111c"/>
    </g>
    <g id="Grupo_59628" data-name="Grupo 59628" transform="translate(851.237 2198.256)">
      <path id="Trazado_107943" data-name="Trazado 107943" d="M871.324,2234.722l-31.36-1.846-11.435-48.256,1-.238,11.259,47.513,30.6,1.8Z" transform="translate(-828.529 -2184.381)" fill="#00111c"/>
    </g>
    <g id="Grupo_59629" data-name="Grupo 59629" transform="translate(745.259 2086.663)">
      <path id="Trazado_107944" data-name="Trazado 107944" d="M748.882,2152.288V2139.98h-2.07a14.919,14.919,0,0,1-14.9-14.9v-27.533a14.919,14.919,0,0,1,14.9-14.9h27.534a14.92,14.92,0,0,1,14.9,14.9v27.533a14.919,14.919,0,0,1-14.9,14.9h-7.619Zm-2.07-68.617a13.888,13.888,0,0,0-13.873,13.873v27.533a13.89,13.89,0,0,0,13.873,13.875h3.1v11.378l16.5-11.378h7.938a13.891,13.891,0,0,0,13.874-13.875v-27.533a13.889,13.889,0,0,0-13.874-13.873Z" transform="translate(-731.91 -2082.642)" fill="#855db5"/>
    </g>
    <path id="Trazado_107945" data-name="Trazado 107945" d="M770.945,2109.09l-19.317,13.15v-24.421Z" transform="translate(15.259 5.49)" fill="#f9e478"/>
  </g>
</svg>
